<svg xmlns="http://www.w3.org/2000/svg" width="97.9" height="102.8" viewBox="0 0 97.9 102.8"><style type="text/css">.st0{fill:#FFB500;stroke:#FFFFFF;stroke-width:2.7728;stroke-miterlimit:10;}</style><path class="st0" d="M31 101.4l-7.4-12.7 7.4-12.7h14.6l7.3 12.7-7.3 12.7zm21.3-12.7l-7.3-12.7 7.3-12.6h14.7l7.3 12.6-7.3 12.7zm0-48.3l-7.3-12.7 7.3-12.7h14.7l7.3 12.7-7.3 12.7zm22.1 60.9l-7.4-12.7 7.4-12.6h14.6l7.3 12.6-7.3 12.7zm-43.4-25.3l-7.4-12.7 7.4-12.7h14.6l7.3 12.7-7.3 12.7zm0-49.3l-7.4-12.6 7.4-12.7h14.6l7.3 12.7-7.3 12.6zm-22.1 61.9l-7.3-12.6 7.3-12.7h14.7l7.3 12.7-7.3 12.6z"/></svg>