<?xml version="1.0" encoding="utf-8"?>
<!-- Generator: Adobe Illustrator 19.1.0, SVG Export Plug-In . SVG Version: 6.00 Build 0)  -->
<!DOCTYPE svg PUBLIC "-//W3C//DTD SVG 1.1//EN" "http://www.w3.org/Graphics/SVG/1.1/DTD/svg11.dtd">
<svg version="1.1" id="Layer_1" xmlns="http://www.w3.org/2000/svg" xmlns:xlink="http://www.w3.org/1999/xlink" x="0px" y="0px"
	 width="143.3px" height="31.2px" viewBox="0 0 143.3 31.2" style="enable-background:new 0 0 143.3 31.2;" xml:space="preserve">
<style type="text/css">
	.st0{fill:#231F20;}
	.st1{fill:#CA0000;stroke:#CA0000;stroke-width:1.765;stroke-linejoin:round;stroke-miterlimit:10;}
	.st2{fill:#F0F0F0;}
	.st3{fill:#CA0000;}
</style>
<g>
	<path class="st0" d="M58.7,22.6h-2.6v-5.3H51v5.3h-2.6V9.8H51v5.5h5.2V9.8h2.6V22.6z"/>
	<path class="st0" d="M60.5,17.8c0-1.4,0.4-2.6,1.2-3.5s1.9-1.4,3.3-1.4c1.4,0,2.5,0.5,3.3,1.4s1.2,2.1,1.2,3.5v0.2
		c0,1.4-0.4,2.6-1.2,3.5s-1.9,1.3-3.3,1.3c-1.4,0-2.5-0.4-3.3-1.3s-1.2-2.1-1.2-3.5V17.8z M63.1,17.9c0,0.9,0.2,1.6,0.5,2.1
		c0.3,0.5,0.8,0.8,1.5,0.8c0.7,0,1.1-0.3,1.5-0.8c0.3-0.5,0.5-1.2,0.5-2.1v-0.2c0-0.8-0.2-1.5-0.5-2.1c-0.3-0.5-0.8-0.8-1.5-0.8
		c-0.7,0-1.1,0.3-1.5,0.8c-0.3,0.5-0.5,1.2-0.5,2.1V17.9z"/>
	<path class="st0" d="M73.4,13.1l0.1,1.4c0.3-0.5,0.7-0.9,1.2-1.1s1-0.4,1.6-0.4c1,0,1.7,0.3,2.2,0.9s0.8,1.5,0.8,2.8v5.9h-2.6v-5.9
		c0-0.6-0.1-1.1-0.4-1.4s-0.6-0.4-1.2-0.4c-0.3,0-0.6,0.1-0.9,0.2s-0.5,0.3-0.7,0.6v6.9H71v-9.5H73.4z"/>
	<path class="st0" d="M85.5,22.8c-1.4,0-2.5-0.4-3.3-1.3s-1.2-2-1.2-3.3v-0.4c0-1.4,0.4-2.6,1.2-3.5c0.8-0.9,1.8-1.4,3.1-1.4
		c1.3,0,2.3,0.4,3,1.2s1.1,1.8,1.1,3.1v1.4h-5.7l0,0.1c0,0.6,0.3,1.1,0.6,1.5c0.4,0.4,0.9,0.6,1.5,0.6c0.6,0,1-0.1,1.4-0.2
		s0.8-0.3,1.2-0.5l0.7,1.6c-0.4,0.3-0.9,0.6-1.5,0.8S86.2,22.8,85.5,22.8z M85.2,14.9c-0.5,0-0.8,0.2-1.1,0.5s-0.4,0.8-0.5,1.4l0,0
		h3.1v-0.2c0-0.5-0.1-1-0.4-1.3C86.1,15.1,85.7,14.9,85.2,14.9z"/>
	<path class="st0" d="M94.1,18.6l0.1,0.5h0.1l1.8-6h2.8L94.9,24c-0.3,0.7-0.6,1.3-1.1,1.7s-1.2,0.7-2.1,0.7c-0.2,0-0.4,0-0.6-0.1
		c-0.2,0-0.4-0.1-0.7-0.1l0.3-1.9c0.1,0,0.2,0,0.2,0s0.2,0,0.2,0c0.4,0,0.7-0.1,1-0.3s0.4-0.5,0.5-0.8l0.3-0.7l-3.4-9.5h2.8
		L94.1,18.6z"/>
	<path class="st0" d="M103.7,20.8c0.5,0,0.8-0.1,1.1-0.4s0.4-0.6,0.4-1.1h2.3l0,0.1c0,1-0.3,1.8-1.1,2.4c-0.7,0.6-1.7,1-2.8,1
		c-1.4,0-2.5-0.4-3.3-1.3s-1.2-2-1.2-3.5v-0.3c0-1.4,0.4-2.6,1.1-3.5c0.8-0.9,1.9-1.4,3.3-1.4c1.2,0,2.1,0.3,2.8,1
		c0.7,0.7,1.1,1.5,1,2.6l0,0.1h-2.3c0-0.5-0.1-0.9-0.4-1.2s-0.6-0.5-1.1-0.5c-0.7,0-1.2,0.3-1.4,0.8c-0.3,0.5-0.4,1.2-0.4,2V18
		c0,0.8,0.1,1.5,0.4,2C102.5,20.6,103,20.8,103.7,20.8z"/>
	<path class="st0" d="M108.6,17.8c0-1.4,0.4-2.6,1.2-3.5s1.9-1.4,3.3-1.4c1.4,0,2.5,0.5,3.3,1.4s1.2,2.1,1.2,3.5v0.2
		c0,1.4-0.4,2.6-1.2,3.5s-1.9,1.3-3.3,1.3c-1.4,0-2.5-0.4-3.3-1.3s-1.2-2.1-1.2-3.5V17.8z M111.2,17.9c0,0.9,0.2,1.6,0.5,2.1
		c0.3,0.5,0.8,0.8,1.5,0.8c0.7,0,1.1-0.3,1.5-0.8c0.3-0.5,0.5-1.2,0.5-2.1v-0.2c0-0.8-0.2-1.5-0.5-2.1c-0.3-0.5-0.8-0.8-1.5-0.8
		c-0.7,0-1.1,0.3-1.5,0.8c-0.3,0.5-0.5,1.2-0.5,2.1V17.9z"/>
	<path class="st0" d="M121.6,13.1l0.1,1.3c0.3-0.5,0.7-0.8,1.1-1.1c0.5-0.2,1-0.4,1.6-0.4c0.6,0,1.1,0.1,1.6,0.4s0.8,0.7,1,1.2
		c0.3-0.5,0.7-0.9,1.1-1.2s1-0.4,1.7-0.4c0.9,0,1.7,0.3,2.2,1c0.5,0.6,0.8,1.6,0.8,3v5.8h-2.6v-5.8c0-0.7-0.1-1.2-0.4-1.5
		s-0.6-0.4-1-0.4c-0.4,0-0.7,0.1-0.9,0.2c-0.3,0.2-0.5,0.4-0.6,0.7c0,0.1,0,0.2,0,0.3c0,0.1,0,0.2,0,0.2v6.3h-2.6v-5.8
		c0-0.7-0.1-1.2-0.4-1.5s-0.6-0.4-1.1-0.4c-0.3,0-0.6,0.1-0.9,0.2c-0.3,0.1-0.5,0.3-0.6,0.6v7h-2.6v-9.5H121.6z"/>
	<path class="st0" d="M143.3,18.1c0,1.4-0.3,2.6-0.9,3.4s-1.5,1.3-2.7,1.3c-0.6,0-1-0.1-1.4-0.3c-0.4-0.2-0.8-0.6-1.1-1l-0.2,1.2
		h-2.2V8.9h2.6v5.2c0.3-0.4,0.6-0.7,1-0.9c0.4-0.2,0.8-0.3,1.3-0.3c1.2,0,2.1,0.5,2.8,1.4s0.9,2.1,0.9,3.6V18.1z M140.8,17.9
		c0-0.9-0.1-1.7-0.4-2.2c-0.3-0.5-0.7-0.8-1.4-0.8c-0.4,0-0.7,0.1-1,0.3s-0.5,0.4-0.7,0.7v4c0.2,0.3,0.4,0.5,0.7,0.7
		c0.3,0.2,0.6,0.2,1,0.2c0.7,0,1.1-0.2,1.4-0.7c0.3-0.5,0.4-1.1,0.4-2V17.9z"/>
</g>
<g>
	<polygon class="st1" points="9.4,30.3 0.9,15.6 9.4,0.9 26.4,0.9 34.9,15.6 26.4,30.3 	"/>
	<circle class="st2" cx="17.9" cy="15.6" r="12.9"/>
	<circle class="st3" cx="17.9" cy="15.6" r="5.6"/>
</g>
</svg>
