<?xml version="1.0" encoding="utf-8"?>
<!-- Generator: Adobe Illustrator 18.0.0, SVG Export Plug-In . SVG Version: 6.00 Build 0)  -->
<!DOCTYPE svg PUBLIC "-//W3C//DTD SVG 1.1//EN" "http://www.w3.org/Graphics/SVG/1.1/DTD/svg11.dtd">
<svg version="1.1" id="Layer_1" xmlns="http://www.w3.org/2000/svg" xmlns:xlink="http://www.w3.org/1999/xlink" x="0px" y="0px"
	 width="161px" height="56.6px" viewBox="-138 233.3 161 56.6" enable-background="new -138 233.3 161 56.6" xml:space="preserve">
<path fill="#767676" d="M-32.1,278.6c-5.4,0-9.9-4.4-9.9-9.9v-3.3c0-5.5,4.4-9.9,9.9-9.9h7.8v-2.9c0-3-2.4-5.4-5.4-5.4h-2.4
	c-2.1,0-4,1.2-4.9,3.1c-0.1,0.2-0.2,0.3-0.4,0.4h-0.2c-0.1,0-0.2,0-0.3-0.1l-2.7-1.5c-0.3-0.2-0.4-0.6-0.3-0.9
	c1.7-3.4,5.1-5.5,8.8-5.5h2.4c5.4,0,9.9,4.4,9.9,9.9v16.1c0,5.4-4.4,9.9-9.9,9.9L-32.1,278.6L-32.1,278.6z M-32.1,260
	c-3,0-5.4,2.4-5.4,5.4v3.4c0,3,2.4,5.4,5.4,5.4h2.4c3,0,5.4-2.4,5.4-5.4V260H-32.1z M10.7,278.6c-2.7,0-5.1-1-7-3
	c-1.9-1.9-2.9-4.6-2.9-7.5v-16c0-2.4,1.1-4.7,2.9-6.5c1.9-1.8,4.4-2.8,7-2.8h2.4c5.4,0,9.9,4.4,9.9,9.9v2.6c0,5.5-4.4,9.9-9.9,9.9
	H5.3v3.5c0,3,2.4,5.4,5.4,5.4h2.4c2,0,3.8-1.1,4.7-2.9c0.1-0.2,0.2-0.3,0.4-0.3h0.2c0.1,0,0.2,0,0.3,0.1l2.7,1.5
	c0.3,0.2,0.4,0.6,0.3,0.9c-1.7,3.2-5,5.1-8.6,5.1L10.7,278.6L10.7,278.6z M10.7,247.2c-3,0-5.4,2.4-5.4,5.4v8.2h7.8
	c3,0,5.4-2.4,5.4-5.4v-2.8c0-3-2.4-5.4-5.4-5.4H10.7L10.7,247.2z M-58.7,289.8c-3.6,0-6.9-2-8.7-5.2c-0.2-0.3-0.1-0.7,0.3-0.9
	l2.7-1.5c0.1-0.1,0.2-0.1,0.3-0.1h0.2c0.2,0.1,0.3,0.2,0.4,0.3c0.9,1.8,2.8,2.9,4.8,2.9h2.4c3,0,5.4-2.4,5.4-5.4v-3l-0.2,0.1
	c-1.6,1-3.4,1.5-5.2,1.5h-2.4c-5.4,0-9.9-4.4-9.9-9.9v-16c0-5.4,4.4-9.9,9.9-9.9h2.4c5.4,0,9.9,4.4,9.9,9.9V280
	c0,5.4-4.4,9.9-9.9,9.9L-58.7,289.8L-58.7,289.8L-58.7,289.8z M-58.7,247.2c-3,0-5.4,2.4-5.4,5.4v16.1c0,3,2.4,5.4,5.4,5.4h2.4
	c3,0,5.4-2.4,5.4-5.4v-16.1c0-3-2.4-5.4-5.4-5.4C-56.3,247.2-58.7,247.2-58.7,247.2z M-111.8,278.6c-2.7,0-5.1-1-7-3
	c-1.9-1.9-2.9-4.6-2.9-7.5v-16c0-2.4,1.1-4.7,2.9-6.5c1.9-1.8,4.4-2.8,7-2.8h2.4c5.4,0,9.9,4.4,9.9,9.9v2.6c0,5.5-4.4,9.9-9.9,9.9
	h-7.8v3.5c0,3,2.4,5.4,5.4,5.4h2.4c1.8,0,3.5-0.9,4.5-2.5c0.1-0.2,0.4-0.3,0.6-0.3c0.1,0,0.2,0,0.3,0.1l2.7,1.5
	c0.2,0.1,0.3,0.2,0.3,0.4c0,0.2,0,0.4-0.1,0.5c-1.8,3-5,4.7-8.4,4.7L-111.8,278.6L-111.8,278.6z M-111.8,247.2c-3,0-5.4,2.4-5.4,5.4
	v8.2h7.8c3,0,5.4-2.4,5.4-5.4v-2.8c0-3-2.4-5.4-5.4-5.4H-111.8L-111.8,247.2z M-5.6,278.6c-5.4,0-9.9-4.4-9.9-9.9v-31.6
	c0-1.1,0.9-2,2-2h1.7c0.4,0,0.7,0.3,0.7,0.7v7h6.7c0.4,0,0.7,0.3,0.7,0.7v3.1c0,0.4-0.3,0.7-0.7,0.7h-6.7v21.5c0,3,2.4,5.4,5.4,5.4
	h2.8c0.4,0,0.7,0.3,0.7,0.7v3.1c0,0.4-0.3,0.7-0.7,0.7h-2.7C-5.6,278.7-5.6,278.6-5.6,278.6z M-85.3,278.6c-5.4,0-9.8-4.4-9.8-9.9
	v-16.1c0-5.4,4.4-9.9,9.8-9.9h2.4c1.8,0,3.6,0.5,5.2,1.5l0.2,0.1v-9c0-1.1,0.9-2,2-2h1.8c0.4,0,0.7,0.3,0.7,0.7v34.8
	c0,5.4-4.4,9.9-9.8,9.9h-2.5C-85.3,278.7-85.3,278.6-85.3,278.6z M-85.3,247.2c-3,0-5.4,2.4-5.4,5.4v16.1c0,3,2.4,5.4,5.4,5.4h2.4
	c3,0,5.4-2.4,5.4-5.4v-16.1c0-3-2.4-5.4-5.4-5.4L-85.3,247.2L-85.3,247.2z M-137.3,278.6c-0.4,0-0.7-0.3-0.7-0.7v-25.3
	c0-5.4,4.4-9.9,9.9-9.9h4.2c0.4,0,0.7,0.3,0.7,0.7v1.8c0,1.1-0.9,2-2,2h-2.9c-3,0-5.4,2.4-5.4,5.4v25.3c0,0.4-0.3,0.7-0.7,0.7
	H-137.3z"/>
</svg>
