<?xml version="1.0" encoding="utf-8"?>
<!-- Generator: Adobe Illustrator 20.1.0, SVG Export Plug-In . SVG Version: 6.00 Build 0)  -->
<svg version="1.1" id="Layer_1" xmlns="http://www.w3.org/2000/svg" xmlns:xlink="http://www.w3.org/1999/xlink" x="0px" y="0px"
	 viewBox="0 0 831.5 152" style="enable-background:new 0 0 831.5 152;" xml:space="preserve">
<style type="text/css">
	.st0{fill:#EBEBEB;}
	.st1{fill:#373737;}
	.st2{fill:#CC0000;}
	.st3{fill:#FFFFFF;}
	.st4{fill:#336DC2;}
	.st5{fill:#B6B6B6;}
	.st6{fill:#DCDCDC;}
	.st7{fill:#1AAC1E;}
	.st8{fill:#767676;}
</style>
<g>
	<g>
		<g>
			<rect class="st0" width="220" height="152"/>
			<rect class="st1" width="220" height="22"/>
			<rect class="st2" width="22" height="22"/>
		</g>
		<rect x="11" y="34.1" class="st3" width="196" height="71.9"/>
		<rect x="11" y="115.7" class="st3" width="196" height="23.7"/>
		<path class="st4" d="M89.3,87.9H59.6c-0.8,0-1.4-0.6-1.4-1.4V75.4c0-0.8,0.6-1.4,1.4-1.4h29.7c0.8,0,1.4,0.6,1.4,1.4v11.1
			C90.7,87.3,90.1,87.9,89.3,87.9z"/>
		<path class="st1" d="M148.1,69.6H59.6c-1.1,0-2-0.9-2-2V56.5c0-1.1,0.9-2,2-2h88.5c1.1,0,2,0.9,2,2v11.1
			C150.1,68.7,149.2,69.6,148.1,69.6z M59.6,55.6c-0.4,0-0.8,0.4-0.8,0.8v11.1c0,0.4,0.4,0.8,0.8,0.8h88.5c0.4,0,0.8-0.4,0.8-0.8
			V56.5c0-0.4-0.4-0.8-0.8-0.8H59.6z"/>
	</g>
	<g>
		<g>
			<rect x="305.7" class="st0" width="220" height="152"/>
			<rect x="305.7" class="st1" width="220" height="22"/>
			<rect x="305.7" class="st2" width="22" height="22"/>
		</g>
		<rect x="316.7" y="34.1" class="st3" width="196" height="103"/>
		<path class="st4" d="M361.3,122.2h-29.7c-0.8,0-1.4-0.6-1.4-1.4v-11.1c0-0.8,0.6-1.4,1.4-1.4h29.7c0.8,0,1.4,0.6,1.4,1.4v11.1
			C362.7,121.6,362,122.2,361.3,122.2z"/>
		<path class="st1" d="M399.6,103.8h-68c-1.1,0-2-0.9-2-2V90.7c0-1.1,0.9-2,2-2h68c1.1,0,2,0.9,2,2v11.1
			C401.6,102.9,400.7,103.8,399.6,103.8z M331.6,89.9c-0.4,0-0.8,0.4-0.8,0.8v11.1c0,0.4,0.4,0.8,0.8,0.8h68c0.4,0,0.8-0.4,0.8-0.8
			V90.7c0-0.4-0.4-0.8-0.8-0.8H331.6z"/>
		<path class="st1" d="M420.1,82.3h-88.5c-1.1,0-2-0.9-2-2V69.1c0-1.1,0.9-2,2-2h88.5c1.1,0,2,0.9,2,2v11.1
			C422.1,81.4,421.2,82.3,420.1,82.3z M331.6,68.3c-0.4,0-0.8,0.4-0.8,0.8v11.1c0,0.4,0.4,0.8,0.8,0.8h88.5c0.4,0,0.8-0.4,0.8-0.8
			V69.1c0-0.4-0.4-0.8-0.8-0.8H331.6z"/>
		<path class="st1" d="M378.7,61.6h-47.1c-1.1,0-2-0.9-2-2V48.5c0-1.1,0.9-2,2-2h47.1c1.1,0,2,0.9,2,2v11.1
			C380.7,60.7,379.8,61.6,378.7,61.6z M331.6,47.6c-0.4,0-0.8,0.4-0.8,0.8v11.1c0,0.4,0.4,0.8,0.8,0.8h47.1c0.4,0,0.8-0.4,0.8-0.8
			V48.5c0-0.4-0.4-0.8-0.8-0.8H331.6z"/>
		<rect x="447" y="46.2" class="st0" width="52.8" height="79.4"/>
	</g>
	<g>
		<g>
			<rect x="611.5" class="st0" width="220" height="152"/>
			<rect x="611.5" class="st1" width="220" height="22"/>
			<rect x="611.5" class="st2" width="22" height="22"/>
		</g>
		<rect x="622.5" y="34.1" class="st3" width="196" height="103"/>
		<path class="st4" d="M714,122.2h-29.7c-0.8,0-1.4-0.6-1.4-1.4v-11.1c0-0.8,0.6-1.4,1.4-1.4H714c0.8,0,1.4,0.6,1.4,1.4v11.1
			C715.4,121.6,714.8,122.2,714,122.2z"/>
		<path class="st1" d="M742.3,61.6h-57.9c-1.1,0-2-0.9-2-2V48.5c0-1.1,0.9-2,2-2h57.9c1.1,0,2,0.9,2,2v11.1
			C744.3,60.7,743.4,61.6,742.3,61.6z M684.3,47.6c-0.4,0-0.8,0.4-0.8,0.8v11.1c0,0.4,0.4,0.8,0.8,0.8h57.9c0.4,0,0.8-0.4,0.8-0.8
			V48.5c0-0.4-0.4-0.8-0.8-0.8H684.3z"/>
		<g>
			<path class="st1" d="M686.1,77.5c-2.1,0-3.8-1.7-3.8-3.8c0-2.1,1.7-3.8,3.8-3.8c2.1,0,3.8,1.7,3.8,3.8
				C690,75.8,688.3,77.5,686.1,77.5z M686.1,71c-1.5,0-2.6,1.2-2.6,2.6c0,1.5,1.2,2.6,2.6,2.6c1.5,0,2.6-1.2,2.6-2.6
				C688.8,72.2,687.6,71,686.1,71z"/>
			<path class="st1" d="M686.1,88.5c-2.1,0-3.8-1.7-3.8-3.8c0-2.1,1.7-3.8,3.8-3.8c2.1,0,3.8,1.7,3.8,3.8
				C690,86.8,688.3,88.5,686.1,88.5z M686.1,82c-1.5,0-2.6,1.2-2.6,2.6c0,1.5,1.2,2.6,2.6,2.6c1.5,0,2.6-1.2,2.6-2.6
				C688.8,83.2,687.6,82,686.1,82z"/>
			<path class="st1" d="M686.1,99.2c-2.1,0-3.8-1.7-3.8-3.8s1.7-3.8,3.8-3.8c2.1,0,3.8,1.7,3.8,3.8S688.3,99.2,686.1,99.2z
				 M686.1,92.7c-1.5,0-2.6,1.2-2.6,2.6s1.2,2.6,2.6,2.6c1.5,0,2.6-1.2,2.6-2.6S687.6,92.7,686.1,92.7z"/>
			<path class="st1" d="M708.9,74.3h-16.6c-0.3,0-0.6-0.3-0.6-0.6s0.3-0.6,0.6-0.6h16.6c0.3,0,0.6,0.3,0.6,0.6
				S709.2,74.3,708.9,74.3z"/>
			<path class="st1" d="M706,85.3h-13.7c-0.3,0-0.6-0.3-0.6-0.6s0.3-0.6,0.6-0.6H706c0.3,0,0.6,0.3,0.6,0.6S706.3,85.3,706,85.3z"/>
			<path class="st1" d="M708.2,96h-15.9c-0.3,0-0.6-0.3-0.6-0.6s0.3-0.6,0.6-0.6h15.9c0.3,0,0.6,0.3,0.6,0.6S708.6,96,708.2,96z"/>
		</g>
	</g>
	<g>
		<path class="st8" d="M237.9,75.4c-0.8,0-1.4-0.6-1.5-1.4c-0.1-0.8,0.5-1.6,1.3-1.6c1.3-0.1,32.1-3.1,44.9-0.5
			c0.8,0.2,1.3,1,1.2,1.8s-1,1.3-1.8,1.2c-12.3-2.5-43.7,0.6-44,0.6C238,75.4,237.9,75.4,237.9,75.4z"/>
		<path class="st8" d="M270.1,84.9c-0.5,0-1-0.3-1.3-0.8c-0.4-0.7-0.1-1.6,0.6-2c5.8-3.2,11.2-7.2,11.4-8.7
			c-2.7-2.8-11.4-8.1-11.5-8.1c-0.7-0.4-0.9-1.4-0.5-2.1c0.4-0.7,1.4-0.9,2.1-0.5c0.4,0.2,9.3,5.6,12.2,8.7c0.6,0.6,0.9,1.5,0.7,2.4
			c-0.6,3.9-10.1,9.3-13,10.9C270.6,84.8,270.3,84.9,270.1,84.9z M280.9,73.4L280.9,73.4L280.9,73.4z"/>
	</g>
	<g>
		<path class="st8" d="M541.3,75.4c-0.8,0-1.4-0.6-1.5-1.4c-0.1-0.8,0.5-1.6,1.3-1.6c1.3-0.1,32.1-3.1,44.9-0.5
			c0.8,0.2,1.3,1,1.2,1.8s-1,1.3-1.8,1.2c-12.3-2.4-43.7,0.6-44,0.6C541.4,75.4,541.4,75.4,541.3,75.4z"/>
		<path class="st8" d="M573.5,84.9c-0.5,0-1-0.3-1.3-0.8c-0.4-0.7-0.1-1.6,0.6-2c5.8-3.2,11.2-7.2,11.4-8.7
			c-2.7-2.8-11.4-8.1-11.5-8.1c-0.7-0.4-0.9-1.4-0.5-2.1c0.4-0.7,1.4-0.9,2.1-0.5c0.4,0.2,9.3,5.6,12.2,8.7c0.6,0.6,0.9,1.5,0.7,2.4
			c-0.6,3.9-10.1,9.3-13,10.9C574,84.8,573.8,84.9,573.5,84.9z M584.3,73.4L584.3,73.4L584.3,73.4z"/>
	</g>
</g>
</svg>
