<?xml version="1.0" encoding="utf-8"?>
<!-- Generator: Adobe Illustrator 21.1.0, SVG Export Plug-In . SVG Version: 6.00 Build 0)  -->
<!DOCTYPE svg PUBLIC "-//W3C//DTD SVG 1.1//EN" "http://www.w3.org/Graphics/SVG/1.1/DTD/svg11.dtd">
<svg version="1.1" id="Layer_1" xmlns="http://www.w3.org/2000/svg" xmlns:xlink="http://www.w3.org/1999/xlink" x="0px" y="0px"
	 viewBox="0 0 18.9 20" style="enable-background:new 0 0 18.9 20;" xml:space="preserve">
<style type="text/css">
	.st0{fill:#FFFFFF;}
</style>
<title>cog</title>
<path class="st0" d="M17,10c0-0.3,0-0.7-0.1-1l2-2.2c-0.4-1.3-1.1-2.4-2-3.4L14,4.1c-0.5-0.4-1.1-0.7-1.8-1l-0.8-2.9
	c-1.3-0.3-2.6-0.3-3.9,0L6.6,3.1C6,3.3,5.4,3.6,4.9,4.1L2,3.4c-0.9,1-1.6,2.1-2,3.4L2,9c0,0.3,0,0.7,0,1c0,0.3,0,0.7,0,1l-2,2.2
	c0.4,1.3,1.1,2.4,2,3.4l2.9-0.7c0.5,0.4,1.1,0.7,1.8,1l0.9,2.9c1.3,0.3,2.6,0.3,3.9,0l0.9-2.9c0.6-0.3,1.2-0.6,1.8-1l2.9,0.7
	c0.9-1,1.6-2.1,2-3.4L17,11C17,10.7,17,10.3,17,10z M9.5,13c-1.7,0-3-1.3-3-3s1.3-3,3-3s3,1.3,3,3C12.5,11.7,11.2,13,9.5,13
	C9.5,13,9.5,13,9.5,13L9.5,13z"/>
</svg>
