<?xml version="1.0" encoding="utf-8"?>
<!-- Generator: Adobe Illustrator 21.1.0, SVG Export Plug-In . SVG Version: 6.00 Build 0)  -->
<!DOCTYPE svg PUBLIC "-//W3C//DTD SVG 1.1//EN" "http://www.w3.org/Graphics/SVG/1.1/DTD/svg11.dtd">
<svg version="1.1" id="Layer_1" xmlns="http://www.w3.org/2000/svg" xmlns:xlink="http://www.w3.org/1999/xlink" x="0px" y="0px"
	 viewBox="0 0 14 19.9" style="enable-background:new 0 0 14 19.9;" xml:space="preserve">
<style type="text/css">
	.st0{fill:#FFFFFF;}
</style>
<title>db</title>
<path class="st0" d="M7,19.9c-3.2,0-6-0.7-7-1.6l0,0v-4.2c1,0.9,4.1,1.4,7,1.4s6-0.5,7-1.4v4.2l0,0C14,19.2,10.2,19.9,7,19.9z
	 M7,13.7c-3.2,0-6-0.7-7-1.6l0,0V7.9c1,0.9,4.1,1.4,7,1.4s6-0.5,7-1.4v4.2l0,0C14,13,10.2,13.7,7,13.7z M14,5.7L14,5.7
	c0,1-3.8,1.7-7,1.7S1,6.7,0,5.8l0,0V1.6l0,0C0,0.6,3.8,0,7,0s6,0.7,7,1.6l0,0V5.7z"/>
</svg>
