<svg xmlns="http://www.w3.org/2000/svg" width="413.3" height="616.63" viewBox="0 0 413.3 616.63"><defs><style>.cls-1{fill:#151615;}.cls-2{fill:#c00;}</style></defs><title>content</title><path class="cls-1" d="M2.56 404.27v1.54c1 10.28 9.6 18.51 19.7 18.51 11.12 0 19.71-8.74 19.71-20.05 0-1-.51-1.55-.51-2.57.51-36 2-112.59 13.14-140.35.5-1 1.52-3.6 4-3.6 2 0 3 2.05 3 4.11-.5 8.23-5.55 119.79-5.55 119.79s-6.2 42.44 16.26 235h49.33l6.65-191.28v-1c0-3.6 2.53-5.66 5-5.66s5.05 2.06 5.05 5.66v1l6.66 191.28h51.54c16-127.39 15.57-235 15.57-235l-5.56-119.79c0-17 9.09-14.39 16.17-9.25 14.14 10.28 31.83 20.05 57.59 23.13 2 .52 6.57.52 10.61.52 1 0 4.55-.52 5-.52 38.4-5.14 55.07-26.22 69.22-42.15 14.14-16.46 24.75-18 32.33-21.08.51-.52 1.52-.52 2.53-1 3-1 6.06-3.6 8.59-6.17l1.51-1.54 1.52-3.09v-.51c.5 0 .5 0 .5-.51v-1a26 26 0 0 0 1-6.17v-1.54a9 9 0 0 0-.5-3.6c-.51-.52-.51-.52-.51-1-.5-1-.5-1.54-1-2.57-.5-.51-.5-1-1-1.54s-.5-1-1-1.55a7 7 0 0 0-1.51-2l-1-1c-.51-.51-1.52-1-2-1.54s-1-.52-1.52-1c-1-.51-1.51-.51-2-1a3.87 3.87 0 0 0-2-1c-.51 0-.51-.51-1-.51h-.51a4.43 4.43 0 0 0-2.52-.52h-2a15.19 15.19 0 0 0-5.06.52c-19.19 3.6-46 23.65-54.05 31.87-14.15 13.88-23.75 25.19-47 25.71-20.71 0-31.32-9.77-44.46-21.59-10.1-8.74-21.22-19.54-37.89-25.71a77.92 77.92 0 0 0-30.25-5.95h-87.41c-22.73 1-37.38 9.25-52.54 25.19-38.39 40.14-35.87 121.88-32.84 187.68.51 5.66.51 9.77 1 14.4"/><path class="cls-2" d="M102.17 3.58a79.49 79.49 0 1 0 99.33 52.63 79.72 79.72 0 0 0-99.33-52.63zm26.28 58.42l16.35 53.18-15.2 4.67-16.34-53.15zm-9.93-5.26a12.23 12.23 0 0 1-14.9-7.9 11.92 11.92 0 1 1 14.9 7.9z"/></svg>