<svg id="Layer_1" data-name="Layer 1" xmlns="http://www.w3.org/2000/svg" xmlns:xlink="http://www.w3.org/1999/xlink" width="551.62" height="264.58" viewBox="0 0 551.62 264.58"><defs><style>.cls-1,.cls-12{fill:none;}.cls-2{fill:#c00;}.cls-3{fill:#ebebeb;}.cls-4{clip-path:url(#clip-path);}.cls-5{clip-path:url(#clip-path-2);}.cls-6{fill:#373737;}.cls-7{fill:#adadad;}.cls-8{clip-path:url(#clip-path-3);}.cls-9{fill:#fff;}.cls-10{clip-path:url(#clip-path-4);}.cls-11{fill:#a30000;}.cls-12{stroke:#c00;stroke-linecap:round;stroke-miterlimit:10;stroke-width:3.06px;}.cls-13{clip-path:url(#clip-path-5);}.cls-14{clip-path:url(#clip-path-6);}.cls-15{clip-path:url(#clip-path-7);}</style><clipPath id="clip-path"><circle class="cls-1" cx="275.81" cy="96.42" r="54.62"/></clipPath><clipPath id="clip-path-2"><path class="cls-1" d="M274.24,102.61h48.27a0,0,0,0,1,0,0v57.53a0,0,0,0,1,0,0H265a0,0,0,0,1,0,0V111.87a9.26,9.26,0,0,1,9.26-9.26Z" transform="translate(178.93 -169.23) rotate(45)"/></clipPath><clipPath id="clip-path-3"><path class="cls-1" d="M239.77,119.07h46.51a0,0,0,0,1,0,0V176.6a0,0,0,0,1,0,0H228.75a0,0,0,0,1,0,0V130.09A11,11,0,0,1,239.77,119.07Z" transform="translate(179.96 -138.79) rotate(45)"/></clipPath><clipPath id="clip-path-4"><circle class="cls-1" cx="72.31" cy="96.42" r="54.62"/></clipPath><clipPath id="clip-path-5"><circle class="cls-1" cx="479.31" cy="96.42" r="54.62"/></clipPath><clipPath id="clip-path-6"><path class="cls-1" d="M477.74,102.61H526a0,0,0,0,1,0,0v57.53a0,0,0,0,1,0,0H468.48a0,0,0,0,1,0,0V111.87a9.26,9.26,0,0,1,9.26-9.26Z" transform="translate(238.53 -313.13) rotate(45)"/></clipPath><clipPath id="clip-path-7"><path class="cls-1" d="M443.27,119.07h46.51a0,0,0,0,1,0,0V176.6a0,0,0,0,1,0,0H432.25a0,0,0,0,1,0,0V130.09a11,11,0,0,1,11-11Z" transform="translate(239.57 -282.68) rotate(45)"/></clipPath></defs><title>detail</title><path class="cls-2" d="M275.81,0c-31.73,0-59.45,6.43-72.31,15.67v161.5c12.86,9.24,40.58,15.66,72.31,15.66s59.46-6.42,72.31-15.66V15.67C335.27,6.43,307.55,0,275.81,0Z"/><circle class="cls-3" cx="275.81" cy="96.42" r="54.62"/><circle class="cls-2" cx="261.71" cy="78.18" r="13.01"/><g class="cls-4"><path d="M274.24,102.61h48.27a0,0,0,0,1,0,0v57.53a0,0,0,0,1,0,0H265a0,0,0,0,1,0,0V111.87a9.26,9.26,0,0,1,9.26-9.26Z" transform="translate(178.93 -169.23) rotate(45)"/><g class="cls-5"><path class="cls-6" d="M268.45,45.86v57.38c4.57,3.29,14.42,5.57,25.69,5.57s21.13-2.28,25.7-5.57V45.86Z"/></g><path class="cls-7" d="M239.77,119.07h46.51a0,0,0,0,1,0,0V176.6a0,0,0,0,1,0,0H228.75a0,0,0,0,1,0,0V130.09A11,11,0,0,1,239.77,119.07Z" transform="translate(179.96 -138.79) rotate(45)"/><g class="cls-8"><path class="cls-9" d="M233.86,63.78v57.38c4.57,3.28,14.41,5.57,25.69,5.57s21.13-2.29,25.69-5.57V63.78Z"/></g></g><path class="cls-2" d="M72.31,0C40.58,0,12.86,6.43,0,15.67v161.5c12.86,9.24,40.58,15.66,72.31,15.66s59.46-6.42,72.31-15.66V15.67C131.77,6.43,104.05,0,72.31,0Z"/><circle class="cls-3" cx="72.31" cy="96.42" r="54.62"/><g class="cls-10"><path d="M70.74,102.61H119a0,0,0,0,1,0,0v57.53a0,0,0,0,1,0,0H61.48a0,0,0,0,1,0,0V111.87a9.26,9.26,0,0,1,9.26-9.26Z" transform="translate(119.32 -25.33) rotate(45)"/><path class="cls-7" d="M36.27,119.07H82.78a0,0,0,0,1,0,0V176.6a0,0,0,0,1,0,0H25.25a0,0,0,0,1,0,0V130.09a11,11,0,0,1,11-11Z" transform="translate(120.36 5.11) rotate(45)"/></g><path class="cls-2" d="M479.31,0C447.58,0,419.86,6.43,407,15.67v161.5c12.86,9.24,40.58,15.66,72.31,15.66s59.46-6.42,72.31-15.66V15.67C538.77,6.43,511.05,0,479.31,0Z"/><path class="cls-11" d="M479.31,0l-3,0c30.48.39,56.87,6.7,69.31,15.65v161.5c-12.44,8.94-38.83,15.25-69.31,15.64,1,0,2,0,3,0,31.74,0,59.46-6.42,72.31-15.66V15.67C538.77,6.43,511.05,0,479.31,0Z"/><circle class="cls-3" cx="479.31" cy="96.42" r="54.62"/><circle class="cls-2" cx="460.92" cy="78.03" r="9.95"/><line class="cls-12" x1="460.92" y1="60.44" x2="460.92" y2="65.03"/><line class="cls-12" x1="460.92" y1="91.04" x2="460.92" y2="95.63"/><line class="cls-12" x1="443.33" y1="78.03" x2="447.92" y2="78.03"/><line class="cls-12" x1="473.93" y1="78.03" x2="478.52" y2="78.03"/><line class="cls-12" x1="448.48" y1="65.59" x2="451.73" y2="68.84"/><line class="cls-12" x1="470.12" y1="87.23" x2="473.37" y2="90.48"/><line class="cls-12" x1="448.48" y1="90.48" x2="451.73" y2="87.23"/><line class="cls-12" x1="470.12" y1="68.84" x2="473.37" y2="65.59"/><g class="cls-13"><path d="M477.74,102.61H526a0,0,0,0,1,0,0v57.53a0,0,0,0,1,0,0H468.48a0,0,0,0,1,0,0V111.87a9.26,9.26,0,0,1,9.26-9.26Z" transform="translate(238.53 -313.13) rotate(45)"/><g class="cls-14"><path class="cls-6" d="M523.34,45.86H472v57.38a25.5,25.5,0,0,0,8,3.44,6,6,0,0,0,5.73,4.25,5.9,5.9,0,0,0,2.78-.69,5.5,5.5,0,0,0,4.72,2.69,5.61,5.61,0,0,0,1.59-.24,5.48,5.48,0,0,0,9.43-1,5.16,5.16,0,0,0,1.48.25,5,5,0,0,0,3.31-1.28,6,6,0,0,0,10.46-5.36,19,19,0,0,0,3.86-2.05Z"/></g><path class="cls-7" d="M443.27,119.07h46.51a0,0,0,0,1,0,0V176.6a0,0,0,0,1,0,0H432.25a0,0,0,0,1,0,0V130.09a11,11,0,0,1,11-11Z" transform="translate(239.57 -282.68) rotate(45)"/><g class="cls-15"><path class="cls-9" d="M488.74,63.78H437.36v57.38a15.25,15.25,0,0,0,1.36.85,8,8,0,0,0,12.69,6.38,5.48,5.48,0,0,0,3.8,1.54,5.6,5.6,0,0,0,2.58-.64,5.49,5.49,0,0,0,10.8.27,5.48,5.48,0,0,0,8.57-1.74,5.19,5.19,0,0,0,1,.11,5.51,5.51,0,0,0,5.35-4.22,21,21,0,0,0,5.18-2.55Z"/></g></g><path class="cls-7" d="M511.69,85.93a6.8,6.8,0,1,0,0-13.6,6.64,6.64,0,0,0-2,.33A8.15,8.15,0,0,0,495,75.09a5.43,5.43,0,0,0,.42,10.84Z"/><path class="cls-9" d="M508.69,85.93a6.8,6.8,0,1,0,0-13.6,6.64,6.64,0,0,0-2,.33A8.15,8.15,0,0,0,492,75.09a5.43,5.43,0,0,0,.42,10.84Z"/><polygon class="cls-9" points="488.9 244.25 499.84 233.31 490.46 223.93 479.52 234.88 468.58 223.93 459.2 233.31 470.14 244.25 459.2 255.2 468.58 264.58 479.52 253.63 490.46 264.57 499.84 255.2 488.9 244.25"/><path class="cls-9" d="M244.7,247.25l16.12,15.92a2.21,2.21,0,0,0,3.12,0l28.73-28.94-9.5-9.51h0l-20.78,21-8-8.18Z"/><polygon class="cls-9" points="81.89 244.25 92.83 233.31 83.45 223.93 72.51 234.88 61.57 223.93 52.19 233.31 63.13 244.25 52.19 255.2 61.57 264.58 72.51 253.63 83.45 264.57 92.83 255.2 81.89 244.25"/></svg>