<svg xmlns="http://www.w3.org/2000/svg" width="469.36" height="610.99" viewBox="0 0 469.36 610.99"><defs><style>.cls-1{fill:#373737;}.cls-2{fill:#231f20;}</style></defs><title>icon-shapes</title><path class="cls-1" d="M36.46 610.75h-3.39v-13l-4.07 1.25v-2.8l7.06-2.53h.37zm14.73-17.24v2.79h-.33a5.76 5.76 0 0 0-3.7 1.2 4.88 4.88 0 0 0-1.68 3.22 4.62 4.62 0 0 1 3.43-1.38 4.34 4.34 0 0 1 3.54 1.59 6.36 6.36 0 0 1 1.31 4.2 6.29 6.29 0 0 1-.72 3 5.2 5.2 0 0 1-2 2.1 6 6 0 0 1-3 .75 5.53 5.53 0 0 1-4.35-1.88 7.26 7.26 0 0 1-1.66-5v-1.22a11 11 0 0 1 1.03-4.88 7.74 7.74 0 0 1 3-3.29 8.83 8.83 0 0 1 4.55-1.18zm-3.31 8.56a2.77 2.77 0 0 0-1.49.42 2.67 2.67 0 0 0-1 1.13v1a4.52 4.52 0 0 0 .67 2.65 2.28 2.28 0 0 0 3.64.1 4.05 4.05 0 0 0 0-4.48 2.2 2.2 0 0 0-1.82-.82zm12.86-.21l2.13-3.79h3.62l-3.61 6.21 3.76 6.47h-3.64l-2.26-4-2.25 4h-3.64l3.77-6.47-3.62-6.21h3.63zm15.47 8.89h-3.39v-13l-4 1.25v-2.8l7.06-2.53h.37zm14.73-17.24v2.79h-.33a5.76 5.76 0 0 0-3.7 1.2 4.88 4.88 0 0 0-1.68 3.22 4.62 4.62 0 0 1 3.43-1.38 4.34 4.34 0 0 1 3.54 1.59 6.36 6.36 0 0 1 1.31 4.2 6.29 6.29 0 0 1-.72 3 5.2 5.2 0 0 1-2 2.1 6 6 0 0 1-3 .75 5.53 5.53 0 0 1-4.35-1.88 7.26 7.26 0 0 1-1.66-5v-1.22a11 11 0 0 1 1-4.91 7.74 7.74 0 0 1 3-3.29 8.83 8.83 0 0 1 4.55-1.18zm-3.31 8.56a2.77 2.77 0 0 0-1.49.42 2.67 2.67 0 0 0-1 1.13v1a4.52 4.52 0 0 0 .67 2.65 2.28 2.28 0 0 0 3.64.1 4.05 4.05 0 0 0 0-4.48 2.2 2.2 0 0 0-1.82-.82z"/><path class="cls-2" d="M60.71 15.18a60.72 60.72 0 1 0 60.72 60.71 60.89 60.89 0 0 0-60.72-60.71zm37.95 68.3h-30.36v30.36h-15.18v-30.36h-30.35v-15.18h30.35v-30.3h15.18v30.3h30.36z"/><circle class="cls-2" cx="60.71" cy="261.24" r="15.18"/><path class="cls-2" d="M117.63 219.5h-72.09v-7.59h-30.36v7.59h-11.39a3.79 3.79 0 0 0-3.79 3.79v75.9a3.79 3.79 0 0 0 3.79 3.81h113.84a3.8 3.8 0 0 0 3.8-3.79v-75.9a3.8 3.8 0 0 0-3.8-3.81zm-56.92 72.1a30.36 30.36 0 1 1 30.36-30.36 30.36 30.36 0 0 1-30.36 30.36zm37.95 131.1a37.95 37.95 0 1 0-54.47 34l-6.19 49.48 23-15.18 22.55 15.18-6.24-49.47a37.84 37.84 0 0 0 21.35-34.01zm-37.95 22.76a22.77 22.77 0 1 1 22.77-22.76 22.79 22.79 0 0 1-22.77 22.76z"/><circle class="cls-2" cx="60.71" cy="422.52" r="11.38"/><path class="cls-1" d="M372.68 610.75h-11.68v-2.32l5.52-5.88a13.24 13.24 0 0 0 1.68-2.17 3.53 3.53 0 0 0 .55-1.76 2.59 2.59 0 0 0-.58-1.78 2 2 0 0 0-1.64-.65 2.23 2.23 0 0 0-1.81.79 3.13 3.13 0 0 0-.66 2.08h-3.4a5.66 5.66 0 0 1 .74-2.85 5.27 5.27 0 0 1 2.11-2 6.35 6.35 0 0 1 3.08-.74 6.1 6.1 0 0 1 4.1 1.27 4.48 4.48 0 0 1 1.45 3.57 5.67 5.67 0 0 1-.65 2.58 14.28 14.28 0 0 1-2.25 3.06l-3.9 4.05h7.34zm12.09-6.42h1.93v2.73h-1.93v3.69h-3.39v-3.69h-7l-.16-2.13 7.12-11.24h3.42zm-7.16 0h3.77v-6l-.22.38zm15.88-2.47l2.13-3.79h3.62l-3.61 6.21 3.76 6.47h-3.63l-2.26-4-2.25 4h-3.65l3.77-6.47-3.6-6.21h3.63zm18.94 8.89h-11.7v-2.32l5.52-5.88a13.24 13.24 0 0 0 1.68-2.17 3.53 3.53 0 0 0 .55-1.76 2.59 2.59 0 0 0-.58-1.78 2 2 0 0 0-1.64-.65 2.23 2.23 0 0 0-1.81.79 3.13 3.13 0 0 0-.66 2.08h-3.4a5.66 5.66 0 0 1 .74-2.85 5.27 5.27 0 0 1 2.11-2 6.35 6.35 0 0 1 3.08-.74 6.1 6.1 0 0 1 4.1 1.27 4.48 4.48 0 0 1 1.45 3.57 5.67 5.67 0 0 1-.65 2.58 14.28 14.28 0 0 1-2.25 3.06l-3.88 4.05h7.34zm12.09-6.42h1.93v2.73h-1.93v3.69h-3.39v-3.69h-7l-.16-2.13 7.12-11.24h3.42zm-7.16 0h3.77v-6l-.22.38z"/><path class="cls-2" d="M393.46 0a75.89 75.89 0 1 0 75.9 75.89 76.11 76.11 0 0 0-75.9-75.89zm45.54 83.48h-37.95v38h-15.18v-38h-37.94v-15.18h37.94v-37.94h15.18v37.94h37.95z"/><circle class="cls-2" cx="393.46" cy="272.57" r="22.77"/><path class="cls-2" d="M378.28 211.91h-37.94v7.54h-15.18a7.59 7.59 0 0 0-7.59 7.59v91.07a7.59 7.59 0 0 0 7.59 7.59h136.61a7.59 7.59 0 0 0 7.59-7.59v-91.11a7.59 7.59 0 0 0-7.59-7.59h-83.49zm15.18 98.61a37.95 37.95 0 1 1 38-37.95 37.95 37.95 0 0 1-38 37.95zm53.13 127.35a53.13 53.13 0 1 0-76.95 47.44l-6.53 66.4 30.35-22.77 30.36 22.77-6.53-66.4a53.08 53.08 0 0 0 29.3-47.44zm-53.13 37.95a37.95 37.95 0 1 1 38-37.95 37.95 37.95 0 0 1-38 37.95z"/><circle class="cls-2" cx="393.46" cy="437.87" r="22.77"/></svg>