<svg xmlns="http://www.w3.org/2000/svg" viewBox="0 0 457.1 458.3" enable-background="new 0 0 457.1 458.3"><style type="text/css">.st0{fill:#373737;} .st1{fill:#CC0000;} .st2{fill:#1AAC1E;}</style><title>icon-detail</title><path class="st0" d="M401.7 158.2c-20.8 0-38.6 11.9-45.8 28.6 7.1 16.7 24.9 28.6 45.8 28.6s38.6-11.9 45.7-28.6c-7.1-16.7-24.9-28.6-45.7-28.6zm0 48.7c-11 0-20-9-20-20s9-20 20-20 20 9 20 20-8.9 20-20 20z"/><circle class="st0" cx="401.7" cy="186.8" r="11.4"/><path class="st0" d="M449.7 170.5c-10.8-14.5-28.7-23.2-48-23.2s-37.2 8.7-48 23.2l-7.4-5.5c12.5-16.9 33.2-27 55.4-27s42.9 10.1 55.4 26.9l-7.4 5.6z"/><path class="st1" d="M411.6 438l10.9-10.9-9.4-9.4-11 10.9-10.9-10.9-9.4 9.4 11 10.9-11 10.9 9.4 9.4 10.9-10.9 11 10.9 9.4-9.4-10.9-10.9z"/><path id="Combined-Shape" class="st0" d="M432.7 287.2l15.3 10.8v8.1h-7.7l-38.4-27-38.4 27h-7.5v-8.1l46-32.4 19.2 13.5v-9.7h11.5v17.8zm-23 62.8v-23h-15.4v23h-23v-40.5h-.7l31.3-20.3 31.4 20.3h-.7v40.5h-22.9z"/><circle class="st0" cx="401.4" cy="42.3" r="13.4"/><path class="st0" d="M445.9 0h-30.1v11.1h-25.2v-2.2c0-1.2-1-2.2-2.2-2.2h-17.8c-1.2 0-2.2 1-2.2 2.2v2.2h-7c-2.5 0-4.5 2-4.5 4.5v53.4c0 2.5 2 4.5 4.5 4.5h80.1c2.5 0 4.5-2 4.5-4.5v-69zm-24.4 4.8h19v6.3h-19v-6.3zm-20.1 59.7c-12.3 0-22.2-10-22.2-22.2s10-22.2 22.2-22.2 22.2 10 22.2 22.2-9.9 22.2-22.2 22.2zm29.6-36c-2.1 0-3.8-1.7-3.8-3.8 0-2.1 1.7-3.8 3.8-3.8s3.8 1.7 3.8 3.8c0 2.1-1.7 3.8-3.8 3.8zm-206.1 119.5c-23.6 0-43.7 13.4-51.8 32.4 8.1 18.9 28.2 32.4 51.8 32.4s43.7-13.4 51.8-32.4c-8.1-19-28.2-32.4-51.8-32.4zm0 55c-12.5 0-22.7-10.1-22.7-22.7 0-12.5 10.1-22.7 22.7-22.7 12.5 0 22.7 10.1 22.7 22.7s-10.2 22.7-22.7 22.7z"/><circle class="st0" cx="224.9" cy="180.3" r="12.9"/><path class="st2" d="M198.4 441l16.1 15.9c.9.9 2.3.9 3.1 0l28.7-29-9.5-9.5-20.8 21-8-8.2-9.6 9.8z"/><path class="st0" d="M225 265.7l34 34.2c1 .8 1.5 2.1 1.5 3.3v46.8h-26.6v-26.6h-17.8v26.6h-26.6v-46.8c0-1.3.6-2.5 1.5-3.3l34-34.2z"/><circle class="st0" cx="224.7" cy="42.3" r="13.4"/><path class="st0" d="M264.7 11.1h-48.9v-2.2c0-1.2-1-2.2-2.2-2.2h-17.8c-1.2 0-2.2 1-2.2 2.2v2.2h-8.9c-2.5 0-4.4 2-4.4 4.5v53.4c0 2.5 2 4.4 4.4 4.4h80.1c2.5 0 4.5-2 4.5-4.4v-53.4c-.1-2.5-2.1-4.5-4.6-4.5zm-40 53.4c-12.3 0-22.2-10-22.2-22.2s10-22.2 22.2-22.2 22.3 9.9 22.3 22.2c0 12.3-10 22.2-22.3 22.2zm-172.9 83.5c-23.6 0-43.7 13.4-51.8 32.3 8.1 18.9 28.2 32.4 51.8 32.4s43.7-13.4 51.8-32.4c-8.1-18.9-28.2-32.3-51.8-32.3zm0 50.7c-10.1 0-18.4-8.2-18.4-18.4s8.3-18.3 18.4-18.3 18.4 8.2 18.4 18.4c-.1 10.1-8.3 18.3-18.4 18.3z"/><path class="st1" d="M59.6 438l11-11-9.4-9.4-10.9 10.9-10.9-10.9-9.4 9.4 10.9 11-10.9 10.9 9.4 9.4 10.9-10.9 10.9 10.9 9.4-9.4-11-10.9z"/><path class="st0" d="M85.6 350v-46.8c0-1.3-.5-2.5-1.5-3.3l-34-34.2-34 34.2c-1 .8-1.5 2.1-1.5 3.3v46.8h71z"/><circle class="st0" cx="56.1" cy="42.3" r="13.4"/><path class="st0" d="M16 11.1c-2.5 0-4.5 2-4.4 4.5v53.4c0 2.4 2 4.4 4.4 4.4h80.1c2.4 0 4.4-2 4.4-4.4v-53.4c0-2.5-2-4.5-4.4-4.5h-80.1zm40.1 53.4c-12.3 0-22.2-10-22.2-22.2s9.9-22.3 22.2-22.3 22.2 10 22.2 22.2c0 12.3-9.9 22.3-22.2 22.3z"/></svg>