<svg xmlns="http://www.w3.org/2000/svg" width="457.14" height="458.3" viewBox="0 0 457.14 458.3"><defs><style>.cls-1{fill:#373737;}.cls-2{fill:#c00;}.cls-3{fill:#f2f2f2;}.cls-4{fill:#1aac1e;}</style></defs><title>icon-detail</title><path class="cls-1" d="M401.71 158.24c-20.84 0-38.61 11.87-45.75 28.59 7.14 16.72 24.91 28.59 45.75 28.59s38.61-11.87 45.74-28.59c-7.13-16.72-24.9-28.59-45.74-28.59zm0 48.61a20 20 0 1 1 20-20 20 20 0 0 1-20 20z"/><circle class="cls-1" cx="401.71" cy="186.83" r="11.44"/><path class="cls-1" d="M449.72 170.49c-10.79-14.54-28.74-23.22-48-23.22s-37.22 8.68-48 23.22l-7.44-5.49c12.53-16.9 33.25-27 55.43-27s42.9 10.07 55.43 26.95z"/><path class="cls-2" d="M411.63 437.98l10.94-10.94-9.37-9.38-10.95 10.94-10.94-10.94-9.38 9.38 10.95 10.94-10.95 10.94 9.38 9.38 10.94-10.94 10.95 10.94 9.37-9.38-10.94-10.94z"/><path id="Combined-Shape" class="cls-1" d="M432.71 287.22l15.34 10.78v8.1h-7.67l-38.36-27-38.36 27h-7.66v-8.1l46-32.4 19.18 13.5v-9.67h11.51zm-23 62.79v-23.01h-15.36v23h-23v-40.51h-.69l31.34-20.26 31.39 20.26h-.7v40.51z"/><circle class="cls-1" cx="401.4" cy="42.26" r="13.35"/><path class="cls-1" d="M441.45 11.1h-50.85v-2.22a2.23 2.23 0 0 0-2.23-2.23h-17.8a2.23 2.23 0 0 0-2.23 2.23v2.22h-7a4.46 4.46 0 0 0-4.45 4.46v53.44a4.45 4.45 0 0 0 4.45 4.45h80.11a4.45 4.45 0 0 0 4.45-4.45v-53.44a4.46 4.46 0 0 0-4.45-4.46zm-40.05 53.41a22.25 22.25 0 1 1 22.25-22.25 22.26 22.26 0 0 1-22.25 22.25zm14.45-64.51h30.06v19.96h-30.06z"/><path class="cls-3" d="M421.55 4.75h19.01v6.65h-19.01z"/><circle class="cls-3" cx="431.05" cy="24.71" r="3.8"/><path class="cls-1" d="M224.93 148c-23.59 0-43.71 13.44-51.79 32.37 8.08 18.93 28.2 32.37 51.79 32.37s43.72-13.44 51.8-32.37c-8.08-18.98-28.2-32.37-51.8-32.37zm0 55a22.66 22.66 0 1 1 22.66-22.66 22.66 22.66 0 0 1-22.66 22.66z"/><circle class="cls-1" cx="224.93" cy="180.32" r="12.95"/><path class="cls-4" d="M198.44 441l16.11 15.91a2.21 2.21 0 0 0 3.12 0l28.74-28.95-9.51-9.5-20.78 21-8-8.18z"/><path class="cls-1" d="M225 265.66l34 34.19a4.44 4.44 0 0 1 1.51 3.34v46.81h-26.59v-26.63h-17.76v26.63h-26.64v-46.81a4.41 4.41 0 0 1 1.52-3.34z"/><circle class="cls-1" cx="224.66" cy="42.26" r="13.35"/><path class="cls-1" d="M264.71 11.1h-48.95v-2.22a2.23 2.23 0 0 0-2.23-2.23h-17.8a2.23 2.23 0 0 0-2.23 2.23v2.22h-8.9a4.46 4.46 0 0 0-4.45 4.46v53.44a4.45 4.45 0 0 0 4.45 4.45h80.11a4.46 4.46 0 0 0 4.46-4.45v-53.44a4.46 4.46 0 0 0-4.46-4.46zm-40 53.41a22.25 22.25 0 1 1 22.25-22.25 22.26 22.26 0 0 1-22.3 22.25zm-172.92 83.49c-23.59 0-43.71 13.39-51.79 32.32 8.08 18.93 28.2 32.37 51.79 32.37s43.72-13.44 51.8-32.37c-8.08-18.93-28.2-32.32-51.8-32.32zm0 50.73a18.36 18.36 0 1 1 18.36-18.36 18.36 18.36 0 0 1-18.36 18.31z"/><path class="cls-2" d="M59.62 437.98l10.94-10.94-9.38-9.38-10.94 10.94-10.94-10.94-9.38 9.38 10.94 10.94-10.94 10.94 9.38 9.38 10.94-10.94 10.94 10.94 9.38-9.38-10.94-10.94z"/><path class="cls-1" d="M85.63 350v-46.81a4.44 4.44 0 0 0-1.51-3.34l-34-34.19-34 34.19a4.41 4.41 0 0 0-1.52 3.34v46.81z"/><circle class="cls-1" cx="56.08" cy="42.26" r="13.35"/><path class="cls-1" d="M16 11.1a4.46 4.46 0 0 0-4.45 4.46v53.44a4.45 4.45 0 0 0 4.45 4.41h80.13a4.45 4.45 0 0 0 4.45-4.41v-53.44a4.46 4.46 0 0 0-4.45-4.46zm40.08 53.41a22.25 22.25 0 1 1 22.25-22.25 22.26 22.26 0 0 1-22.25 22.25z"/></svg>