<svg xmlns="http://www.w3.org/2000/svg" width="532.84" height="333.1" viewBox="0 0 532.84 333.1"><defs><style>.cls-1{fill:#c00;}.cls-2{fill:#231f20;}</style></defs><title>illustration-1</title><path class="cls-1" d="M266.47 0c-121.41 0-224.91 69.14-266.47 166.55 41.56 97.45 145.06 166.55 266.47 166.55s225-69.07 266.37-166.48c-41.32-97.45-144.96-166.62-266.37-166.62zm0 296.12a129.54 129.54 0 1 1 129.53-129.54 129.54 129.54 0 0 1-129.53 129.54z"/><path class="cls-2" d="M243.46 221.53a17.15 17.15 0 0 1-12.17-5l-31.57-31.56a17.21 17.21 0 1 1 24.34-24.34l19.4 19.4 67.43-67.44a17.21 17.21 0 1 1 24.34 24.35l-79.6 79.59a17.17 17.17 0 0 1-12.17 5z"/></svg>