<svg xmlns="http://www.w3.org/2000/svg" width="321.94" height="281.59" viewBox="0 0 321.94 281.59"><defs><style>.cls-1{fill:#fff;}.cls-2{fill:#f2f2f2;}.cls-3{fill:#336dc2;}.cls-4{fill:#c00;}.cls-5{fill:#373737;}.cls-6{fill:#222;}</style></defs><title>illustration-colour-palette</title><path class="cls-1" d="M122.89 175.56h190.99v47.08h-190.99z"/><path class="cls-2" d="M313.24 176.2v45.8h-189.72v-45.8h189.72m1.27-1.27h-192.26v48.35h192.26v-48.35zm-108.96 0h108.97v48.35h-108.97z"/><path class="cls-3" d="M310.47 174.93h10.65v48.35h-10.65z"/><path d="M81.72 174.93h113.92v48.35h-113.92z"/><path class="cls-4" d="M0 174.93h113.92v48.35h-113.92z"/><path class="cls-2" d="M205.55 116.62h116.39v48.35h-116.39z"/><path d="M81.72 116.62h178.31v48.35h-178.31z"/><path class="cls-4" d="M0 116.62h189.04v48.35h-189.04z"/><path d="M101.18 58.31h220.76v48.35h-220.76z"/><path class="cls-4" d="M0 58.31h121.91v48.35h-121.91z"/><path class="cls-1" d="M101.82.64h219.49v47.08h-219.49z"/><path class="cls-2" d="M320.67 1.27v45.81h-218.21v-45.81h218.21m1.27-1.27h-220.76v48.35h220.76v-48.35z"/><path class="cls-4" d="M0 0h225.47v48.35h-225.47z"/><path class="cls-1" d="M137.82 233.87h176.05v47.08h-176.05z"/><path class="cls-2" d="M313.24 234.51v45.81h-174.78v-45.81h174.78m1.27-1.28h-177.32v48.36h177.32v-48.36zm-48.7 0h48.7v48.35h-48.7z"/><path class="cls-3" d="M300.47 233.23h20.65v48.35h-20.65z"/><path class="cls-5" d="M36.32 233.23h113.92v48.35h-113.92z"/><path class="cls-6" d="M36.32 233.23h45.4v48.35h-45.4z"/><path class="cls-4" d="M0 233.23h64.39v48.35h-64.39z"/></svg>