<svg xmlns="http://www.w3.org/2000/svg" width="506.51" height="436.95" viewBox="0 0 506.51 436.95"><defs><style>.cls-1{fill:#c00;}.cls-2{fill:#231f20;}.cls-3{fill:#fff;}</style></defs><title>overview-1</title><circle cx="432.83" cy="53.71" r="40.93"/><path d="M506.51 168.32v-31.93c-18.01-15.55-44.21-25.39-74.51-25.39-29.47 0-54.84 9.82-72.85 24.56v32.74zm-327.05-77.77a67.81 67.81 0 0 0-.69-9.18l18.49-19.84a90.19 90.19 0 0 0-17.76-30.69l-26.38 6.09a67.79 67.79 0 0 0-15.93-9.25l-7.93-25.92a90 90 0 0 0-35.42 0l-7.93 25.92a67.59 67.59 0 0 0-15.91 9.25l-26.41-6.09a90.52 90.52 0 0 0-17.76 30.69l18.5 19.84a67.8 67.8 0 0 0-.7 9.18 67.8 67.8 0 0 0 .7 9.18l-18.5 19.84a90.42 90.42 0 0 0 17.76 30.69l26.41-6.08a67.9 67.9 0 0 0 15.93 9.24l7.93 25.93a90.49 90.49 0 0 0 35.42 0l7.93-25.93a68.1 68.1 0 0 0 15.93-9.24l26.38 6.08a90.1 90.1 0 0 0 17.76-30.69l-18.51-19.84a67.81 67.81 0 0 0 .69-9.18zm-67.91 27.17a27.17 27.17 0 1 1 27.16-27.17 27.17 27.17 0 0 1-27.16 27.17z"/><path class="cls-1" d="M111.86 292.54c-51 0-94.41 29-111.86 69.92 17.45 40.89 60.9 69.92 111.86 69.92s94.48-29 111.83-69.89c-17.35-40.91-60.86-69.95-111.83-69.95zm0 124.31a54.38 54.38 0 1 1 54.38-54.38 54.37 54.37 0 0 1-54.38 54.38z"/><path class="cls-2" d="M102.2 385.54a7.22 7.22 0 0 1-5.11-2.11l-13.25-13.26a7.22 7.22 0 0 1 10.22-10.17l8.14 8.14 28.31-28.31a7.23 7.23 0 1 1 10.22 10.17l-33.42 33.42a7.2 7.2 0 0 1-5.11 2.12z"/><path class="cls-1" d="M475.33 288h-82.77a16.55 16.55 0 0 0-16.47 16.55l-.09 132.45 57.93-24.84 57.95 24.84v-132.48a16.59 16.59 0 0 0-16.55-16.52z"/><path class="cls-3" d="M433.94 387.35a39.41 39.41 0 0 1-32.88-17.64 4.67 4.67 0 0 1 7.72-5.17 30.12 30.12 0 0 0 50.22 0 4.71 4.71 0 0 1 7.88 5.17 39.41 39.41 0 0 1-32.94 17.64z"/></svg>