<svg xmlns="http://www.w3.org/2000/svg" width="415.72" height="373.46" viewBox="0 0 415.72 373.46"><defs><style>.cls-1{fill:#c00;}</style></defs><title>overview-illustration-guide</title><path d="M216.83 214.73a12.75 12.75 0 0 0 12.89 12.59c29 0 41.11-27.92 50.8-50.65a182.64 182.64 0 0 1 10.93-22.52v219.11h37.92v-111.58a4 4 0 0 1 4-4 4 4 0 0 1 4 4v111.78h37.52v-225.76a23 23 0 0 1 2.34 2c14.29 14.44 13.39 51.9 12.64 81.86-.34 6.68-.35 13.08-.35 19.09 0 6.81 5.13 12.76 11.92 13.2a12.78 12.78 0 0 0 13.63-12.85c0-5.94.3-12.33.3-18.93.85-36.81 1.85-78.11-20-100.49a49.91 49.91 0 0 0-37.16-14.53h-52.42c-27.82 0-39.66 27.42-49.15 49.49-9.09 21-15.88 35-27.27 35a12.74 12.74 0 0 0-12.69 12.78zm-215.31 34.93v.9a12 12 0 0 0 11.69 10.79 11.52 11.52 0 0 0 11.69-11.69l-.3-1.5c.3-21 1.2-65.64 7.79-81.82.3-.6.9-2.1 2.4-2.1 1.2 0 1.8 1.2 1.8 2.4-.3 4.79-3.3 69.83-3.3 69.83s-3.68 24.75 9.65 137h29.26l4-111.51v-.6a3 3 0 1 1 6 0v.6l4 111.51h30.57a1175.18 1175.18 0 0 0 9.24-137l-3.3-69.83c0-9.89 5.4-8.39 9.59-5.4a70.47 70.47 0 0 0 34.17 13.49 36.5 36.5 0 0 0 6.3.3c.6 0 2.69-.3 3-.3 22.78-3 32.67-15.28 41.06-24.58 8.4-9.59 14.69-10.49 19.19-12.28.29-.3.89-.3 1.49-.6a14.46 14.46 0 0 0 5.1-3.6l.9-.9.9-1.8v-.3c.3 0 .3 0 .3-.3v-.6a14.9 14.9 0 0 0 .6-3.59v-.9a5.11 5.11 0 0 0-.3-2.1c-.3-.3-.3-.3-.3-.6l-.6-1.5-.6-.9s-.3-.6-.6-.9a3.94 3.94 0 0 0-.9-1.19l-.6-.6-1.2-.9s-.6-.3-.9-.6c-.6-.3-.9-.3-1.2-.6a2.27 2.27 0 0 0-1.2-.6l-.6-.3h-.29a2.7 2.7 0 0 0-1.5-.3h-1.2a9.25 9.25 0 0 0-3 .3c-11.39 2.1-27.27 13.79-32.07 18.58-8.39 8.09-14.09 14.69-27.87 15-12.29 0-18.58-5.7-26.38-12.59-6-5.1-12.58-11.39-22.47-15a47 47 0 0 0-18-3.29h-51.96c-13.49.6-22.18 5.39-31.17 14.68-22.78 23.38-21.28 71.03-19.48 109.4.3 3.29.3 5.73.6 8.39z"/><path class="cls-1" d="M67.47.44a53.33 53.33 0 1 0 59.66 46.14 53.49 53.49 0 0 0-59.66-46.14zm10.7 41.65l4.73 37-10.58 1.38-4.73-37zm-6-4.62a8.2 8.2 0 0 1-8.95-6.92 8 8 0 1 1 15.87-2 8.2 8.2 0 0 1-6.88 8.92zm270.88-25.89c-34.2-5-66.18 10.25-81.88 36 7.72 29.14 34 52.85 68.22 57.83s66.17-10.25 81.87-36c-7.71-29.14-34.02-52.85-68.21-57.83zm-11.61 79.73a33.18 33.18 0 1 1 37.61-28.05 33.18 33.18 0 0 1-37.61 28.05z"/><circle class="cls-1" cx="336.22" cy="58.48" r="18.96"/></svg>