<svg xmlns="http://www.w3.org/2000/svg" viewBox="0 0 528.1 315" enable-background="new 0 0 528.1 315"><style type="text/css">.st0{fill:#FFFFFF;} .st1{fill:#F2F2F2;} .st2{opacity:0.2;fill:#336DC2;enable-background:new ;} .st3{fill:#373737;}</style><title>proportion</title><path class="st0" d="M291.1.8h236.1v236.1h-236.1v-236.1z"/><path class="st1" d="M526.5 1.5v234.6h-234.6v-234.6h234.6m1.6-1.5h-237.7v237.7h237.7v-237.7z"/><circle class="st2" cx="409.2" cy="118.8" r="99"/><path class="st2" d="M320.1 39.6h178.3c5.5 0 9.9 4.4 9.9 9.9v138.7c0 5.5-4.4 9.9-9.9 9.9h-178.3c-5.5 0-9.9-4.4-9.9-9.9v-138.7c0-5.5 4.4-9.9 9.9-9.9zm9.9 168.4v-178.3c0-5.5 4.4-9.9 9.9-9.9h138.7c5.5 0 9.9 4.4 9.9 9.9v178.3c0 5.5-4.4 9.9-9.9 9.9h-138.7c-5.5 0-9.9-4.5-9.9-9.9zm-9.9-9.9v-158.5c0-5.5 4.4-9.9 9.9-9.9h158.5c5.5 0 9.9 4.4 9.9 9.9v158.5c0 5.5-4.4 9.9-9.9 9.9h-158.5c-5.5 0-9.9-4.5-9.9-9.9zm29.7-188.4h118.9c5.5 0 9.9 4.4 9.9 9.9v198.1c0 5.5-4.4 9.9-9.9 9.9h-118.9c-5.5 0-9.9-4.4-9.9-9.9v-198.1c0-5.5 4.4-9.9 9.9-9.9zm-49.5 168.3v-118.8c0-5.5 4.4-9.9 9.9-9.9h198.1c5.5 0 9.9 4.4 9.9 9.9v118.8c0 5.5-4.4 9.9-9.9 9.9h-198.1c-5.5 0-9.9-4.4-9.9-9.9z"/><path class="st0" d="M.8 40.4h156.9v156.9h-156.9v-156.9z"/><path class="st1" d="M156.9 41.2v155.4h-155.3v-155.4h155.3m1.5-1.6h-158.4v158.4h158.4v-158.4z"/><circle class="st2" cx="79.2" cy="118.8" r="79.2"/><path class="st2" d="M0 59.4h158.5v118.8h-158.5v-118.8z"/><path class="st3" d="M55 314.7h-3.4v-13.1l-4 1.2v-2.8l7.1-2.5h.3v17.2zm14.7-17.2v2.8h-.3c-1.3 0-2.6.4-3.7 1.2-1 .8-1.6 2-1.7 3.2.9-.9 2.2-1.4 3.4-1.4 1.4-.1 2.7.5 3.5 1.6.9 1.2 1.4 2.7 1.3 4.2 0 1-.2 2.1-.7 3-.5.9-1.1 1.6-2 2.1-.9.5-2 .8-3 .8-1.7.1-3.3-.6-4.4-1.9-1.2-1.4-1.7-3.2-1.7-5v-1.2c0-1.7.3-3.4 1-4.9.7-1.4 1.7-2.5 3-3.3 1.4-.8 3-1.2 4.6-1.2h.7zm-3.3 8.5c-.5 0-1 .1-1.5.4-.4.3-.8.7-1 1.1v1c0 .9.2 1.9.7 2.6.4.6 1.1 1 1.9 1 .7 0 1.3-.3 1.8-.9.5-.6.7-1.4.7-2.2 0-.8-.2-1.6-.7-2.2-.5-.5-1.2-.8-1.9-.8zm12.8-.2l2.1-3.8h3.7l-3.6 6.2 3.8 6.5h-3.6l-2.3-4-2.2 4h-3.6l3.8-6.5-3.6-6.2h3.6l1.9 3.8zm15.5 8.9h-3.4v-13.1l-4 1.2v-2.8l7.1-2.5h.4l-.1 17.2zm14.7-17.2v2.8h-.3c-1.3 0-2.6.4-3.7 1.2-1 .8-1.6 2-1.7 3.2.9-.9 2.2-1.4 3.4-1.4 1.4-.1 2.7.5 3.5 1.6.9 1.2 1.4 2.7 1.3 4.2 0 1-.2 2.1-.7 3-.5.9-1.1 1.6-2 2.1-.9.5-2 .8-3 .8-1.7.1-3.3-.6-4.4-1.9-1.2-1.4-1.7-3.2-1.7-5v-1.2c0-1.7.3-3.4 1-4.9.7-1.4 1.7-2.5 3-3.3 1.4-.8 3-1.2 4.6-1.2h.7zm-3.3 8.5c-.5 0-1 .1-1.5.4-.4.3-.8.7-1 1.1v1c0 .9.2 1.9.7 2.6.4.6 1.1 1 1.9 1 .7 0 1.3-.3 1.8-.9.5-.6.7-1.4.7-2.2 0-.8-.2-1.6-.7-2.2-.5-.5-1.1-.8-1.9-.8zm282.3 8.7h-11.7v-2.3l5.5-5.9c.6-.7 1.2-1.4 1.7-2.2.3-.5.5-1.1.5-1.8 0-.6-.2-1.3-.6-1.8-.4-.4-1-.7-1.6-.6-.7 0-1.4.3-1.8.8-.5.6-.7 1.3-.7 2.1h-3.4c0-1 .2-2 .8-2.9.5-.9 1.2-1.5 2.1-2 .9-.5 2-.7 3.1-.7 1.5-.1 2.9.4 4.1 1.3 1 .9 1.5 2.2 1.5 3.6 0 .9-.2 1.8-.7 2.6-.6 1.1-1.4 2.1-2.2 3.1l-3.9 4.1h7.3v2.6zm12.1-6.4h1.9v2.7h-1.9v3.7h-3.4v-3.7h-7l-.1-2.1 7.1-11.2h3.4v10.6zm-7.1 0h3.8v-6l-.2.4-3.6 5.6zm15.8-2.5l2.1-3.8h3.6l-3.6 6.2 3.8 6.5h-3.6l-2.3-4-2.2 4h-3.6l3.8-6.5-3.6-6.2h3.6l2 3.8zm19 8.9h-11.7v-2.3l5.5-5.9c.6-.7 1.2-1.4 1.7-2.2.3-.5.5-1.1.5-1.8 0-.6-.2-1.3-.6-1.8-.4-.4-1-.7-1.6-.6-.7 0-1.4.3-1.8.8-.5.6-.7 1.3-.7 2.1h-3.4c0-1 .2-2 .8-2.9.5-.9 1.2-1.5 2.1-2 .9-.5 2-.7 3.1-.7 1.5-.1 2.9.4 4.1 1.3 1 .9 1.5 2.2 1.5 3.6 0 .9-.2 1.8-.7 2.6-.6 1.1-1.4 2.1-2.2 3.1l-3.9 4.1h7.3v2.6zm12.1-6.4h1.9v2.7h-1.9v3.7h-3.4v-3.7h-7l-.1-2.1 7.1-11.2h3.4v10.6zm-7.2 0h3.8v-6l-.2.4-3.6 5.6z"/><path class="st2" d="M19.8 39.6h118.8v158.5h-118.8zm-9.9 9.9h138.6v138.6h-138.6z"/></svg>