<svg xmlns="http://www.w3.org/2000/svg" width="528.07" height="314.96" viewBox="0 0 528.07 314.96"><defs><style>.cls-1{fill:#fff;}.cls-2{fill:#336dc2;}.cls-3{fill:#662d91;opacity:0.08;}.cls-4{fill:#373737;}</style></defs><title>proportion</title><path class="cls-1" d="M291.15.77h236.15v236.15h-236.15z"/><path class="cls-2" d="M526.53 1.54v234.61h-234.61v-234.61h234.61m1.54-1.54h-237.68v237.69h237.68v-237.69z"/><circle class="cls-3" cx="409.23" cy="118.84" r="99.04"/><rect class="cls-3" x="310.19" y="39.61" width="198.07" height="158.46" rx="9.9" ry="9.9"/><rect class="cls-3" x="310.19" y="39.61" width="198.07" height="158.46" rx="9.9" ry="9.9" transform="translate(290.39 528.07) rotate(-90)"/><rect class="cls-3" x="320.1" y="29.71" width="178.26" height="178.26" rx="9.9" ry="9.9" transform="translate(290.39 528.07) rotate(-90)"/><rect class="cls-3" x="339.9" y="9.67" width="138.65" height="217.88" rx="9.9" ry="9.9"/><rect class="cls-3" x="339.9" y="9.67" width="138.65" height="217.88" rx="9.9" ry="9.9" transform="translate(290.62 527.84) rotate(-90)"/><path class="cls-1" d="M.78 40.4h156.89v156.89h-156.89z"/><path class="cls-2" d="M156.91 41.17v155.35h-155.36v-155.35h155.36m1.53-1.54h-158.44v158.43h158.44v-158.43z"/><circle class="cls-3" cx="79.23" cy="118.84" r="79.23"/><path class="cls-3" d="M9.9 49.52h138.65v138.65h-138.65zm-9.9 9.9h158.46v118.84h-158.46zm19.81 138.65v-158.46h118.84v158.46z"/><path class="cls-4" d="M55 314.73h-3.42v-13.06l-4 1.25v-2.75l7.07-2.53h.35zm14.7-17.24v2.79h-.33a5.73 5.73 0 0 0-3.69 1.19 4.87 4.87 0 0 0-1.68 3.22 4.64 4.64 0 0 1 3.44-1.38 4.34 4.34 0 0 1 3.54 1.6 6.4 6.4 0 0 1 1.31 4.19 6.29 6.29 0 0 1-.72 3 5.16 5.16 0 0 1-2 2.1 5.92 5.92 0 0 1-3 .75 5.54 5.54 0 0 1-4.36-1.87 7.31 7.31 0 0 1-1.65-5v-1.22a11.07 11.07 0 0 1 1-4.9 7.64 7.64 0 0 1 3-3.29 8.78 8.78 0 0 1 4.55-1.18zm-3.3 8.51a2.65 2.65 0 0 0-1.49.43 2.58 2.58 0 0 0-1 1.13v1a4.61 4.61 0 0 0 .67 2.65 2.18 2.18 0 0 0 1.88 1 2.15 2.15 0 0 0 1.76-.86 3.5 3.5 0 0 0 .67-2.23 3.42 3.42 0 0 0-.68-2.24 2.21 2.21 0 0 0-1.81-.88zm12.85-.17l2.14-3.78h3.61l-3.61 6.21 3.76 6.47h-3.62l-2.27-4-2.25 4h-3.64l3.76-6.47-3.6-6.21h3.64zm15.47 8.9h-3.39v-13.06l-4 1.25v-2.75l7.07-2.53h.36zm14.73-17.24v2.79h-.33a5.73 5.73 0 0 0-3.69 1.19 4.87 4.87 0 0 0-1.69 3.22 4.64 4.64 0 0 1 3.44-1.38 4.34 4.34 0 0 1 3.54 1.6 6.4 6.4 0 0 1 1.28 4.19 6.29 6.29 0 0 1-.72 3 5.16 5.16 0 0 1-2 2.1 5.92 5.92 0 0 1-3 .75 5.54 5.54 0 0 1-4.36-1.87 7.31 7.31 0 0 1-1.65-5v-1.22a11.07 11.07 0 0 1 1-4.9 7.64 7.64 0 0 1 3-3.29 8.78 8.78 0 0 1 4.55-1.18zm-3.3 8.55a2.65 2.65 0 0 0-1.49.43 2.58 2.58 0 0 0-1 1.13v1a4.61 4.61 0 0 0 .67 2.65 2.18 2.18 0 0 0 1.88 1 2.15 2.15 0 0 0 1.76-.86 3.5 3.5 0 0 0 .67-2.23 3.42 3.42 0 0 0-.68-2.24 2.21 2.21 0 0 0-1.81-.92zm282.29 8.69h-11.7v-2.32l5.52-5.89a14 14 0 0 0 1.69-2.17 3.47 3.47 0 0 0 .54-1.75 2.62 2.62 0 0 0-.57-1.79 2.09 2.09 0 0 0-1.64-.65 2.22 2.22 0 0 0-1.81.79 3.1 3.1 0 0 0-.67 2.08h-3.4a5.57 5.57 0 0 1 .75-2.85 5.24 5.24 0 0 1 2.1-2 6.4 6.4 0 0 1 3.08-.73 6.08 6.08 0 0 1 4.1 1.26 4.51 4.51 0 0 1 1.46 3.58 5.75 5.75 0 0 1-.66 2.58 14.08 14.08 0 0 1-2.25 3.06l-3.88 4.07h7.34zm12.09-6.43h1.94v2.7h-1.94v3.7h-3.38v-3.7h-7l-.15-2.1 7.11-11.24h3.42zm-7.16 0h3.78v-6l-.23.39zm15.88-2.47l2.14-3.78h3.61l-3.61 6.21 3.76 6.47h-3.63l-2.27-4-2.25 4h-3.64l3.76-6.47-3.6-6.21h3.64zm18.94 8.9h-11.7v-2.32l5.52-5.89a14 14 0 0 0 1.69-2.17 3.47 3.47 0 0 0 .54-1.75 2.62 2.62 0 0 0-.57-1.79 2.09 2.09 0 0 0-1.64-.65 2.22 2.22 0 0 0-1.81.79 3.1 3.1 0 0 0-.67 2.08h-3.4a5.57 5.57 0 0 1 .75-2.85 5.24 5.24 0 0 1 2.1-2 6.4 6.4 0 0 1 3.08-.73 6.08 6.08 0 0 1 4.1 1.26 4.51 4.51 0 0 1 1.46 3.58 5.75 5.75 0 0 1-.66 2.58 14.08 14.08 0 0 1-2.25 3.06l-3.88 4.07h7.34zm12.09-6.43h1.94v2.7h-1.94v3.7h-3.38v-3.7h-7l-.15-2.13 7.11-11.24h3.42zm-7.16 0h3.78v-6l-.23.39z"/></svg>