<svg xmlns="http://www.w3.org/2000/svg" width="593" height="259.03" viewBox="0 0 593 259.03"><defs><style>.cls-1{fill:#c00;}.cls-2{fill:#fff;}.cls-3{fill:#f2f2f2;}.cls-4,.cls-5,.cls-6,.cls-8,.cls-9{fill:none;stroke-linecap:round;stroke-miterlimit:10;}.cls-4{stroke:#dcdcdc;}.cls-4,.cls-5,.cls-6{stroke-width:6.08px;}.cls-5{stroke:#336dc2;}.cls-6,.cls-8{stroke:#373737;}.cls-7{fill:#7a0000;}.cls-8{stroke-width:4.06px;}.cls-9{stroke:#fff;stroke-width:6.8px;}</style></defs><title>rounded-line</title><path d="M188.78 152.46a8.55 8.55 0 0 0 8.65 8.45c19.45 0 27.6-18.74 34.11-34a122.56 122.56 0 0 1 7.34-15.12v147.11h25.45v-74.9a2.68 2.68 0 0 1 2.67-2.7 2.68 2.68 0 0 1 2.7 2.7v75h25.18v-151.54a13.23 13.23 0 0 1 1.58 1.31c9.59 9.69 9 34.84 8.48 55-.23 4.48-.23 8.78-.23 12.82a8.78 8.78 0 0 0 8 8.86 8.59 8.59 0 0 0 9.17-8.57c0-4 .2-8.28.2-12.71.57-24.71 1.24-52.44-13.42-67.47a33.51 33.51 0 0 0-24.94-9.76h-35.22c-18.67 0-26.62 18.41-33 33.24-6.11 14.08-10.67 23.47-18.31 23.47a8.55 8.55 0 0 0-8.52 8.58z"/><path class="cls-1" d="M238 73.86c5.79 3.87 16.55 6.46 29.17 6.46s23.51-2.62 29.17-6.46v-16.55a70.94 70.94 0 0 1-29.2 5.43 71 71 0 0 1-29.14-5.43zm0-24.55c5.79 3.87 16.55 6.46 29.17 6.46s23.51-2.62 29.17-6.46v-16.55a70.94 70.94 0 0 1-29.2 5.43 71 71 0 0 1-29.14-5.43zm0-24.66c5.79 3.87 16.55 6.47 29.17 6.47s23.51-2.62 29.17-6.47v-18.18c-5.83-3.87-16.58-6.47-29.21-6.47s-23.51 2.62-29.13 6.47z"/><path class="cls-2" d="M53 59.33c-23.36 0-43.48 4.72-53 11.54v118.26c9.52 6.82 29.64 11.54 53 11.54s43.48-4.72 53-11.54v-118.26c-9.52-6.82-29.64-11.54-53-11.54z"/><path class="cls-1" d="M11.87 65.15l32.71 32.71-30.58 30.57a6.63 6.63 0 1 0 9.37 9.37l35.25-35.25a6.62 6.62 0 0 0 0-9.38l-31.7-31.72a154.28 154.28 0 0 1 26.08-2.12c23.36 0 43.48 4.72 53 11.54v118.25a45.92 45.92 0 0 1-11.87 5.73l-32.71-32.71 30.58-30.57a6.63 6.63 0 1 0-9.37-9.37l-35.27 35.25a6.62 6.62 0 0 0 0 9.38l31.72 31.72a155.32 155.32 0 0 1-26.08 2.12c-23.36 0-43.48-4.72-53-11.55v-118.25a46.26 46.26 0 0 1 11.87-5.72z"/><path class="cls-2" d="M392.07 65.46h199.87v127.89h-199.87z"/><path class="cls-3" d="M590.87 66.53v125.76h-197.73v-125.76h197.73m2.13-2.13h-202v130h202v-130z"/><path class="cls-4" d="M447.6 126.45h103.07m-103.07 12.77h98.37m-98.37 12.77h73.82"/><path class="cls-5" d="M447.6 171.93h30.09"/><path class="cls-4" d="M447.6 113.68h101.54"/><path class="cls-6" d="M470.91 94.51h59.53"/><path class="cls-3" d="M391 64.4h47.06v130.03h-47.06z"/><path class="cls-7" d="M391 60.36h202v16.67h-202z"/><path class="cls-1" d="M391 60.36h15.48v16.67h-15.48z"/><path class="cls-8" d="M399.82 100.43h29.26m-29.26 12.76h29.26m-29.26-25.53h29.26"/><path class="cls-9" d="M539.85 68.69h42.43"/><path class="cls-1" d="M462.18 102.53c-1.31.94-4.07 1.59-7.29 1.59s-6-.65-7.28-1.59v-16.26c1.3-.94 4.07-1.59 7.28-1.59s6 .65 7.29 1.59z"/></svg>