<?xml version="1.0" encoding="utf-8"?>
<!-- Generator: Adobe Illustrator 18.0.0, SVG Export Plug-In . SVG Version: 6.00 Build 0)  -->
<!DOCTYPE svg PUBLIC "-//W3C//DTD SVG 1.1//EN" "http://www.w3.org/Graphics/SVG/1.1/DTD/svg11.dtd">
<svg version="1.1" id="Layer_1" xmlns="http://www.w3.org/2000/svg" xmlns:xlink="http://www.w3.org/1999/xlink" x="0px" y="0px"
	 width="750px" height="257.8px" viewBox="0 0 750 257.8" enable-background="new 0 0 750 257.8" xml:space="preserve">
<g>
	<rect x="0" y="0" fill="#FFFFFF" width="750" height="257.8"/>
	<g>
		<rect x="366.4" y="77.6" fill="#3C85DF" width="25.7" height="34.2"/>
		<path fill="#3C85DF" d="M413.5,51.9H310.8c-6.8,0-12.8,6-12.8,12.8v128.4c0,6.8,6,12.8,12.8,12.8h128.4c6.8,0,12.8-6,12.8-12.8
			V90.4L413.5,51.9z M409.2,120.4h-85.6V69h85.6V120.4z"/>
	</g>
	<g>
		<g>
			
				<image overflow="visible" opacity="0.2" width="118" height="66" xlink:href="FF79C35B7F6C409E.png"  transform="matrix(1 0 0 1 422.4003 31.1944)">
			</image>
			<g>
				<rect x="427.1" y="35.6" fill="#F2F2F2" width="104.9" height="52.9"/>
			</g>
		</g>
		<g>
			<path fill="#373737" d="M460.5,67.6c0-0.5-0.1-0.9-0.2-1.3c-0.2-0.4-0.4-0.7-0.8-1c-0.4-0.3-0.9-0.6-1.6-0.9
				c-0.7-0.3-1.5-0.6-2.5-0.9c-1.1-0.3-2-0.6-2.9-1c-0.9-0.4-1.6-0.8-2.2-1.3s-1.1-1.1-1.4-1.7c-0.3-0.6-0.5-1.4-0.5-2.2
				s0.2-1.6,0.5-2.3c0.3-0.7,0.8-1.3,1.5-1.8c0.6-0.5,1.4-0.9,2.3-1.2c0.9-0.3,1.9-0.4,3-0.4c1.2,0,2.3,0.2,3.2,0.5
				c0.9,0.4,1.7,0.8,2.4,1.4c0.6,0.6,1.1,1.3,1.5,2.1c0.3,0.8,0.5,1.6,0.5,2.4h-2.8c0-0.6-0.1-1.1-0.3-1.7c-0.2-0.5-0.5-0.9-0.9-1.3
				c-0.4-0.4-0.9-0.7-1.5-0.9c-0.6-0.2-1.3-0.3-2.1-0.3c-0.8,0-1.4,0.1-2,0.3c-0.6,0.2-1,0.4-1.4,0.7c-0.4,0.3-0.6,0.7-0.8,1.1
				s-0.3,0.9-0.3,1.4c0,0.4,0.1,0.9,0.3,1.2c0.2,0.4,0.5,0.7,0.9,1c0.4,0.3,0.9,0.6,1.5,0.9c0.6,0.3,1.4,0.5,2.3,0.8
				c1.2,0.3,2.3,0.7,3.1,1.1c0.9,0.4,1.6,0.9,2.2,1.4c0.6,0.5,1,1.1,1.3,1.8c0.3,0.7,0.4,1.4,0.4,2.2c0,0.9-0.2,1.7-0.5,2.4
				c-0.4,0.7-0.9,1.3-1.5,1.8c-0.6,0.5-1.4,0.9-2.3,1.1c-0.9,0.3-1.9,0.4-3,0.4c-0.7,0-1.3-0.1-2-0.2c-0.7-0.1-1.3-0.3-1.9-0.5
				c-0.6-0.2-1.2-0.5-1.7-0.9c-0.5-0.4-1-0.8-1.3-1.3c-0.4-0.5-0.7-1-0.9-1.6c-0.2-0.6-0.3-1.2-0.3-2h2.8c0,0.7,0.1,1.4,0.4,1.9
				c0.3,0.5,0.7,1,1.2,1.3c0.5,0.3,1,0.6,1.7,0.8c0.6,0.2,1.3,0.2,2,0.2c1.5,0,2.6-0.3,3.4-0.9S460.5,68.7,460.5,67.6z"/>
			<path fill="#373737" d="M476.3,73c-0.1-0.2-0.2-0.4-0.2-0.7c-0.1-0.3-0.1-0.6-0.1-0.9c-0.3,0.3-0.5,0.5-0.9,0.8
				c-0.3,0.2-0.7,0.4-1,0.6c-0.4,0.2-0.8,0.3-1.2,0.4c-0.4,0.1-0.9,0.2-1.4,0.2c-0.8,0-1.5-0.1-2.2-0.4c-0.7-0.2-1.2-0.6-1.7-1
				c-0.5-0.4-0.8-0.9-1.1-1.5s-0.4-1.2-0.4-1.8c0-0.8,0.2-1.6,0.5-2.2c0.3-0.6,0.8-1.2,1.4-1.6c0.6-0.4,1.4-0.8,2.2-1
				s1.9-0.3,2.9-0.3h2.7v-1.2c0-0.9-0.3-1.7-0.8-2.3s-1.4-0.8-2.5-0.8c-0.5,0-1,0.1-1.4,0.2c-0.4,0.1-0.8,0.3-1.1,0.5
				c-0.3,0.2-0.5,0.5-0.7,0.8c-0.2,0.3-0.2,0.6-0.2,1h-2.7c0-0.6,0.1-1.1,0.4-1.7c0.3-0.6,0.7-1.1,1.3-1.5s1.2-0.8,2-1.1
				c0.8-0.3,1.6-0.4,2.6-0.4c0.9,0,1.7,0.1,2.4,0.3c0.7,0.2,1.3,0.6,1.9,1c0.5,0.4,0.9,1,1.2,1.7c0.3,0.7,0.4,1.4,0.4,2.3v7.4
				c0,0.5,0,1.1,0.1,1.7c0.1,0.6,0.2,1.1,0.4,1.5V73H476.3z M471.8,70.9c0.5,0,0.9-0.1,1.4-0.2c0.4-0.1,0.8-0.3,1.2-0.5
				c0.4-0.2,0.7-0.5,0.9-0.8c0.3-0.3,0.5-0.6,0.6-0.9v-3.2h-2.3c-1.6,0-2.7,0.2-3.6,0.7c-0.8,0.5-1.3,1.2-1.3,2.2
				c0,0.4,0.1,0.7,0.2,1.1c0.1,0.3,0.3,0.6,0.6,0.9c0.3,0.2,0.6,0.4,1,0.6S471.3,70.9,471.8,70.9z"/>
			<path fill="#373737" d="M487.8,69.3l3.9-12.2h2.8L488.9,73h-2.1l-5.7-15.8h2.8L487.8,69.3z"/>
			<path fill="#373737" d="M503.5,73.3c-1.1,0-2.1-0.2-3-0.6c-0.9-0.4-1.7-0.9-2.3-1.6s-1.1-1.5-1.5-2.4c-0.3-0.9-0.5-2-0.5-3.1V65
				c0-1.3,0.2-2.4,0.6-3.5c0.4-1,0.9-1.9,1.5-2.6s1.4-1.2,2.2-1.6c0.8-0.4,1.7-0.5,2.6-0.5c1.1,0,2.1,0.2,2.9,0.6
				c0.8,0.4,1.5,0.9,2,1.6c0.5,0.7,0.9,1.5,1.2,2.5c0.3,0.9,0.4,2,0.4,3.1v1.2H499c0,0.7,0.1,1.4,0.4,2c0.2,0.6,0.5,1.2,0.9,1.7
				c0.4,0.5,0.9,0.8,1.5,1.1c0.6,0.3,1.2,0.4,1.9,0.4c1,0,1.8-0.2,2.4-0.6c0.7-0.4,1.2-0.9,1.7-1.5l1.7,1.3
				c-0.3,0.4-0.6,0.8-0.9,1.1c-0.4,0.4-0.8,0.7-1.3,1c-0.5,0.3-1,0.5-1.7,0.7C505,73.2,504.3,73.3,503.5,73.3z M503.2,59.1
				c-0.5,0-1,0.1-1.5,0.3c-0.5,0.2-0.9,0.5-1.2,0.9c-0.4,0.4-0.7,0.9-0.9,1.4s-0.4,1.2-0.5,1.9h7.9v-0.2c0-0.5-0.1-1-0.3-1.6
				c-0.1-0.5-0.4-1-0.7-1.4c-0.3-0.4-0.7-0.7-1.1-1S503.9,59.1,503.2,59.1z"/>
		</g>
	</g>
</g>
</svg>
