<?xml version="1.0" encoding="utf-8"?>
<!-- Generator: Adobe Illustrator 19.2.1, SVG Export Plug-In . SVG Version: 6.00 Build 0)  -->
<!DOCTYPE svg PUBLIC "-//W3C//DTD SVG 1.1//EN" "http://www.w3.org/Graphics/SVG/1.1/DTD/svg11.dtd">
<svg version="1.1" id="Layer_1" xmlns="http://www.w3.org/2000/svg" xmlns:xlink="http://www.w3.org/1999/xlink" x="0px" y="0px"
	 width="97.9px" height="102.8px" viewBox="0 0 97.9 102.8" style="enable-background:new 0 0 97.9 102.8;" xml:space="preserve">
<style type="text/css">
	.st0{fill:#FFB500;stroke:#FFFFFF;stroke-width:3.0419;stroke-miterlimit:10;}
	.st1{fill:#CC0000;stroke:#FFFFFF;stroke-width:3.0419;stroke-miterlimit:10;}
</style>
<g>
	<path class="st0" d="M40.9,92.3l-8.1-13.9l8.1-13.9h16l8,13.9l-8,13.9H40.9z M64.3,78.3l-8-13.9l8-13.8h16.1l8,13.8l-8,13.9H64.3z
		 M40.9,64.4l-8.1-13.9l8.1-13.9h16l8,13.9l-8,13.9H40.9z M16.7,78.2l-8-13.8l8-13.9h16.1l8,13.9l-8,13.8H16.7z"/>
	<path class="st0" d="M56.2,9.5l8.1,13.9l-8.1,13.9h-16l-8-13.9l8-13.9H56.2z M32.8,23.5l8,13.9l-8,13.8H16.7l-8-13.8l8-13.9H32.8z
		 M80.4,23.6l8,13.8l-8,13.9H64.3l-8-13.9l8-13.8H80.4z"/>
	<path class="st1" d="M57.3,37.3l8.1,13.9l-8.1,13.9h-16l-8-13.9l8-13.9H57.3z"/>
</g>
</svg>
