<?xml version="1.0" encoding="utf-8"?>
<!-- Generator: Adobe Illustrator 18.0.0, SVG Export Plug-In . SVG Version: 6.00 Build 0)  -->
<!DOCTYPE svg PUBLIC "-//W3C//DTD SVG 1.1//EN" "http://www.w3.org/Graphics/SVG/1.1/DTD/svg11.dtd">
<svg version="1.1" id="Layer_1" xmlns="http://www.w3.org/2000/svg" xmlns:xlink="http://www.w3.org/1999/xlink" x="0px" y="0px"
	 width="750px" height="400px" viewBox="0 0 750 400" enable-background="new 0 0 750 400" xml:space="preserve">
<g>
	<circle fill="#CC0000" cx="222" cy="75.4" r="54.2"/>
	<circle fill="#FE9901" cx="222" cy="197.8" r="54.2"/>
	<path fill="#1AAC1E" d="M222,270.4c-30,0-54.2,24.3-54.2,54.2s24.3,54.2,54.2,54.2s54.2-24.3,54.2-54.2S252,270.4,222,270.4z
		 M223.8,353.1L223.8,353.1c-3,0-6-6.1-7.3-16.1h-20.5c-2.2,0-4.1-5.8-4.1-12.5s1.8-12.5,4.1-12.5h20.5c1.2-9,4.3-15.9,7.3-15.9v0
		l28.5,28.5L223.8,353.1z"/>
	<circle fill="#3D3D3D" cx="528" cy="75.4" r="54.2"/>
	<circle fill="#A7A7A7" cx="528" cy="197.8" r="54.2"/>
	<path fill="#717171" d="M528,270.4c-30,0-54.2,24.3-54.2,54.2s24.3,54.2,54.2,54.2c30,0,54.2-24.3,54.2-54.2S557.9,270.4,528,270.4
		z M529.8,353.1L529.8,353.1c-3,0-6.1-6.1-7.4-16.1H502c-2.2,0-4.1-5.8-4.1-12.5s1.8-12.5,4.1-12.5h20.5c1.2-9,4.4-15.9,7.4-15.9v0
		l28.5,28.5L529.8,353.1z"/>
</g>
</svg>
