<?xml version="1.0" encoding="utf-8"?>
<!-- Generator: Adobe Illustrator 18.0.0, SVG Export Plug-In . SVG Version: 6.00 Build 0)  -->
<!DOCTYPE svg PUBLIC "-//W3C//DTD SVG 1.1//EN" "http://www.w3.org/Graphics/SVG/1.1/DTD/svg11.dtd">
<svg version="1.1" id="Layer_1" xmlns="http://www.w3.org/2000/svg" xmlns:xlink="http://www.w3.org/1999/xlink" x="0px" y="0px"
	 width="750px" height="868.7px" viewBox="0 0 750 868.7" enable-background="new 0 0 750 868.7" xml:space="preserve">
<g>
	<rect x="0" y="0" fill="#F2F2F2" width="125" height="108.6"/>
	<rect x="0" y="108.6" fill="#EBEBEB" width="125" height="108.6"/>
	<rect x="0" y="217.2" fill="#DCDCDC" width="125" height="108.6"/>
	<rect x="0" y="325.8" fill="#B6B6B6" width="125" height="108.6"/>
	<rect x="0" y="542.9" fill="#373737" width="125" height="108.6"/>
	<rect x="0" y="651.5" fill="#222222" width="125" height="108.6"/>
	<rect x="0" y="760.1" width="125" height="108.6"/>
	<rect x="0" y="434.3" fill="#767676" width="125" height="108.6"/>
</g>
<g>
	<rect x="125" y="0" fill="#D8E7F9" width="125" height="108.6"/>
	<rect x="125" y="108.6" fill="#B1CEF2" width="125" height="108.6"/>
	<rect x="125" y="217.2" fill="#8AB6EC" width="125" height="108.6"/>
	<rect x="125" y="325.8" fill="#3C85DF" width="125" height="108.6"/>
	<rect x="125" y="542.9" fill="#2A5E9D" width="125" height="108.6"/>
	<rect x="125" y="651.5" fill="#183559" width="125" height="108.6"/>
	<rect x="125" y="434.3" fill="#3576C6" width="125" height="108.6"/>
</g>
<g>
	<rect x="250" y="0" fill="#D1EED2" width="125" height="108.6"/>
	<rect x="250" y="108.6" fill="#A3DEA5" width="125" height="108.6"/>
	<rect x="250" y="217.2" fill="#76CD78" width="125" height="108.6"/>
	<rect x="250" y="325.8" fill="#1AAC1E" width="125" height="108.6"/>
	<rect x="250" y="542.9" fill="#0E5B10" width="125" height="108.6"/>
	<rect x="250" y="434.3" fill="#158A18" width="125" height="108.6"/>
</g>
<g>
	<rect x="375" y="0" fill="#F5CCCC" width="125" height="108.6"/>
	<rect x="375" y="108.6" fill="#EB9999" width="125" height="108.6"/>
	<rect x="375" y="217.2" fill="#E06666" width="125" height="108.6"/>
	<rect x="375" y="325.8" fill="#CC0000" width="125" height="108.6"/>
	<rect x="375" y="542.9" fill="#7A0000" width="125" height="108.6"/>
	<rect x="375" y="434.3" fill="#A30000" width="125" height="108.6"/>
</g>
<g>
	<rect x="500" y="0" fill="#FFEBCC" width="125" height="108.6"/>
	<rect x="500" y="108.6" fill="#FFD699" width="125" height="108.6"/>
	<rect x="500" y="217.2" fill="#FEC267" width="125" height="108.6"/>
	<rect x="500" y="325.8" fill="#FE9901" width="125" height="108.6"/>
</g>
<g>
	<rect x="625" y="0" fill="#FFF9D7" width="125" height="108.6"/>
	<rect x="625" y="108.6" fill="#FFF4AE" width="125" height="108.6"/>
	<rect x="625" y="217.2" fill="#FFEE86" width="125" height="108.6"/>
	<rect x="625" y="325.8" fill="#FFE335" width="125" height="108.6"/>
</g>
<g>
	<path fill="none" d="M20.6,0.2h83.8V84H20.6V0.2z"/>
	<path fill="#373737" d="M53.1,69.3l39.4-39.4l-9.8-9.8L53.1,49.8L42.3,38.6c-2.1,0.7-4.5,2.1-6.3,3.8c-1.7,1.7-3.1,3.8-3.8,6.3
		L53.1,69.3z"/>
</g>
<g>
	<path fill="#373737" d="M49.1,96.8h-6.3l-1.2,3.6h-3.8l6.5-17.5h3.3l6.6,17.5h-3.8L49.1,96.8z M43.7,93.9h4.4l-2.2-6.6L43.7,93.9z"
		/>
	<path fill="#373737" d="M65.7,96.8h-6.3l-1.2,3.6h-3.8l6.5-17.5h3.3l6.6,17.5h-3.8L65.7,96.8z M60.3,93.9h4.4l-2.2-6.6L60.3,93.9z"
		/>
	<path fill="#373737" d="M82.2,96.8h-6.3l-1.2,3.6h-3.8l6.5-17.5h3.3l6.6,17.5h-3.8L82.2,96.8z M76.9,93.9h4.4l-2.2-6.6L76.9,93.9z"
		/>
</g>
<g>
	<path fill="none" d="M20.6,108.6h83.8v83.8H20.6V108.6z"/>
	<path fill="#373737" d="M53.1,177.7l39.4-39.4l-9.8-9.8l-29.7,29.7L42.3,147c-2.1,0.7-4.5,2.1-6.3,3.8c-1.7,1.7-3.1,3.8-3.8,6.3
		L53.1,177.7z"/>
</g>
<g>
	<path fill="#373737" d="M49.1,205.2h-6.3l-1.2,3.6h-3.8l6.5-17.5h3.3l6.6,17.5h-3.8L49.1,205.2z M43.7,202.2h4.4l-2.2-6.6
		L43.7,202.2z"/>
	<path fill="#373737" d="M65.7,205.2h-6.3l-1.2,3.6h-3.8l6.5-17.5h3.3l6.6,17.5h-3.8L65.7,205.2z M60.3,202.2h4.4l-2.2-6.6
		L60.3,202.2z"/>
	<path fill="#373737" d="M82.2,205.2h-6.3l-1.2,3.6h-3.8l6.5-17.5h3.3l6.6,17.5h-3.8L82.2,205.2z M76.9,202.2h4.4l-2.2-6.6
		L76.9,202.2z"/>
</g>
<g>
	<path fill="none" d="M20.6,217.2h83.8V301H20.6V217.2z"/>
	<path fill="#373737" d="M53.1,286.3l39.4-39.4l-9.8-9.8l-29.7,29.7l-10.8-11.2c-2.1,0.7-4.5,2.1-6.3,3.8c-1.7,1.7-3.1,3.8-3.8,6.3
		L53.1,286.3z"/>
</g>
<g>
	<path fill="#373737" d="M49.1,313.7h-6.3l-1.2,3.6h-3.8l6.5-17.5h3.3l6.6,17.5h-3.8L49.1,313.7z M43.7,310.8h4.4l-2.2-6.6
		L43.7,310.8z"/>
	<path fill="#373737" d="M65.7,313.7h-6.3l-1.2,3.6h-3.8l6.5-17.5h3.3l6.6,17.5h-3.8L65.7,313.7z M60.3,310.8h4.4l-2.2-6.6
		L60.3,310.8z"/>
	<path fill="#373737" d="M82.2,313.7h-6.3l-1.2,3.6h-3.8l6.5-17.5h3.3l6.6,17.5h-3.8L82.2,313.7z M76.9,310.8h4.4l-2.2-6.6
		L76.9,310.8z"/>
</g>
<g>
	<path fill="none" d="M20.6,325.8h83.8v83.8H20.6V325.8z"/>
	<path fill="#373737" d="M53.1,394.9l39.4-39.4l-9.8-9.8l-29.7,29.7l-10.8-11.2c-2.1,0.7-4.5,2.1-6.3,3.8c-1.7,1.7-3.1,3.8-3.8,6.3
		L53.1,394.9z"/>
</g>
<g>
	<path fill="#373737" d="M57.4,422.3H51l-1.2,3.6H46l6.5-17.5h3.3l6.6,17.5h-3.8L57.4,422.3z M52,419.4h4.4l-2.2-6.6L52,419.4z"/>
	<path fill="#373737" d="M74,422.3h-6.3l-1.2,3.6h-3.8l6.5-17.5h3.3l6.6,17.5h-3.8L74,422.3z M68.6,419.4H73l-2.2-6.6L68.6,419.4z"
		/>
</g>
<g>
	<path fill="none" d="M20.6,434.3h83.8v83.8H20.6V434.3z"/>
	<path fill="#FFFFFF" d="M53.1,503.5L92.5,464l-9.8-9.8l-29.7,29.7l-10.8-11.2c-2.1,0.7-4.5,2.1-6.3,3.8c-1.7,1.7-3.1,3.8-3.8,6.3
		L53.1,503.5z"/>
</g>
<g>
	<path fill="#FFFFFF" d="M57.4,530.9H51l-1.2,3.6H46l6.5-17.5h3.3l6.6,17.5h-3.8L57.4,530.9z M52,528h4.4l-2.2-6.6L52,528z"/>
	<path fill="#FFFFFF" d="M74,530.9h-6.3l-1.2,3.6h-3.8l6.5-17.5h3.3l6.6,17.5h-3.8L74,530.9z M68.6,528H73l-2.2-6.6L68.6,528z"/>
</g>
<g>
	<path fill="none" d="M20.6,542.9h83.8v83.8H20.6V542.9z"/>
	<path fill="#FFFFFF" d="M53.1,612l39.4-39.4l-9.8-9.8l-29.7,29.7l-10.8-11.2c-2.1,0.7-4.5,2.1-6.3,3.8c-1.7,1.7-3.1,3.8-3.8,6.3
		L53.1,612z"/>
</g>
<g>
	<path fill="#FFFFFF" d="M49.1,639.5h-6.3l-1.2,3.6h-3.8l6.5-17.5h3.3l6.6,17.5h-3.8L49.1,639.5z M43.7,636.6h4.4l-2.2-6.6
		L43.7,636.6z"/>
	<path fill="#FFFFFF" d="M65.7,639.5h-6.3l-1.2,3.6h-3.8l6.5-17.5h3.3l6.6,17.5h-3.8L65.7,639.5z M60.3,636.6h4.4l-2.2-6.6
		L60.3,636.6z"/>
	<path fill="#FFFFFF" d="M82.2,639.5h-6.3l-1.2,3.6h-3.8l6.5-17.5h3.3l6.6,17.5h-3.8L82.2,639.5z M76.9,636.6h4.4l-2.2-6.6
		L76.9,636.6z"/>
</g>
<g>
	<path fill="none" d="M270.6,0.2h83.8V84h-83.8V0.2z"/>
	<path fill="#373737" d="M303.1,69.3l39.4-39.4l-9.8-9.8l-29.7,29.7l-10.8-11.2c-2.1,0.7-4.5,2.1-6.3,3.8s-3.1,3.8-3.8,6.3
		L303.1,69.3z"/>
</g>
<g>
	<path fill="#373737" d="M299.1,96.8h-6.3l-1.2,3.6h-3.8l6.5-17.5h3.3l6.6,17.5h-3.8L299.1,96.8z M293.7,93.9h4.4l-2.2-6.6
		L293.7,93.9z"/>
	<path fill="#373737" d="M315.7,96.8h-6.3l-1.2,3.6h-3.8l6.5-17.5h3.3l6.6,17.5h-3.8L315.7,96.8z M310.3,93.9h4.4l-2.2-6.6
		L310.3,93.9z"/>
	<path fill="#373737" d="M332.2,96.8h-6.3l-1.2,3.6h-3.8l6.5-17.5h3.3l6.6,17.5h-3.8L332.2,96.8z M326.9,93.9h4.4l-2.2-6.6
		L326.9,93.9z"/>
</g>
<g>
	<path fill="none" d="M270.6,108.6h83.8v83.8h-83.8V108.6z"/>
	<path fill="#373737" d="M303.1,177.7l39.4-39.4l-9.8-9.8l-29.7,29.7L292.3,147c-2.1,0.7-4.5,2.1-6.3,3.8s-3.1,3.8-3.8,6.3
		L303.1,177.7z"/>
</g>
<g>
	<path fill="#373737" d="M299.1,205.2h-6.3l-1.2,3.6h-3.8l6.5-17.5h3.3l6.6,17.5h-3.8L299.1,205.2z M293.7,202.2h4.4l-2.2-6.6
		L293.7,202.2z"/>
	<path fill="#373737" d="M315.7,205.2h-6.3l-1.2,3.6h-3.8l6.5-17.5h3.3l6.6,17.5h-3.8L315.7,205.2z M310.3,202.2h4.4l-2.2-6.6
		L310.3,202.2z"/>
	<path fill="#373737" d="M332.2,205.2h-6.3l-1.2,3.6h-3.8l6.5-17.5h3.3l6.6,17.5h-3.8L332.2,205.2z M326.9,202.2h4.4l-2.2-6.6
		L326.9,202.2z"/>
</g>
<g>
	<path fill="none" d="M270.6,217.2h83.8V301h-83.8V217.2z"/>
	<path fill="#373737" d="M303.1,286.3l39.4-39.4l-9.8-9.8l-29.7,29.7l-10.8-11.2c-2.1,0.7-4.5,2.1-6.3,3.8s-3.1,3.8-3.8,6.3
		L303.1,286.3z"/>
</g>
<g>
	<path fill="#373737" d="M307.4,313.7H301l-1.2,3.6H296l6.5-17.5h3.3l6.6,17.5h-3.8L307.4,313.7z M302,310.8h4.4l-2.2-6.6L302,310.8
		z"/>
	<path fill="#373737" d="M324,313.7h-6.3l-1.2,3.6h-3.8l6.5-17.5h3.3l6.6,17.5h-3.8L324,313.7z M318.6,310.8h4.4l-2.2-6.6
		L318.6,310.8z"/>
</g>
<g>
	<path fill="#FFFFFF" d="M307.4,422.3H301l-1.2,3.6H296l6.5-17.5h3.3l6.6,17.5h-3.8L307.4,422.3z M302,419.4h4.4l-2.2-6.6L302,419.4
		z"/>
	<path fill="#FFFFFF" d="M324,422.3h-6.3l-1.2,3.6h-3.8l6.5-17.5h3.3l6.6,17.5h-3.8L324,422.3z M318.6,419.4h4.4l-2.2-6.6
		L318.6,419.4z"/>
</g>
<g>
	<path fill="#FFFFFF" d="M307.4,530.9H301l-1.2,3.6H296l6.5-17.5h3.3l6.6,17.5h-3.8L307.4,530.9z M302,528h4.4l-2.2-6.6L302,528z"/>
	<path fill="#FFFFFF" d="M324,530.9h-6.3l-1.2,3.6h-3.8l6.5-17.5h3.3l6.6,17.5h-3.8L324,530.9z M318.6,528h4.4l-2.2-6.6L318.6,528z"
		/>
</g>
<g>
	<path fill="none" d="M270.6,542.9h83.8v83.8h-83.8V542.9z"/>
	<path fill="#FFFFFF" d="M303.1,612l39.4-39.4l-9.8-9.8l-29.7,29.7l-10.8-11.2c-2.1,0.7-4.5,2.1-6.3,3.8s-3.1,3.8-3.8,6.3L303.1,612
		z"/>
</g>
<g>
	<path fill="#FFFFFF" d="M299.1,639.5h-6.3l-1.2,3.6h-3.8l6.5-17.5h3.3l6.6,17.5h-3.8L299.1,639.5z M293.7,636.6h4.4l-2.2-6.6
		L293.7,636.6z"/>
	<path fill="#FFFFFF" d="M315.7,639.5h-6.3l-1.2,3.6h-3.8l6.5-17.5h3.3l6.6,17.5h-3.8L315.7,639.5z M310.3,636.6h4.4l-2.2-6.6
		L310.3,636.6z"/>
	<path fill="#FFFFFF" d="M332.2,639.5h-6.3l-1.2,3.6h-3.8l6.5-17.5h3.3l6.6,17.5h-3.8L332.2,639.5z M326.9,636.6h4.4l-2.2-6.6
		L326.9,636.6z"/>
</g>
<g>
	<path fill="none" d="M395.6,0.2h83.8V84h-83.8V0.2z"/>
	<path fill="#373737" d="M428.1,69.3l39.4-39.4l-9.8-9.8l-29.7,29.7l-10.8-11.2c-2.1,0.7-4.5,2.1-6.3,3.8s-3.1,3.8-3.8,6.3
		L428.1,69.3z"/>
</g>
<g>
	<path fill="#373737" d="M424.1,96.8h-6.3l-1.2,3.6h-3.8l6.5-17.5h3.3l6.6,17.5h-3.8L424.1,96.8z M418.7,93.9h4.4l-2.2-6.6
		L418.7,93.9z"/>
	<path fill="#373737" d="M440.7,96.8h-6.3l-1.2,3.6h-3.8l6.5-17.5h3.3l6.6,17.5h-3.8L440.7,96.8z M435.3,93.9h4.4l-2.2-6.6
		L435.3,93.9z"/>
	<path fill="#373737" d="M457.2,96.8h-6.3l-1.2,3.6h-3.8l6.5-17.5h3.3l6.6,17.5h-3.8L457.2,96.8z M451.9,93.9h4.4l-2.2-6.6
		L451.9,93.9z"/>
</g>
<g>
	<path fill="none" d="M395.6,108.6h83.8v83.8h-83.8V108.6z"/>
	<path fill="#373737" d="M428.1,177.7l39.4-39.4l-9.8-9.8l-29.7,29.7L417.3,147c-2.1,0.7-4.5,2.1-6.3,3.8s-3.1,3.8-3.8,6.3
		L428.1,177.7z"/>
</g>
<g>
	<path fill="#373737" d="M432.4,205.2H426l-1.2,3.6H421l6.5-17.5h3.3l6.6,17.5h-3.8L432.4,205.2z M427,202.2h4.4l-2.2-6.6L427,202.2
		z"/>
	<path fill="#373737" d="M449,205.2h-6.3l-1.2,3.6h-3.8l6.5-17.5h3.3l6.6,17.5h-3.8L449,205.2z M443.6,202.2h4.4l-2.2-6.6
		L443.6,202.2z"/>
</g>
<g>
	<path fill="#373737" d="M432.4,313.7H426l-1.2,3.6H421l6.5-17.5h3.3l6.6,17.5h-3.8L432.4,313.7z M427,310.8h4.4l-2.2-6.6L427,310.8
		z"/>
	<path fill="#373737" d="M449,313.7h-6.3l-1.2,3.6h-3.8l6.5-17.5h3.3l6.6,17.5h-3.8L449,313.7z M443.6,310.8h4.4l-2.2-6.6
		L443.6,310.8z"/>
</g>
<g>
	<path fill="none" d="M395.6,325.8h83.8v83.8h-83.8V325.8z"/>
	<path fill="#FFFFFF" d="M428.1,394.9l39.4-39.4l-9.8-9.8l-29.7,29.7l-10.8-11.2c-2.1,0.7-4.5,2.1-6.3,3.8s-3.1,3.8-3.8,6.3
		L428.1,394.9z"/>
</g>
<g>
	<path fill="#FFFFFF" d="M432.4,422.3H426l-1.2,3.6H421l6.5-17.5h3.3l6.6,17.5h-3.8L432.4,422.3z M427,419.4h4.4l-2.2-6.6L427,419.4
		z"/>
	<path fill="#FFFFFF" d="M449,422.3h-6.3l-1.2,3.6h-3.8l6.5-17.5h3.3l6.6,17.5h-3.8L449,422.3z M443.6,419.4h4.4l-2.2-6.6
		L443.6,419.4z"/>
</g>
<g>
	<path fill="none" d="M395.6,434.3h83.8v83.8h-83.8V434.3z"/>
	<path fill="#FFFFFF" d="M428.1,503.5l39.4-39.4l-9.8-9.8l-29.7,29.7l-10.8-11.2c-2.1,0.7-4.5,2.1-6.3,3.8s-3.1,3.8-3.8,6.3
		L428.1,503.5z"/>
</g>
<g>
	<path fill="#FFFFFF" d="M424.1,530.9h-6.3l-1.2,3.6h-3.8l6.5-17.5h3.3l6.6,17.5h-3.8L424.1,530.9z M418.7,528h4.4l-2.2-6.6
		L418.7,528z"/>
	<path fill="#FFFFFF" d="M440.7,530.9h-6.3l-1.2,3.6h-3.8l6.5-17.5h3.3l6.6,17.5h-3.8L440.7,530.9z M435.3,528h4.4l-2.2-6.6
		L435.3,528z"/>
	<path fill="#FFFFFF" d="M457.2,530.9h-6.3l-1.2,3.6h-3.8l6.5-17.5h3.3l6.6,17.5h-3.8L457.2,530.9z M451.9,528h4.4l-2.2-6.6
		L451.9,528z"/>
</g>
<g>
	<path fill="none" d="M395.6,542.9h83.8v83.8h-83.8V542.9z"/>
	<path fill="#FFFFFF" d="M428.1,612l39.4-39.4l-9.8-9.8l-29.7,29.7l-10.8-11.2c-2.1,0.7-4.5,2.1-6.3,3.8s-3.1,3.8-3.8,6.3L428.1,612
		z"/>
</g>
<g>
	<path fill="#FFFFFF" d="M424.1,639.5h-6.3l-1.2,3.6h-3.8l6.5-17.5h3.3l6.6,17.5h-3.8L424.1,639.5z M418.7,636.6h4.4l-2.2-6.6
		L418.7,636.6z"/>
	<path fill="#FFFFFF" d="M440.7,639.5h-6.3l-1.2,3.6h-3.8l6.5-17.5h3.3l6.6,17.5h-3.8L440.7,639.5z M435.3,636.6h4.4l-2.2-6.6
		L435.3,636.6z"/>
	<path fill="#FFFFFF" d="M457.2,639.5h-6.3l-1.2,3.6h-3.8l6.5-17.5h3.3l6.6,17.5h-3.8L457.2,639.5z M451.9,636.6h4.4l-2.2-6.6
		L451.9,636.6z"/>
</g>
<g>
	<path fill="none" d="M520.6,0.2h83.8V84h-83.8V0.2z"/>
	<path fill="#373737" d="M553.1,69.3l39.4-39.4l-9.8-9.8l-29.7,29.7l-10.8-11.2c-2.1,0.7-4.5,2.1-6.3,3.8s-3.1,3.8-3.8,6.3
		L553.1,69.3z"/>
</g>
<g>
	<path fill="#373737" d="M549.1,96.8h-6.3l-1.2,3.6h-3.8l6.5-17.5h3.3l6.6,17.5h-3.8L549.1,96.8z M543.7,93.9h4.4l-2.2-6.6
		L543.7,93.9z"/>
	<path fill="#373737" d="M565.7,96.8h-6.3l-1.2,3.6h-3.8l6.5-17.5h3.3l6.6,17.5h-3.8L565.7,96.8z M560.3,93.9h4.4l-2.2-6.6
		L560.3,93.9z"/>
	<path fill="#373737" d="M582.2,96.8h-6.3l-1.2,3.6h-3.8l6.5-17.5h3.3l6.6,17.5h-3.8L582.2,96.8z M576.9,93.9h4.4l-2.2-6.6
		L576.9,93.9z"/>
</g>
<g>
	<path fill="none" d="M520.6,108.6h83.8v83.8h-83.8V108.6z"/>
	<path fill="#373737" d="M553.1,177.7l39.4-39.4l-9.8-9.8l-29.7,29.7L542.3,147c-2.1,0.7-4.5,2.1-6.3,3.8s-3.1,3.8-3.8,6.3
		L553.1,177.7z"/>
</g>
<g>
	<path fill="#373737" d="M549.1,205.2h-6.3l-1.2,3.6h-3.8l6.5-17.5h3.3l6.6,17.5h-3.8L549.1,205.2z M543.7,202.2h4.4l-2.2-6.6
		L543.7,202.2z"/>
	<path fill="#373737" d="M565.7,205.2h-6.3l-1.2,3.6h-3.8l6.5-17.5h3.3l6.6,17.5h-3.8L565.7,205.2z M560.3,202.2h4.4l-2.2-6.6
		L560.3,202.2z"/>
	<path fill="#373737" d="M582.2,205.2h-6.3l-1.2,3.6h-3.8l6.5-17.5h3.3l6.6,17.5h-3.8L582.2,205.2z M576.9,202.2h4.4l-2.2-6.6
		L576.9,202.2z"/>
</g>
<g>
	<path fill="none" d="M520.6,217.2h83.8V301h-83.8V217.2z"/>
	<path fill="#373737" d="M553.1,286.3l39.4-39.4l-9.8-9.8l-29.7,29.7l-10.8-11.2c-2.1,0.7-4.5,2.1-6.3,3.8s-3.1,3.8-3.8,6.3
		L553.1,286.3z"/>
</g>
<g>
	<path fill="#373737" d="M549.1,313.7h-6.3l-1.2,3.6h-3.8l6.5-17.5h3.3l6.6,17.5h-3.8L549.1,313.7z M543.7,310.8h4.4l-2.2-6.6
		L543.7,310.8z"/>
	<path fill="#373737" d="M565.7,313.7h-6.3l-1.2,3.6h-3.8l6.5-17.5h3.3l6.6,17.5h-3.8L565.7,313.7z M560.3,310.8h4.4l-2.2-6.6
		L560.3,310.8z"/>
	<path fill="#373737" d="M582.2,313.7h-6.3l-1.2,3.6h-3.8l6.5-17.5h3.3l6.6,17.5h-3.8L582.2,313.7z M576.9,310.8h4.4l-2.2-6.6
		L576.9,310.8z"/>
</g>
<g>
	<path fill="none" d="M520.6,325.8h83.8v83.8h-83.8V325.8z"/>
	<path fill="#373737" d="M553.1,394.9l39.4-39.4l-9.8-9.8l-29.7,29.7l-10.8-11.2c-2.1,0.7-4.5,2.1-6.3,3.8s-3.1,3.8-3.8,6.3
		L553.1,394.9z"/>
</g>
<g>
	<path fill="#373737" d="M557.4,422.3H551l-1.2,3.6H546l6.5-17.5h3.3l6.6,17.5h-3.8L557.4,422.3z M552,419.4h4.4l-2.2-6.6L552,419.4
		z"/>
	<path fill="#373737" d="M574,422.3h-6.3l-1.2,3.6h-3.8l6.5-17.5h3.3l6.6,17.5h-3.8L574,422.3z M568.6,419.4h4.4l-2.2-6.6
		L568.6,419.4z"/>
</g>
<g>
	<path fill="none" d="M645.6,0.2h83.8V84h-83.8V0.2z"/>
	<path fill="#373737" d="M678.1,69.3l39.4-39.4l-9.8-9.8l-29.7,29.7l-10.8-11.2c-2.1,0.7-4.5,2.1-6.3,3.8s-3.1,3.8-3.8,6.3
		L678.1,69.3z"/>
</g>
<g>
	<path fill="#373737" d="M674.1,96.8h-6.3l-1.2,3.6h-3.8l6.5-17.5h3.3l6.6,17.5h-3.8L674.1,96.8z M668.7,93.9h4.4l-2.2-6.6
		L668.7,93.9z"/>
	<path fill="#373737" d="M690.7,96.8h-6.3l-1.2,3.6h-3.8l6.5-17.5h3.3l6.6,17.5h-3.8L690.7,96.8z M685.3,93.9h4.4l-2.2-6.6
		L685.3,93.9z"/>
	<path fill="#373737" d="M707.2,96.8h-6.3l-1.2,3.6h-3.8l6.5-17.5h3.3l6.6,17.5h-3.8L707.2,96.8z M701.9,93.9h4.4l-2.2-6.6
		L701.9,93.9z"/>
</g>
<g>
	<path fill="none" d="M645.6,108.6h83.8v83.8h-83.8V108.6z"/>
	<path fill="#373737" d="M678.1,177.7l39.4-39.4l-9.8-9.8l-29.7,29.7L667.3,147c-2.1,0.7-4.5,2.1-6.3,3.8s-3.1,3.8-3.8,6.3
		L678.1,177.7z"/>
</g>
<g>
	<path fill="#373737" d="M674.1,205.2h-6.3l-1.2,3.6h-3.8l6.5-17.5h3.3l6.6,17.5h-3.8L674.1,205.2z M668.7,202.2h4.4l-2.2-6.6
		L668.7,202.2z"/>
	<path fill="#373737" d="M690.7,205.2h-6.3l-1.2,3.6h-3.8l6.5-17.5h3.3l6.6,17.5h-3.8L690.7,205.2z M685.3,202.2h4.4l-2.2-6.6
		L685.3,202.2z"/>
	<path fill="#373737" d="M707.2,205.2h-6.3l-1.2,3.6h-3.8l6.5-17.5h3.3l6.6,17.5h-3.8L707.2,205.2z M701.9,202.2h4.4l-2.2-6.6
		L701.9,202.2z"/>
</g>
<g>
	<path fill="none" d="M645.6,217.2h83.8V301h-83.8V217.2z"/>
	<path fill="#373737" d="M678.1,286.3l39.4-39.4l-9.8-9.8l-29.7,29.7l-10.8-11.2c-2.1,0.7-4.5,2.1-6.3,3.8s-3.1,3.8-3.8,6.3
		L678.1,286.3z"/>
</g>
<g>
	<path fill="#373737" d="M674.1,313.7h-6.3l-1.2,3.6h-3.8l6.5-17.5h3.3l6.6,17.5h-3.8L674.1,313.7z M668.7,310.8h4.4l-2.2-6.6
		L668.7,310.8z"/>
	<path fill="#373737" d="M690.7,313.7h-6.3l-1.2,3.6h-3.8l6.5-17.5h3.3l6.6,17.5h-3.8L690.7,313.7z M685.3,310.8h4.4l-2.2-6.6
		L685.3,310.8z"/>
	<path fill="#373737" d="M707.2,313.7h-6.3l-1.2,3.6h-3.8l6.5-17.5h3.3l6.6,17.5h-3.8L707.2,313.7z M701.9,310.8h4.4l-2.2-6.6
		L701.9,310.8z"/>
</g>
<g>
	<path fill="none" d="M645.6,325.8h83.8v83.8h-83.8V325.8z"/>
	<path fill="#373737" d="M678.1,394.9l39.4-39.4l-9.8-9.8l-29.7,29.7l-10.8-11.2c-2.1,0.7-4.5,2.1-6.3,3.8s-3.1,3.8-3.8,6.3
		L678.1,394.9z"/>
</g>
<g>
	<path fill="#373737" d="M682.4,422.3H676l-1.2,3.6H671l6.5-17.5h3.3l6.6,17.5h-3.8L682.4,422.3z M677,419.4h4.4l-2.2-6.6L677,419.4
		z"/>
	<path fill="#373737" d="M699,422.3h-6.3l-1.2,3.6h-3.8l6.5-17.5h3.3l6.6,17.5h-3.8L699,422.3z M693.6,419.4h4.4l-2.2-6.6
		L693.6,419.4z"/>
</g>
<g>
	<path fill="none" d="M20.6,651.5h83.8v83.8H20.6V651.5z"/>
	<path fill="#FFFFFF" d="M53.1,720.6l39.4-39.4l-9.8-9.8l-29.7,29.7l-10.8-11.2c-2.1,0.7-4.5,2.1-6.3,3.8c-1.7,1.7-3.1,3.8-3.8,6.3
		L53.1,720.6z"/>
</g>
<g>
	<path fill="#FFFFFF" d="M49.1,748.1h-6.3l-1.2,3.6h-3.8l6.5-17.5h3.3l6.6,17.5h-3.8L49.1,748.1z M43.7,745.2h4.4l-2.2-6.6
		L43.7,745.2z"/>
	<path fill="#FFFFFF" d="M65.7,748.1h-6.3l-1.2,3.6h-3.8l6.5-17.5h3.3l6.6,17.5h-3.8L65.7,748.1z M60.3,745.2h4.4l-2.2-6.6
		L60.3,745.2z"/>
	<path fill="#FFFFFF" d="M82.2,748.1h-6.3l-1.2,3.6h-3.8l6.5-17.5h3.3l6.6,17.5h-3.8L82.2,748.1z M76.9,745.2h4.4l-2.2-6.6
		L76.9,745.2z"/>
</g>
<g>
	<path fill="none" d="M145.6,0.2h83.8V84h-83.8V0.2z"/>
	<path fill="#373737" d="M178.1,69.3l39.4-39.4l-9.8-9.8l-29.7,29.7l-10.8-11.2c-2.1,0.7-4.5,2.1-6.3,3.8s-3.1,3.8-3.8,6.3
		L178.1,69.3z"/>
</g>
<g>
	<path fill="#373737" d="M174.1,96.8h-6.3l-1.2,3.6h-3.8l6.5-17.5h3.3l6.6,17.5h-3.8L174.1,96.8z M168.7,93.9h4.4l-2.2-6.6
		L168.7,93.9z"/>
	<path fill="#373737" d="M190.7,96.8h-6.3l-1.2,3.6h-3.8l6.5-17.5h3.3l6.6,17.5h-3.8L190.7,96.8z M185.3,93.9h4.4l-2.2-6.6
		L185.3,93.9z"/>
	<path fill="#373737" d="M207.2,96.8h-6.3l-1.2,3.6h-3.8l6.5-17.5h3.3l6.6,17.5h-3.8L207.2,96.8z M201.9,93.9h4.4l-2.2-6.6
		L201.9,93.9z"/>
</g>
<g>
	<path fill="none" d="M145.6,108.6h83.8v83.8h-83.8V108.6z"/>
	<path fill="#373737" d="M178.1,177.7l39.4-39.4l-9.8-9.8l-29.7,29.7L167.3,147c-2.1,0.7-4.5,2.1-6.3,3.8s-3.1,3.8-3.8,6.3
		L178.1,177.7z"/>
</g>
<g>
	<path fill="#373737" d="M174.1,205.2h-6.3l-1.2,3.6h-3.8l6.5-17.5h3.3l6.6,17.5h-3.8L174.1,205.2z M168.7,202.2h4.4l-2.2-6.6
		L168.7,202.2z"/>
	<path fill="#373737" d="M190.7,205.2h-6.3l-1.2,3.6h-3.8l6.5-17.5h3.3l6.6,17.5h-3.8L190.7,205.2z M185.3,202.2h4.4l-2.2-6.6
		L185.3,202.2z"/>
	<path fill="#373737" d="M207.2,205.2h-6.3l-1.2,3.6h-3.8l6.5-17.5h3.3l6.6,17.5h-3.8L207.2,205.2z M201.9,202.2h4.4l-2.2-6.6
		L201.9,202.2z"/>
</g>
<g>
	<path fill="none" d="M145.6,217.2h83.8V301h-83.8V217.2z"/>
	<path fill="#373737" d="M178.1,286.3l39.4-39.4l-9.8-9.8l-29.7,29.7l-10.8-11.2c-2.1,0.7-4.5,2.1-6.3,3.8s-3.1,3.8-3.8,6.3
		L178.1,286.3z"/>
</g>
<g>
	<path fill="#373737" d="M182.4,313.7H176l-1.2,3.6H171l6.5-17.5h3.3l6.6,17.5h-3.8L182.4,313.7z M177,310.8h4.4l-2.2-6.6L177,310.8
		z"/>
	<path fill="#373737" d="M199,313.7h-6.3l-1.2,3.6h-3.8l6.5-17.5h3.3l6.6,17.5h-3.8L199,313.7z M193.6,310.8h4.4l-2.2-6.6
		L193.6,310.8z"/>
</g>
<g>
	<path fill="#FFFFFF" d="M182.4,422.3H176l-1.2,3.6H171l6.5-17.5h3.3l6.6,17.5h-3.8L182.4,422.3z M177,419.4h4.4l-2.2-6.6L177,419.4
		z"/>
	<path fill="#FFFFFF" d="M199,422.3h-6.3l-1.2,3.6h-3.8l6.5-17.5h3.3l6.6,17.5h-3.8L199,422.3z M193.6,419.4h4.4l-2.2-6.6
		L193.6,419.4z"/>
</g>
<g>
	<path fill="none" d="M145.6,434.3h83.8v83.8h-83.8V434.3z"/>
	<path fill="#FFFFFF" d="M178.1,503.5l39.4-39.4l-9.8-9.8l-29.7,29.7l-10.8-11.2c-2.1,0.7-4.5,2.1-6.3,3.8s-3.1,3.8-3.8,6.3
		L178.1,503.5z"/>
</g>
<g>
	<path fill="#FFFFFF" d="M182.4,530.9H176l-1.2,3.6H171l6.5-17.5h3.3l6.6,17.5h-3.8L182.4,530.9z M177,528h4.4l-2.2-6.6L177,528z"/>
	<path fill="#FFFFFF" d="M199,530.9h-6.3l-1.2,3.6h-3.8l6.5-17.5h3.3l6.6,17.5h-3.8L199,530.9z M193.6,528h4.4l-2.2-6.6L193.6,528z"
		/>
</g>
<g>
	<path fill="none" d="M145.6,542.9h83.8v83.8h-83.8V542.9z"/>
	<path fill="#FFFFFF" d="M178.1,612l39.4-39.4l-9.8-9.8l-29.7,29.7l-10.8-11.2c-2.1,0.7-4.5,2.1-6.3,3.8s-3.1,3.8-3.8,6.3L178.1,612
		z"/>
</g>
<g>
	<path fill="#FFFFFF" d="M174.1,639.5h-6.3l-1.2,3.6h-3.8l6.5-17.5h3.3l6.6,17.5h-3.8L174.1,639.5z M168.7,636.6h4.4l-2.2-6.6
		L168.7,636.6z"/>
	<path fill="#FFFFFF" d="M190.7,639.5h-6.3l-1.2,3.6h-3.8l6.5-17.5h3.3l6.6,17.5h-3.8L190.7,639.5z M185.3,636.6h4.4l-2.2-6.6
		L185.3,636.6z"/>
	<path fill="#FFFFFF" d="M207.2,639.5h-6.3l-1.2,3.6h-3.8l6.5-17.5h3.3l6.6,17.5h-3.8L207.2,639.5z M201.9,636.6h4.4l-2.2-6.6
		L201.9,636.6z"/>
</g>
<g>
	<path fill="none" d="M145.6,651.5h83.8v83.8h-83.8V651.5z"/>
	<path fill="#FFFFFF" d="M178.1,720.6l39.4-39.4l-9.8-9.8l-29.7,29.7l-10.8-11.2c-2.1,0.7-4.5,2.1-6.3,3.8s-3.1,3.8-3.8,6.3
		L178.1,720.6z"/>
</g>
<g>
	<path fill="#FFFFFF" d="M174.1,748.1h-6.3l-1.2,3.6h-3.8l6.5-17.5h3.3l6.6,17.5h-3.8L174.1,748.1z M168.7,745.2h4.4l-2.2-6.6
		L168.7,745.2z"/>
	<path fill="#FFFFFF" d="M190.7,748.1h-6.3l-1.2,3.6h-3.8l6.5-17.5h3.3l6.6,17.5h-3.8L190.7,748.1z M185.3,745.2h4.4l-2.2-6.6
		L185.3,745.2z"/>
	<path fill="#FFFFFF" d="M207.2,748.1h-6.3l-1.2,3.6h-3.8l6.5-17.5h3.3l6.6,17.5h-3.8L207.2,748.1z M201.9,745.2h4.4l-2.2-6.6
		L201.9,745.2z"/>
</g>
<g>
	<path fill="none" d="M20.6,760.1h83.8v83.8H20.6V760.1z"/>
	<path fill="#FFFFFF" d="M53.1,829.2l39.4-39.4l-9.8-9.8l-29.7,29.7l-10.8-11.2c-2.1,0.7-4.5,2.1-6.3,3.8c-1.7,1.7-3.1,3.8-3.8,6.3
		L53.1,829.2z"/>
</g>
<g>
	<path fill="#FFFFFF" d="M49.1,856.7h-6.3l-1.2,3.6h-3.8l6.5-17.5h3.3l6.6,17.5h-3.8L49.1,856.7z M43.7,853.7h4.4l-2.2-6.6
		L43.7,853.7z"/>
	<path fill="#FFFFFF" d="M65.7,856.7h-6.3l-1.2,3.6h-3.8l6.5-17.5h3.3l6.6,17.5h-3.8L65.7,856.7z M60.3,853.7h4.4l-2.2-6.6
		L60.3,853.7z"/>
	<path fill="#FFFFFF" d="M82.2,856.7h-6.3l-1.2,3.6h-3.8l6.5-17.5h3.3l6.6,17.5h-3.8L82.2,856.7z M76.9,853.7h4.4l-2.2-6.6
		L76.9,853.7z"/>
</g>
<path fill="#FFFFFF" d="M212.7,384l-22-38.1c-1-1.5-2.5-2.5-4.2-2.5c-1.7,0-3.5,1-4.2,2.5L160,384.5c-1,1.5-1,3.5,0,5
	c1,1.5,2.5,2.5,4.2,2.5h44.6l0,0c2.7,0,5-2.2,5-5C213.7,386,213.5,385,212.7,384z M184,358.2c0.7-0.5,1.5-0.7,2.5-0.7
	c1,0,1.7,0.2,2.5,0.7v16.6h-5V358.2z M186.5,384.7c-2,0-3.7-1.7-3.7-3.7c0-2,1.7-3.7,3.7-3.7s3.7,1.7,3.7,3.7
	C190.2,383,188.5,384.7,186.5,384.7z"/>
<path fill="#FFFFFF" d="M338.6,384l-22-38.1c-1-1.5-2.5-2.5-4.2-2.5s-3.5,1-4.2,2.5l-22.3,38.6c-1,1.5-1,3.5,0,5s2.5,2.5,4.2,2.5
	h44.6l0,0c2.7,0,5-2.2,5-5C339.6,386,339.3,385,338.6,384z M309.8,358.2c0.7-0.5,1.5-0.7,2.5-0.7s1.7,0.2,2.5,0.7v16.6h-5V358.2z
	 M312.3,384.7c-2,0-3.7-1.7-3.7-3.7c0-2,1.7-3.7,3.7-3.7c2,0,3.7,1.7,3.7,3.7C316,383,314.3,384.7,312.3,384.7z"/>
<path fill="#FFFFFF" d="M338.6,492.6l-22-38.1c-1-1.5-2.5-2.5-4.2-2.5s-3.5,1-4.2,2.5l-22.3,38.6c-1,1.5-1,3.5,0,5s2.5,2.5,4.2,2.5
	h44.6l0,0c2.7,0,5-2.2,5-5C339.6,494.6,339.3,493.6,338.6,492.6z M309.8,466.8c0.7-0.5,1.5-0.7,2.5-0.7s1.7,0.2,2.5,0.7v16.6h-5
	V466.8z M312.3,493.3c-2,0-3.7-1.7-3.7-3.7c0-2,1.7-3.7,3.7-3.7c2,0,3.7,1.7,3.7,3.7C316,491.6,314.3,493.3,312.3,493.3z"/>
<path fill="#373737" d="M463.6,275.4l-22-38.1c-1-1.5-2.5-2.5-4.2-2.5s-3.5,1-4.2,2.5l-22.3,38.6c-1,1.5-1,3.5,0,5s2.5,2.5,4.2,2.5
	h44.6l0,0c2.7,0,5-2.2,5-5C464.6,277.4,464.3,276.4,463.6,275.4z M434.8,249.7c0.7-0.5,1.5-0.7,2.5-0.7s1.7,0.2,2.5,0.7v16.6h-5
	V249.7z M437.3,276.1c-2,0-3.7-1.7-3.7-3.7c0-2,1.7-3.7,3.7-3.7c2,0,3.7,1.7,3.7,3.7C441,274.4,439.3,276.1,437.3,276.1z"/>
<g>
	<rect x="211.1" y="801.6" fill="#373737" width="11" height="33"/>
	<g>
		<g>
			<path fill="#373737" d="M343.2,805.9c0,1.2-0.2,2.2-0.5,3.1c-0.3,0.9-0.7,1.7-1.3,2.4c-0.6,0.6-1.2,1.1-2,1.5s-1.6,0.5-2.6,0.5
				c-0.9,0-1.8-0.2-2.6-0.5s-1.5-0.8-2-1.5c-0.6-0.6-1-1.4-1.3-2.4c-0.3-0.9-0.5-2-0.5-3.1v-0.8c0-1.2,0.2-2.2,0.5-3.1
				c0.3-0.9,0.7-1.7,1.3-2.4c0.6-0.6,1.2-1.1,2-1.5c0.8-0.3,1.6-0.5,2.6-0.5c0.9,0,1.8,0.2,2.6,0.5c0.8,0.3,1.5,0.8,2,1.5
				c0.6,0.6,1,1.4,1.3,2.4c0.3,0.9,0.5,2,0.5,3.1V805.9z M340.6,805c0-0.9-0.1-1.6-0.2-2.3c-0.2-0.7-0.4-1.2-0.7-1.7
				c-0.3-0.4-0.7-0.8-1.2-1c-0.5-0.2-1-0.3-1.6-0.3c-0.6,0-1.1,0.1-1.5,0.3c-0.5,0.2-0.8,0.6-1.2,1c-0.3,0.4-0.6,1-0.7,1.7
				c-0.2,0.7-0.3,1.4-0.3,2.3v0.8c0,0.9,0.1,1.6,0.3,2.3c0.2,0.7,0.4,1.2,0.7,1.7c0.3,0.4,0.7,0.8,1.2,1c0.5,0.2,1,0.3,1.5,0.3
				c1.2,0,2.1-0.5,2.7-1.4c0.6-0.9,1-2.2,1-3.9V805z"/>
			<path fill="#373737" d="M348,801.7l0.1,1.3c0.4-0.5,0.9-0.9,1.4-1.1c0.6-0.3,1.2-0.4,1.9-0.4c0.5,0,1,0.1,1.5,0.2
				c0.4,0.2,0.8,0.4,1.1,0.7c0.3,0.3,0.6,0.8,0.7,1.3c0.2,0.5,0.3,1.2,0.3,2v7.4h-2.6v-7.4c0-0.4,0-0.7-0.1-1s-0.2-0.5-0.4-0.7
				s-0.4-0.3-0.6-0.4c-0.2-0.1-0.5-0.1-0.9-0.1c-0.5,0-1,0.1-1.4,0.4c-0.4,0.3-0.7,0.6-0.9,1v8.1h-2.6v-11.4H348z"/>
			<path fill="#373737" d="M360.4,813.1h-2.6v-16.2h2.6V813.1z"/>
			<path fill="#373737" d="M367.2,809.5l2.3-7.7h2.7l-4.5,13.1c-0.1,0.3-0.2,0.6-0.4,0.9c-0.2,0.3-0.4,0.6-0.7,0.9
				c-0.3,0.3-0.6,0.5-1,0.7c-0.4,0.2-0.9,0.3-1.4,0.3c-0.2,0-0.4,0-0.6-0.1c-0.2,0-0.4-0.1-0.6-0.1v-2c0.1,0,0.1,0,0.2,0
				c0.1,0,0.2,0,0.2,0c0.3,0,0.6,0,0.8-0.1c0.2-0.1,0.4-0.1,0.6-0.3s0.3-0.3,0.5-0.5c0.1-0.2,0.2-0.4,0.3-0.7l0.4-1l-4-11.4h2.8
				L367.2,809.5z"/>
			<path fill="#373737" d="M387.9,809.6H382l-1.2,3.6h-2.8l5.8-15.4h2.4l5.8,15.4h-2.8L387.9,809.6z M382.7,807.4h4.5l-2.2-6.4
				L382.7,807.4z"/>
			<path fill="#373737" d="M402.3,809.6h-5.9l-1.2,3.6h-2.8l5.8-15.4h2.4l5.8,15.4h-2.8L402.3,809.6z M397.1,807.4h4.5l-2.2-6.4
				L397.1,807.4z"/>
			<path fill="#373737" d="M417.9,811.3c0.3,0,0.6,0,0.9-0.1s0.5-0.2,0.7-0.4c0.2-0.2,0.4-0.4,0.5-0.6s0.2-0.5,0.2-0.8h2.4
				c0,0.5-0.2,1.1-0.4,1.5c-0.2,0.5-0.6,0.9-1,1.3c-0.4,0.4-0.9,0.6-1.5,0.9c-0.6,0.2-1.2,0.3-1.8,0.3c-0.9,0-1.6-0.2-2.3-0.5
				c-0.7-0.3-1.2-0.7-1.6-1.2c-0.4-0.5-0.8-1.1-1-1.8s-0.3-1.4-0.3-2.2v-0.4c0-0.8,0.1-1.5,0.3-2.2s0.5-1.3,1-1.8
				c0.4-0.5,1-0.9,1.6-1.2c0.6-0.3,1.4-0.5,2.3-0.5c0.7,0,1.3,0.1,1.9,0.3c0.6,0.2,1.1,0.5,1.5,0.9s0.7,0.8,0.9,1.4s0.4,1.1,0.4,1.7
				h-2.4c0-0.3-0.1-0.6-0.2-0.9c-0.1-0.3-0.3-0.5-0.5-0.7c-0.2-0.2-0.4-0.4-0.7-0.5c-0.3-0.1-0.6-0.2-0.9-0.2
				c-0.5,0-0.9,0.1-1.3,0.3c-0.3,0.2-0.6,0.5-0.8,0.8c-0.2,0.3-0.3,0.7-0.4,1.2c-0.1,0.4-0.1,0.9-0.1,1.3v0.4c0,0.5,0,0.9,0.1,1.4
				c0.1,0.4,0.2,0.8,0.4,1.2c0.2,0.3,0.5,0.6,0.8,0.8S417.3,811.3,417.9,811.3z"/>
			<path fill="#373737" d="M424,807.3c0-0.8,0.1-1.6,0.4-2.3c0.2-0.7,0.6-1.3,1-1.8c0.5-0.5,1-0.9,1.7-1.2c0.7-0.3,1.4-0.4,2.2-0.4
				c0.8,0,1.6,0.1,2.2,0.4c0.7,0.3,1.2,0.7,1.7,1.2c0.5,0.5,0.8,1.1,1,1.8c0.2,0.7,0.4,1.5,0.4,2.3v0.2c0,0.8-0.1,1.6-0.4,2.3
				c-0.2,0.7-0.6,1.3-1,1.8c-0.5,0.5-1,0.9-1.7,1.2s-1.4,0.4-2.2,0.4c-0.8,0-1.6-0.1-2.2-0.4s-1.2-0.7-1.7-1.2
				c-0.5-0.5-0.8-1.1-1-1.8c-0.2-0.7-0.4-1.5-0.4-2.3V807.3z M426.6,807.5c0,0.5,0.1,1,0.2,1.5s0.3,0.9,0.5,1.2
				c0.2,0.3,0.5,0.6,0.9,0.8c0.3,0.2,0.8,0.3,1.2,0.3c0.5,0,0.9-0.1,1.2-0.3c0.3-0.2,0.6-0.5,0.9-0.8c0.2-0.3,0.4-0.7,0.5-1.2
				c0.1-0.5,0.2-0.9,0.2-1.5v-0.2c0-0.5-0.1-1-0.2-1.4c-0.1-0.5-0.3-0.9-0.5-1.2c-0.2-0.3-0.5-0.6-0.9-0.8c-0.3-0.2-0.8-0.3-1.2-0.3
				c-0.5,0-0.9,0.1-1.2,0.3s-0.6,0.5-0.8,0.8c-0.2,0.3-0.4,0.7-0.5,1.2c-0.1,0.5-0.2,0.9-0.2,1.4V807.5z"/>
			<path fill="#373737" d="M439.2,801.7l0.1,1.2c0.4-0.4,0.8-0.8,1.4-1s1.2-0.4,1.9-0.4c0.7,0,1.3,0.1,1.9,0.4
				c0.5,0.3,1,0.7,1.3,1.3c0.4-0.5,0.9-1,1.4-1.3s1.3-0.5,2.1-0.5c0.6,0,1.1,0.1,1.6,0.2s0.9,0.4,1.2,0.7c0.3,0.3,0.6,0.8,0.7,1.3
				c0.2,0.5,0.3,1.2,0.3,1.9v7.4h-2.6v-7.4c0-0.4,0-0.8-0.1-1c-0.1-0.3-0.2-0.5-0.4-0.6c-0.2-0.2-0.4-0.3-0.6-0.3
				c-0.2-0.1-0.5-0.1-0.8-0.1c-0.6,0-1.1,0.2-1.4,0.5c-0.4,0.3-0.6,0.7-0.8,1.2c0,0,0,0.1,0,0.1c0,0,0,0.1,0,0.1v7.6h-2.6v-7.4
				c0-0.4,0-0.7-0.1-1c-0.1-0.3-0.2-0.5-0.4-0.7c-0.2-0.2-0.4-0.3-0.6-0.4c-0.3-0.1-0.5-0.1-0.9-0.1c-0.5,0-1,0.1-1.4,0.3
				c-0.4,0.2-0.6,0.5-0.8,0.9v8.3h-2.6v-11.4H439.2z"/>
			<path fill="#373737" d="M465.6,807.5c0,0.8-0.1,1.6-0.3,2.3c-0.2,0.7-0.5,1.3-0.9,1.8c-0.4,0.5-0.8,0.9-1.4,1.2s-1.2,0.4-1.9,0.4
				c-0.7,0-1.2-0.1-1.7-0.3s-0.9-0.5-1.3-0.9v5.4h-2.6v-15.8h2.4l0.1,1.2c0.4-0.4,0.8-0.8,1.3-1c0.5-0.2,1.1-0.4,1.8-0.4
				c0.7,0,1.4,0.1,1.9,0.4c0.6,0.3,1,0.7,1.4,1.2c0.4,0.5,0.7,1.1,0.9,1.8s0.3,1.5,0.3,2.4V807.5z M463,807.3c0-0.5-0.1-1-0.2-1.4
				s-0.3-0.8-0.5-1.2c-0.2-0.3-0.5-0.6-0.8-0.8c-0.3-0.2-0.7-0.3-1.2-0.3c-0.6,0-1,0.1-1.4,0.3c-0.4,0.2-0.7,0.5-0.9,0.9v5.1
				c0.2,0.4,0.5,0.7,0.9,1c0.4,0.2,0.8,0.4,1.4,0.4c0.5,0,0.9-0.1,1.2-0.3s0.6-0.5,0.8-0.8s0.4-0.7,0.5-1.2c0.1-0.5,0.1-0.9,0.1-1.4
				V807.3z"/>
			<path fill="#373737" d="M470.5,813.1h-2.6v-16.2h2.6V813.1z"/>
			<path fill="#373737" d="M473.3,798.8c0-0.4,0.1-0.7,0.4-1c0.2-0.3,0.6-0.4,1.1-0.4c0.5,0,0.8,0.1,1.1,0.4c0.3,0.3,0.4,0.6,0.4,1
				c0,0.4-0.1,0.7-0.4,1s-0.6,0.4-1.1,0.4c-0.5,0-0.8-0.1-1.1-0.4S473.3,799.1,473.3,798.8z M476,813.1h-2.6v-11.4h2.6V813.1z"/>
			<path fill="#373737" d="M485.6,813.1c-0.1-0.1-0.1-0.3-0.2-0.5c0-0.2-0.1-0.4-0.1-0.6c-0.2,0.2-0.4,0.3-0.6,0.5
				c-0.2,0.2-0.4,0.3-0.7,0.4c-0.2,0.1-0.5,0.2-0.8,0.3c-0.3,0.1-0.6,0.1-0.9,0.1c-0.6,0-1.1-0.1-1.6-0.3c-0.5-0.2-0.9-0.4-1.2-0.7
				s-0.6-0.7-0.8-1.1c-0.2-0.4-0.3-0.9-0.3-1.3c0-0.6,0.1-1.2,0.3-1.6c0.2-0.5,0.6-0.9,1-1.2c0.4-0.3,1-0.6,1.6-0.7
				c0.6-0.2,1.4-0.2,2.2-0.2h1.6v-0.7c0-0.6-0.2-1.1-0.5-1.4c-0.3-0.4-0.8-0.5-1.5-0.5c-0.3,0-0.6,0-0.8,0.1s-0.5,0.2-0.6,0.3
				c-0.2,0.1-0.3,0.3-0.4,0.5c-0.1,0.2-0.1,0.4-0.1,0.6h-2.6c0-0.4,0.1-0.9,0.3-1.3c0.2-0.4,0.5-0.8,0.9-1.1
				c0.4-0.3,0.9-0.6,1.5-0.8c0.6-0.2,1.2-0.3,1.9-0.3c0.6,0,1.2,0.1,1.8,0.2c0.5,0.2,1,0.4,1.4,0.7c0.4,0.3,0.7,0.7,0.9,1.2
				c0.2,0.5,0.3,1.1,0.3,1.7v5.1c0,1,0.1,1.8,0.4,2.5v0.2H485.6z M482.8,811.3c0.3,0,0.6,0,0.8-0.1c0.3-0.1,0.5-0.2,0.7-0.3
				c0.2-0.1,0.4-0.3,0.5-0.4c0.2-0.2,0.3-0.3,0.4-0.5v-2.2h-1.4c-0.9,0-1.7,0.2-2.1,0.5c-0.5,0.3-0.7,0.8-0.7,1.4
				c0,0.2,0,0.4,0.1,0.6c0.1,0.2,0.2,0.4,0.3,0.5c0.2,0.1,0.3,0.3,0.6,0.3C482.2,811.2,482.5,811.3,482.8,811.3z"/>
			<path fill="#373737" d="M492.8,801.7l0.1,1.3c0.4-0.5,0.9-0.9,1.4-1.1c0.6-0.3,1.2-0.4,1.9-0.4c0.5,0,1,0.1,1.5,0.2
				s0.8,0.4,1.1,0.7c0.3,0.3,0.6,0.8,0.7,1.3c0.2,0.5,0.3,1.2,0.3,2v7.4h-2.6v-7.4c0-0.4,0-0.7-0.1-1s-0.2-0.5-0.4-0.7
				c-0.2-0.2-0.4-0.3-0.6-0.4c-0.2-0.1-0.5-0.1-0.9-0.1c-0.5,0-1,0.1-1.4,0.4c-0.4,0.3-0.7,0.6-0.9,1v8.1h-2.6v-11.4H492.8z"/>
			<path fill="#373737" d="M505.7,798.9v2.8h2v1.9h-2v6.4c0,0.3,0,0.5,0.1,0.6c0.1,0.2,0.1,0.3,0.2,0.4s0.2,0.1,0.4,0.2
				c0.1,0,0.3,0,0.5,0c0.2,0,0.3,0,0.5,0s0.3,0,0.4-0.1v2c-0.2,0.1-0.4,0.1-0.7,0.2c-0.3,0.1-0.6,0.1-1,0.1c-0.4,0-0.8-0.1-1.2-0.2
				c-0.4-0.1-0.7-0.3-0.9-0.5s-0.5-0.6-0.6-1c-0.1-0.4-0.2-0.9-0.2-1.5v-6.5h-1.9v-1.9h1.9v-2.8H505.7z"/>
			<path fill="#373737" d="M515.9,813.1v-9.5h-1.7v-1.9h1.7v-1.1c0-0.6,0.1-1.2,0.3-1.7c0.2-0.5,0.5-0.9,0.8-1.2
				c0.3-0.3,0.8-0.6,1.3-0.8c0.5-0.2,1.1-0.3,1.7-0.3c0.2,0,0.5,0,0.7,0.1c0.2,0,0.5,0.1,0.7,0.1l-0.1,2c-0.1,0-0.3,0-0.5-0.1
				c-0.2,0-0.3,0-0.5,0c-0.6,0-1,0.2-1.4,0.5s-0.5,0.8-0.5,1.4v1.1h2.3v1.9h-2.3v9.5H515.9z"/>
			<path fill="#373737" d="M522.2,807.3c0-0.8,0.1-1.6,0.4-2.3c0.2-0.7,0.6-1.3,1-1.8c0.5-0.5,1-0.9,1.7-1.2
				c0.7-0.3,1.4-0.4,2.2-0.4c0.8,0,1.6,0.1,2.2,0.4c0.7,0.3,1.2,0.7,1.7,1.2c0.5,0.5,0.8,1.1,1,1.8c0.2,0.7,0.4,1.5,0.4,2.3v0.2
				c0,0.8-0.1,1.6-0.4,2.3c-0.2,0.7-0.6,1.3-1,1.8c-0.5,0.5-1,0.9-1.7,1.2s-1.4,0.4-2.2,0.4c-0.8,0-1.6-0.1-2.2-0.4
				c-0.7-0.3-1.2-0.7-1.7-1.2c-0.5-0.5-0.8-1.1-1-1.8c-0.2-0.7-0.4-1.5-0.4-2.3V807.3z M524.8,807.5c0,0.5,0.1,1,0.2,1.5
				s0.3,0.9,0.5,1.2c0.2,0.3,0.5,0.6,0.9,0.8c0.3,0.2,0.8,0.3,1.2,0.3c0.5,0,0.9-0.1,1.2-0.3c0.3-0.2,0.6-0.5,0.9-0.8
				c0.2-0.3,0.4-0.7,0.5-1.2c0.1-0.5,0.2-0.9,0.2-1.5v-0.2c0-0.5-0.1-1-0.2-1.4c-0.1-0.5-0.3-0.9-0.5-1.2c-0.2-0.3-0.5-0.6-0.9-0.8
				s-0.8-0.3-1.2-0.3s-0.9,0.1-1.2,0.3s-0.6,0.5-0.8,0.8c-0.2,0.3-0.4,0.7-0.5,1.2c-0.1,0.5-0.2,0.9-0.2,1.4V807.5z"/>
			<path fill="#373737" d="M541,804.1c-0.2,0-0.3,0-0.5-0.1c-0.2,0-0.3,0-0.5,0c-0.6,0-1.1,0.1-1.5,0.4s-0.7,0.6-0.9,1v7.8H535
				v-11.4h2.4l0.1,1.3c0.3-0.5,0.6-0.8,1.1-1.1s0.9-0.4,1.5-0.4c0.1,0,0.3,0,0.5,0c0.2,0,0.3,0.1,0.4,0.1L541,804.1z"/>
			<path fill="#373737" d="M550.7,813.1h-2.6v-16.2h2.6V813.1z"/>
			<path fill="#373737" d="M560.3,813.1c-0.1-0.1-0.1-0.3-0.2-0.5c0-0.2-0.1-0.4-0.1-0.6c-0.2,0.2-0.4,0.3-0.6,0.5
				c-0.2,0.2-0.4,0.3-0.7,0.4c-0.2,0.1-0.5,0.2-0.8,0.3c-0.3,0.1-0.6,0.1-0.9,0.1c-0.6,0-1.1-0.1-1.6-0.3c-0.5-0.2-0.9-0.4-1.2-0.7
				s-0.6-0.7-0.8-1.1c-0.2-0.4-0.3-0.9-0.3-1.3c0-0.6,0.1-1.2,0.3-1.6c0.2-0.5,0.6-0.9,1-1.2c0.4-0.3,1-0.6,1.6-0.7
				c0.6-0.2,1.4-0.2,2.2-0.2h1.6v-0.7c0-0.6-0.2-1.1-0.5-1.4c-0.3-0.4-0.8-0.5-1.5-0.5c-0.3,0-0.6,0-0.8,0.1s-0.5,0.2-0.6,0.3
				c-0.2,0.1-0.3,0.3-0.4,0.5c-0.1,0.2-0.1,0.4-0.1,0.6h-2.6c0-0.4,0.1-0.9,0.3-1.3c0.2-0.4,0.5-0.8,0.9-1.1
				c0.4-0.3,0.9-0.6,1.5-0.8c0.6-0.2,1.2-0.3,1.9-0.3c0.6,0,1.2,0.1,1.8,0.2c0.5,0.2,1,0.4,1.4,0.7c0.4,0.3,0.7,0.7,0.9,1.2
				c0.2,0.5,0.3,1.1,0.3,1.7v5.1c0,1,0.1,1.8,0.4,2.5v0.2H560.3z M557.5,811.3c0.3,0,0.6,0,0.8-0.1c0.3-0.1,0.5-0.2,0.7-0.3
				c0.2-0.1,0.4-0.3,0.5-0.4c0.2-0.2,0.3-0.3,0.4-0.5v-2.2h-1.4c-0.9,0-1.7,0.2-2.1,0.5c-0.5,0.3-0.7,0.8-0.7,1.4
				c0,0.2,0,0.4,0.1,0.6c0.1,0.2,0.2,0.4,0.3,0.5c0.2,0.1,0.3,0.3,0.6,0.3C556.9,811.2,557.2,811.3,557.5,811.3z"/>
			<path fill="#373737" d="M571.1,804.1c-0.2,0-0.3,0-0.5-0.1c-0.2,0-0.4,0-0.5,0c-0.6,0-1.1,0.1-1.5,0.4s-0.7,0.6-0.9,1v7.8h-2.6
				v-11.4h2.4l0.1,1.3c0.3-0.5,0.6-0.8,1.1-1.1c0.4-0.3,0.9-0.4,1.5-0.4c0.1,0,0.3,0,0.5,0c0.2,0,0.3,0.1,0.4,0.1L571.1,804.1z"/>
			<path fill="#373737" d="M572.1,807.3c0-0.9,0.1-1.7,0.3-2.4s0.5-1.3,0.9-1.8c0.4-0.5,0.9-0.9,1.4-1.2s1.2-0.4,1.9-0.4
				c0.7,0,1.3,0.1,1.8,0.4c0.5,0.2,0.9,0.6,1.3,1l0.1-1.1h2.3v11.1c0,0.8-0.1,1.4-0.4,2s-0.6,1.1-1.1,1.5c-0.5,0.4-1,0.7-1.6,0.9
				c-0.6,0.2-1.3,0.3-2.1,0.3c-0.3,0-0.7,0-1.1-0.1c-0.4-0.1-0.8-0.2-1.2-0.3c-0.4-0.2-0.8-0.3-1.1-0.6s-0.7-0.5-0.9-0.9l1.2-1.5
				c0.4,0.5,0.9,0.9,1.4,1.1c0.5,0.2,1,0.3,1.5,0.3c0.9,0,1.5-0.2,2-0.7s0.7-1.1,0.7-2v-0.8c-0.4,0.4-0.8,0.7-1.3,0.9
				s-1,0.3-1.7,0.3c-0.7,0-1.3-0.1-1.9-0.4c-0.6-0.3-1-0.7-1.4-1.2c-0.4-0.5-0.7-1.1-0.9-1.8c-0.2-0.7-0.3-1.5-0.3-2.3V807.3z
				 M574.7,807.6c0,0.5,0.1,1,0.2,1.4c0.1,0.4,0.3,0.8,0.5,1.2c0.2,0.3,0.5,0.6,0.8,0.8c0.3,0.2,0.7,0.3,1.2,0.3
				c0.6,0,1-0.1,1.4-0.4c0.4-0.2,0.7-0.6,0.9-1v-5c-0.2-0.4-0.5-0.7-0.9-0.9c-0.4-0.2-0.8-0.3-1.4-0.3c-0.5,0-0.9,0.1-1.2,0.3
				c-0.3,0.2-0.6,0.5-0.8,0.8c-0.2,0.3-0.4,0.7-0.5,1.2s-0.2,0.9-0.2,1.5V807.6z"/>
			<path fill="#373737" d="M589.8,813.3c-0.8,0-1.6-0.1-2.3-0.4s-1.2-0.7-1.7-1.2c-0.5-0.5-0.8-1.1-1.1-1.8
				c-0.3-0.7-0.4-1.4-0.4-2.2v-0.4c0-0.9,0.1-1.7,0.4-2.4c0.3-0.7,0.6-1.3,1.1-1.9s1-0.9,1.6-1.2c0.6-0.3,1.3-0.4,2-0.4
				c0.8,0,1.5,0.1,2.2,0.4c0.6,0.3,1.1,0.7,1.5,1.2c0.4,0.5,0.7,1.1,0.9,1.8c0.2,0.7,0.3,1.4,0.3,2.3v1.1H587c0,0.4,0.1,0.9,0.3,1.2
				s0.4,0.7,0.6,1c0.3,0.3,0.6,0.5,0.9,0.6c0.4,0.2,0.8,0.2,1.2,0.2c0.6,0,1.2-0.1,1.7-0.4c0.5-0.3,0.9-0.6,1.2-1l1.4,1.3
				c-0.2,0.3-0.4,0.5-0.7,0.8c-0.3,0.3-0.6,0.5-0.9,0.7c-0.4,0.2-0.8,0.4-1.2,0.5S590.4,813.3,589.8,813.3z M589.5,803.6
				c-0.7,0-1.3,0.2-1.7,0.7c-0.4,0.5-0.7,1.2-0.8,2.1h4.9v-0.2c0-0.3-0.1-0.7-0.2-1c-0.1-0.3-0.2-0.6-0.4-0.8s-0.4-0.4-0.7-0.6
				C590.3,803.6,589.9,803.6,589.5,803.6z"/>
			<path fill="#373737" d="M605,798.9v2.8h2v1.9h-2v6.4c0,0.3,0,0.5,0.1,0.6c0.1,0.2,0.1,0.3,0.2,0.4s0.2,0.1,0.4,0.2
				c0.1,0,0.3,0,0.5,0c0.2,0,0.3,0,0.5,0s0.3,0,0.4-0.1v2c-0.2,0.1-0.4,0.1-0.7,0.2c-0.3,0.1-0.6,0.1-1,0.1c-0.4,0-0.8-0.1-1.2-0.2
				c-0.4-0.1-0.7-0.3-0.9-0.5s-0.5-0.6-0.6-1c-0.1-0.4-0.2-0.9-0.2-1.5v-6.5h-1.9v-1.9h1.9v-2.8H605z"/>
			<path fill="#373737" d="M614,813.3c-0.8,0-1.6-0.1-2.3-0.4s-1.2-0.7-1.7-1.2c-0.5-0.5-0.8-1.1-1.1-1.8c-0.3-0.7-0.4-1.4-0.4-2.2
				v-0.4c0-0.9,0.1-1.7,0.4-2.4c0.3-0.7,0.6-1.3,1.1-1.9s1-0.9,1.6-1.2c0.6-0.3,1.3-0.4,2-0.4c0.8,0,1.5,0.1,2.2,0.4
				c0.6,0.3,1.1,0.7,1.5,1.2c0.4,0.5,0.7,1.1,0.9,1.8c0.2,0.7,0.3,1.4,0.3,2.3v1.1h-7.5c0,0.4,0.1,0.9,0.3,1.2s0.4,0.7,0.6,1
				c0.3,0.3,0.6,0.5,0.9,0.6c0.4,0.2,0.8,0.2,1.2,0.2c0.6,0,1.2-0.1,1.7-0.4c0.5-0.3,0.9-0.6,1.2-1l1.4,1.3
				c-0.2,0.3-0.4,0.5-0.7,0.8c-0.3,0.3-0.6,0.5-0.9,0.7c-0.4,0.2-0.8,0.4-1.2,0.5S614.6,813.3,614,813.3z M613.7,803.6
				c-0.7,0-1.3,0.2-1.7,0.7c-0.4,0.5-0.7,1.2-0.8,2.1h4.9v-0.2c0-0.3-0.1-0.7-0.2-1c-0.1-0.3-0.2-0.6-0.4-0.8s-0.4-0.4-0.7-0.6
				C614.5,803.6,614.1,803.6,613.7,803.6z"/>
			<path fill="#373737" d="M624.6,805.5l2.2-3.8h2.8l-3.5,5.6l3.6,5.8H627l-2.3-3.9l-2.3,3.9h-2.8l3.6-5.8l-3.5-5.6h2.8L624.6,805.5
				z"/>
			<path fill="#373737" d="M634.6,798.9v2.8h2v1.9h-2v6.4c0,0.3,0,0.5,0.1,0.6c0.1,0.2,0.1,0.3,0.2,0.4s0.2,0.1,0.4,0.2
				c0.1,0,0.3,0,0.5,0c0.2,0,0.3,0,0.5,0s0.3,0,0.4-0.1v2c-0.2,0.1-0.4,0.1-0.7,0.2c-0.3,0.1-0.6,0.1-1,0.1c-0.4,0-0.8-0.1-1.2-0.2
				c-0.4-0.1-0.7-0.3-0.9-0.5s-0.5-0.6-0.6-1c-0.1-0.4-0.2-0.9-0.2-1.5v-6.5h-1.9v-1.9h1.9v-2.8H634.6z"/>
			<path fill="#373737" d="M333.6,836.9h7v2.1H331v-15.4h2.7V836.9z"/>
			<path fill="#373737" d="M349.2,839c-0.1-0.1-0.1-0.3-0.2-0.5c0-0.2-0.1-0.4-0.1-0.6c-0.2,0.2-0.4,0.3-0.6,0.5
				c-0.2,0.2-0.4,0.3-0.7,0.4c-0.2,0.1-0.5,0.2-0.8,0.3c-0.3,0.1-0.6,0.1-0.9,0.1c-0.6,0-1.1-0.1-1.6-0.3c-0.5-0.2-0.9-0.4-1.2-0.7
				s-0.6-0.7-0.8-1.1c-0.2-0.4-0.3-0.9-0.3-1.3c0-0.6,0.1-1.2,0.3-1.6c0.2-0.5,0.6-0.9,1-1.2c0.4-0.3,1-0.6,1.6-0.7
				c0.6-0.2,1.4-0.2,2.2-0.2h1.6v-0.7c0-0.6-0.2-1.1-0.5-1.4c-0.3-0.4-0.8-0.5-1.5-0.5c-0.3,0-0.6,0-0.8,0.1s-0.5,0.2-0.6,0.3
				c-0.2,0.1-0.3,0.3-0.4,0.5c-0.1,0.2-0.1,0.4-0.1,0.6h-2.6c0-0.4,0.1-0.9,0.3-1.3c0.2-0.4,0.5-0.8,0.9-1.1
				c0.4-0.3,0.9-0.6,1.5-0.8c0.6-0.2,1.2-0.3,1.9-0.3c0.6,0,1.2,0.1,1.8,0.2c0.5,0.2,1,0.4,1.4,0.7c0.4,0.3,0.7,0.7,0.9,1.2
				c0.2,0.5,0.3,1.1,0.3,1.7v5.1c0,1,0.1,1.8,0.4,2.5v0.2H349.2z M346.4,837.2c0.3,0,0.6,0,0.8-0.1c0.3-0.1,0.5-0.2,0.7-0.3
				c0.2-0.1,0.4-0.3,0.5-0.4c0.2-0.2,0.3-0.3,0.4-0.5v-2.2h-1.4c-0.9,0-1.7,0.2-2.1,0.5c-0.5,0.3-0.7,0.8-0.7,1.4
				c0,0.2,0,0.4,0.1,0.6c0.1,0.2,0.2,0.4,0.3,0.5c0.2,0.1,0.3,0.3,0.6,0.3C345.9,837.2,346.1,837.2,346.4,837.2z"/>
			<path fill="#373737" d="M360.1,830c-0.2,0-0.3,0-0.5-0.1c-0.2,0-0.4,0-0.5,0c-0.6,0-1.1,0.1-1.5,0.4s-0.7,0.6-0.9,1v7.8h-2.6
				v-11.4h2.4l0.1,1.3c0.3-0.5,0.6-0.8,1.1-1.1c0.4-0.3,0.9-0.4,1.5-0.4c0.1,0,0.3,0,0.5,0c0.2,0,0.3,0.1,0.4,0.1L360.1,830z"/>
			<path fill="#373737" d="M361,833.3c0-0.9,0.1-1.7,0.3-2.4s0.5-1.3,0.9-1.8c0.4-0.5,0.9-0.9,1.4-1.2s1.2-0.4,1.9-0.4
				c0.7,0,1.3,0.1,1.8,0.4c0.5,0.2,0.9,0.6,1.3,1l0.1-1.1h2.3v11.1c0,0.8-0.1,1.4-0.4,2s-0.6,1.1-1.1,1.5c-0.5,0.4-1,0.7-1.6,0.9
				c-0.6,0.2-1.3,0.3-2.1,0.3c-0.3,0-0.7,0-1.1-0.1c-0.4-0.1-0.8-0.2-1.2-0.3c-0.4-0.2-0.8-0.3-1.1-0.6c-0.4-0.2-0.7-0.5-0.9-0.9
				l1.2-1.5c0.4,0.5,0.9,0.9,1.4,1.1c0.5,0.2,1,0.3,1.5,0.3c0.9,0,1.5-0.2,2-0.7s0.7-1.1,0.7-2V838c-0.4,0.4-0.8,0.7-1.3,0.9
				c-0.5,0.2-1,0.3-1.7,0.3c-0.7,0-1.3-0.1-1.9-0.4c-0.6-0.3-1-0.7-1.4-1.2c-0.4-0.5-0.7-1.1-0.9-1.8c-0.2-0.7-0.3-1.5-0.3-2.3
				V833.3z M363.6,833.5c0,0.5,0.1,1,0.2,1.4c0.1,0.4,0.3,0.8,0.5,1.2c0.2,0.3,0.5,0.6,0.8,0.8c0.3,0.2,0.7,0.3,1.2,0.3
				c0.6,0,1-0.1,1.4-0.4c0.4-0.2,0.7-0.6,0.9-1v-5c-0.2-0.4-0.5-0.7-0.9-0.9c-0.4-0.2-0.8-0.3-1.4-0.3c-0.5,0-0.9,0.1-1.2,0.3
				c-0.3,0.2-0.6,0.5-0.8,0.8c-0.2,0.3-0.4,0.7-0.5,1.2s-0.2,0.9-0.2,1.5V833.5z"/>
			<path fill="#373737" d="M378.8,839.3c-0.8,0-1.6-0.1-2.3-0.4s-1.2-0.7-1.7-1.2c-0.5-0.5-0.8-1.1-1.1-1.8
				c-0.3-0.7-0.4-1.4-0.4-2.2v-0.4c0-0.9,0.1-1.7,0.4-2.4c0.3-0.7,0.6-1.3,1.1-1.9s1-0.9,1.6-1.2c0.6-0.3,1.3-0.4,2-0.4
				c0.8,0,1.5,0.1,2.2,0.4c0.6,0.3,1.1,0.7,1.5,1.2c0.4,0.5,0.7,1.1,0.9,1.8c0.2,0.7,0.3,1.4,0.3,2.3v1.1h-7.5
				c0,0.4,0.1,0.9,0.3,1.2s0.4,0.7,0.6,1c0.3,0.3,0.6,0.5,0.9,0.6c0.4,0.2,0.8,0.2,1.2,0.2c0.6,0,1.2-0.1,1.7-0.4
				c0.5-0.3,0.9-0.6,1.2-1l1.4,1.3c-0.2,0.3-0.4,0.5-0.7,0.8c-0.3,0.3-0.6,0.5-0.9,0.7c-0.4,0.2-0.8,0.4-1.2,0.5
				S379.3,839.3,378.8,839.3z M378.5,829.5c-0.7,0-1.3,0.2-1.7,0.7c-0.4,0.5-0.7,1.2-0.8,2.1h4.9v-0.2c0-0.3-0.1-0.7-0.2-1
				c-0.1-0.3-0.2-0.6-0.4-0.8s-0.4-0.4-0.7-0.6C379.2,829.6,378.9,829.5,378.5,829.5z"/>
			<path fill="#373737" d="M393.9,824.9v2.8h2v1.9h-2v6.4c0,0.3,0,0.5,0.1,0.6c0.1,0.2,0.1,0.3,0.2,0.4s0.2,0.1,0.4,0.2
				c0.1,0,0.3,0,0.5,0s0.3,0,0.5,0s0.3,0,0.4-0.1v2c-0.2,0.1-0.4,0.1-0.7,0.2s-0.6,0.1-1,0.1c-0.4,0-0.8-0.1-1.2-0.2
				c-0.4-0.1-0.7-0.3-0.9-0.5s-0.5-0.6-0.6-1c-0.1-0.4-0.2-0.9-0.2-1.5v-6.5h-1.9v-1.9h1.9v-2.8H393.9z"/>
			<path fill="#373737" d="M402.9,839.3c-0.8,0-1.6-0.1-2.3-0.4s-1.2-0.7-1.7-1.2c-0.5-0.5-0.8-1.1-1.1-1.8
				c-0.3-0.7-0.4-1.4-0.4-2.2v-0.4c0-0.9,0.1-1.7,0.4-2.4c0.3-0.7,0.6-1.3,1.1-1.9s1-0.9,1.6-1.2c0.6-0.3,1.3-0.4,2-0.4
				c0.8,0,1.5,0.1,2.2,0.4c0.6,0.3,1.1,0.7,1.5,1.2c0.4,0.5,0.7,1.1,0.9,1.8c0.2,0.7,0.3,1.4,0.3,2.3v1.1H400c0,0.4,0.1,0.9,0.3,1.2
				s0.4,0.7,0.6,1c0.3,0.3,0.6,0.5,0.9,0.6c0.4,0.2,0.8,0.2,1.2,0.2c0.6,0,1.2-0.1,1.7-0.4c0.5-0.3,0.9-0.6,1.2-1l1.4,1.3
				c-0.2,0.3-0.4,0.5-0.7,0.8c-0.3,0.3-0.6,0.5-0.9,0.7c-0.4,0.2-0.8,0.4-1.2,0.5S403.5,839.3,402.9,839.3z M402.6,829.5
				c-0.7,0-1.3,0.2-1.7,0.7c-0.4,0.5-0.7,1.2-0.8,2.1h4.9v-0.2c0-0.3-0.1-0.7-0.2-1c-0.1-0.3-0.2-0.6-0.4-0.8s-0.4-0.4-0.7-0.6
				C403.4,829.6,403,829.5,402.6,829.5z"/>
			<path fill="#373737" d="M413.6,831.4l2.2-3.8h2.8l-3.5,5.6l3.6,5.8h-2.8l-2.3-3.9l-2.3,3.9h-2.8l3.6-5.8l-3.5-5.6h2.8
				L413.6,831.4z"/>
			<path fill="#373737" d="M423.5,824.9v2.8h2v1.9h-2v6.4c0,0.3,0,0.5,0.1,0.6c0.1,0.2,0.1,0.3,0.2,0.4s0.2,0.1,0.4,0.2
				c0.1,0,0.3,0,0.5,0s0.3,0,0.5,0s0.3,0,0.4-0.1v2c-0.2,0.1-0.4,0.1-0.7,0.2s-0.6,0.1-1,0.1c-0.4,0-0.8-0.1-1.2-0.2
				c-0.4-0.1-0.7-0.3-0.9-0.5s-0.5-0.6-0.6-1c-0.1-0.4-0.2-0.9-0.2-1.5v-6.5h-1.9v-1.9h1.9v-2.8H423.5z"/>
			<path fill="#373737" d="M442,830.5h-8.8v-1.7h8.8V830.5z M442,834.8h-8.8v-1.7h8.8V834.8z"/>
			<path fill="#373737" d="M456.2,832.8h-3.6v6.2h-2v-15.4h5.1c1.7,0,3.1,0.4,4,1.2c0.9,0.8,1.4,1.9,1.4,3.4c0,1-0.3,1.8-0.8,2.5
				c-0.5,0.7-1.2,1.2-2.2,1.6l3.6,6.5v0.1h-2.2L456.2,832.8z M452.6,831.2h3.1c0.5,0,1-0.1,1.4-0.2c0.4-0.2,0.8-0.4,1-0.6
				s0.5-0.6,0.6-0.9c0.1-0.3,0.2-0.7,0.2-1.1c0-0.4-0.1-0.8-0.2-1.2c-0.1-0.4-0.3-0.7-0.6-0.9c-0.3-0.3-0.6-0.5-1-0.6
				s-0.9-0.2-1.5-0.2h-3V831.2z"/>
			<path fill="#373737" d="M468.3,839.3c-0.8,0-1.5-0.1-2.2-0.4s-1.2-0.7-1.7-1.1c-0.5-0.5-0.8-1.1-1.1-1.7s-0.4-1.4-0.4-2.2v-0.4
				c0-0.9,0.1-1.8,0.4-2.5c0.3-0.7,0.6-1.3,1.1-1.8c0.5-0.5,1-0.9,1.6-1.1s1.2-0.4,1.9-0.4c0.8,0,1.5,0.1,2.1,0.4s1.1,0.7,1.5,1.2
				c0.4,0.5,0.7,1.1,0.8,1.8c0.2,0.7,0.3,1.4,0.3,2.2v0.9H465c0,0.5,0.1,1,0.3,1.5s0.4,0.9,0.7,1.2c0.3,0.3,0.6,0.6,1.1,0.8
				c0.4,0.2,0.9,0.3,1.4,0.3c0.7,0,1.3-0.1,1.8-0.4c0.5-0.3,0.9-0.7,1.3-1.1l1.2,0.9c-0.2,0.3-0.4,0.6-0.7,0.8
				c-0.3,0.3-0.6,0.5-0.9,0.7c-0.3,0.2-0.7,0.4-1.2,0.5C469.3,839.2,468.8,839.3,468.3,839.3z M468,829c-0.4,0-0.8,0.1-1.1,0.2
				c-0.3,0.1-0.6,0.4-0.9,0.6c-0.3,0.3-0.5,0.6-0.6,1c-0.2,0.4-0.3,0.9-0.4,1.4h5.7v-0.1c0-0.4-0.1-0.8-0.2-1.1
				c-0.1-0.4-0.3-0.7-0.5-1c-0.2-0.3-0.5-0.5-0.8-0.7C468.9,829.1,468.5,829,468,829z"/>
			<path fill="#373737" d="M474.5,833.2c0-0.9,0.1-1.7,0.3-2.4c0.2-0.7,0.5-1.3,0.9-1.8c0.4-0.5,0.9-0.9,1.4-1.2s1.2-0.4,1.9-0.4
				c0.7,0,1.4,0.1,1.9,0.4c0.5,0.3,1,0.6,1.4,1.1l0.1-1.3h1.8v11.2c0,0.8-0.1,1.4-0.4,2c-0.2,0.6-0.6,1.1-1,1.5s-0.9,0.7-1.5,0.9
				s-1.2,0.3-2,0.3c-0.3,0-0.6,0-1-0.1c-0.4-0.1-0.8-0.2-1.2-0.3c-0.4-0.2-0.8-0.4-1.1-0.6c-0.4-0.3-0.7-0.6-0.9-0.9l1-1.2
				c0.2,0.3,0.5,0.5,0.7,0.7c0.3,0.2,0.5,0.4,0.8,0.5c0.3,0.1,0.5,0.2,0.8,0.3s0.5,0.1,0.8,0.1c0.5,0,0.9-0.1,1.2-0.2
				c0.4-0.1,0.7-0.3,1-0.6s0.5-0.6,0.6-1c0.1-0.4,0.2-0.8,0.2-1.3v-1c-0.4,0.4-0.8,0.8-1.4,1c-0.5,0.2-1.1,0.3-1.8,0.3
				c-0.7,0-1.3-0.1-1.9-0.4c-0.6-0.3-1-0.7-1.4-1.2c-0.4-0.5-0.7-1.1-0.9-1.8c-0.2-0.7-0.3-1.5-0.3-2.3V833.2z M476.5,833.5
				c0,0.6,0.1,1.1,0.2,1.6s0.3,0.9,0.5,1.3c0.2,0.4,0.6,0.7,0.9,0.9c0.4,0.2,0.8,0.3,1.4,0.3c0.3,0,0.7,0,0.9-0.1
				c0.3-0.1,0.5-0.2,0.7-0.3c0.2-0.1,0.4-0.3,0.6-0.5s0.3-0.4,0.4-0.7v-5.2c-0.1-0.2-0.3-0.4-0.4-0.6s-0.4-0.4-0.6-0.5
				c-0.2-0.1-0.5-0.3-0.7-0.3c-0.3-0.1-0.6-0.1-0.9-0.1c-0.5,0-1,0.1-1.4,0.3c-0.4,0.2-0.7,0.5-0.9,0.9s-0.4,0.8-0.5,1.3
				c-0.1,0.5-0.2,1-0.2,1.6V833.5z"/>
			<path fill="#373737" d="M494.1,837.9c-0.4,0.4-0.8,0.8-1.4,1c-0.5,0.2-1.2,0.4-2,0.4c-0.6,0-1.1-0.1-1.5-0.2
				c-0.5-0.2-0.9-0.4-1.2-0.7c-0.3-0.3-0.6-0.8-0.8-1.3c-0.2-0.5-0.3-1.2-0.3-1.9v-7.4h2v7.4c0,0.5,0.1,0.9,0.2,1.3s0.3,0.6,0.5,0.8
				s0.4,0.3,0.7,0.4c0.3,0.1,0.5,0.1,0.8,0.1c0.8,0,1.4-0.2,1.9-0.5c0.5-0.3,0.8-0.7,1.1-1.2v-8.3h2V839h-1.9L494.1,837.9z"/>
			<path fill="#373737" d="M501.1,839h-2v-16.2h2V839z"/>
			<path fill="#373737" d="M511.3,839c-0.1-0.1-0.1-0.3-0.2-0.5s-0.1-0.4-0.1-0.7c-0.2,0.2-0.4,0.4-0.6,0.5
				c-0.2,0.2-0.5,0.3-0.7,0.5s-0.6,0.2-0.9,0.3c-0.3,0.1-0.7,0.1-1,0.1c-0.6,0-1.1-0.1-1.6-0.3s-0.9-0.4-1.2-0.7s-0.6-0.7-0.8-1.1
				c-0.2-0.4-0.3-0.9-0.3-1.3c0-0.6,0.1-1.2,0.4-1.6c0.2-0.5,0.6-0.9,1-1.2c0.4-0.3,1-0.6,1.6-0.7s1.3-0.2,2.1-0.2h1.9v-0.9
				c0-0.7-0.2-1.2-0.6-1.6s-1-0.6-1.8-0.6c-0.4,0-0.7,0-1,0.1c-0.3,0.1-0.6,0.2-0.8,0.4c-0.2,0.2-0.4,0.4-0.5,0.6
				c-0.1,0.2-0.2,0.4-0.2,0.7h-2c0-0.4,0.1-0.8,0.3-1.2c0.2-0.4,0.5-0.8,0.9-1.1c0.4-0.3,0.9-0.6,1.4-0.8c0.6-0.2,1.2-0.3,1.9-0.3
				c0.6,0,1.2,0.1,1.7,0.2s1,0.4,1.3,0.7c0.4,0.3,0.7,0.7,0.9,1.2s0.3,1,0.3,1.7v5.3c0,0.4,0,0.8,0.1,1.2s0.2,0.8,0.3,1.1v0.2H511.3
				z M508,837.6c0.4,0,0.7,0,1-0.1c0.3-0.1,0.6-0.2,0.8-0.4s0.5-0.3,0.7-0.5s0.3-0.4,0.4-0.6v-2.3h-1.6c-1.1,0-2,0.2-2.6,0.5
				c-0.6,0.3-0.9,0.9-0.9,1.6c0,0.3,0,0.5,0.1,0.8c0.1,0.2,0.2,0.4,0.4,0.6c0.2,0.2,0.4,0.3,0.7,0.4
				C507.4,837.5,507.7,837.6,508,837.6z"/>
			<path fill="#373737" d="M521.5,829.4c-0.2,0-0.3,0-0.5-0.1c-0.1,0-0.3,0-0.5,0c-0.7,0-1.2,0.1-1.7,0.4c-0.4,0.3-0.7,0.7-1,1.2
				v8.1h-2v-11.4h1.9l0,1.3c0.3-0.5,0.7-0.8,1.1-1.1c0.4-0.3,1-0.4,1.6-0.4c0.1,0,0.3,0,0.5,0c0.2,0,0.3,0.1,0.4,0.1V829.4z"/>
			<path fill="#373737" d="M534.9,839h-2v-13l-3.9,1.4v-1.8l5.6-2.1h0.3V839z"/>
			<path fill="#373737" d="M549.9,827.7c0,0.8-0.2,1.4-0.6,2s-1,1.1-1.6,1.4c0.4,0.2,0.8,0.4,1.1,0.6c0.3,0.3,0.6,0.5,0.8,0.9
				c0.2,0.3,0.4,0.7,0.5,1s0.2,0.8,0.2,1.2c0,0.7-0.1,1.3-0.4,1.9c-0.2,0.5-0.6,1-1,1.4s-1,0.6-1.5,0.8c-0.6,0.2-1.2,0.3-1.9,0.3
				c-0.7,0-1.3-0.1-1.9-0.3c-0.6-0.2-1.1-0.5-1.5-0.8c-0.4-0.4-0.8-0.8-1-1.4c-0.2-0.5-0.4-1.2-0.4-1.9c0-0.4,0.1-0.8,0.2-1.2
				c0.1-0.4,0.3-0.7,0.5-1.1s0.5-0.6,0.8-0.9s0.7-0.5,1.1-0.6c-0.7-0.3-1.2-0.8-1.6-1.4s-0.6-1.3-0.6-2c0-0.7,0.1-1.3,0.3-1.8
				s0.5-1,0.9-1.3c0.4-0.4,0.9-0.6,1.4-0.8s1.2-0.3,1.8-0.3c0.7,0,1.3,0.1,1.8,0.3s1,0.5,1.4,0.8c0.4,0.4,0.7,0.8,0.9,1.3
				C549.8,826.4,549.9,827,549.9,827.7z M548.3,834.9c0-0.4-0.1-0.8-0.2-1.2c-0.1-0.4-0.3-0.7-0.6-0.9c-0.3-0.3-0.6-0.5-0.9-0.6
				s-0.8-0.2-1.2-0.2c-0.4,0-0.8,0.1-1.2,0.2s-0.7,0.3-0.9,0.6c-0.3,0.3-0.4,0.6-0.6,0.9s-0.2,0.8-0.2,1.2c0,0.4,0.1,0.8,0.2,1.2
				c0.1,0.3,0.3,0.6,0.6,0.9c0.3,0.2,0.6,0.4,0.9,0.6c0.4,0.1,0.8,0.2,1.2,0.2c0.4,0,0.9-0.1,1.2-0.2s0.7-0.3,0.9-0.6
				s0.4-0.5,0.6-0.9C548.2,835.7,548.3,835.3,548.3,834.9z M547.9,827.7c0-0.4-0.1-0.7-0.2-1.1s-0.3-0.6-0.5-0.8
				c-0.2-0.2-0.5-0.4-0.8-0.6c-0.3-0.1-0.7-0.2-1-0.2s-0.7,0.1-1,0.2s-0.6,0.3-0.8,0.5c-0.2,0.2-0.4,0.5-0.5,0.8
				c-0.1,0.3-0.2,0.7-0.2,1.1c0,0.4,0.1,0.8,0.2,1.1c0.1,0.3,0.3,0.6,0.5,0.8s0.5,0.4,0.8,0.5s0.7,0.2,1.1,0.2s0.7-0.1,1.1-0.2
				s0.6-0.3,0.8-0.5c0.2-0.2,0.4-0.5,0.5-0.8C547.9,828.5,547.9,828.1,547.9,827.7z"/>
			<path fill="#373737" d="M558.5,830.8h4.3v1.8h-4.3v4.9h-2v-4.9h-4.3v-1.8h4.3v-4.5h2V830.8z"/>
			<path fill="#373737" d="M580.1,833.5c0,0.8-0.1,1.6-0.3,2.3c-0.2,0.7-0.5,1.3-0.9,1.8s-0.8,0.9-1.4,1.2c-0.5,0.3-1.2,0.4-1.9,0.4
				c-0.7,0-1.3-0.1-1.9-0.3c-0.5-0.2-1-0.6-1.4-1v5.5h-2v-15.8h1.8l0.1,1.3c0.4-0.5,0.9-0.8,1.4-1.1c0.5-0.3,1.2-0.4,1.9-0.4
				c0.7,0,1.4,0.1,1.9,0.4c0.6,0.3,1,0.7,1.4,1.2s0.7,1.1,0.9,1.8s0.3,1.5,0.3,2.4V833.5z M578.2,833.2c0-0.6-0.1-1.1-0.2-1.6
				c-0.1-0.5-0.3-0.9-0.6-1.3s-0.6-0.7-1-0.9c-0.4-0.2-0.8-0.3-1.4-0.3c-0.3,0-0.6,0-0.9,0.1s-0.5,0.2-0.7,0.3s-0.4,0.3-0.6,0.5
				c-0.2,0.2-0.3,0.4-0.4,0.6v5.5c0.1,0.2,0.3,0.4,0.4,0.6c0.2,0.2,0.4,0.4,0.6,0.5c0.2,0.1,0.5,0.2,0.7,0.3
				c0.3,0.1,0.6,0.1,0.9,0.1c0.5,0,1-0.1,1.4-0.3c0.4-0.2,0.7-0.5,1-0.9s0.4-0.8,0.6-1.3c0.1-0.5,0.2-1,0.2-1.6V833.2z"/>
			<path fill="#373737" d="M585.3,824.9v2.8h2.1v1.5h-2.1v7.1c0,0.3,0,0.5,0.1,0.7c0.1,0.2,0.2,0.3,0.3,0.4c0.1,0.1,0.2,0.2,0.4,0.2
				c0.2,0,0.3,0,0.5,0c0.2,0,0.3,0,0.5,0c0.2,0,0.3-0.1,0.4-0.1v1.6c-0.2,0-0.4,0.1-0.6,0.1c-0.2,0-0.5,0.1-0.9,0.1
				c-0.4,0-0.7-0.1-1-0.2c-0.3-0.1-0.6-0.3-0.8-0.5s-0.4-0.6-0.6-0.9c-0.1-0.4-0.2-0.9-0.2-1.4v-7.1h-2.1v-1.5h2.1v-2.8H585.3z"/>
			<path fill="#373737" d="M596.3,836c0-0.2,0-0.4-0.1-0.6c-0.1-0.2-0.2-0.4-0.4-0.5c-0.2-0.2-0.5-0.3-0.8-0.5s-0.8-0.3-1.4-0.4
				c-0.6-0.1-1.2-0.3-1.7-0.5c-0.5-0.2-0.9-0.4-1.3-0.7c-0.4-0.3-0.6-0.6-0.8-0.9c-0.2-0.4-0.3-0.8-0.3-1.2c0-0.4,0.1-0.9,0.3-1.3
				c0.2-0.4,0.5-0.8,0.8-1.1s0.8-0.5,1.3-0.7s1.1-0.3,1.7-0.3c0.7,0,1.3,0.1,1.8,0.3c0.5,0.2,1,0.4,1.4,0.8c0.4,0.3,0.7,0.7,0.9,1.1
				c0.2,0.4,0.3,0.9,0.3,1.4h-2c0-0.2-0.1-0.5-0.2-0.7s-0.3-0.4-0.5-0.6s-0.5-0.3-0.7-0.5c-0.3-0.1-0.6-0.2-1-0.2
				c-0.4,0-0.8,0-1,0.1s-0.5,0.2-0.7,0.4s-0.3,0.3-0.4,0.5c-0.1,0.2-0.1,0.4-0.1,0.6s0,0.4,0.1,0.6c0.1,0.2,0.2,0.3,0.4,0.5
				c0.2,0.1,0.5,0.3,0.8,0.4c0.3,0.1,0.8,0.2,1.3,0.4c0.7,0.2,1.3,0.3,1.8,0.5c0.5,0.2,0.9,0.4,1.3,0.7c0.3,0.3,0.6,0.6,0.8,0.9
				c0.2,0.4,0.2,0.8,0.2,1.2c0,0.5-0.1,1-0.3,1.4c-0.2,0.4-0.5,0.8-0.9,1.1s-0.9,0.5-1.4,0.7c-0.5,0.2-1.1,0.2-1.8,0.2
				c-0.8,0-1.4-0.1-2-0.3s-1.1-0.5-1.5-0.8c-0.4-0.3-0.7-0.7-0.9-1.2c-0.2-0.4-0.3-0.9-0.3-1.4h2c0,0.4,0.1,0.7,0.3,1
				c0.2,0.3,0.4,0.5,0.6,0.7c0.3,0.2,0.5,0.3,0.9,0.4c0.3,0.1,0.6,0.1,0.9,0.1c0.4,0,0.8,0,1.1-0.1c0.3-0.1,0.6-0.2,0.8-0.3
				c0.2-0.1,0.4-0.3,0.5-0.5S596.3,836.3,596.3,836z"/>
			<path fill="#373737" d="M610.7,839c-0.1-0.2-0.2-0.5-0.2-0.8c-0.2,0.3-0.5,0.5-0.9,0.7c-0.4,0.2-0.8,0.3-1.3,0.3
				c-0.4,0-0.8-0.1-1.2-0.2c-0.4-0.1-0.7-0.3-1-0.5s-0.5-0.5-0.6-0.8s-0.2-0.7-0.2-1.1c0-0.5,0.1-0.9,0.3-1.2
				c0.2-0.4,0.4-0.7,0.8-0.9c0.3-0.3,0.8-0.4,1.3-0.6c0.5-0.1,1.1-0.2,1.8-0.2h1.1v-0.5c0-0.4-0.1-0.7-0.3-1c-0.2-0.2-0.5-0.4-1-0.4
				c-0.4,0-0.7,0.1-0.9,0.3c-0.2,0.2-0.3,0.5-0.3,0.8h-2.4c0-0.4,0.1-0.7,0.3-1.1c0.2-0.3,0.4-0.6,0.8-0.9c0.3-0.3,0.7-0.5,1.2-0.6
				c0.5-0.2,1-0.2,1.6-0.2c0.5,0,1,0.1,1.4,0.2s0.8,0.3,1.1,0.6c0.3,0.3,0.6,0.6,0.7,1c0.2,0.4,0.3,0.8,0.3,1.4v3.8
				c0,0.3,0,0.5,0,0.7c0,0.2,0,0.4,0.1,0.5c0,0.2,0.1,0.3,0.1,0.4c0,0.1,0.1,0.2,0.2,0.4v0.1H610.7z M608.8,837.4
				c0.2,0,0.4,0,0.6-0.1c0.2,0,0.3-0.1,0.5-0.2s0.3-0.2,0.4-0.3c0.1-0.1,0.2-0.2,0.2-0.3V835h-1c-0.3,0-0.6,0-0.8,0.1
				c-0.2,0.1-0.4,0.2-0.6,0.3s-0.3,0.3-0.3,0.4c-0.1,0.2-0.1,0.3-0.1,0.5c0,0.3,0.1,0.5,0.3,0.7S608.4,837.4,608.8,837.4z"/>
			<path fill="#373737" d="M616.8,830.2l0.1,1c0.3-0.4,0.7-0.7,1.1-0.9s0.9-0.3,1.4-0.3c0.4,0,0.8,0.1,1.1,0.2
				c0.3,0.1,0.6,0.3,0.9,0.6c0.2,0.3,0.4,0.6,0.6,1c0.1,0.4,0.2,1,0.2,1.6v5.6h-2.4v-5.7c0-0.3,0-0.5-0.1-0.7s-0.2-0.3-0.3-0.4
				s-0.3-0.2-0.4-0.2c-0.2,0-0.4-0.1-0.6-0.1c-0.4,0-0.6,0.1-0.9,0.2c-0.2,0.2-0.5,0.4-0.6,0.6v6.3h-2.4v-8.9H616.8z"/>
			<path fill="#373737" d="M623.6,834.5c0-0.7,0.1-1.3,0.2-1.8c0.2-0.6,0.4-1,0.7-1.4c0.3-0.4,0.7-0.7,1.1-0.9
				c0.4-0.2,0.9-0.3,1.5-0.3c0.5,0,0.9,0.1,1.2,0.3c0.4,0.2,0.7,0.4,0.9,0.7v-4.5h2.4V839h-2.1l-0.1-0.9c-0.3,0.4-0.6,0.6-1,0.8
				c-0.4,0.2-0.8,0.3-1.3,0.3c-0.5,0-1-0.1-1.5-0.3c-0.4-0.2-0.8-0.5-1.1-0.9c-0.3-0.4-0.5-0.9-0.7-1.4c-0.2-0.5-0.2-1.1-0.2-1.8
				V834.5z M626,834.7c0,0.4,0,0.7,0.1,1s0.2,0.6,0.3,0.8c0.1,0.2,0.3,0.4,0.5,0.5s0.5,0.2,0.8,0.2c0.4,0,0.7-0.1,1-0.2
				c0.3-0.2,0.5-0.4,0.6-0.7v-3.5c-0.1-0.3-0.3-0.5-0.6-0.7c-0.3-0.2-0.6-0.2-0.9-0.2c-0.3,0-0.6,0.1-0.8,0.2
				c-0.2,0.1-0.4,0.3-0.5,0.6c-0.1,0.2-0.2,0.5-0.3,0.8c-0.1,0.3-0.1,0.7-0.1,1V834.7z"/>
			<path fill="#373737" d="M637.8,839v-11.9h4.2c0.7,0,1.3,0.1,1.9,0.2c0.5,0.1,1,0.3,1.4,0.6s0.7,0.6,0.9,1
				c0.2,0.4,0.3,0.9,0.3,1.5c0,0.3,0,0.5-0.1,0.8c-0.1,0.3-0.2,0.5-0.3,0.7c-0.1,0.2-0.3,0.4-0.5,0.6c-0.2,0.2-0.5,0.3-0.8,0.4
				c0.3,0.1,0.6,0.2,0.9,0.4c0.2,0.2,0.5,0.4,0.6,0.6c0.2,0.2,0.3,0.5,0.4,0.8c0.1,0.3,0.1,0.6,0.1,0.8c0,1.2-0.4,2-1.1,2.6
				c-0.7,0.6-1.8,0.9-3.2,0.9H637.8z M640.3,832.1h1.8c0.6,0,1.1-0.1,1.4-0.4c0.3-0.3,0.5-0.6,0.5-1.1c0-0.5-0.2-0.9-0.5-1.2
				c-0.3-0.2-0.8-0.4-1.5-0.4h-1.7V832.1z M640.3,833.8v3.2h2.1c0.3,0,0.6,0,0.8-0.1s0.4-0.2,0.6-0.3s0.3-0.3,0.3-0.5
				c0.1-0.2,0.1-0.4,0.1-0.6c0-0.3,0-0.5-0.1-0.7s-0.2-0.4-0.3-0.5c-0.1-0.1-0.3-0.3-0.5-0.3c-0.2-0.1-0.5-0.1-0.8-0.1H640.3z"/>
			<path fill="#373737" d="M648,834.5c0-0.6,0.1-1.2,0.3-1.8c0.2-0.6,0.5-1,0.8-1.4c0.4-0.4,0.8-0.7,1.3-0.9s1.1-0.3,1.8-0.3
				c0.7,0,1.3,0.1,1.8,0.3c0.5,0.2,1,0.5,1.3,0.9c0.4,0.4,0.6,0.9,0.8,1.4c0.2,0.6,0.3,1.2,0.3,1.8v0.2c0,0.7-0.1,1.3-0.3,1.8
				s-0.5,1-0.8,1.4c-0.4,0.4-0.8,0.7-1.3,0.9c-0.5,0.2-1.1,0.3-1.8,0.3s-1.3-0.1-1.8-0.3c-0.5-0.2-1-0.5-1.3-0.9
				c-0.4-0.4-0.6-0.9-0.8-1.4c-0.2-0.5-0.3-1.1-0.3-1.8V834.5z M650.4,834.7c0,0.4,0,0.7,0.1,1s0.2,0.6,0.3,0.8
				c0.1,0.2,0.3,0.4,0.6,0.6s0.5,0.2,0.9,0.2c0.3,0,0.6-0.1,0.8-0.2s0.4-0.3,0.6-0.6c0.1-0.2,0.3-0.5,0.3-0.8s0.1-0.7,0.1-1v-0.2
				c0-0.3,0-0.7-0.1-1s-0.2-0.6-0.3-0.8c-0.1-0.2-0.3-0.4-0.6-0.6c-0.2-0.1-0.5-0.2-0.9-0.2c-0.3,0-0.6,0.1-0.8,0.2
				s-0.4,0.3-0.6,0.6c-0.1,0.2-0.2,0.5-0.3,0.8s-0.1,0.6-0.1,1V834.7z"/>
			<path fill="#373737" d="M660.4,839H658v-12.6h2.4V839z"/>
			<path fill="#373737" d="M662,834.5c0-0.7,0.1-1.3,0.2-1.8c0.2-0.6,0.4-1,0.7-1.4c0.3-0.4,0.7-0.7,1.1-0.9
				c0.4-0.2,0.9-0.3,1.5-0.3c0.5,0,0.9,0.1,1.2,0.3c0.4,0.2,0.7,0.4,0.9,0.7v-4.5h2.4V839h-2.1l-0.1-0.9c-0.3,0.4-0.6,0.6-1,0.8
				s-0.8,0.3-1.3,0.3c-0.5,0-1-0.1-1.5-0.3c-0.4-0.2-0.8-0.5-1.1-0.9s-0.5-0.9-0.7-1.4c-0.2-0.5-0.2-1.1-0.2-1.8V834.5z
				 M664.3,834.7c0,0.4,0,0.7,0.1,1c0.1,0.3,0.2,0.6,0.3,0.8s0.3,0.4,0.5,0.5c0.2,0.1,0.5,0.2,0.8,0.2c0.4,0,0.7-0.1,1-0.2
				c0.3-0.2,0.5-0.4,0.6-0.7v-3.5c-0.1-0.3-0.3-0.5-0.6-0.7c-0.3-0.2-0.6-0.2-0.9-0.2c-0.3,0-0.6,0.1-0.8,0.2
				c-0.2,0.1-0.4,0.3-0.5,0.6c-0.1,0.2-0.2,0.5-0.3,0.8c-0.1,0.3-0.1,0.7-0.1,1V834.7z"/>
			<path fill="#373737" d="M681.6,839h-2.4v-9.1l-2.8,0.9v-1.9l4.9-1.8h0.3V839z"/>
			<path fill="#373737" d="M692.5,834.6h1.4v1.9h-1.4v2.6h-2.4v-2.6h-4.9l-0.1-1.5l5-7.9h2.4V834.6z M687.5,834.6h2.6v-4.2l-0.2,0.3
				L687.5,834.6z"/>
			<path fill="#373737" d="M700,832.4h3v2.1h-3v3.3h-2.3v-3.3h-3v-2.1h3v-3.2h2.3V832.4z"/>
			<path fill="#373737" d="M716.6,834.7c0,0.6-0.1,1.2-0.2,1.8c-0.2,0.6-0.4,1-0.7,1.4c-0.3,0.4-0.6,0.7-1.1,0.9
				c-0.4,0.2-0.9,0.3-1.5,0.3c-0.5,0-0.9-0.1-1.2-0.2c-0.4-0.2-0.7-0.4-0.9-0.7v4.2h-2.4v-12.3h2.2l0.1,0.9c0.3-0.3,0.6-0.6,1-0.8
				c0.4-0.2,0.8-0.3,1.3-0.3c0.6,0,1.1,0.1,1.5,0.3c0.4,0.2,0.8,0.5,1.1,0.9s0.5,0.9,0.7,1.4c0.2,0.6,0.2,1.2,0.2,1.8V834.7z
				 M714.2,834.5c0-0.4,0-0.7-0.1-1s-0.2-0.6-0.3-0.8s-0.3-0.4-0.5-0.5c-0.2-0.1-0.5-0.2-0.8-0.2c-0.4,0-0.7,0.1-1,0.2
				c-0.2,0.1-0.4,0.4-0.6,0.6v3.6c0.1,0.3,0.3,0.5,0.6,0.6c0.2,0.2,0.6,0.2,1,0.2c0.3,0,0.6-0.1,0.8-0.2c0.2-0.1,0.4-0.3,0.5-0.6
				c0.1-0.2,0.2-0.5,0.3-0.8c0.1-0.3,0.1-0.7,0.1-1V834.5z"/>
			<path fill="#373737" d="M720.9,828v2.2h1.5v1.7h-1.5v4.4c0,0.2,0,0.3,0.1,0.5s0.1,0.2,0.2,0.3c0.1,0.1,0.2,0.1,0.3,0.1
				s0.2,0,0.4,0c0.1,0,0.3,0,0.4,0c0.1,0,0.2,0,0.3,0v1.8c-0.2,0.1-0.4,0.1-0.6,0.2s-0.5,0.1-0.8,0.1c-0.4,0-0.7,0-1-0.1
				s-0.6-0.2-0.8-0.5s-0.4-0.5-0.5-0.8c-0.1-0.3-0.2-0.7-0.2-1.2v-4.7h-1.3v-1.7h1.3V828H720.9z"/>
			<path fill="#373737" d="M728.6,836.6c0-0.1,0-0.2-0.1-0.3c0-0.1-0.1-0.2-0.3-0.3c-0.1-0.1-0.3-0.2-0.6-0.3
				c-0.2-0.1-0.5-0.2-0.9-0.2c-0.5-0.1-0.9-0.2-1.3-0.4c-0.4-0.1-0.7-0.3-1-0.5s-0.5-0.5-0.7-0.8c-0.2-0.3-0.2-0.6-0.2-1
				c0-0.4,0.1-0.7,0.2-1.1c0.2-0.3,0.4-0.6,0.7-0.9c0.3-0.3,0.7-0.5,1.1-0.6c0.4-0.1,0.9-0.2,1.5-0.2c0.6,0,1.1,0.1,1.6,0.2
				c0.5,0.1,0.8,0.3,1.2,0.6c0.3,0.3,0.6,0.6,0.7,0.9c0.2,0.3,0.3,0.7,0.3,1.1h-2.4c0-0.3-0.1-0.6-0.3-0.8s-0.6-0.3-1-0.3
				c-0.4,0-0.7,0.1-0.9,0.3s-0.3,0.4-0.3,0.7c0,0.1,0,0.2,0.1,0.3c0.1,0.1,0.2,0.2,0.3,0.3c0.1,0.1,0.3,0.2,0.5,0.2
				c0.2,0.1,0.5,0.1,0.8,0.2c0.5,0.1,0.9,0.2,1.3,0.3s0.8,0.3,1.1,0.5s0.5,0.5,0.7,0.8c0.2,0.3,0.3,0.7,0.3,1.1
				c0,0.4-0.1,0.8-0.3,1.1c-0.2,0.3-0.4,0.6-0.8,0.9c-0.3,0.2-0.7,0.4-1.2,0.6c-0.5,0.1-1,0.2-1.5,0.2c-0.6,0-1.2-0.1-1.6-0.3
				c-0.5-0.2-0.9-0.4-1.2-0.7c-0.3-0.3-0.6-0.6-0.7-1s-0.2-0.7-0.2-1.1h2.2c0,0.2,0.1,0.4,0.2,0.6c0.1,0.2,0.2,0.3,0.4,0.4
				c0.1,0.1,0.3,0.2,0.5,0.2c0.2,0,0.4,0.1,0.6,0.1c0.5,0,0.8-0.1,1-0.3C728.4,837.1,728.6,836.9,728.6,836.6z"/>
		</g>
		<path fill="#FFE335" d="M242.3,831.7l-22-38.1c-1-1.5-2.5-2.5-4.2-2.5c-1.7,0-3.5,1-4.2,2.5l-22.3,38.6c-1,1.5-1,3.5,0,5
			c1,1.5,2.5,2.5,4.2,2.5h44.6l0,0c2.7,0,5-2.2,5-5C243.2,833.7,243,832.7,242.3,831.7z M213.5,806c0.7-0.5,1.5-0.7,2.5-0.7
			c1,0,1.7,0.2,2.5,0.7v16.6h-5V806z M216,832.5c-2,0-3.7-1.7-3.7-3.7s1.7-3.7,3.7-3.7s3.7,1.7,3.7,3.7S218,832.5,216,832.5z"/>
		<g>
			<path fill="#373737" d="M296.8,816.4h-27.9V809h27.9V816.4z M296.8,829.9h-27.9v-7.4h27.9V829.9z"/>
		</g>
	</g>
</g>
</svg>
