<svg xmlns="http://www.w3.org/2000/svg" width="90.3" height="102.3" viewBox="-82.7 76.6 90.3 102.3" enable-background="new -82.7 76.6 90.3 102.3"><style type="text/css">.st0{fill:#FFB500;stroke:#F78F15;stroke-width:4.6633;stroke-miterlimit:10;} .st1{fill:#F78F15;stroke:#F78F15;stroke-width:1.1658;stroke-linecap:round;stroke-linejoin:round;stroke-miterlimit:10;} .st2{fill:#FFFFFF;stroke:#FFB500;stroke-width:2.0136;stroke-miterlimit:10;} .st3{fill:#F78F15;}</style><path class="st0" d="M-76.1 90.2h77v86.4h-77z"/><path class="st1" d="M-82.1 81.5h89.1v8.6h-89.1z"/><path class="st2" d="M-54.5 162.8l-3.6-6.2 3.6-6.3h7.1l3.6 6.3-3.6 6.2zm10.4-6.2l-3.5-6.3 3.5-6.1h7.2l3.5 6.1-3.5 6.3zm0-23.7l-3.5-6.1 3.5-6.2h7.2l3.5 6.2-3.5 6.1zm10.8 29.8l-3.6-6.2 3.6-6.2h7.1l3.6 6.2-3.6 6.2zm-21.2-12.4l-3.6-6.1 3.6-6.3h7.1l3.6 6.3-3.6 6.1zm0-24l-3.6-6.2 3.6-6.1h7.1l3.6 6.1-3.6 6.2zm-10.7 30.2l-3.7-6.2 3.7-6.1h7.1l3.6 6.1-3.6 6.2z"/><path class="st3" d="M-27.7 86.7h-19.7c-1.1 0-2-.9-2-2v-6.2c0-1.1.9-2 2-2h19.7c1.1 0 2 .9 2 2v6.1c0 1.3-1 2.1-2 2.1z"/></svg>