<svg id="Working_bits" data-name="Working bits" xmlns="http://www.w3.org/2000/svg" viewBox="0 0 463.13 318.18"><defs><style>.cls-1,.cls-2{font-size:4px;font-family:Roboto;}.cls-1,.cls-3{fill:#231f20;}</style></defs><title>icon-set</title><text class="cls-1" transform="translate(53.36 28.35)">ar<tspan x="3.57" y="0">r</tspan><tspan x="4.9" y="0">ow-right</tspan></text><text class="cls-1" transform="translate(11.61 28.35)">ale<tspan x="5.32" y="0">r</tspan><tspan x="6.73" y="0">t</tspan></text><text class="cls-1" transform="translate(102.82 28.35)">ar<tspan x="3.57" y="0">r</tspan><tspan x="4.9" y="0">ow-left</tspan></text><text class="cls-1" transform="translate(152.38 28.35)">calendar</text><text class="cls-1" transform="translate(195.33 28.35)">ch<tspan x="4.4" y="0">e</tspan><tspan x="6.49" y="0">v</tspan><tspan x="8.5" y="0">r</tspan><tspan x="9.83" y="0">on-down</tspan></text><text class="cls-1" transform="translate(245.98 28.35)">ch<tspan x="4.4" y="0">e</tspan><tspan x="6.49" y="0">v</tspan><tspan x="8.5" y="0">r</tspan><tspan x="9.83" y="0">on-up</tspan></text><text class="cls-1" transform="translate(292.1 28.35)">ch<tspan x="4.4" y="0">e</tspan><tspan x="6.49" y="0">v</tspan><tspan x="8.5" y="0">r</tspan><tspan x="9.83" y="0">on-right</tspan></text><text class="cls-1" transform="translate(341.53 28.35)">ch<tspan x="4.4" y="0">e</tspan><tspan x="6.49" y="0">v</tspan><tspan x="8.5" y="0">r</tspan><tspan x="9.83" y="0">on-left</tspan></text><text class="cls-1" transform="translate(390.03 28.35)">clear-c<tspan x="12.04" y="0">r</tspan><tspan x="13.37" y="0">oss</tspan></text><text class="cls-1" transform="translate(432.5 28.35)">clear-c<tspan x="12.04" y="0">r</tspan><tspan x="13.37" y="0">oss-ci</tspan><tspan x="24.05" y="0">r</tspan><tspan x="25.38" y="0">cle</tspan></text><text class="cls-1" transform="translate(7.64 75.89)">comment</text><text class="cls-1" transform="translate(6 124.46)">folder-open</text><text class="cls-1" transform="translate(10.34 172.69)">r<tspan x="1.33" y="0">ef</tspan><tspan x="4.83" y="0">r</tspan><tspan x="6.16" y="0">esh</tspan></text><text class="cls-1" transform="translate(59.67 172.69)">s<tspan x="2.09" y="0">av</tspan><tspan x="6.25" y="0">e</tspan></text><text class="cls-1" transform="translate(105.68 172.69)">sea<tspan x="6.41" y="0">r</tspan><tspan x="7.74" y="0">ch</tspan></text><text class="cls-1" transform="translate(152.33 172.69)">settings</text><text class="cls-1" transform="translate(203.92 172.69)">tick</text><text class="cls-1" transform="translate(252.02 172.69)">user</text><text class="cls-1" transform="translate(299.31 172.69)">users</text><text class="cls-1" transform="translate(59.19 124.46)">globe</text><text class="cls-1" transform="translate(103.17 124.46)">help-ci<tspan x="11.9" y="0">r</tspan><tspan x="13.23" y="0">cle</tspan></text><text class="cls-1" transform="translate(154.31 124.46)">histo<tspan x="9.03" y="0">r</tspan><tspan x="10.44" y="0">y</tspan></text><text class="cls-1" transform="translate(198.97 124.46)">info-ci<tspan x="11.16" y="0">r</tspan><tspan x="12.5" y="0">cle</tspan></text><text class="cls-1" transform="translate(249.22 124.46)">instance</text><text class="cls-1" transform="translate(291.64 124.46)">message-tick</text><text class="cls-1" transform="translate(346.54 124.46)">phone</text><text class="cls-1" transform="translate(390.6 124.46)">pl<tspan x="3.28" y="0">a</tspan><tspan x="5.45" y="0">y-ci</tspan><tspan x="11.69" y="0">r</tspan><tspan x="13.02" y="0">cle</tspan></text><text class="cls-1" transform="translate(439.14 124.46)">plus-ci<tspan x="11.87" y="0">r</tspan><tspan x="13.21" y="0">cle</tspan></text><text class="cls-1" transform="translate(55.86 75.89)">database</text><text class="cls-1" transform="translate(105.97 75.89)">delete</text><text class="cls-1" transform="translate(151.06 75.89)">document</text><text class="cls-1" transform="translate(198.98 75.89)">download</text><text class="cls-1" transform="translate(252.55 75.89)">edit</text><text class="cls-1" transform="translate(299.25 75.89)">email</text><text class="cls-1" transform="translate(340.88 75.89)">external-link</text><text class="cls-1" transform="translate(395.27 75.89)">filter</text><text class="cls-1" transform="translate(443.71 75.89)">folder</text><text class="cls-1" transform="translate(348.38 172.69)">video</text><text class="cls-1" transform="translate(383.81 172.69)">warning-triangle</text><text class="cls-1" transform="translate(445.9 172.69)">plus</text><text class="cls-1" transform="translate(9.59 220.69)">minus</text><text class="cls-1" transform="translate(59.13 220.69)">bullet</text><text class="cls-1" transform="translate(102.53 220.69)">bold-c<tspan x="11.05" y="0">r</tspan><tspan x="12.38" y="0">oss</tspan></text><text class="cls-1" transform="translate(147.16 220.69)">shopping-ca<tspan x="22.16" y="0">r</tspan><tspan x="23.56" y="0">t</tspan></text><text class="cls-1" transform="translate(200.81 220.69)">pipeline</text><text class="cls-1" transform="translate(251.05 220.69)">Data</text><text class="cls-1" transform="translate(297.22 220.69)">Add-ons</text><text class="cls-1" transform="translate(102.95 269.71)">z<tspan x="1.98" y="0">oom-out</tspan></text><text class="cls-1" transform="translate(151.33 269.71)">z<tspan x="1.98" y="0">oom-in</tspan></text><text class="cls-1" transform="translate(0 316.1)">warning-octagon</text><text class="cls-1" transform="translate(108.01 316.1)">print</text><text class="cls-1" transform="translate(202.24 269.71)">impo<tspan x="9.05" y="0">r</tspan><tspan x="10.46" y="0">t</tspan></text><text class="cls-1" transform="translate(250.93 269.71)">expo<tspan x="8.67" y="0">r</tspan><tspan x="10.08" y="0">t</tspan></text><text class="cls-1" transform="translate(298.09 269.71)">expand</text><text class="cls-1" transform="translate(343.97 269.71)">minimi<tspan x="12.29" y="0">z</tspan><tspan x="14.27" y="0">e</tspan></text><text class="cls-1" transform="translate(396.23 269.71)">flag</text><text class="cls-1" transform="translate(444.48 269.71)">tag</text><text class="cls-1" transform="translate(394.01 220.69)">co<tspan x="4.4" y="0">py</tspan><tspan x="8.63" y="0">doc</tspan></text><text class="cls-1" transform="translate(444.69 220.69)">pl<tspan x="3.28" y="0">a</tspan><tspan x="5.45" y="0">y</tspan></text><text class="cls-1" transform="translate(148.42 316.1)">Maintenance</text><text class="cls-2" transform="translate(347.8 220.69)">dock</text><text class="cls-1" transform="translate(58.69 269.71)">show</text><text class="cls-1" transform="translate(60.02 316.1)">hide</text><text class="cls-1" transform="translate(6.98 269.71)">tick-ci<tspan x="10.79" y="0">r</tspan><tspan x="12.13" y="0">cle</tspan></text><path class="cls-3" d="M138,193" transform="translate(4.16 -1.9)"/><text class="cls-1" transform="translate(196.83 316.1)">Ale<tspan x="5.71" y="0">r</tspan><tspan x="7.12" y="0">t-silence</tspan></text><text class="cls-1" transform="translate(236.95 316.1)">mo<tspan x="5.77" y="0">r</tspan><tspan x="7.1" y="0">e-actions-</tspan><tspan x="24.76" y="0">v</tspan><tspan x="26.75" y="0">e</tspan><tspan x="28.86" y="0">r</tspan><tspan x="30.27" y="0">tical</tspan></text><text class="cls-1" transform="translate(282.26 316.1)">mo<tspan x="5.77" y="0">r</tspan><tspan x="7.1" y="0">e-actions-hori</tspan><tspan x="31.69" y="0">z</tspan><tspan x="33.67" y="0">ontal</tspan></text><text class="cls-1" transform="translate(349.46 317.1)">pin</text><path class="cls-3" d="M355,301a3,3,0,0,0-2-2.82v-5.46a2,2,0,0,0,1-1.72v-1H342v1a2,2,0,0,0,1,1.72v5.46a3,3,0,0,0-2,2.82v1h6v7l1,1,1-1v-7h6v-1Z" transform="translate(4.16 -1.9)"/><text class="cls-1" transform="translate(395.11 316.1)">unpin</text><path class="cls-3" d="M391,292.73V293l9,9h3v-1a3,3,0,0,0-2-2.82v-5.46a2,2,0,0,0,1-1.72v-1H390v1A2,2,0,0,0,391,292.73Z" transform="translate(4.16 -1.9)"/><path class="cls-3" d="M398,302l-9.07-9.07-1,1L391,297v1.17a3,3,0,0,0-2,2.82v1h6v7l1,1,1-1v-6l5.06,5.06,1-1L398,302h0Z" transform="translate(4.16 -1.9)"/><text class="cls-1" transform="translate(441.62 316.1)">se<tspan x="4.21" y="0">r</tspan><tspan x="5.61" y="0">v</tspan><tspan x="7.6" y="0">er</tspan></text><path class="cls-3" d="M449,290H437a1,1,0,0,0-1,1v18a1,1,0,0,0,1,1h12a1,1,0,0,0,1-1V291A1,1,0,0,0,449,290Zm-2,16a1,1,0,1,1,1-1A1,1,0,0,1,447,306Zm1-4H438v-2h10v2Zm0-4H438v-2h10v2Zm0-4H438v-2h10v2Z" transform="translate(4.16 -1.9)"/><path d="M294,298a2,2,0,1,0,2,2A2,2,0,0,0,294,298Zm12,0a2,2,0,1,0,2,2A2,2,0,0,0,306,298Zm-6,0a2,2,0,1,0,2,2A2,2,0,0,0,300,298Z" transform="translate(4.16 -1.9)"/><path class="cls-3" d="M252,296a2,2,0,1,0-2-2A2,2,0,0,0,252,296Zm0,2a2,2,0,1,0,2,2A2,2,0,0,0,252,298Zm0,6a2,2,0,1,0,2,2A2,2,0,0,0,252,304Z" transform="translate(4.16 -1.9)"/><path class="cls-3" d="M204,310a3,3,0,0,0,3-3h-6A3,3,0,0,0,204,310Z" transform="translate(4.16 -1.9)"/><path class="cls-3" d="M198.53,294.53l-1.6-1.6-1,1,2.15,2.15a5.63,5.63,0,0,0-.07.86v4.31l-2.7,2.61a1,1,0,0,0-.3.72V306h13l2.08,2.08,1-1-5.67-5.67Z" transform="translate(4.16 -1.9)"/><path class="cls-3" d="M212.7,303.87l-2.7-2.61V297a6,6,0,0,0-4.15-5.71,2,2,0,0,0-3.7,0,6,6,0,0,0-2.87,2L212,306h1v-1.41A1,1,0,0,0,212.7,303.87Z" transform="translate(4.16 -1.9)"/><path class="cls-3" d="M165.87,294.72l-3.41,3.41-3.62-1-1-3.62,3.41-3.41a6.5,6.5,0,0,0-7.88,8.23l-7.55,7.55a0.5,0.5,0,0,0,0,.71l3.54,3.54a0.5,0.5,0,0,0,.71,0l7.55-7.55A6.5,6.5,0,0,0,165.87,294.72Z" transform="translate(4.16 -1.9)"/><path class="cls-3" d="M116,296h-2v-4H102v4h-2a2,2,0,0,0-2,2v7h4v4h12v-4h4v-7A2,2,0,0,0,116,296Zm-4,11h-8v-5h8v5Zm0-11h-8v-2h8v2Zm3,4a1,1,0,1,1,1-1A1,1,0,0,1,115,300Z" transform="translate(4.16 -1.9)"/><path class="cls-3" d="M60,293.73a11.58,11.58,0,0,0-3.83.65l1.77,1.77a4.33,4.33,0,0,1,2.07-.54A4.38,4.38,0,0,1,64.38,300a4.33,4.33,0,0,1-.54,2.07l2.37,2.37A10,10,0,0,0,70,300,10.76,10.76,0,0,0,60,293.73Z" transform="translate(4.16 -1.9)"/><path class="cls-3" d="M60,297.48a2.48,2.48,0,0,0-.64.09l3,3A2.47,2.47,0,0,0,60,297.48Z" transform="translate(4.16 -1.9)"/><path class="cls-3" d="M58.12,298.35h0L56.79,297h0l-2-2h0l-1.83-1.83-1,1,1.58,1.58A10,10,0,0,0,50,300a10.76,10.76,0,0,0,10,6.25,11.54,11.54,0,0,0,3.44-.53l2.62,2.62,1-1-7.24-7.24Zm1.88,6A4.38,4.38,0,0,1,55.63,300a4.27,4.27,0,0,1,.37-1.73l1.52,1.52c0,0.07,0,.14,0,0.21a2.5,2.5,0,0,0,2.5,2.5l0.21,0L61.73,304A4.27,4.27,0,0,1,60,304.36Z" transform="translate(4.16 -1.9)"/><path class="cls-3" d="M16.14,290H7.86L2,295.5v8.28L7.86,310h8.28L22,303.79V295.5ZM13,295v7H11v-7h2Zm-1,10.64a1.5,1.5,0,1,1,1.5-1.5A1.54,1.54,0,0,1,12,305.64Z" transform="translate(4.16 -1.9)"/><path class="cls-3" d="M442.24,242H434l0,8.15a1,1,0,0,0,.29.71l10.47,10.43a1,1,0,0,0,1.41,0l7.12-7.16a1,1,0,0,0,0-1.41L443,242.3A1,1,0,0,0,442.24,242Zm-4.67,5.07a1.5,1.5,0,1,1,1.5-1.5A1.5,1.5,0,0,1,437.57,247.07Z" transform="translate(4.16 -1.9)"/><path class="cls-3" d="M400,249l5-5H390.41a1.5,1.5,0,1,0-2.41.61c0,3.12,0,17.35,0,17.39h2v-8h15Z" transform="translate(4.16 -1.9)"/><path class="cls-3" d="M355,243H341a2,2,0,0,0-2,2v14a2,2,0,0,0,2,2h14a2,2,0,0,0,2-2V245A2,2,0,0,0,355,243Zm-1,10H342v-2h12v2Z" transform="translate(4.16 -1.9)"/><path class="cls-3" d="M307,243H293a2,2,0,0,0-2,2v14a2,2,0,0,0,2,2h14a2,2,0,0,0,2-2V245A2,2,0,0,0,307,243Zm-1,10h-5v5h-2v-5h-5v-2h5v-5h2v5h5v2Z" transform="translate(4.16 -1.9)"/><polygon class="cls-3" points="252.16 240.1 252.16 246.1 254.16 246.1 254.16 242.1 264.16 242.1 264.16 258.1 254.16 258.1 254.16 254.1 252.16 254.1 252.16 260.1 266.16 260.1 266.16 240.1 252.16 240.1"/><path class="cls-3" d="M253,250h-7v-2.45a0.5,0.5,0,0,0-.85-0.35l-4.8,4.8,4.8,4.8a0.5,0.5,0,0,0,.85-0.35V254h7v-4Z" transform="translate(4.16 -1.9)"/><polygon class="cls-3" points="201.16 240.1 201.16 246.1 203.16 246.1 203.16 242.1 213.16 242.1 213.16 258.1 203.16 258.1 203.16 254.1 201.16 254.1 201.16 260.1 215.16 260.1 215.16 240.1 201.16 240.1"/><path class="cls-3" d="M201,256.45a0.5,0.5,0,0,0,.85.35l4.8-4.8-4.8-4.8a0.5,0.5,0,0,0-.85.35V250h-7v4h7v2.45Z" transform="translate(4.16 -1.9)"/><path class="cls-3" d="M154,242a8,8,0,1,0,4,14.89l4.86,4.86a0.5,0.5,0,0,0,.71,0l2.12-2.12a0.5,0.5,0,0,0,0-.71l-4.84-4.84A8,8,0,0,0,154,242h0Zm-5,9v-2h4v-4h2v4h4v2h-4v4h-2v-4h-4Z" transform="translate(4.16 -1.9)"/><path class="cls-3" d="M106,242a8,8,0,1,0,4,14.89l4.86,4.86a0.5,0.5,0,0,0,.71,0l2.12-2.12a0.5,0.5,0,0,0,0-.71l-4.84-4.84A8,8,0,0,0,106,242h0Zm-5,9v-2h10v2H101Z" transform="translate(4.16 -1.9)"/><path class="cls-3" d="M60,245.75A10.76,10.76,0,0,0,50,252a11.13,11.13,0,0,0,20,0A10.76,10.76,0,0,0,60,245.75Zm0,10.63A4.38,4.38,0,1,1,64.37,252,4.38,4.38,0,0,1,60,256.38Z" transform="translate(4.16 -1.9)"/><circle class="cls-3" cx="64.16" cy="250.1" r="2.5"/><path class="cls-3" d="M437,211.27V196.73a1,1,0,0,1,1.5-.87l12.59,7.27a1,1,0,0,1,0,1.73l-12.59,7.27A1,1,0,0,1,437,211.27Z" transform="translate(4.16 -1.9)"/><polygon class="cls-3" points="392.16 212.1 406.16 212.1 406.16 210.1 394.16 210.1 394.16 194.1 392.16 194.1 392.16 212.1"/><path class="cls-3" d="M398.4,194H391v17h13V199.6Zm0.6,3.4,1.6,1.6H399v-1.6ZM393,209V196h4v5h5v8h-9Z" transform="translate(4.16 -1.9)"/><polygon class="cls-3" points="359.16 203.1 359.16 209.1 345.16 209.1 345.16 195.1 351.16 195.1 351.16 193.1 343.16 193.1 343.16 211.1 361.16 211.1 361.16 203.1 359.16 203.1"/><path class="cls-3" d="M346.85,198.85a0.5,0.5,0,0,0-.85.35V206h6.79a0.5,0.5,0,0,0,.35-0.85l-1.73-1.73,5.19-5.19-2.83-2.83-5.19,5.19Z" transform="translate(4.16 -1.9)"/><path class="cls-3" d="M307,201.75l-0.44,0v-3.31a1,1,0,0,0-1-1h-3.32a4,4,0,1,0-8,0H291a1,1,0,0,0-1,1v3.4a4,4,0,1,1,0,7.8v3.4a1,1,0,0,0,1,1h14.6a1,1,0,0,0,1-1v-3.31l0.44,0A4,4,0,1,0,307,201.75Z" transform="translate(4.16 -1.9)"/><path class="cls-3" d="M244,193v22h16V193H244Zm14,20H246V195h12v18Z" transform="translate(4.16 -1.9)"/><rect class="cls-3" x="252.16" y="195.1" width="8" height="2"/><rect class="cls-3" x="252.16" y="198.1" width="7" height="2"/><rect class="cls-3" x="252.16" y="201.1" width="8" height="2"/><rect class="cls-3" x="252.16" y="204.1" width="7" height="2"/><rect class="cls-3" x="252.16" y="207.1" width="2" height="2"/><path class="cls-3" d="M215,204c0-3-1.47-5.4-3.52-6H196.23c2.05,0.6,3.52,3,3.52,6s-1.47,5.4-3.52,6h15.25C213.53,209.4,215,207,215,204Z" transform="translate(4.16 -1.9)"/><ellipse class="cls-3" cx="199.36" cy="202.1" rx="2.2" ry="3.45"/><path class="cls-3" d="M161.6,208.8a2.3,2.3,0,1,0,2.3,2.3A2.4,2.4,0,0,0,161.6,208.8Z" transform="translate(4.16 -1.9)"/><path class="cls-3" d="M150.9,208.8a2.3,2.3,0,1,0,2.3,2.3A2.26,2.26,0,0,0,150.9,208.8Z" transform="translate(4.16 -1.9)"/><path class="cls-3" d="M146.5,194H149a2,2,0,0,1,2,2h15l-3.52,9.68A2,2,0,0,1,160.6,207h-8.93a2,2,0,0,1-2-1.64L148,196h-2v-1.5A0.5,0.5,0,0,1,146.5,194Z" transform="translate(4.16 -1.9)"/><polygon class="cls-3" points="116.4 202.1 121.35 197.15 117.11 192.91 112.16 197.86 107.21 192.91 102.97 197.15 107.92 202.1 102.97 207.05 107.21 211.29 112.16 206.34 117.11 211.29 121.35 207.05 116.4 202.1"/><circle class="cls-3" cx="64.16" cy="202.1" r="4"/><rect class="cls-3" x="7.16" y="200.1" width="18" height="4"/><polygon class="cls-3" points="450.16 163.1 450.16 156.1 457.16 156.1 457.16 152.1 450.16 152.1 450.16 145.1 446.16 145.1 446.16 152.1 439.16 152.1 439.16 156.1 446.16 156.1 446.16 163.1 450.16 163.1"/><path class="cls-3" d="M406.79,162.72l-9.48-16.42a1.52,1.52,0,0,0-2.63,0l-9.48,16.42a1.52,1.52,0,0,0,1.31,2.28h19A1.52,1.52,0,0,0,406.79,162.72ZM395,151h2v7h-2v-7Zm1,10.64a1.5,1.5,0,1,1,1.5-1.5A1.54,1.54,0,0,1,396,161.64Z" transform="translate(4.16 -1.9)"/><path class="cls-3" d="M338,151v10a2,2,0,0,0,2,2h16a2,2,0,0,0,2-2V151a2,2,0,0,0-2-2H340A2,2,0,0,0,338,151Zm7,9.62v-9.24l8,4.62Z" transform="translate(4.16 -1.9)"/><path class="cls-3" d="M310,165v-2.6a10.58,10.58,0,0,0-7-2.4,11.3,11.3,0,0,0-7,2.3V165h14Z" transform="translate(4.16 -1.9)"/><circle class="cls-3" cx="307.16" cy="153.1" r="4"/><path class="cls-3" d="M295.3,161.5a13.41,13.41,0,0,1,5-2.3,5.1,5.1,0,0,1-1.9-2.2,6.6,6.6,0,0,0-1.4-.1,11.3,11.3,0,0,0-7,2.3V162h4.7l0.3-.25Z" transform="translate(4.16 -1.9)"/><path class="cls-3" d="M298,155a5,5,0,0,1,2.73-4.43,4,4,0,1,0-2.64,5.26A5,5,0,0,1,298,155Z" transform="translate(4.16 -1.9)"/><circle class="cls-3" cx="256.16" cy="149.1" r="5"/><path class="cls-3" d="M261,165v-3.9a14.8,14.8,0,0,0-18-.1v4h18Z" transform="translate(4.16 -1.9)"/><path class="cls-3" d="M12,241.9a10,10,0,1,0,10,10A10,10,0,0,0,12,241.9Zm-1.77,14.8-4-3.93,1.93-1.93L10.23,253l5.67-5.67,1.87,1.87Z" transform="translate(4.16 -1.9)"/><path class="cls-3" d="M195.35,157.15l5.29,5.2a1,1,0,0,0,1.41,0l10.6-10.6-2.8-2.8-8.5,8.5-3.1-3.2Z" transform="translate(4.16 -1.9)"/><path class="cls-3" d="M163.5,156a7.53,7.53,0,0,0-.08-1l2-2.19a10,10,0,0,0-2-3.39l-2.91.67a7.48,7.48,0,0,0-1.76-1L158,146.19a10,10,0,0,0-3.91,0l-0.88,2.86a7.48,7.48,0,0,0-1.76,1l-2.91-.67a10,10,0,0,0-2,3.39l2,2.19a6.77,6.77,0,0,0,0,2l-2,2.19a10,10,0,0,0,2,3.39l2.91-.67a7.48,7.48,0,0,0,1.76,1l0.88,2.86a10,10,0,0,0,3.91,0l0.88-2.86a7.48,7.48,0,0,0,1.76-1l2.91,0.67a10,10,0,0,0,2-3.39l-2-2.19A7.53,7.53,0,0,0,163.5,156Zm-7.5,3a3,3,0,1,1,3-3A3,3,0,0,1,156,159Z" transform="translate(4.16 -1.9)"/><path class="cls-3" d="M117.64,163l-6-6a7.33,7.33,0,1,0-2.82,2.74l6.08,6.08a0.5,0.5,0,0,0,.71,0l2.07-2.07A0.5,0.5,0,0,0,117.64,163Zm-16.13-6a5.34,5.34,0,1,1,3.77,1.56A5.34,5.34,0,0,1,101.51,157.06Z" transform="translate(4.16 -1.9)"/><rect class="cls-3" x="63.16" y="148.1" width="3" height="4"/><path class="cls-3" d="M64.5,147h-12a1.5,1.5,0,0,0-1.5,1.5v15a1.5,1.5,0,0,0,1.5,1.5h15a1.5,1.5,0,0,0,1.5-1.5v-12ZM64,155H54v-6H64v6Z" transform="translate(4.16 -1.9)"/><path class="cls-3" d="M6.8,158a0.5,0.5,0,0,1,.35.85L5.61,160.4A7.77,7.77,0,0,0,19.79,156H22a10,10,0,0,1-18,6l-1.15,1.15A0.5,0.5,0,0,1,2,162.79V158H6.8Z" transform="translate(4.16 -1.9)"/><path class="cls-3" d="M22,154v-4.79a0.5,0.5,0,0,0-.85-0.35L20,150a10,10,0,0,0-18,6H4.23a7.77,7.77,0,0,1,14.17-4.4l-1.55,1.55a0.5,0.5,0,0,0,.35.85H22Z" transform="translate(4.16 -1.9)"/><path class="cls-3" d="M444,98a10,10,0,1,0,10,10A10,10,0,0,0,444,98Zm6,11h-5v5h-2v-5h-5v-2h5v-5h2v5h5v2Z" transform="translate(4.16 -1.9)"/><path class="cls-3" d="M396,98a10,10,0,1,0,10,10A10,10,0,0,0,396,98Zm-3,14.6v-9.2l8,4.6Z" transform="translate(4.16 -1.9)"/><path class="cls-3" d="M343.15,112c3.3,4,6.9,6.6,10.8,5.8l3-2.4c0-1.5-3.4-4.7-4.5-4.4l-1.9,1.5c-1.8-.2-3-1.4-4.3-3s-2.3-3-2.1-4.8l1.9-1.5c0.6-1-2-4.9-3.4-5.2l-3,2.4c-1.6,3.5.2,7.5,3.5,11.6" transform="translate(4.16 -1.9)"/><path class="cls-3" d="M289.1,109.2l7.29,7.2a1,1,0,0,0,1.41,0l13-13.09L306.5,99h0l-9.4,9.5-3.6-3.7Z" transform="translate(4.16 -1.9)"/><path class="cls-3" d="M253.1,97H241.6a0.65,0.65,0,0,0-.6.6v18.8a0.65,0.65,0,0,0,.6.6H249v-8.4h-6.7V106H249v-1.3h-6.7v-2.6H250a8.89,8.89,0,0,1,3.8-1.4V97.6A0.67,0.67,0,0,0,253.1,97Zm-0.5,3.8H242.3V98.2h10.3v2.6Z" transform="translate(4.16 -1.9)"/><path class="cls-3" d="M256.9,119a12.57,12.57,0,0,1-6.1-1.3h0v-3.4a17.46,17.46,0,0,0,12.2,0v3.4h0A12.57,12.57,0,0,1,256.9,119Z" transform="translate(4.16 -1.9)"/><path class="cls-3" d="M263,106.6h0c-1.1.9-3.4,1.3-6.1,1.3a12.57,12.57,0,0,1-6.1-1.3h0v-3.3h0c1.1-.9,3.4-1.3,6.1-1.3a12.57,12.57,0,0,1,6.1,1.3h0v3.3Z" transform="translate(4.16 -1.9)"/><path class="cls-3" d="M256.9,113.5a12.57,12.57,0,0,1-6.1-1.3h0v-3.4a17.46,17.46,0,0,0,12.2,0v3.4h0A12.57,12.57,0,0,1,256.9,113.5Z" transform="translate(4.16 -1.9)"/><path class="cls-3" d="M204,98a10,10,0,1,0,10,10A10,10,0,0,0,204,98Zm1,8v7h-2v-7h2Zm-1-1a1.5,1.5,0,1,1,1.5-1.5A1.54,1.54,0,0,1,204,105Z" transform="translate(4.16 -1.9)"/><polygon class="cls-3" points="159.05 100.54 159.05 107.21 163.83 109.99 164.6 108.66 160.72 106.32 160.72 100.54 159.05 100.54"/><path class="cls-3" d="M150.79,106a0.5,0.5,0,0,0,.35-0.85l-1.54-1.54a7.76,7.76,0,1,1-1.38,4.4H146a10,10,0,1,0,2-6l-1.15-1.15a0.5,0.5,0,0,0-.85.35V106h4.79Z" transform="translate(4.16 -1.9)"/><path class="cls-3" d="M108,98a10,10,0,1,0,10,10A10,10,0,0,0,108,98Zm0,17a1.5,1.5,0,1,1,1.5-1.5A1.61,1.61,0,0,1,108,115Zm3.1-7.8-0.9.9a3.37,3.37,0,0,0-1.2,2.8h-2v-0.5a3.63,3.63,0,0,1,1.2-2.8l1.2-1.3a2,2,0,0,0,.6-1.4,2,2,0,0,0-4,0h-2a4,4,0,0,1,8,0A3.64,3.64,0,0,1,111.1,107.2Z" transform="translate(4.16 -1.9)"/><path class="cls-3" d="M60,98a10,10,0,1,0,10,10A10,10,0,0,0,60,98Zm-6,4a8.45,8.45,0,0,1,12,0H61.6l-2.3,2.3a2.13,2.13,0,0,1-1.6.7,1.92,1.92,0,0,1-1.2-.4l-2.6,2.6a2.69,2.69,0,0,1-1.8.8,0.9,0.9,0,0,1-.5-0.1A8.56,8.56,0,0,1,54,102Zm6,14.4a8.4,8.4,0,0,1-6-2.5,10.93,10.93,0,0,1-1.3-1.7,2.65,2.65,0,0,1,.5-0.6,3.62,3.62,0,0,1,5,0l4.4,4.4A7.44,7.44,0,0,1,60,116.4Zm7.6-4.7H63.8a1.9,1.9,0,1,1,0-3.8h0.6a1.82,1.82,0,0,1,1.8-1.5h2.1A8.81,8.81,0,0,1,67.6,111.7Z" transform="translate(4.16 -1.9)"/><path class="cls-3" d="M22,102H12.5l-2-2H4a1.08,1.08,0,0,0-1,1v7.1H1.8a0.88,0.88,0,0,0-.7,1.1l1.7,5.7a2.18,2.18,0,0,0,.5.8,1.08,1.08,0,0,0,.7.3H22a1.08,1.08,0,0,0,1-1V103A1.08,1.08,0,0,0,22,102ZM5,105a1,1,0,0,1,1-1H20a1,1,0,0,1,1,1v8.3l-1.1-4.1a1.87,1.87,0,0,0-1.5-1.1H5V105Z" transform="translate(4.16 -1.9)"/><path class="cls-3" d="M453,68H435a1.08,1.08,0,0,1-1-1V53a1.08,1.08,0,0,1,1-1h6.5l2,2H453a1.08,1.08,0,0,1,1,1V67A1.08,1.08,0,0,1,453,68Z" transform="translate(4.16 -1.9)"/><path class="cls-3" d="M404.51,50.77L398,61v9l-4-3V61l-6.51-10.23a0.5,0.5,0,0,1,.42-0.77h16.18A0.5,0.5,0,0,1,404.51,50.77Z" transform="translate(4.16 -1.9)"/><polygon class="cls-3" points="359.16 65.1 345.16 65.1 345.16 51.1 351.16 51.1 351.16 49.1 343.16 49.1 343.16 67.1 361.16 67.1 361.16 59.1 359.16 59.1 359.16 65.1"/><path class="cls-3" d="M350.21,51a0.5,0.5,0,0,0-.35.85l1.73,1.73-5.19,5.19,2.83,2.83,5.19-5.19,1.73,1.73a0.5,0.5,0,0,0,.85-0.35V51h-6.79Z" transform="translate(4.16 -1.9)"/><path class="cls-3" d="M300.29,61.5l9.5-6.87a0.5,0.5,0,0,0,.21-0.41V54a2,2,0,0,0-2-2H292a2,2,0,0,0-2,2v0.23a0.5,0.5,0,0,0,.21.41l9.5,6.87A0.5,0.5,0,0,0,300.29,61.5Z" transform="translate(4.16 -1.9)"/><path class="cls-3" d="M300.59,63.76a1,1,0,0,1-1.17,0L290,57v9a2,2,0,0,0,2,2h16a2,2,0,0,0,2-2V57Z" transform="translate(4.16 -1.9)"/><path class="cls-3" d="M242.25,69.19a0.5,0.5,0,0,0,.57.57L248.65,67,245,63.35Z" transform="translate(4.16 -1.9)"/><path class="cls-3" d="M261.72,53.19l-2.9-2.9a0.5,0.5,0,0,0-.71,0L246.62,61.77l3.61,3.61L261.72,53.9A0.5,0.5,0,0,0,261.72,53.19Z" transform="translate(4.16 -1.9)"/><rect class="cls-3" x="202.16" y="66.1" width="12" height="2"/><path class="cls-3" d="M210.79,58H207V50h-6v8h-3.79a0.5,0.5,0,0,0-.35.85L204,66l7.15-7.15A0.5,0.5,0,0,0,210.79,58Z" transform="translate(4.16 -1.9)"/><path class="cls-3" d="M157.4,50H149V70h14V55.6Zm0.6,3.4,1.6,1.6H158V53.4ZM151,68V52h5v5h5V68H151Z" transform="translate(4.16 -1.9)"/><path class="cls-3" d="M110.5,50v1.17a11,11,0,0,1,4.5,1.55V55H101V52.72a10.89,10.89,0,0,1,4.5-1.55V50h5Z" transform="translate(4.16 -1.9)"/><path class="cls-3" d="M102,56V69.15a1,1,0,0,0,1,.85h10a1,1,0,0,0,1-.85V56H102Zm3,10h-1V59h1v7Zm3.5,0h-1V59h1v7Zm3.5,0h-1V59h1v7Z" transform="translate(4.16 -1.9)"/><path class="cls-3" d="M60,70a15.07,15.07,0,0,1-7.4-1.6h0V64.2A17.42,17.42,0,0,0,60,65.6a17.43,17.43,0,0,0,7.4-1.4v4.2h0A15,15,0,0,1,60,70Zm0-6.2a15.07,15.07,0,0,1-7.4-1.6h0V58A17.42,17.42,0,0,0,60,59.4,17.43,17.43,0,0,0,67.4,58v4.2h0A15,15,0,0,1,60,63.8Zm7.4-8h0c-1.4,1-4.2,1.7-7.4,1.7a15.07,15.07,0,0,1-7.4-1.6h0V51.7h0c1.4-1,4.2-1.6,7.4-1.6a15.07,15.07,0,0,1,7.4,1.6h0v4.1Z" transform="translate(4.16 -1.9)"/><path class="cls-3" d="M20,51H4a2,2,0,0,0-2,2v9a2,2,0,0,0,2,2H7v5l6-5h7a2,2,0,0,0,2-2V53A2,2,0,0,0,20,51Z" transform="translate(4.16 -1.9)"/><path class="cls-3" d="M444,1.9a10,10,0,1,0,10,10A10,10,0,0,0,444,1.9Zm3.5,14.9L444,13.3l-3.5,3.5-1.4-1.4,3.5-3.5-3.5-3.5L440.5,7l3.5,3.5L447.5,7l1.4,1.4-3.5,3.5,3.5,3.5Z" transform="translate(4.16 -1.9)"/><polygon class="cls-3" points="407.94 15.05 402.99 10.1 407.94 5.15 405.11 2.32 400.16 7.27 395.21 2.32 392.38 5.15 397.33 10.1 392.38 15.05 395.21 17.88 400.16 12.93 405.11 17.88 407.94 15.05"/><polygon class="cls-3" points="354.46 2.7 357.26 5.5 352.66 10.1 357.26 14.7 354.46 17.5 347.06 10.1 354.46 2.7"/><polygon class="cls-3" points="301.86 17.5 299.06 14.7 303.66 10.1 299.06 5.5 301.86 2.7 309.26 10.1 301.86 17.5"/><polygon class="cls-3" points="263.56 12.4 260.76 15.2 256.16 10.6 251.56 15.2 248.76 12.4 256.16 5 263.56 12.4"/><polygon class="cls-3" points="200.76 7.8 203.56 5 208.16 9.6 212.76 5 215.56 7.8 208.16 15.2 200.76 7.8"/><path class="cls-3" d="M162,4V2.5a2.5,2.5,0,0,0-3,0V4h-6V2.5a2.5,2.5,0,0,0-3,0V4h-3V20a2,2,0,0,0,2,2h14a2,2,0,0,0,2-2V4h-3Zm1,16H149V9h14V20Z" transform="translate(4.16 -1.9)"/><rect class="cls-3" x="161.16" y="9.1" width="4" height="4"/><path class="cls-3" d="M118,9H106V5.21a0.5,0.5,0,0,0-.85-0.35L98,12l7.15,7.15a0.5,0.5,0,0,0,.85-0.35V15h12V9Z" transform="translate(4.16 -1.9)"/><path class="cls-3" d="M70,12L62.85,4.85a0.5,0.5,0,0,0-.85.35V9H50v6H62v3.79a0.5,0.5,0,0,0,.85.35Z" transform="translate(4.16 -1.9)"/><path class="cls-3" d="M18,13.26V9a6,6,0,0,0-4.15-5.71,2,2,0,0,0-3.7,0A6,6,0,0,0,6,9v4.31L3.3,15.87a1,1,0,0,0-.3.72V18H21V16.59a1,1,0,0,0-.3-0.72Z" transform="translate(4.16 -1.9)"/><path class="cls-3" d="M12,22a3,3,0,0,0,3-3H9A3,3,0,0,0,12,22Z" transform="translate(4.16 -1.9)"/></svg>