<?xml version="1.0" encoding="utf-8"?>
<!-- Generator: Adobe Illustrator 18.0.0, SVG Export Plug-In . SVG Version: 6.00 Build 0)  -->
<!DOCTYPE svg PUBLIC "-//W3C//DTD SVG 1.1//EN" "http://www.w3.org/Graphics/SVG/1.1/DTD/svg11.dtd">
<svg version="1.1" id="Layer_1" xmlns="http://www.w3.org/2000/svg" xmlns:xlink="http://www.w3.org/1999/xlink" x="0px" y="0px"
	 width="750px" height="257.8px" viewBox="0 0 750 257.8" enable-background="new 0 0 750 257.8" xml:space="preserve">
<rect y="0" fill="#FFFFFF" width="750" height="257.8"/>
<g>
	<g>
		<rect x="403.9" y="39.9" fill="#D8E7F9" width="122.8" height="122.8"/>
		<g>
			<g>
				<path fill="#FFFFFF" d="M434.6,70.6H496V132h-61.4V70.6z"/>
			</g>
			<g>
				<path fill="#373737" d="M450,103.1l-7.7,7.4v4.6c0,2.8,10.2,5.1,23,5.1s23-2.3,23-5.1v-4.6l-7.7-7.4V84.7
					c-2-3.1-5.1-5.4-8.7-6.4v-0.8c-1.3-2-3.8-3.1-6.7-3.1s-5.4,1.5-6.7,3.1v0.8c-3.8,1-6.9,3.6-8.7,6.4v18.4H450z"/>
				<path fill="#373737" d="M465.3,123.1c-1.8,0-3.6,0-5.1-0.3c0,0,0,0,0,0.3c0,2.8,2.3,5.1,5.1,5.1s5.1-2.3,5.1-5.1c0,0,0,0,0-0.3
					C468.9,122.8,467.1,123.1,465.3,123.1z"/>
			</g>
		</g>
		<rect x="571.9" y="39.9" fill="#3C85DF" width="122.8" height="122.8"/>
		<g>
			<g>
				<path fill="#FFFFFF" d="M617.9,103.1l-7.7,7.4v4.6c0,2.8,10.2,5.1,23,5.1s23-2.3,23-5.1v-4.6l-7.7-7.4V84.7
					c-2-3.1-5.1-5.4-8.7-6.4v-0.8c-1.3-2-3.8-3.1-6.7-3.1s-5.4,1.5-6.7,3.1v0.8c-3.8,1-6.9,3.6-8.7,6.4v18.4H617.9z"/>
				<path fill="#FFFFFF" d="M633.3,123.1c-1.8,0-3.6,0-5.1-0.3c0,0,0,0,0,0.3c0,2.8,2.3,5.1,5.1,5.1s5.1-2.3,5.1-5.1c0,0,0,0,0-0.3
					C636.9,122.8,635.1,123.1,633.3,123.1z"/>
			</g>
		</g>
	</g>
	<g>
		<rect x="55.3" y="55.3" fill="#D8E7F9" width="92.1" height="92.1"/>
		<g>
			<g>
				<path fill="#FFFFFF" d="M70.7,70.6h61.4V132H70.7V70.6z"/>
			</g>
			<g>
				<path fill="#373737" d="M86,103.1l-7.7,7.4v4.6c0,2.8,10.2,5.1,23,5.1s23-2.3,23-5.1v-4.6l-7.7-7.4V84.7c-2-3.1-5.1-5.4-8.7-6.4
					v-0.8c-1.3-2-3.8-3.1-6.7-3.1c-2.8,0-5.4,1.5-6.7,3.1v0.8c-3.8,1-6.9,3.6-8.7,6.4v18.4H86z"/>
				<path fill="#373737" d="M101.4,123.1c-1.8,0-3.6,0-5.1-0.3c0,0,0,0,0,0.3c0,2.8,2.3,5.1,5.1,5.1c2.8,0,5.1-2.3,5.1-5.1
					c0,0,0,0,0-0.3C104.9,122.8,103.1,123.1,101.4,123.1z"/>
			</g>
		</g>
		<g>
			<rect x="181.9" y="55.3" fill="#3C85DF" width="92.1" height="92.1"/>
			<g>
				<g>
					<path fill="#FFFFFF" d="M212.6,103.1l-7.7,7.4v4.6c0,2.8,10.2,5.1,23,5.1s23-2.3,23-5.1v-4.6l-7.7-7.4V84.7
						c-2-3.1-5.1-5.4-8.7-6.4v-0.8c-1.3-2-3.8-3.1-6.7-3.1s-5.4,1.5-6.7,3.1v0.8c-3.8,1-6.9,3.6-8.7,6.4v18.4H212.6z"/>
					<path fill="#FFFFFF" d="M228,123.1c-1.8,0-3.6,0-5.1-0.3c0,0,0,0,0,0.3c0,2.8,2.3,5.1,5.1,5.1s5.1-2.3,5.1-5.1c0,0,0,0,0-0.3
						C231.6,122.8,229.8,123.1,228,123.1z"/>
				</g>
			</g>
		</g>
	</g>
	<g enable-background="new    ">
		<path fill="#767676" d="M77.4,202.7h-2.3v-7.1l-2.5,0.6v-1.8l4.6-1.5h0.2C77.4,192.9,77.4,202.7,77.4,202.7z M77.1,209.5l-1.6-0.9
			l8.9-14.2l1.6,0.9L77.1,209.5z M87.9,207.1h1.2v1.9h-1.2v2h-2.3v-2h-4.5l-0.1-1.5l4.6-6.3h2.3V207.1z M83.3,207.1h2.3v-3l-0.2,0.3
			L83.3,207.1z"/>
		<path fill="#767676" d="M109.9,206.8l2.1-9.3h3l-3.7,13.5h-2.5l-2.9-9.3L103,211h-2.5l-3.7-13.5h3l2.2,9.2l2.8-9.2h2.3
			L109.9,206.8z"/>
		<path fill="#767676" d="M117,194c0-0.5,0.1-0.9,0.4-1.2c0.3-0.3,0.7-0.5,1.3-0.5c0.5,0,1,0.2,1.3,0.5c0.3,0.3,0.4,0.7,0.4,1.2
			s-0.1,0.8-0.4,1.1c-0.3,0.3-0.7,0.5-1.3,0.5c-0.5,0-1-0.2-1.3-0.5C117.1,194.8,117,194.4,117,194z M120.2,211h-3v-13.5h3V211z"/>
		<path fill="#767676" d="M123,204.1c0-1,0.1-2,0.4-2.8c0.3-0.8,0.6-1.6,1.1-2.2c0.5-0.6,1-1.1,1.7-1.4s1.4-0.5,2.2-0.5
			c0.7,0,1.4,0.1,2,0.4s1.1,0.6,1.5,1.1v-6.9h3V211H132l-0.1-1.4c-0.4,0.5-0.9,0.9-1.5,1.2c-0.6,0.3-1.3,0.4-2.1,0.4
			s-1.6-0.2-2.2-0.5c-0.6-0.3-1.2-0.8-1.7-1.4s-0.8-1.3-1.1-2.2c-0.2-0.8-0.4-1.7-0.4-2.7v-0.3H123z M126,204.4
			c0,0.6,0.1,1.2,0.2,1.7s0.3,1,0.5,1.4s0.6,0.7,0.9,0.9c0.4,0.2,0.8,0.3,1.4,0.3c0.7,0,1.2-0.2,1.7-0.5c0.4-0.3,0.8-0.7,1-1.2v-5.8
			c-0.3-0.5-0.6-0.9-1-1.2c-0.4-0.3-1-0.4-1.6-0.4c-0.5,0-1,0.1-1.4,0.3c-0.4,0.2-0.7,0.5-0.9,1c-0.2,0.4-0.4,0.9-0.5,1.4
			s-0.2,1.1-0.2,1.7L126,204.4L126,204.4z"/>
		<path fill="#767676" d="M141.8,194.2v3.3h2.4v2.2h-2.4v7.5c0,0.3,0,0.6,0.1,0.8c0.1,0.2,0.2,0.3,0.3,0.4s0.3,0.2,0.4,0.2
			c0.2,0,0.4,0.1,0.6,0.1c0.2,0,0.4,0,0.6,0s0.3-0.1,0.5-0.1v2.3c-0.2,0.1-0.5,0.1-0.8,0.2c-0.3,0.1-0.7,0.1-1.2,0.1s-1-0.1-1.4-0.2
			c-0.4-0.1-0.8-0.3-1.1-0.6c-0.3-0.3-0.6-0.7-0.7-1.2c-0.2-0.5-0.3-1.1-0.3-1.8v-7.7h-2.2v-2.2h2.2v-3.3H141.8z"/>
		<path fill="#767676" d="M149.5,199c0.5-0.5,1-1,1.6-1.3c0.6-0.3,1.3-0.5,2.1-0.5c0.7,0,1.3,0.1,1.8,0.3c0.5,0.2,1,0.5,1.4,0.9
			s0.7,0.9,0.9,1.6c0.2,0.6,0.3,1.4,0.3,2.3v8.7h-3v-8.7c0-0.9-0.2-1.6-0.6-2s-1-0.6-1.8-0.6c-0.6,0-1.2,0.1-1.6,0.4
			c-0.5,0.3-0.8,0.7-1.1,1.2v9.7h-3v-19.2h3L149.5,199L149.5,199z"/>
		<path fill="#767676" d="M178.9,204.4c0,1-0.1,1.9-0.3,2.7c-0.2,0.8-0.6,1.6-1,2.2s-1,1.1-1.6,1.4s-1.4,0.5-2.2,0.5s-1.5-0.1-2-0.4
			s-1.1-0.6-1.5-1.1v6.4h-3v-18.7h2.8l0.1,1.4c0.4-0.5,0.9-0.9,1.5-1.2c0.6-0.3,1.3-0.4,2.1-0.4c0.9,0,1.6,0.2,2.3,0.5
			c0.7,0.3,1.2,0.8,1.7,1.4c0.4,0.6,0.8,1.3,1,2.2c0.2,0.8,0.3,1.8,0.3,2.8v0.3H178.9z M175.9,204.1c0-0.6-0.1-1.2-0.2-1.7
			c-0.1-0.5-0.3-1-0.6-1.4c-0.2-0.4-0.6-0.7-1-0.9c-0.4-0.2-0.9-0.3-1.4-0.3c-0.7,0-1.2,0.1-1.6,0.4c-0.4,0.3-0.8,0.6-1,1.1v6
			c0.2,0.5,0.6,0.9,1,1.1c0.4,0.3,1,0.4,1.7,0.4c0.5,0,1-0.1,1.4-0.4s0.7-0.6,1-1c0.2-0.4,0.4-0.9,0.5-1.4s0.2-1.1,0.2-1.7
			L175.9,204.1L175.9,204.1z"/>
		<path fill="#767676" d="M189.5,211c-0.1-0.2-0.2-0.3-0.2-0.6c-0.1-0.2-0.1-0.4-0.1-0.7c-0.2,0.2-0.4,0.4-0.7,0.6
			c-0.2,0.2-0.5,0.3-0.8,0.5c-0.3,0.1-0.6,0.2-1,0.3c-0.3,0.1-0.7,0.1-1.1,0.1c-0.7,0-1.3-0.1-1.9-0.3c-0.6-0.2-1.1-0.5-1.5-0.8
			c-0.4-0.3-0.7-0.8-0.9-1.3s-0.3-1-0.3-1.6c0-0.7,0.1-1.4,0.4-1.9c0.3-0.6,0.7-1,1.2-1.4s1.2-0.7,1.9-0.9c0.8-0.2,1.6-0.3,2.6-0.3
			h1.9v-0.9c0-0.7-0.2-1.3-0.6-1.7c-0.4-0.4-1-0.6-1.8-0.6c-0.4,0-0.7,0-1,0.1s-0.5,0.2-0.7,0.4c-0.2,0.2-0.4,0.4-0.5,0.6
			s-0.2,0.5-0.2,0.7h-3c0-0.5,0.1-1,0.4-1.5c0.3-0.5,0.6-0.9,1.1-1.3c0.5-0.4,1.1-0.7,1.8-0.9c0.7-0.2,1.5-0.3,2.3-0.3
			s1.5,0.1,2.1,0.3c0.6,0.2,1.2,0.5,1.7,0.9s0.8,0.9,1.1,1.4c0.3,0.6,0.4,1.3,0.4,2v6c0,1.2,0.2,2.2,0.5,2.9v0.2H189.5z
			 M186.2,208.8c0.3,0,0.7,0,1-0.1s0.6-0.2,0.8-0.4c0.2-0.2,0.5-0.3,0.6-0.5c0.1-0.2,0.3-0.4,0.4-0.6v-2.5h-1.6
			c-1.1,0-2,0.2-2.5,0.6c-0.5,0.4-0.8,0.9-0.8,1.7c0,0.3,0,0.5,0.1,0.8c0.1,0.2,0.2,0.4,0.4,0.6s0.4,0.3,0.7,0.4
			C185.5,208.8,185.8,208.8,186.2,208.8z"/>
		<path fill="#767676" d="M194.7,204.1c0-1,0.1-2,0.4-2.8c0.3-0.8,0.6-1.6,1.1-2.2c0.5-0.6,1-1.1,1.7-1.4s1.4-0.5,2.2-0.5
			c0.7,0,1.4,0.1,2,0.4s1.1,0.6,1.5,1.1v-6.9h3V211h-2.7l-0.1-1.4c-0.4,0.5-0.9,0.9-1.5,1.2c-0.6,0.3-1.3,0.4-2.1,0.4
			s-1.6-0.2-2.2-0.5c-0.6-0.3-1.2-0.8-1.7-1.4s-0.8-1.3-1.1-2.2c-0.2-0.8-0.4-1.7-0.4-2.7L194.7,204.1L194.7,204.1z M197.8,204.4
			c0,0.6,0.1,1.2,0.2,1.7c0.1,0.5,0.3,1,0.5,1.4s0.6,0.7,0.9,0.9c0.4,0.2,0.8,0.3,1.4,0.3c0.7,0,1.2-0.2,1.7-0.5
			c0.4-0.3,0.8-0.7,1-1.2v-5.8c-0.3-0.5-0.6-0.9-1-1.2c-0.4-0.3-1-0.4-1.6-0.4c-0.5,0-1,0.1-1.4,0.3c-0.4,0.2-0.7,0.5-0.9,1
			c-0.2,0.4-0.4,0.9-0.5,1.4s-0.2,1.1-0.2,1.7L197.8,204.4L197.8,204.4z"/>
		<path fill="#767676" d="M209.2,204.1c0-1,0.1-2,0.4-2.8c0.3-0.8,0.6-1.6,1.1-2.2c0.5-0.6,1-1.1,1.7-1.4s1.4-0.5,2.2-0.5
			c0.7,0,1.4,0.1,2,0.4s1.1,0.6,1.5,1.1v-6.9h3V211h-2.7l-0.1-1.4c-0.4,0.5-0.9,0.9-1.5,1.2c-0.6,0.3-1.3,0.4-2.1,0.4
			s-1.6-0.2-2.2-0.5c-0.6-0.3-1.2-0.8-1.7-1.4s-0.8-1.3-1.1-2.2c-0.2-0.8-0.4-1.7-0.4-2.7L209.2,204.1L209.2,204.1z M212.2,204.4
			c0,0.6,0.1,1.2,0.2,1.7c0.1,0.5,0.3,1,0.5,1.4s0.6,0.7,0.9,0.9c0.4,0.2,0.8,0.3,1.4,0.3c0.7,0,1.2-0.2,1.7-0.5
			c0.4-0.3,0.8-0.7,1-1.2v-5.8c-0.3-0.5-0.6-0.9-1-1.2c-0.4-0.3-1-0.4-1.6-0.4c-0.5,0-1,0.1-1.4,0.3c-0.4,0.2-0.7,0.5-0.9,1
			c-0.2,0.4-0.4,0.9-0.5,1.4s-0.2,1.1-0.2,1.7L212.2,204.4L212.2,204.4z"/>
		<path fill="#767676" d="M224.2,194c0-0.5,0.1-0.9,0.4-1.2c0.3-0.3,0.7-0.5,1.3-0.5c0.5,0,1,0.2,1.3,0.5c0.3,0.3,0.4,0.7,0.4,1.2
			s-0.1,0.8-0.4,1.1c-0.3,0.3-0.7,0.5-1.3,0.5c-0.5,0-1-0.2-1.3-0.5C224.3,194.8,224.2,194.4,224.2,194z M227.4,211h-3v-13.5h3V211z
			"/>
		<path fill="#767676" d="M233.5,197.5l0.1,1.6c0.5-0.6,1-1,1.7-1.3c0.7-0.3,1.4-0.5,2.2-0.5c0.6,0,1.2,0.1,1.8,0.3
			c0.5,0.2,1,0.5,1.4,0.9s0.7,0.9,0.9,1.6c0.2,0.6,0.3,1.4,0.3,2.3v8.7h-3v-8.8c0-0.5-0.1-0.9-0.2-1.2c-0.1-0.3-0.3-0.6-0.5-0.8
			c-0.2-0.2-0.4-0.3-0.7-0.4s-0.6-0.1-1-0.1c-0.6,0-1.2,0.2-1.6,0.5c-0.5,0.3-0.8,0.7-1.1,1.2v9.6h-3v-13.5h2.7V197.5z"/>
		<path fill="#767676" d="M244.4,204.1c0-1,0.1-2,0.4-2.8c0.2-0.8,0.6-1.6,1.1-2.2c0.5-0.6,1-1.1,1.7-1.4c0.7-0.3,1.4-0.5,2.2-0.5
			s1.5,0.1,2.1,0.4s1.1,0.7,1.5,1.2l0.1-1.4h2.7v13.1c0,0.9-0.1,1.7-0.4,2.4c-0.3,0.7-0.7,1.3-1.3,1.8c-0.5,0.5-1.2,0.9-1.9,1.1
			c-0.8,0.3-1.6,0.4-2.5,0.4c-0.4,0-0.8,0-1.2-0.1s-0.9-0.2-1.4-0.4c-0.5-0.2-0.9-0.4-1.3-0.7c-0.4-0.3-0.8-0.6-1.1-1l1.4-1.8
			c0.5,0.6,1,1,1.6,1.3c0.6,0.3,1.2,0.4,1.8,0.4c1,0,1.8-0.3,2.4-0.8c0.6-0.5,0.9-1.3,0.9-2.4v-0.9c-0.4,0.5-0.9,0.8-1.5,1.1
			c-0.6,0.2-1.2,0.4-2,0.4s-1.6-0.2-2.2-0.5c-0.7-0.3-1.2-0.8-1.7-1.4c-0.5-0.6-0.8-1.3-1.1-2.2c-0.2-0.8-0.4-1.7-0.4-2.7
			L244.4,204.1L244.4,204.1z M247.4,204.4c0,0.6,0.1,1.2,0.2,1.7c0.1,0.5,0.3,1,0.6,1.4s0.6,0.7,1,0.9c0.4,0.2,0.9,0.3,1.4,0.3
			c0.7,0,1.2-0.1,1.7-0.4s0.8-0.7,1-1.1v-5.9c-0.3-0.5-0.6-0.8-1.1-1.1c-0.4-0.3-1-0.4-1.6-0.4c-0.5,0-1,0.1-1.4,0.3
			c-0.4,0.2-0.7,0.5-1,1c-0.3,0.4-0.4,0.9-0.6,1.4s-0.2,1.1-0.2,1.7L247.4,204.4L247.4,204.4z"/>
	</g>
	<g enable-background="new    ">
		<path fill="#767676" d="M461.3,202.7H459v-7.1l-2.5,0.6v-1.8l4.6-1.5h0.2L461.3,202.7L461.3,202.7z M460.6,209.5l-1.6-0.9
			l8.9-14.2l1.6,0.9L460.6,209.5z M474.1,211h-7.6v-1.6l3.6-3.3c0.5-0.5,0.9-0.9,1.1-1.2c0.2-0.4,0.3-0.6,0.3-0.9
			c0-0.3-0.1-0.6-0.3-0.9c-0.2-0.2-0.6-0.3-1-0.3c-0.3,0-0.5,0-0.7,0.1s-0.4,0.2-0.5,0.3s-0.2,0.3-0.3,0.5c-0.1,0.2-0.1,0.4-0.1,0.6
			h-2.3c0-0.5,0.1-0.9,0.3-1.3c0.2-0.4,0.4-0.8,0.8-1.1c0.3-0.3,0.7-0.5,1.2-0.7c0.5-0.2,1-0.3,1.6-0.3c1.2,0,2.1,0.3,2.8,0.8
			c0.7,0.5,1,1.3,1,2.2c0,0.3-0.1,0.7-0.2,1c-0.1,0.3-0.3,0.6-0.5,0.9c-0.2,0.3-0.5,0.6-0.8,0.9s-0.7,0.6-1.1,1l-1.7,1.4h4.6v1.9
			H474.1z"/>
		<path fill="#767676" d="M495,206.8l2.1-9.3h3l-3.7,13.5H494l-2.9-9.3l-2.8,9.3h-2.5l-3.7-13.5h3l2.2,9.2l2.8-9.2h2.3L495,206.8z"
			/>
		<path fill="#767676" d="M502.2,194c0-0.5,0.1-0.9,0.4-1.2c0.3-0.3,0.7-0.5,1.3-0.5c0.5,0,1,0.2,1.3,0.5c0.3,0.3,0.5,0.7,0.5,1.2
			s-0.2,0.8-0.5,1.1c-0.3,0.3-0.7,0.5-1.3,0.5c-0.5,0-1-0.2-1.3-0.5C502.3,194.8,502.2,194.4,502.2,194z M505.4,211h-3v-13.5h3V211z
			"/>
		<path fill="#767676" d="M508.2,204.1c0-1,0.1-2,0.4-2.8c0.2-0.8,0.6-1.6,1.1-2.2c0.5-0.6,1-1.1,1.7-1.4c0.7-0.3,1.4-0.5,2.2-0.5
			c0.7,0,1.4,0.1,2,0.4s1.1,0.6,1.5,1.1v-6.9h3V211h-2.7l-0.1-1.4c-0.4,0.5-0.9,0.9-1.5,1.2c-0.6,0.3-1.3,0.4-2.1,0.4
			s-1.6-0.2-2.2-0.5c-0.7-0.3-1.2-0.8-1.7-1.4s-0.8-1.3-1.1-2.2c-0.2-0.8-0.4-1.7-0.4-2.7v-0.3H508.2z M511.2,204.4
			c0,0.6,0.1,1.2,0.2,1.7s0.3,1,0.5,1.4s0.6,0.7,0.9,0.9c0.4,0.2,0.8,0.3,1.4,0.3c0.7,0,1.2-0.2,1.7-0.5c0.4-0.3,0.8-0.7,1-1.2v-5.8
			c-0.3-0.5-0.6-0.9-1-1.2c-0.4-0.3-1-0.4-1.6-0.4c-0.5,0-1,0.1-1.4,0.3c-0.4,0.2-0.7,0.5-0.9,1c-0.2,0.4-0.4,0.9-0.5,1.4
			s-0.2,1.1-0.2,1.7v0.4H511.2z"/>
		<path fill="#767676" d="M527,194.2v3.3h2.4v2.2H527v7.5c0,0.3,0,0.6,0.1,0.8c0.1,0.2,0.2,0.3,0.3,0.4s0.3,0.2,0.4,0.2
			c0.2,0,0.4,0.1,0.6,0.1c0.2,0,0.4,0,0.6,0c0.2,0,0.3-0.1,0.5-0.1v2.3c-0.2,0.1-0.5,0.1-0.8,0.2c-0.3,0.1-0.7,0.1-1.2,0.1
			s-1-0.1-1.4-0.2c-0.4-0.1-0.8-0.3-1.1-0.6c-0.3-0.3-0.6-0.7-0.7-1.2c-0.2-0.5-0.3-1.1-0.3-1.8v-7.7h-2.2v-2.2h2.2v-3.3H527z"/>
		<path fill="#767676" d="M534.7,199c0.5-0.5,1-1,1.6-1.3c0.6-0.3,1.3-0.5,2.1-0.5c0.7,0,1.3,0.1,1.8,0.3c0.5,0.2,1,0.5,1.4,0.9
			s0.7,0.9,0.9,1.6c0.2,0.6,0.3,1.4,0.3,2.3v8.7h-3v-8.7c0-0.9-0.2-1.6-0.6-2c-0.4-0.4-1-0.6-1.8-0.6c-0.6,0-1.2,0.1-1.6,0.4
			c-0.5,0.3-0.8,0.7-1.1,1.2v9.7h-3v-19.2h3L534.7,199L534.7,199z"/>
		<path fill="#767676" d="M564.1,204.4c0,1-0.1,1.9-0.3,2.7c-0.2,0.8-0.6,1.6-1,2.2c-0.4,0.6-1,1.1-1.6,1.4
			c-0.7,0.3-1.4,0.5-2.2,0.5s-1.5-0.1-2-0.4s-1.1-0.6-1.5-1.1v6.4h-3v-18.7h2.8l0.1,1.4c0.4-0.5,0.9-0.9,1.5-1.2
			c0.6-0.3,1.3-0.4,2.1-0.4c0.9,0,1.6,0.2,2.3,0.5c0.7,0.3,1.2,0.8,1.7,1.4c0.4,0.6,0.8,1.3,1,2.2c0.2,0.8,0.3,1.8,0.3,2.8v0.3
			H564.1z M561.1,204.1c0-0.6-0.1-1.2-0.2-1.7c-0.1-0.5-0.3-1-0.6-1.4c-0.2-0.4-0.6-0.7-1-0.9c-0.4-0.2-0.9-0.3-1.4-0.3
			c-0.7,0-1.2,0.1-1.6,0.4c-0.4,0.3-0.8,0.6-1,1.1v6c0.2,0.5,0.6,0.9,1,1.1s1,0.4,1.7,0.4c0.5,0,1-0.1,1.4-0.4c0.4-0.2,0.7-0.6,1-1
			c0.2-0.4,0.4-0.9,0.5-1.4s0.2-1.1,0.2-1.7L561.1,204.1L561.1,204.1z"/>
		<path fill="#767676" d="M574.7,211c-0.1-0.2-0.2-0.3-0.2-0.6c-0.1-0.2-0.1-0.4-0.1-0.7c-0.2,0.2-0.4,0.4-0.7,0.6
			c-0.2,0.2-0.5,0.3-0.8,0.5c-0.3,0.1-0.6,0.2-1,0.3s-0.7,0.1-1.1,0.1c-0.7,0-1.3-0.1-1.9-0.3c-0.6-0.2-1.1-0.5-1.5-0.8
			c-0.4-0.4-0.7-0.8-0.9-1.3s-0.3-1-0.3-1.6c0-0.7,0.1-1.4,0.4-1.9c0.3-0.6,0.7-1,1.2-1.4s1.2-0.7,1.9-0.9c0.8-0.2,1.6-0.3,2.6-0.3
			h1.9v-0.9c0-0.7-0.2-1.3-0.6-1.7c-0.4-0.4-1-0.6-1.8-0.6c-0.4,0-0.7,0-1,0.1s-0.5,0.2-0.7,0.4c-0.2,0.2-0.4,0.4-0.5,0.6
			s-0.2,0.5-0.2,0.7h-3c0-0.5,0.1-1,0.4-1.5c0.3-0.5,0.6-0.9,1.1-1.3c0.5-0.4,1.1-0.7,1.8-0.9c0.7-0.2,1.5-0.3,2.3-0.3
			s1.5,0.1,2.1,0.3c0.6,0.2,1.2,0.5,1.7,0.9s0.8,0.9,1.1,1.4c0.3,0.6,0.4,1.3,0.4,2v6c0,1.2,0.2,2.2,0.5,2.9v0.2H574.7z
			 M571.4,208.8c0.3,0,0.7,0,1-0.1s0.6-0.2,0.8-0.4c0.2-0.2,0.5-0.3,0.6-0.5c0.2-0.2,0.3-0.4,0.4-0.6v-2.5h-1.6
			c-1.1,0-2,0.2-2.5,0.6c-0.5,0.4-0.8,0.9-0.8,1.7c0,0.3,0,0.5,0.1,0.8c0.1,0.2,0.2,0.4,0.4,0.6s0.4,0.3,0.7,0.4
			C570.7,208.8,571,208.8,571.4,208.8z"/>
		<path fill="#767676" d="M579.9,204.1c0-1,0.1-2,0.4-2.8c0.2-0.8,0.6-1.6,1.1-2.2c0.5-0.6,1-1.1,1.7-1.4c0.7-0.3,1.4-0.5,2.2-0.5
			s1.4,0.1,2,0.4s1.1,0.6,1.5,1.1v-6.9h3V211H589l-0.2-1.4c-0.4,0.5-0.9,0.9-1.5,1.2c-0.6,0.3-1.3,0.4-2.1,0.4s-1.6-0.2-2.2-0.5
			c-0.7-0.3-1.2-0.8-1.7-1.4s-0.8-1.3-1.1-2.2s-0.4-1.7-0.4-2.7v-0.3H579.9z M583,204.4c0,0.6,0.1,1.2,0.2,1.7
			c0.1,0.5,0.3,1,0.5,1.4s0.6,0.7,0.9,0.9c0.4,0.2,0.8,0.3,1.4,0.3c0.7,0,1.2-0.2,1.7-0.5c0.4-0.3,0.8-0.7,1-1.2v-5.8
			c-0.3-0.5-0.6-0.9-1-1.2c-0.4-0.3-1-0.4-1.6-0.4c-0.5,0-1,0.1-1.4,0.3c-0.4,0.2-0.7,0.5-0.9,1c-0.2,0.4-0.4,0.9-0.5,1.4
			s-0.2,1.1-0.2,1.7v0.4H583z"/>
		<path fill="#767676" d="M594.4,204.1c0-1,0.1-2,0.4-2.8c0.2-0.8,0.6-1.6,1.1-2.2c0.5-0.6,1-1.1,1.7-1.4c0.7-0.3,1.4-0.5,2.2-0.5
			s1.4,0.1,2,0.4s1.1,0.6,1.5,1.1v-6.9h3V211h-2.7l-0.2-1.4c-0.4,0.5-0.9,0.9-1.5,1.2c-0.6,0.3-1.3,0.4-2.1,0.4s-1.6-0.2-2.2-0.5
			c-0.7-0.3-1.2-0.8-1.7-1.4s-0.8-1.3-1.1-2.2s-0.4-1.7-0.4-2.7V204.1z M597.4,204.4c0,0.6,0.1,1.2,0.2,1.7c0.1,0.5,0.3,1,0.5,1.4
			s0.6,0.7,0.9,0.9c0.4,0.2,0.8,0.3,1.4,0.3c0.7,0,1.2-0.2,1.7-0.5c0.4-0.3,0.8-0.7,1-1.2v-5.8c-0.3-0.5-0.6-0.9-1-1.2
			c-0.4-0.3-1-0.4-1.6-0.4c-0.5,0-1,0.1-1.4,0.3c-0.4,0.2-0.7,0.5-0.9,1c-0.2,0.4-0.4,0.9-0.5,1.4s-0.2,1.1-0.2,1.7v0.4H597.4z"/>
		<path fill="#767676" d="M609.4,194c0-0.5,0.1-0.9,0.4-1.2c0.3-0.3,0.7-0.5,1.3-0.5c0.5,0,1,0.2,1.3,0.5c0.3,0.3,0.5,0.7,0.5,1.2
			s-0.2,0.8-0.5,1.1c-0.3,0.3-0.7,0.5-1.3,0.5c-0.5,0-1-0.2-1.3-0.5C609.5,194.8,609.4,194.4,609.4,194z M612.6,211h-3v-13.5h3V211z
			"/>
		<path fill="#767676" d="M618.7,197.5l0.1,1.6c0.5-0.6,1-1,1.7-1.3c0.7-0.3,1.4-0.5,2.2-0.5c0.6,0,1.2,0.1,1.8,0.3
			c0.5,0.2,1,0.5,1.4,0.9s0.7,0.9,0.9,1.6c0.2,0.6,0.3,1.4,0.3,2.3v8.7h-3v-8.8c0-0.5-0.1-0.9-0.2-1.2c-0.1-0.3-0.3-0.6-0.5-0.8
			c-0.2-0.2-0.4-0.3-0.7-0.4s-0.6-0.1-1-0.1c-0.6,0-1.2,0.2-1.6,0.5c-0.5,0.3-0.8,0.7-1.1,1.2v9.6h-3v-13.5h2.7V197.5z"/>
		<path fill="#767676" d="M629.6,204.1c0-1,0.1-2,0.4-2.8c0.2-0.8,0.6-1.6,1.1-2.2c0.5-0.6,1-1.1,1.7-1.4s1.4-0.5,2.2-0.5
			s1.5,0.1,2.1,0.4s1.1,0.7,1.5,1.2l0.1-1.4h2.7v13.1c0,0.9-0.2,1.7-0.5,2.4c-0.3,0.7-0.7,1.3-1.3,1.8c-0.5,0.5-1.2,0.9-1.9,1.1
			s-1.6,0.4-2.5,0.4c-0.4,0-0.8,0-1.2-0.1s-0.9-0.2-1.4-0.4c-0.5-0.2-0.9-0.4-1.3-0.7c-0.4-0.3-0.8-0.6-1.1-1l1.4-1.8
			c0.5,0.6,1,1,1.6,1.3c0.6,0.3,1.2,0.4,1.8,0.4c1,0,1.8-0.3,2.4-0.8c0.6-0.5,0.9-1.3,0.9-2.4v-0.9c-0.4,0.5-0.9,0.8-1.5,1.1
			c-0.6,0.2-1.2,0.4-2,0.4s-1.6-0.2-2.2-0.5c-0.7-0.3-1.2-0.8-1.7-1.4c-0.5-0.6-0.8-1.3-1.1-2.2c-0.2-0.8-0.4-1.7-0.4-2.7v-0.4
			H629.6z M632.6,204.4c0,0.6,0.1,1.2,0.2,1.7c0.1,0.5,0.3,1,0.6,1.4s0.6,0.7,1,0.9c0.4,0.2,0.9,0.3,1.4,0.3c0.7,0,1.2-0.1,1.7-0.4
			c0.4-0.3,0.8-0.7,1-1.1v-5.9c-0.3-0.5-0.6-0.8-1.1-1.1c-0.4-0.3-1-0.4-1.6-0.4c-0.5,0-1,0.1-1.4,0.3c-0.4,0.2-0.7,0.5-1,1
			c-0.3,0.4-0.4,0.9-0.6,1.4s-0.2,1.1-0.2,1.7L632.6,204.4L632.6,204.4z"/>
	</g>
</g>
</svg>
