<svg xmlns="http://www.w3.org/2000/svg" width="80.4" height="104.4" viewBox="-108 97.3 80.4 104.4" enable-background="new -108 97.3 80.4 104.4"><style type="text/css">.st0{fill:#FFB500;stroke:#FFB500;stroke-width:5.9439;stroke-miterlimit:10;} .st1{fill:#FFFFFF;stroke:#F78F15;stroke-width:2.8813;stroke-miterlimit:10;}</style><path class="st0" d="M-39.4 198.7h-56c-3.4 0-6.1-2.7-6.1-6.1v-72c0-3.4 2.7-6.1 6.1-6.1h56c3.4 0 6.1 2.7 6.1 6.1v72c.1 3.4-2.7 6.1-6.1 6.1z"/><path class="st1" d="M-37.5 108.6h-60.8c-.8 0-1.5-.7-1.5-1.5v-7c0-.8.7-1.5 1.5-1.5h60.8c.8 0 1.5.7 1.5 1.5v7c-.1.8-.6 1.5-1.5 1.5zm-61.4 20.5c8.6 0 8.8-3.4 8.8-3.4s.1-3.4 8.8-3.4c8.8 0 8.8 3.4 8.8 3.4s0 3.4 7.4 3.4l7.4-3.4s.2-3.4 7.4-3.4l7.4 3.4s0 3.4 7.4 3.4c3.9 0 5.7-1 6.6-1.8v-10.1c0-3.7-3.1-6.7-6.9-6.7h-63.8c-3.8 0-6.9 3-6.9 6.7v10.3c1.2.9 3.3 1.6 7.6 1.6z"/></svg>