<?xml version="1.0" encoding="utf-8"?>
<!-- Generator: Adobe Illustrator 19.1.0, SVG Export Plug-In . SVG Version: 6.00 Build 0)  -->
<!DOCTYPE svg PUBLIC "-//W3C//DTD SVG 1.1//EN" "http://www.w3.org/Graphics/SVG/1.1/DTD/svg11.dtd">
<svg version="1.1" id="Layer_1" xmlns="http://www.w3.org/2000/svg" xmlns:xlink="http://www.w3.org/1999/xlink" x="0px" y="0px"
	 width="1000px" height="213.4px" viewBox="0 0 1000 213.4" style="enable-background:new 0 0 1000 213.4;" xml:space="preserve">
<style type="text/css">
	.st0{fill:#F78F15;}
	
		.st1{fill:none;stroke:#CA0000;stroke-width:6.4041;stroke-linecap:round;stroke-linejoin:round;stroke-miterlimit:10;stroke-dasharray:10.6287,17.7145;}
	
		.st2{fill:none;stroke:#CA0000;stroke-width:6.4041;stroke-linecap:round;stroke-linejoin:round;stroke-miterlimit:10;stroke-dasharray:10.3662,17.277;}
	
		.st3{fill:none;stroke:#CA0000;stroke-width:6.4041;stroke-linecap:round;stroke-linejoin:round;stroke-miterlimit:10;stroke-dasharray:12.5383,20.8972;}
	
		.st4{fill:none;stroke:#CA0000;stroke-width:6.4041;stroke-linecap:round;stroke-linejoin:round;stroke-miterlimit:10;stroke-dasharray:14.5831,24.3051;}
	
		.st5{fill:none;stroke:#CA0000;stroke-width:6.4041;stroke-linecap:round;stroke-linejoin:round;stroke-miterlimit:10;stroke-dasharray:12.2286,20.381;}
</style>
<g>
	<ellipse class="st0" cx="192.4" cy="184.7" rx="28.8" ry="5.5"/>
	<ellipse class="st0" cx="551.9" cy="190.2" rx="28.8" ry="5.5"/>
	<g>
		<ellipse class="st0" cx="28.8" cy="110.6" rx="28.8" ry="5.5"/>
		<ellipse class="st0" cx="361.4" cy="104" rx="28.8" ry="5.5"/>
		<ellipse class="st0" cx="754.7" cy="104.9" rx="28.8" ry="5.5"/>
		<ellipse class="st0" cx="971.2" cy="208" rx="28.8" ry="5.5"/>
		<g>
			<path class="st1" d="M29.1,107.2c0-52.5,36.2-78.8,80.8-58.8s80.8,78.7,80.8,131.2"/>
			<path class="st2" d="M190.5,181.9c0-58.3,38.2-124.5,85.4-147.9s85.4,4.9,85.4,63.2"/>
		</g>
		<g>
			<path class="st3" d="M361.1,99.3c0-61.9,42.7-93,95.3-69.4s95.3,92.9,95.3,154.7"/>
			<path class="st4" d="M755,100.8c0-73.9,48.3-111,107.9-82.9s107.9,110.9,107.9,184.8"/>
			<path class="st5" d="M551.6,187.4c0-68.8,45.1-146.9,100.7-174.5S753,18.6,753,87.4"/>
		</g>
	</g>
</g>
</svg>
