<svg xmlns="http://www.w3.org/2000/svg" width="24" height="24" viewBox="0 0 24 24"><defs><style>.cls-1{fill:#231f20;}</style></defs><title>alert-silence</title><g id="alert-silence"><path class="cls-1" d="M12,22a3,3,0,0,0,3-3H9A3,3,0,0,0,12,22Z"/><path class="cls-1" d="M6.53,6.53l-1.6-1.6-1,1L6.07,8.09A5.63,5.63,0,0,0,6,9v4.31L3.3,15.87a1,1,0,0,0-.3.72V18H16l2.08,2.08,1-1L13.4,13.4Z"/><path class="cls-1" d="M20.7,15.87,18,13.26V9a6,6,0,0,0-4.15-5.71,2,2,0,0,0-3.7,0,6,6,0,0,0-2.87,2L20,18h1V16.59A1,1,0,0,0,20.7,15.87Z"/></g></svg>