<svg xmlns="http://www.w3.org/2000/svg" width="24" height="24" viewBox="0 0 24 24"><defs><style>.cls-1{fill:#231f20;}</style></defs><title>database</title><g id="database"><path class="cls-1" d="M12,22a15.07,15.07,0,0,1-7.4-1.6h0V16.2A17.42,17.42,0,0,0,12,17.6a17.43,17.43,0,0,0,7.4-1.4v4.2h0A15,15,0,0,1,12,22Zm0-6.2a15.07,15.07,0,0,1-7.4-1.6h0V10A17.42,17.42,0,0,0,12,11.4,17.43,17.43,0,0,0,19.4,10v4.2h0A15,15,0,0,1,12,15.8Zm7.4-8h0C18,8.8,15.2,9.5,12,9.5A15.07,15.07,0,0,1,4.6,7.9h0V3.7h0C6,2.7,8.8,2.1,12,2.1a15.07,15.07,0,0,1,7.4,1.6h0Z"/></g></svg>