<svg xmlns="http://www.w3.org/2000/svg" width="24" height="24" viewBox="0 0 24 24"><defs><style>.cls-1{fill:#231f20;}</style></defs><title>globe</title><g id="globe"><path class="cls-1" d="M12,2A10,10,0,1,0,22,12,10,10,0,0,0,12,2ZM6,6A8.45,8.45,0,0,1,18,6H13.6L11.3,8.3A2.13,2.13,0,0,1,9.7,9a1.92,1.92,0,0,1-1.2-.4L5.9,11.2a2.69,2.69,0,0,1-1.8.8.9.9,0,0,1-.5-.1A8.56,8.56,0,0,1,6,6Zm6,14.4a8.4,8.4,0,0,1-6-2.5,10.93,10.93,0,0,1-1.3-1.7,2.65,2.65,0,0,1,.5-.6,3.47,3.47,0,0,1,2.5-1,3.47,3.47,0,0,1,2.5,1L14.6,20A7.44,7.44,0,0,1,12,20.4Zm7.6-4.7H15.8a1.9,1.9,0,1,1,0-3.8h.6a1.82,1.82,0,0,1,1.8-1.5h2.1A8.81,8.81,0,0,1,19.6,15.7Z"/></g></svg>