<svg id="Layer_1" data-name="Layer 1" xmlns="http://www.w3.org/2000/svg" width="98.98" height="79" viewBox="0 0 98.98 79"><defs><style>.cls-1{fill:#231f20;}.cls-2{fill:#c00;}.cls-3{fill:none;}</style></defs><title>brand</title><path class="cls-1" d="M49.73,9.82C27.29,9.82,8.16,22.6.48,40.6c7.68,18,26.81,30.78,49.25,30.78S91.3,58.61,99,40.6C91.3,22.6,72.17,9.82,49.73,9.82Zm0,52.33A21.55,21.55,0,1,1,71.28,40.6,21.55,21.55,0,0,1,49.73,62.15Z"/><path class="cls-2" d="M60.76,40.6a11.07,11.07,0,0,0-.11-1.49l3-3.22a14.67,14.67,0,0,0-2.88-5l-4.29,1a11,11,0,0,0-2.59-1.5l-1.29-4.21a14.63,14.63,0,0,0-5.75,0l-1.29,4.21A11,11,0,0,0,43,31.9l-4.29-1a14.67,14.67,0,0,0-2.88,5l3,3.22a9.95,9.95,0,0,0,0,3l-3,3.22a14.67,14.67,0,0,0,2.88,5l4.29-1a11,11,0,0,0,2.59,1.5L46.86,55a14.63,14.63,0,0,0,5.75,0l1.29-4.21a11,11,0,0,0,2.59-1.5l4.29,1a14.67,14.67,0,0,0,2.88-5l-3-3.22A11.07,11.07,0,0,0,60.76,40.6ZM49.73,45a4.41,4.41,0,1,1,4.41-4.41A4.41,4.41,0,0,1,49.73,45Z"/><rect class="cls-3" width="98.98" height="79"/></svg>