<svg id="Layer_1" data-name="Layer 1" xmlns="http://www.w3.org/2000/svg" width="158.82" height="125.06" viewBox="0 0 158.82 125.06"><defs><style>.cls-1{fill:#c00;}.cls-2{fill:#373737;}.cls-3{fill:#336dc2;}.cls-4{fill:#fff;}.cls-5{fill:#dcdcdc;}.cls-6{fill:none;}</style></defs><title>components</title><rect class="cls-1" x="8.41" y="55.12" width="22" height="22"/><path class="cls-2" d="M156.8,70.67h-68a2,2,0,0,1-2-2V57.53a2,2,0,0,1,2-2h68a2,2,0,0,1,2,2V68.66A2,2,0,0,1,156.8,70.67Zm-68-14a.81.81,0,0,0-.81.81V68.66a.81.81,0,0,0,.81.81h68a.81.81,0,0,0,.81-.81V57.53a.81.81,0,0,0-.81-.81Z"/><path class="cls-2" d="M111.77,50.83H89.86a2.5,2.5,0,0,1,0-5h21.91a2.5,2.5,0,0,1,0,5Z"/><rect class="cls-3" x="44.83" y="100.11" width="54.94" height="18.01" rx="1.82" ry="1.82"/><path class="cls-4" d="M84.26,111.62H60.35a2.5,2.5,0,1,1,0-5H84.26a2.5,2.5,0,0,1,0,5Z"/><rect class="cls-2" x="15.18" width="135.8" height="22"/><path class="cls-5" d="M54.65,13.5H32.74a2.5,2.5,0,0,1,0-5H54.65a2.5,2.5,0,0,1,0,5Z"/><path class="cls-5" d="M93.64,13.5H71.73a2.5,2.5,0,0,1,0-5H93.64a2.5,2.5,0,0,1,0,5Z"/><path class="cls-5" d="M132.63,13.5H110.72a2.5,2.5,0,0,1,0-5h21.91a2.5,2.5,0,0,1,0,5Z"/><rect class="cls-6" width="158.82" height="125.06"/></svg>