<svg id="Layer_1" data-name="Layer 1" xmlns="http://www.w3.org/2000/svg" xmlns:xlink="http://www.w3.org/1999/xlink" width="205.2" height="125.33" viewBox="0 0 205.2 125.33"><defs><style>.cls-1,.cls-8{fill:none;}.cls-2{fill:#3c81dc;}.cls-3{fill:#cc1801;}.cls-4{fill:#ebebeb;}.cls-5{fill:#373737;}.cls-6{fill:#fff;}.cls-7{clip-path:url(#clip-path);}.cls-8{stroke:#b1cef2;stroke-linecap:round;stroke-linejoin:round;stroke-width:2px;}</style><clipPath id="clip-path"><polygon class="cls-1" points="189.49 64.34 205.2 91.55 189.49 118.75 158.08 118.75 142.38 91.55 158.08 64.34 189.49 64.34"/></clipPath></defs><title>elements</title><polygon class="cls-2" points="68.23 54.92 78.23 72.25 68.23 89.58 48.22 89.58 38.21 72.25 48.22 54.92 68.23 54.92"/><polygon class="cls-3" points="38.79 37.59 48.8 54.92 38.79 72.25 18.78 72.25 8.78 54.92 18.78 37.59 38.79 37.59"/><polygon class="cls-4" points="38.36 72.25 48.37 89.58 38.36 106.91 18.35 106.91 8.34 89.58 18.35 72.25 38.36 72.25"/><polygon class="cls-5" points="68.44 89.58 78.44 106.91 68.44 124.23 48.43 124.23 38.42 106.91 48.43 89.58 68.44 89.58"/><rect class="cls-6" x="98.5" y="46.33" width="87.5" height="15.92"/><path class="cls-5" d="M141.09,12.78H99.87a3.26,3.26,0,0,1,0-6.51h41.22a3.26,3.26,0,0,1,0,6.51Z"/><path class="cls-5" d="M155.34,23.88H99.11a2.5,2.5,0,0,1,0-5h56.23a2.5,2.5,0,0,1,0,5Z"/><path class="cls-5" d="M157.34,35H99.11a2.5,2.5,0,0,1,0-5h58.23a2.5,2.5,0,0,1,0,5Z"/><path class="cls-5" d="M149.34,46.09H99.11a2.5,2.5,0,0,1,0-5h50.23a2.5,2.5,0,0,1,0,5Z"/><g class="cls-7"><line class="cls-8" x1="141.74" y1="68.99" x2="206.51" y2="68.99"/><line class="cls-8" x1="141.74" y1="80.3" x2="206.51" y2="80.3"/><line class="cls-8" x1="141.74" y1="91.6" x2="206.51" y2="91.6"/><line class="cls-8" x1="141.74" y1="102.91" x2="206.51" y2="102.91"/><line class="cls-8" x1="141.74" y1="114.21" x2="206.51" y2="114.21"/><line class="cls-8" x1="151.51" y1="126.7" x2="151.51" y2="56.5"/><line class="cls-8" x1="162.82" y1="126.7" x2="162.82" y2="56.5"/><line class="cls-8" x1="174.12" y1="126.7" x2="174.12" y2="56.5"/><line class="cls-8" x1="185.43" y1="126.7" x2="185.43" y2="56.5"/><line class="cls-8" x1="196.74" y1="126.7" x2="196.74" y2="56.5"/></g><rect class="cls-1" width="205.2" height="125.33"/></svg>