<svg id="Layer_1" data-name="Layer 1" xmlns="http://www.w3.org/2000/svg" xmlns:xlink="http://www.w3.org/1999/xlink" width="597.5" height="179.5" viewBox="0 0 597.5 179.5"><defs><style>.cls-1{fill:none;}.cls-2{clip-path:url(#clip-path);}.cls-3{fill:#7a0000;}.cls-4{fill:#ecac2d;}.cls-5{fill:#fec267;}.cls-6{fill:#c00;}.cls-7{fill:#ffe335;}.cls-8{fill:#a30000;}.cls-9{fill:#ffee86;}.cls-10{fill:#2a5e9d;}.cls-11{fill:#336dc2;}.cls-12{fill:#fc9003;}.cls-13{fill:#67a9f1;}.cls-14{fill:#3c85df;}.cls-15{fill:#8ab6ec;}</style><clipPath id="clip-path"><rect class="cls-1" width="597.5" height="179.5"/></clipPath></defs><title>hero-bg</title><g class="cls-2"><polygon class="cls-3" points="224.44 -22.86 159.31 -22.86 126.75 33.55 159.31 89.94 224.44 89.94 257 33.55 224.44 -22.86"/><polygon class="cls-4" points="321.63 33.3 256.51 33.3 223.94 89.7 256.51 146.1 321.63 146.1 354.19 89.7 321.63 33.3"/><polygon class="cls-4" points="517.13 33.3 452.01 33.3 419.44 89.7 452.01 146.1 517.13 146.1 549.7 89.7 517.13 33.3"/><polygon class="cls-5" points="321.63 146.1 256.51 146.1 223.94 202.5 256.51 258.9 321.63 258.9 354.19 202.5 321.63 146.1"/><polygon class="cls-6" points="38.7 137.1 11.34 89.7 38.7 42.3 93.44 42.3 120.8 89.7 93.44 137.1 38.7 137.1"/><path class="cls-6" d="M88.24,51.3l22.17,38.4L88.24,128.1H43.9L21.73,89.7,43.9,51.3H88.24m10.39-18H33.51L.94,89.7l32.56,56.4H98.63L131.2,89.7,98.63,33.3Z"/><polygon class="cls-7" points="419.33 -22.86 354.2 -22.86 321.64 33.55 354.2 89.94 419.33 89.94 451.89 33.55 419.33 -22.86"/><polygon class="cls-8" points="224.44 89.7 159.31 89.7 126.75 146.1 159.31 202.5 224.44 202.5 257 146.1 224.44 89.7"/><polygon class="cls-9" points="419.33 89.7 354.2 89.7 321.64 146.1 354.2 202.5 419.33 202.5 451.89 146.1 419.33 89.7"/><polygon class="cls-10" points="614.33 -22.86 549.2 -22.86 516.64 33.55 549.2 89.94 614.33 89.94 646.89 33.55 614.33 -22.86"/><polygon class="cls-11" points="614.33 89.7 549.2 89.7 516.64 146.1 549.2 202.5 614.33 202.5 646.89 146.1 614.33 89.7"/><polygon class="cls-12" points="321.63 -79.5 256.51 -79.5 223.94 -23.1 256.51 33.3 321.63 33.3 354.19 -23.1 321.63 -79.5"/><polygon class="cls-13" points="516.97 33.3 451.84 33.3 419.28 89.7 451.84 146.1 516.97 146.1 549.53 89.7 516.97 33.3"/><polygon class="cls-14" points="516.97 146.1 451.84 146.1 419.28 202.5 451.84 258.9 516.97 258.9 549.53 202.5 516.97 146.1"/><polygon class="cls-15" points="516.97 -79.5 451.84 -79.5 419.28 -23.1 451.84 33.3 516.97 33.3 549.53 -23.1 516.97 -79.5"/></g></svg>