<svg xmlns="http://www.w3.org/2000/svg" width="190.16" height="125" viewBox="0 0 190.16 125"><defs><style>.cls-1{fill:#ebebeb;}.cls-2{fill:#fff;}.cls-3{fill:#373737;}.cls-4{fill:#336dc2;}.cls-5{fill:#c00;}.cls-6{fill:#dcdcdc;}.cls-7{fill:#222;}.cls-8{fill:#b6b6b6;}</style></defs><title>patterns</title><path class="cls-1" d="M88.89 40.52h101.28v79.05h-101.28z"/><rect class="cls-2" x="104.15" y="66.34" width="70.9" height="13.7" rx="2" ry="2"/><path class="cls-3" d="M173.92 81h-68.36a2 2 0 0 1-2-2v-11.22a2 2 0 0 1 2-2h68.36a2 2 0 0 1 2 2v11.22a2 2 0 0 1-2 2zm-68.36-14a.81.81 0 0 0-.81.81v11.19a.82.82 0 0 0 .81.82h68.36a.82.82 0 0 0 .82-.82v-11.22a.82.82 0 0 0-.82-.81zm23.11-5.95h-22a2.51 2.51 0 1 1 0-5h22a2.51 2.51 0 1 1 0 5z"/><rect class="cls-4" x="104.15" y="91.55" width="55.21" height="18.1" rx="1.82" ry="1.82"/><path class="cls-2" d="M143.76 103.11h-24a2.51 2.51 0 1 1 0-5h24a2.51 2.51 0 1 1 0 5z"/><path class="cls-3" d="M11.48 0h169.81v22.11h-169.81z"/><path class="cls-5" d="M11.48 0h22.11v22.11h-22.11z"/><path class="cls-6" d="M66.19 13.57h-22a2.52 2.52 0 0 1 0-5h22a2.52 2.52 0 0 1 0 5zm39.18 0h-22a2.52 2.52 0 0 1 0-5h22a2.52 2.52 0 0 1 0 5zm39.18 0h-22a2.52 2.52 0 0 1 0-5h22a2.52 2.52 0 0 1 0 5z"/><path class="cls-3" d="M0 35.67h55.18v89.33h-55.18z"/><path class="cls-7" d="M0 35.67h55.18v16.35h-55.18zm0 49.04h55.18v16.35h-55.18z"/><path class="cls-4" d="M0 68.37h55.18v16.35h-55.18z"/><path class="cls-2" d="M31.08 79h-22a2.52 2.52 0 0 1 0-5h22a2.52 2.52 0 0 1 0 5z"/><path class="cls-8" d="M31.08 62.85h-22a2.51 2.51 0 1 1 0-5h22a2.51 2.51 0 0 1 0 5z"/><path class="cls-6" d="M31.08 95.09h-22a2.52 2.52 0 0 1 0-5h22a2.52 2.52 0 0 1 0 5z"/><path class="cls-8" d="M31.08 111.37h-22a2.52 2.52 0 0 1 0-5h22a2.52 2.52 0 0 1 0 5zm0-16.12h-22a2.51 2.51 0 0 1 0-5h22a2.51 2.51 0 1 1 0 5z"/></svg>