<svg id="Layer_1" data-name="Layer 1" xmlns="http://www.w3.org/2000/svg" width="189.24" height="125.33" viewBox="0 0 189.24 125.33"><defs><style>.cls-1{fill:#ebebeb;}.cls-2{fill:#fff;}.cls-3{fill:#373737;}.cls-4{fill:#336dc2;}.cls-5{fill:#c00;}.cls-6{fill:#dcdcdc;}.cls-7{fill:#222;}.cls-8{fill:#b6b6b6;}.cls-9{fill:none;}</style></defs><title>sections</title><rect class="cls-1" x="88.46" y="40.6" width="100.79" height="78.67"/><rect class="cls-2" x="103.64" y="66.29" width="70.55" height="13.64" rx="2" ry="2"/><path class="cls-3" d="M173.08,80.87h-68a2,2,0,0,1-2-2V67.73a2,2,0,0,1,2-2h68a2,2,0,0,1,2,2V78.85A2,2,0,0,1,173.08,80.87Zm-68-14a.81.81,0,0,0-.81.81V78.85a.81.81,0,0,0,.81.81h68a.81.81,0,0,0,.81-.81V67.73a.81.81,0,0,0-.81-.81Z"/><path class="cls-3" d="M128.05,61H106.14a2.5,2.5,0,0,1,0-5h21.91a2.5,2.5,0,0,1,0,5Z"/><rect class="cls-4" x="103.64" y="91.38" width="54.94" height="18.01" rx="1.82" ry="1.82"/><path class="cls-2" d="M143.07,102.88H119.16a2.5,2.5,0,0,1,0-5h23.91a2.5,2.5,0,0,1,0,5Z"/><rect class="cls-3" x="11.43" y="0.27" width="168.99" height="22"/><rect class="cls-5" x="11.43" y="0.27" width="22" height="22"/><path class="cls-6" d="M65.87,13.77H44a2.5,2.5,0,0,1,0-5H65.87a2.5,2.5,0,0,1,0,5Z"/><path class="cls-6" d="M104.86,13.77H82.95a2.5,2.5,0,0,1,0-5h21.91a2.5,2.5,0,0,1,0,5Z"/><path class="cls-6" d="M143.85,13.77H121.94a2.5,2.5,0,0,1,0-5h21.91a2.5,2.5,0,0,1,0,5Z"/><rect class="cls-3" y="35.77" width="54.91" height="88.89"/><rect class="cls-7" y="35.77" width="54.91" height="16.27"/><rect class="cls-7" y="84.57" width="54.91" height="16.27"/><rect class="cls-4" y="68.31" width="54.91" height="16.27"/><path class="cls-2" d="M30.93,78.86H9a2.5,2.5,0,0,1,0-5H30.93a2.5,2.5,0,0,1,0,5Z"/><path class="cls-8" d="M30.93,62.82H9a2.5,2.5,0,0,1,0-5H30.93a2.5,2.5,0,0,1,0,5Z"/><path class="cls-6" d="M30.93,94.9H9a2.5,2.5,0,0,1,0-5H30.93a2.5,2.5,0,0,1,0,5Z"/><path class="cls-8" d="M30.93,111.1H9a2.5,2.5,0,0,1,0-5H30.93a2.5,2.5,0,0,1,0,5Z"/><path class="cls-8" d="M30.93,95.06H9a2.5,2.5,0,0,1,0-5H30.93a2.5,2.5,0,0,1,0,5Z"/><rect class="cls-9" width="189.24" height="125.33"/></svg>