<svg id="Layer_1" data-name="Layer 1" xmlns="http://www.w3.org/2000/svg" xmlns:xlink="http://www.w3.org/1999/xlink" width="1614" height="598.65" viewBox="0 0 1614 598.65"><defs><style>.cls-1{fill:none;}.cls-2{clip-path:url(#clip-path);}.cls-3{fill:#7a0000;}.cls-4{fill:#ecac2d;}.cls-5{fill:#fec267;}.cls-6{fill:#c00;}.cls-7{fill:#ffe335;}.cls-8{fill:#a30000;}.cls-9{fill:#ffee86;}.cls-10{fill:#2a5e9d;}.cls-11{fill:#336dc2;}.cls-12{fill:#fc9003;}.cls-13{fill:#67a9f1;}.cls-14{fill:#3c85df;}.cls-15{fill:#8ab6ec;}</style><clipPath id="clip-path"><rect class="cls-1" width="1614" height="598.65"/></clipPath></defs><title>section-bg</title><g class="cls-2"><polygon class="cls-3" points="679.16 -3.4 504.62 -3.4 417.35 147.75 504.62 298.91 679.16 298.91 766.43 147.75 679.16 -3.4"/><polygon class="cls-4" points="939.64 147.1 765.1 147.1 677.83 298.25 765.1 449.41 939.64 449.41 1026.91 298.25 939.64 147.1"/><polygon class="cls-4" points="1463.6 147.1 1289.06 147.1 1201.79 298.25 1289.06 449.41 1463.6 449.41 1550.87 298.25 1463.6 147.1"/><polygon class="cls-5" points="939.64 449.41 765.1 449.41 677.83 600.57 765.1 751.72 939.64 751.72 1026.91 600.57 939.64 449.41"/><polygon class="cls-6" points="181.37 425.29 108.03 298.25 181.37 171.22 328.06 171.22 401.4 298.25 328.06 425.29 181.37 425.29"/><path class="cls-6" d="M314.13,195.34l59.42,102.92L314.13,401.17H195.3L135.88,298.25,195.3,195.34H314.13M342,147.1H167.44L80.17,298.25l87.27,151.16H342l87.27-151.16L342,147.1Z"/><polygon class="cls-7" points="1201.48 -3.4 1026.93 -3.4 939.66 147.75 1026.93 298.91 1201.48 298.91 1288.75 147.75 1201.48 -3.4"/><polygon class="cls-8" points="679.16 298.25 504.62 298.25 417.35 449.41 504.62 600.57 679.16 600.57 766.43 449.41 679.16 298.25"/><polygon class="cls-9" points="1201.48 298.25 1026.93 298.25 939.66 449.41 1026.93 600.57 1201.48 600.57 1288.75 449.41 1201.48 298.25"/><polygon class="cls-10" points="1724.09 -3.4 1549.55 -3.4 1462.28 147.75 1549.55 298.91 1724.09 298.91 1811.36 147.75 1724.09 -3.4"/><polygon class="cls-11" points="1724.09 298.25 1549.55 298.25 1462.28 449.41 1549.55 600.57 1724.09 600.57 1811.36 449.41 1724.09 298.25"/><polygon class="cls-12" points="939.64 -155.22 765.1 -155.22 677.83 -4.06 765.1 147.1 939.64 147.1 1026.91 -4.06 939.64 -155.22"/><polygon class="cls-13" points="1463.15 147.1 1288.61 147.1 1201.34 298.25 1288.61 449.41 1463.15 449.41 1550.42 298.25 1463.15 147.1"/><polygon class="cls-14" points="1463.15 449.41 1288.61 449.41 1201.34 600.57 1288.61 751.72 1463.15 751.72 1550.42 600.57 1463.15 449.41"/><polygon class="cls-15" points="1463.15 -155.22 1288.61 -155.22 1201.34 -4.06 1288.61 147.1 1463.15 147.1 1550.42 -4.06 1463.15 -155.22"/></g></svg>