<svg xmlns="http://www.w3.org/2000/svg" width="260" height="179.64" viewBox="0 0 260 179.64"><defs><style>.cls-1{fill:#f2f2f2;}.cls-2{fill:#fff;}.cls-3{fill:#373737;}.cls-4{fill:#c00;}</style></defs><title>applications</title><path class="cls-1" d="M0 0h260v179.64h-260z"/><path class="cls-2" d="M38.27 26.44h183.46v126.75h-183.46z"/><path class="cls-3" d="M38.27 26.44h183.46v18.35h-183.46z"/><path class="cls-4" d="M38.27 26.44h18.35v18.35h-18.35z"/><path class="cls-2" d="M47.44 54.91h163.43v87.39h-163.43z"/><path class="cls-3" d="M78.73 65.54h-18.27a2.08 2.08 0 0 1 0-4.17h18.27a2.08 2.08 0 0 1 0 4.17zm12.7 5.9h-31.64a1.68 1.68 0 1 1 0-3.36h31.64a1.68 1.68 0 1 1 0 3.36zm10.49 4.78h-42.8a1 1 0 1 1 0-2h42.8a1 1 0 0 1 0 2zm-1.66 4.46h-41.14a1 1 0 0 1 0-2h41.14a1 1 0 0 1 0 2zm1.66 4.46h-42.8a1 1 0 0 1 0-2h42.8a1 1 0 0 1 0 2zm0 4.46h-42.8a1 1 0 0 1 0-2h42.8a1 1 0 0 1 0 2zm-8.82 4.46h-34a1 1 0 0 1 0-2h34a1 1 0 1 1 0 2zm-14.37 11.48h-18.27a2.08 2.08 0 0 1 0-4.17h18.27a2.08 2.08 0 0 1 0 4.17zm12.7 5.89h-31.64a1.68 1.68 0 1 1 0-3.36h31.64a1.68 1.68 0 1 1 0 3.36zm10.49 4.78h-42.8a1 1 0 1 1 0-2h42.8a1 1 0 0 1 0 2zm0 4.46h-42.8a1 1 0 0 1 0-2h42.8a1 1 0 0 1 0 2zm-1.66 4.46h-41.14a1 1 0 1 1 0-2h41.14a1 1 0 0 1 0 2zm1.66 4.46h-42.8a1 1 0 1 1 0-2h42.8a1 1 0 0 1 0 2zm-8.82 4.41h-34a1 1 0 1 1 0-2h34a1 1 0 1 1 0 2zm62.51-68.46h-18.27a2.08 2.08 0 0 1 0-4.17h18.27a2.08 2.08 0 0 1 0 4.17zm12.69 5.9h-31.63a1.68 1.68 0 1 1 0-3.36h31.63a1.68 1.68 0 1 1 0 3.36zm10.5 4.78h-42.8a1 1 0 1 1 0-2h42.8a1 1 0 1 1 0 2zm0 4.46h-42.8a1 1 0 1 1 0-2h42.8a1 1 0 1 1 0 2zm-1.67 4.46h-41.13a1 1 0 1 1 0-2h41.14a1 1 0 1 1 0 2zm1.67 4.46h-42.8a1 1 0 1 1 0-2h42.8a1 1 0 1 1 0 2zm-8.8 4.46h-34a1 1 0 1 1 0-2h34a1 1 0 0 1 0 2zm-14.39 11.48h-18.27a2.08 2.08 0 0 1 0-4.17h18.27a2.08 2.08 0 0 1 0 4.17zm12.69 5.89h-31.63a1.68 1.68 0 1 1 0-3.36h31.63a1.68 1.68 0 1 1 0 3.36zm10.5 4.78h-42.8a1 1 0 1 1 0-2h42.8a1 1 0 1 1 0 2zm-1.67 4.46h-41.13a1 1 0 1 1 0-2h41.14a1 1 0 0 1 0 2zm1.67 4.46h-42.8a1 1 0 1 1 0-2h42.8a1 1 0 1 1 0 2zm0 4.46h-42.8a1 1 0 1 1 0-2h42.8a1 1 0 1 1 0 2zm-8.8 4.41h-34a1 1 0 1 1 0-2h34a1 1 0 0 1 0 2z"/></svg>