<svg xmlns="http://www.w3.org/2000/svg" width="260" height="179.64" viewBox="0 0 260 179.64"><defs><style>.cls-1{fill:#f2f2f2;}.cls-2{fill:#373737;}</style></defs><title>dictionary</title><path class="cls-1" d="M0 0h260v179.64h-260z"/><path class="cls-2" d="M157.52 44.73h-43.17a4.93 4.93 0 0 1 0-9.85h43.17a4.93 4.93 0 0 1 0 9.85zm23.33 13.93h-68.08a4 4 0 1 1 0-7.93h68.08a4 4 0 1 1 0 7.93zm-23.33 31.89h-43.17a4.93 4.93 0 0 1 0-9.85h43.17a4.93 4.93 0 0 1 0 9.85zm30 13.93h-74.75a4 4 0 1 1 0-7.93h74.75a4 4 0 1 1 0 7.93zm-24.99 37.06h-48.18a4.93 4.93 0 0 1 0-9.85h48.17a4.93 4.93 0 0 1 0 9.85zm19.15 13.92h-68.91a4 4 0 1 1 0-7.93h68.92a4 4 0 1 1 0 7.93zm-90.46-115.28h-8l-1.52 4.55h-4.81l8.22-22.09h4.22l8.27 22.09h-4.84zm-6.75-3.69h5.53l-2.78-8.27zm-5.47 105.05v-22.09h7.74a14.81 14.81 0 0 1 3.44.36 7.33 7.33 0 0 1 2.57 1.11 5 5 0 0 1 1.61 1.89 6.07 6.07 0 0 1 .55 2.69 5.53 5.53 0 0 1-.19 1.46 4.66 4.66 0 0 1-.58 1.3 4.72 4.72 0 0 1-1 1.1 5 5 0 0 1-1.41.81 4.85 4.85 0 0 1 1.66.74 4.65 4.65 0 0 1 1.14 1.15 4.58 4.58 0 0 1 .65 1.42 6 6 0 0 1 .21 1.57 5.82 5.82 0 0 1-2.07 4.85 9.31 9.31 0 0 1-5.89 1.64zm4.55-12.83h3.45a4.12 4.12 0 0 0 2.59-.74 2.47 2.47 0 0 0 .85-2 2.54 2.54 0 0 0-.87-2.16 4.59 4.59 0 0 0-2.75-.66h-3.23zm0 3.22v6h3.9a4.66 4.66 0 0 0 1.52-.22 3 3 0 0 0 1.06-.61 2.38 2.38 0 0 0 .63-.91 3.08 3.08 0 0 0 .24-1.19 4.2 4.2 0 0 0-.18-1.28 2.44 2.44 0 0 0-.57-1 2.47 2.47 0 0 0-1-.61 4.62 4.62 0 0 0-1.49-.21z"/></svg>