<svg xmlns="http://www.w3.org/2000/svg" width="280" height="168" viewBox="0 0 280 168"><defs><style>.cls-1{fill:#f2f2f2;}.cls-2{fill:#c00;}.cls-3{fill:#231f20;}</style></defs><title>logo</title><path class="cls-1" d="M0 0h280v168h-280z"/><path class="cls-2" d="M71.64 81.94l-12.6-.31 4.39 4.63 8.21-.2v-4.12zm-1.91 10.98l1.91-.2v-3.94l-5.53.31 3.62 3.83zm-23.7 2.49l20.41-2.14-3.91-3.97-16.5.95v5.16zm8.82-13.89l-8.82-.21v5.38l13.59-.33-4.77-4.84zm1.06-3.2l15.73.9v-3.94l-20.66-2.17 4.93 5.21zm-9.88-5.73v5.16l5.41.31-5.41-5.47zm26.72 23.04a1.56 1.56 0 0 0 1.08-1.63v-20a1.56 1.56 0 0 0-1.08-1.65l-26.75-3.77v-3.36c3-2.17 9.42-3.67 16.84-3.67s13.85 1.45 16.87 3.67v37.57c-3 2.17-9.42 3.67-16.84 3.67s-13.81-1.46-16.87-3.68v-3.36l26.71-3.79"/><path class="cls-3" d="M92.44 91.17v-4.55c0-3.36.09-8.71 1.55-12.07a20.12 20.12 0 0 1 11.67-2.08 6.2 6.2 0 0 1-.8 4.29 11.48 11.48 0 0 0-6.5.84 32.41 32.41 0 0 0-.88 8.53v9.33a13.11 13.11 0 0 1-4.55 0 12.82 12.82 0 0 1-.49-4.29zm26.17-4.33a44.11 44.11 0 0 1-7-.49v1.95c0 3.45 3.36 3.62 6.19 3.62a23.41 23.41 0 0 0 7.12-1.15 4.11 4.11 0 0 1 .84 3.23 17.84 17.84 0 0 1-8.84 2.21c-5.48 0-10.34-1.33-10.34-7.78v-3a31.39 31.39 0 0 1 1.9-10.83 18.09 18.09 0 0 1 8.49-2.39c5.75 0 9.86 1.77 9.86 7.78a21.51 21.51 0 0 1-1.06 6.32 64.27 64.27 0 0 1-7.16.53zm-1.73-10.3a9.37 9.37 0 0 0-4.38 1.15 20 20 0 0 0-.84 4.82 19.11 19.11 0 0 0 5.34.49 21.63 21.63 0 0 0 4.6-.4 8.27 8.27 0 0 0 .35-2.52c-.03-2.96-2.5-3.54-5.07-3.54zm108.91 10.3a44.11 44.11 0 0 1-7-.49v1.95c0 3.45 3.36 3.62 6.19 3.62a23.41 23.41 0 0 0 7.12-1.15 4.11 4.11 0 0 1 .84 3.23 17.84 17.84 0 0 1-8.84 2.21c-5.48 0-10.34-1.33-10.34-7.78v-3a31.39 31.39 0 0 1 1.9-10.83 18.09 18.09 0 0 1 8.49-2.39c5.71 0 9.85 1.79 9.85 7.79a21.51 21.51 0 0 1-1.06 6.32 64.27 64.27 0 0 1-7.15.52zm-1.73-10.3a9.37 9.37 0 0 0-4.38 1.15 20 20 0 0 0-.84 4.82 19.11 19.11 0 0 0 5.3.53 21.63 21.63 0 0 0 4.6-.4 8.27 8.27 0 0 0 .35-2.52c.02-3-2.46-3.58-5.02-3.58zm-12.27 15.72a14.91 14.91 0 0 1-1.56.11c-2.56 0-5.22-.16-5.22-3.71v-11.14h5.75a7.09 7.09 0 0 0 0-4.29h-5.76v-5.66a8.21 8.21 0 0 0-4.51 0 29.91 29.91 0 0 0-.49 6.54v14.81c0 5.87 4.38 7.16 6.89 7.22a11.9 11.9 0 0 0 5.51-.94 3.47 3.47 0 0 0 0-1.59 2 2 0 0 0-.61-1.35zm-48.56-20.05a19.7 19.7 0 0 0-8.71 2.3c-1.41 3.36-1.55 8.66-1.55 12v1.9c0 6.45 4.73 7.78 10 7.78a12.09 12.09 0 0 0 5.35-1.28 20.28 20.28 0 0 1-.66 5.22 11.6 11.6 0 0 1-4.82 1 19 19 0 0 1-7.51-1.37 7.94 7.94 0 0 0-1.59 3.8 20.46 20.46 0 0 0 9.15 1.86 16.88 16.88 0 0 0 9.11-2.42 41.28 41.28 0 0 0 1.41-11v-12c.03-6.28-4.48-7.79-10.18-7.79zm5.21 18.41a11.38 11.38 0 0 1-10.4 0v-12.87a11.38 11.38 0 0 1 10.4 0zm18.3-18.41a19.7 19.7 0 0 0-8.71 2.3c-1.41 3.36-1.55 8.66-1.55 12v1.72c0 6.41 5.44 7.69 8.31 7.69a10.57 10.57 0 0 0 7.38-2.65l.4 2.17a8.24 8.24 0 0 0 4 0 53.12 53.12 0 0 0 .35-6.14v-9.3c.03-6.28-4.48-7.79-10.18-7.79zm5.18 17.33a8.83 8.83 0 0 1-5.2 1.94 9.13 9.13 0 0 1-5.2-1.26v-12.47a11.38 11.38 0 0 1 10.4 0zm-42.48-26.7a10.53 10.53 0 0 0-4.55 0v10.61a8.73 8.73 0 0 0-5.17-1.24 19.39 19.39 0 0 0-8.66 2.3c-1.24 2.92-1.5 7.51-1.55 10.65v3.27c0 6.45 4.73 7.78 10.21 7.78a16.2 16.2 0 0 0 8.75-2.39c1.41-3.54 1.46-10.25 1.46-11.67v-14.27a17.71 17.71 0 0 0-.49-5.04zm-4.44 27.78a11.38 11.38 0 0 1-10.4 0v-12.87a11.38 11.38 0 0 1 10.4 0z"/></svg>