<svg xmlns="http://www.w3.org/2000/svg" width="280" height="168" viewBox="0 0 280 168"><defs><style>.cls-1{fill:#f2f2f2;}.cls-2{fill:#c00;}</style></defs><title>product</title><path class="cls-1" d="M0 0h280v168h-280z"/><path class="cls-2" d="M30.33 81.9l5.12-10.9a2.1 2.1 0 0 1 3.91.27l6 19 3.39-7.19a2.1 2.1 0 0 1 1.9-1.21h7.35v-16.65c-3-2.17-9.42-3.67-16.84-3.67s-13.83 1.45-16.86 3.67v16.68zm21.62 4.2l-5.12 10.9a2.1 2.1 0 0 1-1.9 1.21h-.14a2.1 2.1 0 0 1-1.87-1.47l-6-19-3.35 7.16a2.1 2.1 0 0 1-1.9 1.21h-7.37v16.68c3 2.17 9.42 3.67 16.84 3.67s13.86-1.46 16.86-3.68v-16.68z"/><path d="M71 94.14a4.51 4.51 0 0 1 1.56-3 18.19 18.19 0 0 0 8.42 2.2c2.87 0 6.63-1 6.63-4.36 0-3.59-3.21-3.89-6.12-4.06-4.43-.27-10-.85-10-6.6 0-5.21 5.38-7 10.15-7a17.62 17.62 0 0 1 9.2 2.44 3.75 3.75 0 0 1-1.66 2.87 15.77 15.77 0 0 0-7.54-1.83c-2.27 0-6.09.44-6.09 3.48 0 3.35 4.7 2.94 9 3.59 3.72.57 7.17 1.93 7.17 7.07 0 5.75-5.61 7.81-10.76 7.81a20.73 20.73 0 0 1-9.96-2.61zm37.57 6.39l-2-3.92a9.54 9.54 0 0 1-2.2.27c-4 0-10.35-.57-10.35-8.08v-3.29c0-3.52.24-8.19 1.56-11.91a18.92 18.92 0 0 1 8.79-2.4c6.22 0 10.32 1.83 10.32 8v3.31c0 3.55-.37 9.1-1.62 11.94-.88.41-1.79.81-2.71 1.18l.91 1.69a10.1 10.1 0 0 1 1.15 3.18 9.73 9.73 0 0 1-1.86.2 10.74 10.74 0 0 1-1.99-.17zm2-9v-15.35c-1.22-1-3.72-1.52-6.22-1.52s-5 .51-6.22 1.52v15.66a9.54 9.54 0 0 0 5.78 1.56c2.53-.01 5.17-.65 6.66-1.87zm8.15 4.71a13.36 13.36 0 0 1-.41-4v-16.7a13.47 13.47 0 0 1 .41-4 14 14 0 0 1 1.89-.17 12.24 12.24 0 0 1 1.83.17v21.55a31.18 31.18 0 0 0 3.65.14h9.1a8.73 8.73 0 0 1 .17 1.56 9.83 9.83 0 0 1-.17 1.56 11.13 11.13 0 0 1-3.48.37h-5.51a41.67 41.67 0 0 1-7.48-.48zm26.45.27a8.4 8.4 0 0 1-.41-3.15v-17.59a15 15 0 0 1 .41-4.26 13.59 13.59 0 0 1 1.79-.17 11.39 11.39 0 0 1 1.72.17l7.54 12.35 7.37-12.35a11.38 11.38 0 0 1 1.72-.17 13.6 13.6 0 0 1 1.79.17 9.22 9.22 0 0 1 .37 3.18v17.59a16.14 16.14 0 0 1-.37 4.23 11 11 0 0 1-2 .17 8.54 8.54 0 0 1-1.76-.17v-18.1l-6.24 10.82a2.48 2.48 0 0 1-.91.14 2.79 2.79 0 0 1-.95-.14l-6.36-10.89v18.17a8.13 8.13 0 0 1-1.76.17 11 11 0 0 1-1.95-.17zm25.83-5.38v-1.46c0-2.57.1-6.63 1.18-9.2a15.08 15.08 0 0 1 6.66-1.76c4.36 0 7.81 1.15 7.81 6v1.42c0 .81 0 6.29-1.12 9.17a12.48 12.48 0 0 1-6.7 1.83c-4.24-.05-7.83-1.06-7.83-6zm11.77 1.69v-9.88a6.92 6.92 0 0 0-4-.95 7.06 7.06 0 0 0-4 .95v9.88a8.74 8.74 0 0 0 7.91 0zm6.97 3.69a12.43 12.43 0 0 1-.37-3.69v-3.15c0-2.57.07-6.63 1.18-9.2a14.84 14.84 0 0 1 6.63-1.76c4.4 0 7.81 1.15 7.81 6v8a11.51 11.51 0 0 1-.37 3.86 7.1 7.1 0 0 1-1.62.2 9.73 9.73 0 0 1-1.86-.2v-11.7c0-2.37-1.89-2.84-3.86-2.84a7.56 7.56 0 0 0-3.38.74 24.64 24.64 0 0 0-.68 6.53v7.2a9.73 9.73 0 0 1-1.86.2 7.1 7.1 0 0 1-1.62-.19zm22.6-24.76v3.92a3.72 3.72 0 0 1-1.93.41 4.12 4.12 0 0 1-2-.41v-3.92a4.12 4.12 0 0 1 2-.41 3.72 3.72 0 0 1 1.93.41zm-.41 7.78a12.28 12.28 0 0 1 .41 3.82v9.17a27.43 27.43 0 0 1-.2 4 6.54 6.54 0 0 1-1.66.2 8 8 0 0 1-1.83-.2 38.77 38.77 0 0 1-.2-4v-9.2a12.27 12.27 0 0 1 .41-3.82 5.62 5.62 0 0 1 1.56-.24 4.91 4.91 0 0 1 1.51.27zm3.96 12v-11.33a22.86 22.86 0 0 1 .37-5 5.76 5.76 0 0 1 1.72-.27 8.11 8.11 0 0 1 1.72.24v4.33h4.4a5.11 5.11 0 0 1 0 3.28h-4.4v8.56c0 2.13 1.25 2.84 3.65 2.84.47 0 1 0 1.56-.07a1.49 1.49 0 0 1 .51 1 4.32 4.32 0 0 1 .07.58 1.87 1.87 0 0 1-.1.68 9.67 9.67 0 0 1-4 .71c-1.88 0-5.5-.88-5.5-5.55zm11.19-.4v-1.46c0-2.57.1-6.63 1.18-9.2a15.08 15.08 0 0 1 6.66-1.76c4.36 0 7.81 1.15 7.81 6v1.42c0 .81 0 6.29-1.12 9.17a12.48 12.48 0 0 1-6.7 1.83c-4.21-.05-7.83-1.06-7.83-6zm11.77 1.69v-9.88a6.92 6.92 0 0 0-4-.95 7.06 7.06 0 0 0-4 .95v9.88a8.74 8.74 0 0 0 7.91 0zm7.04 3.69a9.8 9.8 0 0 1-.37-3.28v-3.49c0-2.57.07-6.66 1.18-9.23a15.63 15.63 0 0 1 7-1.72 18.47 18.47 0 0 1 1.93.14 7.73 7.73 0 0 1 .07.85 4.42 4.42 0 0 1-.7 2.42 10 10 0 0 0-1.42-.1 8.93 8.93 0 0 0-3.55.74 24.78 24.78 0 0 0-.68 6.53v7.14a9.84 9.84 0 0 1-1.66.17 13.54 13.54 0 0 1-1.8-.17z"/></svg>