<?xml version="1.0" encoding="UTF-8"?>
<svg id="Layer_1" data-name="Layer 1" xmlns="http://www.w3.org/2000/svg" version="1.1" viewBox="0 0 280 168">
  <defs>
    <style>
      .cls-1 {
        fill: #000;
      }

      .cls-1, .cls-2, .cls-3 {
        stroke-width: 0px;
      }

      .cls-2 {
        fill: #f2f2f2;
      }

      .cls-3 {
        fill: #c00;
      }
    </style>
  </defs>
  <path class="cls-2" d="M0,0h280v168H0V0Z"/>
  <g>
    <g>
      <path class="cls-3" d="M29.3,82.3l4.2-9c.3-.6,1-1,1.7-1s1.3.5,1.5,1.2l4.9,15.7,2.8-6c.3-.6.9-1,1.6-1h6.1v-13.8c-2.5-1.8-7.8-3-14-3s-11.4,1.2-14,3v13.8h5Z"/>
      <path class="cls-3" d="M47.2,85.7l-4.2,9c-.3.6-.9,1-1.6,1s0,0-.1,0c-.7,0-1.3-.5-1.5-1.2l-4.9-15.7-2.8,6c-.3.6-.9,1-1.6,1h-6.1v13.8c2.5,1.8,7.8,3,14,3s11.4-1.2,14-3v-13.8h-5Z"/>
    </g>
    <g>
      <path class="cls-1" d="M63.9,94.4c-.3-.9-.3-1.8-.3-2.7v-2.9c0-2.1,0-5.5,1-7.7,1.8-.9,3.7-1.4,5.8-1.4s1.1,0,1.6.1c0,.3,0,.5,0,.7,0,.7-.2,1.4-.6,2-.4,0-.8,0-1.2,0-1,0-2,.2-2.9.6-.5,1.6-.6,4-.6,5.4v5.9c-.5,0-.9.1-1.4.1s-.9,0-1.5-.1h0Z"/>
      <path class="cls-1" d="M73,89.9v-1.9c0-2,.4-5,1.2-6.9,1.9-1,3.7-1.5,5.4-1.5,3.6,0,6.3,1.1,6.3,4.9s-.3,3-.7,4c-1.2.1-2.9.3-4.5.3s-3.1,0-4.5-.3v1.2c0,2.2,2.1,2.3,3.9,2.3s3.1-.2,4.5-.7c.4.5.6,1,.6,1.6s0,.3,0,.4c-1.6.9-3.5,1.4-5.6,1.4-3.5,0-6.6-.8-6.6-4.9h0ZM82.5,86.2c.2-.5.2-1.1.2-1.6,0-1.9-1.6-2.3-3.2-2.3s-1.8.3-2.8.7c-.3.8-.5,2-.5,3.1,1.3.3,2.3.3,3.4.3s2.1,0,2.9-.3h0Z"/>
      <path class="cls-1" d="M87.7,89.9v-2.1c0-2,.2-4.9,1-6.8,2-1,3.8-1.5,5.5-1.5s2.5.2,3.3.8v-6.7c.5-.1,1-.2,1.5-.2s.9,0,1.4.2c.3,1.1.3,2.1.3,3.2v9.1c0,.9,0,5.2-.9,7.4-1.6,1-3.4,1.5-5.6,1.5-3.5,0-6.5-.8-6.5-4.9h0ZM97.4,91.3v-8.2c-.7-.5-2-.8-3.3-.8s-2.6.3-3.3.8v8.2c.6.5,2,.8,3.3.8s2.6-.3,3.3-.8Z"/>
      <path class="cls-1" d="M103.5,99.5c.1-.9.5-1.8,1-2.4,1.9.8,3.4.9,4.8.9s2.2-.2,3.1-.6c.3-.6.4-2.2.4-3.3-1,.5-2.2.8-3.4.8-3.4,0-6.4-.8-6.4-4.9s.2-7,1-8.8c2.1-1,3.8-1.5,5.5-1.5,3.6,0,6.5,1,6.5,4.9v7.7c0,2.5-.3,5-.9,7-1.4.8-3.1,1.5-5.8,1.5s-3.7-.3-5.8-1.2h0ZM112.7,91.3v-8.2c-.7-.6-2-.8-3.3-.8s-2.6.3-3.3.8v8.2c.7.5,2,.8,3.3.8s2.7-.3,3.3-.8Z"/>
      <path class="cls-1" d="M117.9,89.8v-1.1c0-2.1,0-5.5,1-7.6,2.1-1,3.8-1.5,5.5-1.5,3.6,0,6.5,1,6.5,4.9v5.9c0,1.5-.1,3-.2,3.9-.4.1-.8.2-1.2.2s-.8,0-1.4-.2l-.3-1.4c-1,1-2.8,1.7-4.7,1.7s-5.3-.8-5.3-4.9h0ZM127.7,90.5v-7.3c-.6-.5-2-.8-3.3-.8s-2.7.3-3.3.8v7.9c.7.6,1.6.8,2.6.8,1.4,0,2.9-.5,4-1.4Z"/>
      <path class="cls-1" d="M133.2,90.2v-9.4c0-1.3,0-2.8.3-4.1.4-.1.9-.2,1.4-.2s.9,0,1.4.2v3.6h3.6c.1.4.2.9.2,1.3s0,.9-.2,1.4h-3.6v7.1c0,1.8,1,2.4,3,2.4s.8,0,1.3,0c0,0,.3.2.4.8,0,.2,0,.3,0,.5,0,.4,0,.6,0,.6-.4.2-1.5.6-3.3.6s-4.6-.7-4.6-4.6h0Z"/>
      <path class="cls-1" d="M142.4,89.9v-1.9c0-2,.4-5,1.2-6.9,1.9-1,3.7-1.5,5.4-1.5,3.6,0,6.3,1.1,6.3,4.9s-.3,3-.7,4c-1.2.1-2.9.3-4.5.3s-3.1,0-4.5-.3v1.2c0,2.2,2.1,2.3,3.9,2.3s3.1-.2,4.5-.7c.4.5.6,1,.6,1.6s0,.3,0,.4c-1.6.9-3.5,1.4-5.6,1.4-3.5,0-6.6-.8-6.6-4.9h0ZM151.9,86.2c.2-.5.2-1.1.2-1.6,0-1.9-1.6-2.3-3.2-2.3s-1.8.3-2.8.7c-.3.8-.5,2-.5,3.1,1.3.3,2.3.3,3.4.3s2.1,0,2.9-.3h0Z"/>
      <path class="cls-1" d="M164.1,94.4c-.3-.9-.3-1.7-.3-2.6v-14.6c0-1.2,0-2.4.3-3.5.6,0,1.1-.1,1.5-.1s.9,0,1.4.1l6.3,10.2,6.1-10.2c.6,0,1-.1,1.4-.1s.9,0,1.5.1c.3.9.3,1.7.3,2.6v14.6c0,1.2,0,2.4-.3,3.5-.6.1-1.1.1-1.6.1s-.9,0-1.5-.1v-15s-5.2,9-5.2,9c-.2,0-.5.1-.8.1s-.6,0-.8-.1l-5.3-9v15.1c-.5.1-1,.1-1.5.1s-1,0-1.6-.1h0Z"/>
      <path class="cls-1" d="M185.5,89.9v-1.2c0-2.1,0-5.5,1-7.6,2.1-1,3.8-1.5,5.5-1.5,3.6,0,6.5,1,6.5,4.9v1.2c0,.7,0,5.2-.9,7.6-1.6,1-3.4,1.5-5.6,1.5-3.5,0-6.5-.8-6.5-4.9h0ZM195.2,91.3v-8.2c-.7-.5-2-.8-3.3-.8s-2.6.3-3.3.8v8.2c.6.5,2,.8,3.3.8s2.6-.3,3.3-.8Z"/>
      <path class="cls-1" d="M201,94.4c-.3-1-.3-2-.3-3.1v-2.6c0-2.1,0-5.5,1-7.6,2-1,3.8-1.5,5.5-1.5,3.6,0,6.5,1,6.5,4.9v6.6c0,1.1,0,2.1-.3,3.2-.5.1-.9.2-1.3.2s-1,0-1.5-.2v-9.6c0-2-1.6-2.4-3.2-2.4s-1.8.2-2.8.6c-.5,1.5-.6,4-.6,5.4v6c-.6.1-1.1.2-1.5.2s-.9,0-1.3-.2h0Z"/>
      <path class="cls-1" d="M219.8,73.8v3.3c-.3.2-1,.3-1.6.3s-1.3-.1-1.6-.3v-3.3c.4-.2,1-.3,1.6-.3s1.3.1,1.6.3ZM219.4,80.3c.3,1.1.3,2.1.3,3.2v7.6c0,1.1,0,2.1-.2,3.3-.4.1-.9.2-1.4.2s-1,0-1.5-.2c-.1-1.1-.2-2.2-.2-3.3v-7.6c0-1.1,0-2.1.3-3.2.5-.1.9-.2,1.3-.2s.8,0,1.3.2h0Z"/>
      <path class="cls-1" d="M222.7,90.2v-9.4c0-1.3,0-2.8.3-4.1.4-.1.9-.2,1.4-.2s.9,0,1.4.2v3.6h3.6c.1.4.2.9.2,1.3s0,.9-.2,1.4h-3.6v7.1c0,1.8,1,2.4,3,2.4s.8,0,1.3,0c0,0,.3.2.4.8,0,.2,0,.3,0,.5,0,.4,0,.6,0,.6-.4.2-1.5.6-3.3.6s-4.6-.7-4.6-4.6h0Z"/>
      <path class="cls-1" d="M232,89.9v-1.2c0-2.1,0-5.5,1-7.6,2.1-1,3.8-1.5,5.5-1.5,3.6,0,6.5,1,6.5,4.9v1.2c0,.7,0,5.2-.9,7.6-1.6,1-3.4,1.5-5.6,1.5-3.5,0-6.5-.8-6.5-4.9h0ZM241.7,91.3v-8.2c-.7-.5-2-.8-3.3-.8s-2.6.3-3.3.8v8.2c.6.5,2,.8,3.3.8s2.6-.3,3.3-.8Z"/>
      <path class="cls-1" d="M247.6,94.4c-.3-.9-.3-1.8-.3-2.7v-2.9c0-2.1,0-5.5,1-7.7,1.8-.9,3.7-1.4,5.8-1.4s1.1,0,1.6.1c0,.3,0,.5,0,.7,0,.7-.2,1.4-.6,2-.4,0-.8,0-1.2,0-1,0-2,.2-2.9.6-.5,1.6-.6,4-.6,5.4v5.9c-.5,0-.9.1-1.4.1s-.9,0-1.5-.1h0Z"/>
    </g>
  </g>
</svg>