<?xml version="1.0" encoding="utf-8"?>
<!-- Generator: Adobe Illustrator 24.0.0, SVG Export Plug-In . SVG Version: 6.00 Build 0)  -->
<svg version="1.1" id="Layer_1" xmlns="http://www.w3.org/2000/svg" xmlns:xlink="http://www.w3.org/1999/xlink" x="0px" y="0px"
	 width="280px" height="168px" viewBox="0 0 280 168" style="enable-background:new 0 0 280 168;" xml:space="preserve">
<style type="text/css">
	.st0{fill:#F2F2F2;}
	.st1{fill:#CC0000;}
</style>
<title>logo</title>
<path class="st0" d="M0,1h280v168H0V1z"/>
<g>
	<g>
		<g>
			<polygon class="st1" points="42.5,81.1 31,80.8 35,85 42.5,84.8 			"/>
			<polygon class="st1" points="40.8,91.1 42.5,90.9 42.5,87.3 37.5,87.6 			"/>
			<polygon class="st1" points="19.1,93.4 37.8,91.4 34.2,87.8 19.1,88.7 			"/>
			<polygon class="st1" points="27.2,80.7 19.1,80.5 19.1,85.4 31.5,85.1 			"/>
			<polygon class="st1" points="28.2,77.8 42.5,78.6 42.5,75 23.7,73 			"/>
			<polygon class="st1" points="19.1,72.5 19.1,77.3 24.1,77.5 19.1,72.5 			"/>
		</g>
		<path class="st1" d="M43.5,93.6c0.4-0.1,1-0.6,1-1.5V73.8c0-0.9-0.5-1.4-1-1.5l-24.4-3.5v-3.1c2.8-2,8.6-3.3,15.4-3.3
			s12.6,1.4,15.4,3.3v34.3c-2.8,2-8.6,3.3-15.4,3.3s-12.6-1.4-15.4-3.3V97L43.5,93.6"/>
	</g>
</g>
<g>
	<path d="M173.1,85.6c-1.7,0-4.4-0.1-6.4-0.4v1.8c0,3.1,3.1,3.3,5.6,3.3c1.8,0,4.4-0.3,6.5-1c0.7,0.9,0.9,1.9,0.8,2.9
		c-2.3,1.3-5,2-8.1,2c-5,0-9.4-1.2-9.4-7.1v-2.7c0-2.9,0.6-7.1,1.7-9.9c2.7-1.5,5.3-2.2,7.7-2.2c5.2,0,9,1.6,9,7.1
		c0,1.4-0.4,4.3-1,5.8C177.8,85.3,175.4,85.6,173.1,85.6z M171.5,76.2c-1.4,0-2.7,0.4-4,1c-0.4,1.2-0.7,2.9-0.8,4.4
		c1.8,0.5,3.3,0.5,4.8,0.5c1.8,0,3.1-0.1,4.2-0.4c0.2-0.8,0.3-1.5,0.3-2.3C176.1,76.7,173.9,76.2,171.5,76.2z"/>
	<path d="M246.4,87.5v6.3c-1.3,0.4-2.9,0.4-4.2,0c-0.4-0.9-0.5-2.1-0.5-3.5V67.5c0-1.4,0.2-2.7,0.5-3.5c1-0.3,3-0.4,4.2,0v18.3
		l3.2-2.7c2.1-1.8,3.8-3.5,5.1-6.2c1.6-0.3,3.1-0.3,4.7,0c-0.4,2.7-3.2,5.8-5.5,7.9l5.6,8.9c0.6,1,1.1,2.4,1.4,3.5
		c-1.4,0.4-3.5,0.4-4.8,0l-5.7-9.6L246.4,87.5z"/>
	<path d="M111.3,93.9c-0.2-1.4-0.2-2.8-0.2-4.2v-5.8c0-2.2,0.1-4.2,0.2-6.3c-0.9-0.7-2.4-1-3.9-1c-1.4,0-2.8,0.2-4.2,0.8
		c-0.8,3.1-0.8,7.1-0.8,9.4v7.1c-1.2,0.3-2.7,0.3-4.1,0c-0.5-1.4-0.5-2.9-0.5-4.3v-4.8c0-2.4,0.3-7.1,1.4-10c3-1.5,5.8-2.1,8.2-2.1
		c2.4,0,4.6,0.3,6.2,1.3c2.1-1,4-1.3,5.7-1.3c5.2,0,9.5,1.4,9.5,7.1v9.8c0,1.3,0,2.7-0.5,4.3c-1.3,0.3-2.9,0.2-4.2,0V79.8
		c0-2.8-2.4-3.1-4.8-3.1c-1.2,0-2.6,0.2-4,1c0,2,0,4.2,0,6.2v5.8c0,1.3,0,2.7-0.2,4.3C113.8,94.2,112.6,94.2,111.3,93.9z"/>
	<path d="M141.5,72.2c-2.4,0-5,0.6-7.9,2.1c-1.5,3.6-1.4,9.4-1.4,11.9V98c0,1.4,0,2.8,0.4,4.2c1.7,0.3,2.7,0.2,4.2,0v-9.4
		c1,1,2.9,1.3,4.7,1.3c3.1,0,5.7-0.8,8-2.2c1.3-3.4,1.3-10,1.3-10.9v-1.7C150.8,73.6,146.7,72.2,141.5,72.2z M146.2,89
		c-0.8,0.7-2.6,1.1-4.7,1.1c-2.1,0-3.9-0.5-4.7-1.1V77.3c0.8-0.7,2.6-1.1,4.7-1.1c2.1,0,3.9,0.5,4.7,1.1V89z"/>
	<path d="M218.9,72.5c-2.4,0-5,0.6-7.9,2.1c-1.3,3.1-1.4,7.9-1.4,11v1.6c0,5.8,5,7,7.6,7c2.7,0,5.3-0.9,6.7-2.4l0.4,2
		c1.5,0.3,2.4,0.3,3.7,0c0.2-1.3,0.3-3.4,0.3-5.6v-8.5C228.2,73.8,224.1,72.5,218.9,72.5z M223.6,88.1c-0.9,0.7-2.7,2-4.7,2
		c-2.1,0-3.9-0.5-4.7-1.1V77.5c0.9-0.7,2.7-1.1,4.7-1.1c2.1,0,3.9,0.5,4.7,1.1V88.1z"/>
	<path d="M153.9,89.2V68.9c0-1.6,0-3.1,0.5-4.7c1.4-0.3,2.6-0.3,4,0c0.4,1.6,0.4,3.1,0.4,4.7v20.2c0,1.5,0,3-0.2,4.8
		c-1.3,0.3-3.1,0.3-4.4,0C154,92.3,153.9,90.7,153.9,89.2z"/>
	<path d="M73.2,90c3.4,0,7.9-1.3,7.9-5.2c0-4.3-3.8-4.6-7.3-4.8c-5.3-0.3-11.9-1-11.9-7.9c0-6.2,6.4-8.3,12.1-8.3
		c4.4,0,7.6,1,11,2.9c-0.2,1.4-0.8,2.7-2,3.4c-3.1-1.6-6-2.2-9-2.2c-2.7,0-7.3,0.5-7.3,4.2c0,4,5.6,3.5,10.7,4.3
		c4.4,0.7,8.5,2.3,8.5,8.4c0,6.9-6.7,9.3-12.8,9.3c-4,0-8.1-1-11.9-3.1c0.2-1.5,0.9-2.9,1.9-3.6C66.5,89.2,70.2,90,73.2,90z"/>
	<path d="M199.6,88.2V68.5h-5.3c-1.2,0-2.3,0-3.5-0.4c-0.3-1.5-0.3-2.6,0-4h22.5c0.2,1.3,0.3,2.4,0,4c-1.1,0.4-2.3,0.4-3.5,0.4h-5.3
		v19.7c0,1.8,0,3.6-0.3,5.6c-1.3,0.4-3,0.3-4.4,0C199.6,92,199.6,90.2,199.6,88.2z"/>
	<g>
		<g>
			<path d="M89.5,89.2v-11c0-1.6,0-3,0.5-4.6c1.4-0.4,2.3-0.4,3.7,0c0.5,1.6,0.5,3,0.5,4.6v11c0,1.5,0,3-0.2,4.8
				c-1.3,0.3-2.8,0.3-4.2,0C89.6,92.3,89.5,90.7,89.5,89.2z"/>
		</g>
		<path d="M94.1,64.3c-0.4-0.3-1.3-0.5-2.3-0.5s-1.9,0.2-2.3,0.5v4.6c0.4,0.3,1.3,0.5,2.3,0.5s1.9-0.2,2.3-0.5V64.3z"/>
	</g>
	<path d="M232.5,89.2V68.9c0-1.6,0-3.1,0.5-4.7c1.4-0.3,2.6-0.3,4,0c0.4,1.6,0.4,3.1,0.4,4.7v20.2c0,1.5,0,3-0.2,4.8
		c-1.3,0.3-3.1,0.3-4.4,0C232.6,92.3,232.5,90.7,232.5,89.2z"/>
</g>
</svg>
