<svg xmlns="http://www.w3.org/2000/svg" width="232.32" height="80" viewBox="0 0 232.32 80"><defs><style>.cls-1{fill:#c00;}</style></defs><title>sql-change-automation</title><path d="M72.06 19.7a2.85 2.85 0 0 1 1-1.92 11.34 11.34 0 0 0 5.29 1.39c1.82 0 4.18-.65 4.18-2.75s-2-2.45-3.86-2.56c-2.8-.17-6.29-.53-6.29-4.16 0-3.28 3.4-4.39 6.4-4.39a11.12 11.12 0 0 1 5.79 1.53 2.36 2.36 0 0 1-1 1.82 9.87 9.87 0 0 0-4.8-1.16c-1.43 0-3.83.28-3.83 2.19s3 1.87 5.65 2.28c2.35.36 4.52 1.22 4.52 4.45 0 3.63-3.53 4.92-6.77 4.92a13 13 0 0 1-6.28-1.64zm23.94 4.02l-1.28-2.47a5.88 5.88 0 0 1-1.39.17c-2.51 0-6.51-.36-6.51-5.09v-2.06a23.76 23.76 0 0 1 1-7.5 12 12 0 0 1 5.53-1.52c3.92 0 6.5 1.16 6.5 5.05v2.09c0 2.24-.23 5.73-1 7.52-.55.25-1.13.51-1.71.75l.58 1.06a6.22 6.22 0 0 1 .72 2 5.81 5.81 0 0 1-1.17.12 6.43 6.43 0 0 1-1.27-.12zm1.25-5.67v-9.66a6.71 6.71 0 0 0-3.92-1 6.8 6.8 0 0 0-3.92 1v9.86a6 6 0 0 0 3.64 1 7.27 7.27 0 0 0 4.2-1.18zm5.3 2.95a8.61 8.61 0 0 1-.25-2.54v-10.46a8.61 8.61 0 0 1 .25-2.53 11.76 11.76 0 0 1 1.18-.11 7.36 7.36 0 0 1 1.16.11v13.6a19.64 19.64 0 0 0 2.3.07h5.73a5.56 5.56 0 0 1 .11 1 6.39 6.39 0 0 1-.11 1 6.83 6.83 0 0 1-2.19.24h-3.46a28 28 0 0 1-4.72-.38zm-29.64 18.48v-3a34.37 34.37 0 0 1 1.4-10.8 17.27 17.27 0 0 1 8-2.17 14.6 14.6 0 0 1 6.56 1.31 4 4 0 0 1-.87 2.68 16.33 16.33 0 0 0-5.73-.83 10.7 10.7 0 0 0-4.78 1.14 33.33 33.33 0 0 0-.86 8.72v3c0 3.41 2.32 4.17 5.64 4.17a17.13 17.13 0 0 0 5.92-1.31 4.64 4.64 0 0 1 1 2.77 15 15 0 0 1-6.9 1.71c-3.6-.04-9.38-.57-9.38-7.39zm18.78 7a10.86 10.86 0 0 1-.35-3.34v-16.47a7.89 7.89 0 0 1 .35-2.83 6.1 6.1 0 0 1 1.59-.22 5.82 5.82 0 0 1 1.56.22v7.21a9.62 9.62 0 0 1 3.6-.71c4 0 7.09 1.05 7.09 5.41v7.25a10.4 10.4 0 0 1-.34 3.5 5.65 5.65 0 0 1-1.47.19 9.72 9.72 0 0 1-1.69-.19v-10.56c0-2.14-1.72-2.58-3.5-2.58a10.53 10.53 0 0 0-3.69.83v12.29a9.07 9.07 0 0 1-1.65.19 5.82 5.82 0 0 1-1.5-.19zm16.42-5v-1.2c0-2.33.09-6 1.08-8.34a13.57 13.57 0 0 1 6-1.6c4 0 7.1 1.05 7.1 5.41v6.47a35.8 35.8 0 0 1-.25 4.26 4.32 4.32 0 0 1-1.28.19 7.51 7.51 0 0 1-1.5-.19l-.26-1.48a7.34 7.34 0 0 1-5.13 1.85c-2.04-.02-5.76-.91-5.76-5.37zm10.67.77v-8a6.2 6.2 0 0 0-3.59-.86 6.34 6.34 0 0 0-3.63.86v8.65a4.54 4.54 0 0 0 2.83.9 7.61 7.61 0 0 0 4.39-1.55zm6.22 4.23a11.17 11.17 0 0 1-.34-3.34v-2.86c0-2.33.06-6 1.08-8.34a13.36 13.36 0 0 1 6-1.6c4 0 7.1 1.05 7.1 5.41v7.25a10.16 10.16 0 0 1-.35 3.5 5.59 5.59 0 0 1-1.47.19 9.61 9.61 0 0 1-1.68-.19v-10.56c0-2.14-1.72-2.58-3.5-2.58a6.91 6.91 0 0 0-3.07.67 22.88 22.88 0 0 0-.61 5.92v6.53a9.61 9.61 0 0 1-1.68.19 5.8 5.8 0 0 1-1.48-.19zm16.92 5.63a5.51 5.51 0 0 1 1.08-2.64 13.19 13.19 0 0 0 5.22 1 8.08 8.08 0 0 0 3.34-.67 13.42 13.42 0 0 0 .46-3.62 8.42 8.42 0 0 1-3.72.89c-3.69 0-7-.93-7-5.41 0-5.19.25-7.7 1.08-9.67a13.57 13.57 0 0 1 6-1.6c4 0 7.1 1.05 7.1 5.41v8.38a28.18 28.18 0 0 1-1 7.6 11.6 11.6 0 0 1-6.32 1.66 14.36 14.36 0 0 1-6.24-1.33zm10.13-9v-8.89a6.06 6.06 0 0 0-3.6-.89 6.3 6.3 0 0 0-3.65.89v8.92a6.4 6.4 0 0 0 3.59.86 6.73 6.73 0 0 0 3.66-.86zm5.76-1.5v-2.09a21.55 21.55 0 0 1 1.32-7.52 12.49 12.49 0 0 1 5.87-1.66c4 0 6.84 1.24 6.84 5.41a15.28 15.28 0 0 1-.73 4.39 42.91 42.91 0 0 1-4.94.38 30.28 30.28 0 0 1-4.88-.35v1.35c0 2.39 2.33 2.51 4.3 2.51a16.4 16.4 0 0 0 4.94-.8 2.84 2.84 0 0 1 .61 1.75 2.69 2.69 0 0 1 0 .49 12.46 12.46 0 0 1-6.14 1.53c-3.81 0-7.19-.91-7.19-5.39zm10.44-4a6 6 0 0 0 .25-1.75c0-2.09-1.72-2.48-3.5-2.48a6.46 6.46 0 0 0-3 .8 14 14 0 0 0-.58 3.34 12.9 12.9 0 0 0 3.69.38 15.39 15.39 0 0 0 3.17-.29z"/><path class="cls-1" d="M44 52.59a18.66 18.66 0 0 1-13 6.24h-1a18.78 18.78 0 0 1-12.59-4.83 18.35 18.35 0 0 1-2.74-3l-14.67 6.59v15.88c5.39 3.86 16.78 6.53 30 6.53s24.61-2.67 30-6.53v-42.85l-11.61 5.22a18.87 18.87 0 0 1-4.39 16.75zm-14-52.59c-13.22 0-24.61 2.67-30 6.53v42.85l11.61-5.22a19.61 19.61 0 0 1-.44-3.16 18.85 18.85 0 0 1 31.42-15 18.19 18.19 0 0 1 2.72 3l14.69-6.59v-15.88c-5.39-3.86-16.78-6.53-30-6.53zm-7.59 48.45a11.36 11.36 0 1 0-.86-16 11.36 11.36 0 0 0 .86 16z"/><path d="M90.25 71.75l-1.56-4.25h-10l-1.54 4.25a8.14 8.14 0 0 1-1.75.16 8.93 8.93 0 0 1-1.79-.16 7.64 7.64 0 0 1 .54-2.84l7.6-19.69a12.21 12.21 0 0 1 3.94 0l7.51 19.69a6.52 6.52 0 0 1 .58 2.84 8.29 8.29 0 0 1-3.53 0zm-2.48-7.25l-4.1-11.06-4.12 11.06zm7.79 2.5v-6.69a19.2 19.2 0 0 1 .44-3.94 6.28 6.28 0 0 1 1.5-.18 7.82 7.82 0 0 1 1.63.18v10.43c0 2.11 1.86 2.53 3.58 2.53a7.28 7.28 0 0 0 3-.7 22.76 22.76 0 0 0 .54-5.82v-6.45a7.17 7.17 0 0 1 1.66-.19 9.83 9.83 0 0 1 1.86.22v6.67c0 1.16-.13 5.35-1 7.61a11.33 11.33 0 0 1-6 1.63c-3.9 0-7.21-.93-7.21-5.3zm17.44.28v-10.28a20.49 20.49 0 0 1 .34-4.53 5.06 5.06 0 0 1 1.57-.25 7 7 0 0 1 1.56.22v3.9h4a5.1 5.1 0 0 1 .25 1.47 5 5 0 0 1-.25 1.5h-4v7.74c0 1.92 1.12 2.56 3.29 2.56.43 0 .89 0 1.41-.06a1.33 1.33 0 0 1 .45.92 2.88 2.88 0 0 1 .07.52 1.51 1.51 0 0 1-.1.6 8.56 8.56 0 0 1-3.61.65 4.62 4.62 0 0 1-4.98-4.96zm10.39-.36v-1.31c0-2.33.09-6 1.06-8.31a13.69 13.69 0 0 1 6-1.6c3.94 0 7.06 1 7.06 5.38v1.28c0 .73 0 5.69-1 8.28a11.42 11.42 0 0 1-6.05 1.66c-3.8 0-7.07-.93-7.07-5.38zm10.61 1.52v-8.92a6.25 6.25 0 0 0-3.58-.86 6.43 6.43 0 0 0-3.58.86v8.92a6.56 6.56 0 0 0 3.58.86 6.35 6.35 0 0 0 3.58-.86zm6.7 3.34a9.18 9.18 0 0 1-.39-3.23v-3.64a25.84 25.84 0 0 1 1.05-7.61 14.65 14.65 0 0 1 6.23-1.6 8.91 8.91 0 0 1 4.71 1 10.16 10.16 0 0 1 4.34-1c4 0 7.22 1 7.22 5.38v7.45a9.72 9.72 0 0 1-.39 3.24 6.06 6.06 0 0 1-1.5.15 10.21 10.21 0 0 1-1.69-.15v-10.71c0-2.14-1.83-2.39-3.61-2.39a6.32 6.32 0 0 0-3 .74v9.11a17.61 17.61 0 0 1-.18 3.23 5.31 5.31 0 0 1-1.41.19 6.28 6.28 0 0 1-1.53-.19 21.48 21.48 0 0 1-.19-3.2v-4.41c0-1.66.09-3.16.13-4.76a5.12 5.12 0 0 0-2.94-.74 7.55 7.55 0 0 0-3.19.64 30.26 30.26 0 0 0-.58 7.1v5.37a5.26 5.26 0 0 1-1.5.19 6.47 6.47 0 0 1-1.58-.16zm26.02-4.98v-1.19c0-2.33.09-6 1.06-8.31a13.69 13.69 0 0 1 6-1.6c3.93 0 7.06 1 7.06 5.38v6.45a36.87 36.87 0 0 1-.25 4.25 4.51 4.51 0 0 1-1.28.19 6.75 6.75 0 0 1-1.5-.19l-.28-1.5a7.34 7.34 0 0 1-5.11 1.83c-1.95 0-5.7-.88-5.7-5.31zm10.64.76v-8a7.94 7.94 0 0 0-7.19 0v8.62a4.49 4.49 0 0 0 2.81.89 7.54 7.54 0 0 0 4.38-1.51zm6.3-.28v-10.28a20.49 20.49 0 0 1 .34-4.5 5 5 0 0 1 1.56-.25 6.81 6.81 0 0 1 1.56.22v3.9h4a4.78 4.78 0 0 1 .25 1.47 4.72 4.72 0 0 1-.25 1.5h-4v7.74c0 1.92 1.13 2.56 3.3 2.56.42 0 .89 0 1.41-.06a1.33 1.33 0 0 1 .45.92 4 4 0 0 1 .06.52 1.66 1.66 0 0 1-.09.6 8.6 8.6 0 0 1-3.61.65 4.62 4.62 0 0 1-4.98-4.99zm14.48-17.89v3.55a3.36 3.36 0 0 1-1.75.36 3.92 3.92 0 0 1-1.77-.36v-3.55a3.67 3.67 0 0 1 1.77-.36 3.49 3.49 0 0 1 1.75.36zm-.36 7a11.33 11.33 0 0 1 .36 3.46v8.28a24.09 24.09 0 0 1-.19 3.61 6 6 0 0 1-1.5.18 7.45 7.45 0 0 1-1.65-.18 33 33 0 0 1-.19-3.58v-8.28a11.33 11.33 0 0 1 .36-3.46 5.23 5.23 0 0 1 1.41-.22 5.82 5.82 0 0 1 1.4.22zm3.49 10.53v-1.31c0-2.33.09-6 1.06-8.31a13.66 13.66 0 0 1 6-1.6c3.94 0 7.07 1 7.07 5.38v1.28c0 .73 0 5.69-1 8.28a11.39 11.39 0 0 1-6 1.66c-3.87 0-7.13-.93-7.13-5.38zm10.64 1.52v-8.92a6.27 6.27 0 0 0-3.58-.86 6.41 6.41 0 0 0-3.58.86v8.92a6.51 6.51 0 0 0 3.58.86 6.37 6.37 0 0 0 3.58-.86zm6.62 3.34a11.07 11.07 0 0 1-.34-3.33v-2.84c0-2.33.06-6 1.06-8.31a13.45 13.45 0 0 1 6-1.6c4 0 7.06 1 7.06 5.38v7.22a10.09 10.09 0 0 1-.34 3.48 6.12 6.12 0 0 1-1.47.19 8.32 8.32 0 0 1-1.69-.19v-10.51c0-2.15-1.72-2.57-3.48-2.57a7 7 0 0 0-3.06.67 22.38 22.38 0 0 0-.61 5.91v6.52a8.94 8.94 0 0 1-1.66.2 8.38 8.38 0 0 1-1.47-.22z"/></svg>