<svg xmlns="http://www.w3.org/2000/svg" width="24" height="24" viewBox="0 0 24 24"><defs><style>.cls-1{fill:#231f20;}</style></defs><title>hide</title><g id="hide"><path class="cls-1" d="M12,5.73a11.58,11.58,0,0,0-3.83.65L9.93,8.15A4.33,4.33,0,0,1,12,7.61,4.38,4.38,0,0,1,16.38,12,4.33,4.33,0,0,1,15.83,14l2.37,2.37A10,10,0,0,0,22,12,10.76,10.76,0,0,0,12,5.73Z"/><path class="cls-1" d="M12,9.48a2.48,2.48,0,0,0-.64.09l3,3A2.47,2.47,0,0,0,12,9.48Z"/><path class="cls-1" d="M10.12,10.35h0L8.79,9h0l-2-2h0L4.93,5.16l-1,1L5.5,7.76A10,10,0,0,0,2,12a10.76,10.76,0,0,0,10,6.25,11.54,11.54,0,0,0,3.44-.53l2.62,2.62,1-1-7.24-7.24Zm1.88,6A4.38,4.38,0,0,1,7.63,12,4.27,4.27,0,0,1,8,10.25l1.52,1.52c0,.07,0,.14,0,.21a2.5,2.5,0,0,0,2.5,2.5l.21,0L13.73,16A4.27,4.27,0,0,1,12,16.36Z"/></g></svg>