<?xml version="1.0" encoding="utf-8"?>
<!-- Generator: Adobe Illustrator 18.0.0, SVG Export Plug-In . SVG Version: 6.00 Build 0)  -->
<!DOCTYPE svg PUBLIC "-//W3C//DTD SVG 1.1//EN" "http://www.w3.org/Graphics/SVG/1.1/DTD/svg11.dtd">
<svg version="1.1" id="Layer_1" xmlns="http://www.w3.org/2000/svg" xmlns:xlink="http://www.w3.org/1999/xlink" x="0px" y="0px"
	 width="24px" height="24px" viewBox="0 0 24 24" enable-background="new 0 0 24 24" xml:space="preserve">
<g>
	<path fill="none" d="M0,0h24v24H0V0z"/>
	<path d="M12,2C6.5,2,2,6.5,2,12s4.5,10,10,10s10-4.5,10-10S17.5,2,12,2z M6,6c1.6-1.6,3.7-2.5,6-2.5s4.4,0.9,6,2.5h-4.4l-2.3,2.3
		C10.8,8.8,10.3,9,9.7,9C9.3,9,8.9,8.9,8.5,8.6l-2.6,2.6C5.4,11.7,4.7,12,4.1,12c-0.2,0-0.3,0-0.5-0.1C3.6,9.8,4.4,7.7,6,6z
		 M12,20.4c-2.3,0-4.4-0.9-6-2.5c-0.5-0.5-0.9-1.1-1.3-1.7C4.8,16,5,15.8,5.2,15.6c0.7-0.7,1.6-1,2.5-1s1.8,0.3,2.5,1l4.4,4.4
		C13.8,20.3,12.9,20.4,12,20.4z M19.6,15.7h-3.8c-1,0-1.9-0.8-1.9-1.9c0-1,0.8-1.9,1.9-1.9h0.6c0.2-0.9,0.9-1.5,1.8-1.5h2.1
		C20.6,12.2,20.4,14,19.6,15.7z"/>
</g>
</svg>
