<?xml version="1.0" encoding="utf-8"?>
<!-- Generator: Adobe Illustrator 18.0.0, SVG Export Plug-In . SVG Version: 6.00 Build 0)  -->
<!DOCTYPE svg PUBLIC "-//W3C//DTD SVG 1.1//EN" "http://www.w3.org/Graphics/SVG/1.1/DTD/svg11.dtd">
<svg version="1.1" id="Layer_1" xmlns="http://www.w3.org/2000/svg" xmlns:xlink="http://www.w3.org/1999/xlink" x="0px" y="0px"
	 width="24px" height="24px" viewBox="0 0 24 24" enable-background="new 0 0 24 24" xml:space="preserve">
<g>
	<path fill="none" d="M0,0h24v24H0V0z"/>
	<path d="M15,3.8V3.2c-0.6-0.4-1.7-0.6-3-0.6S9.6,2.9,9,3.2v0.6C7.3,4,5.9,4.5,5,5.1v2c1.3,0.8,4,1.5,7,1.5s5.7-0.7,7-1.5v-2
		C18.1,4.5,16.7,4,15,3.8z"/>
	<path d="M18,9.2c-1.5,0.7-3.6,1.1-6,1.1S7.5,9.9,6,9.2l1,11.3c1.2,0.6,3,1.1,5,1.1s3.8-0.4,5-1.1l0,0l0,0L18,9.2z"/>
</g>
</svg>
