<?xml version="1.0" encoding="utf-8"?>
<!-- Generator: Adobe Illustrator 18.0.0, SVG Export Plug-In . SVG Version: 6.00 Build 0)  -->
<!DOCTYPE svg PUBLIC "-//W3C//DTD SVG 1.1//EN" "http://www.w3.org/Graphics/SVG/1.1/DTD/svg11.dtd">
<svg version="1.1" id="Layer_1" xmlns="http://www.w3.org/2000/svg" xmlns:xlink="http://www.w3.org/1999/xlink" x="0px" y="0px"
	 width="24px" height="24px" viewBox="0 0 24 24" enable-background="new 0 0 24 24" xml:space="preserve">
<g>
	<path fill="none" d="M0,0h24v24H0V0z"/>
	<path d="M15.3,12.5c1.3-2.5,0.9-5.5-1.2-7.6C12.9,3.6,11.2,3,9.5,3C7.9,3,6.2,3.6,4.9,4.9c-2.5,2.5-2.5,6.7,0,9.2
		c1.3,1.3,3,1.9,4.6,1.9c1,0,2-0.2,3-0.7l5.7,5.7c0.5-0.1,1.1-0.5,1.7-1.1s1-1.3,1.1-1.7L15.3,12.5z M6.3,12.7
		C5.5,11.9,5,10.7,5,9.5s0.5-2.3,1.3-3.2C7.2,5.5,8.3,5,9.5,5s2.3,0.5,3.2,1.3c0.9,0.9,1.3,2,1.3,3.2s-0.5,2.3-1.3,3.2
		c-0.9,0.9-2,1.3-3.2,1.3S7.2,13.6,6.3,12.7z"/>
</g>
</svg>
