<?xml version="1.0" encoding="utf-8"?>
<!-- Generator: Adobe Illustrator 18.0.0, SVG Export Plug-In . SVG Version: 6.00 Build 0)  -->
<!DOCTYPE svg PUBLIC "-//W3C//DTD SVG 1.1//EN" "http://www.w3.org/Graphics/SVG/1.1/DTD/svg11.dtd">
<svg version="1.1" id="Layer_1" xmlns="http://www.w3.org/2000/svg" xmlns:xlink="http://www.w3.org/1999/xlink" x="0px" y="0px"
	 width="24px" height="24px" viewBox="0 0 24 24" enable-background="new 0 0 24 24" xml:space="preserve">
<path fill="none" d="M0,0h24v24H0V0z"/>
<g>
	<path d="M6,12.7l-3,2.9v1.8c0,1.1,4,2,9,2s9-0.9,9-2v-1.8l-3-2.9V5.5c-0.8-1.2-2-2.1-3.4-2.5V2.7c-0.5-0.8-1.5-1.2-2.6-1.2
		S9.9,2.1,9.4,2.7V3C7.9,3.4,6.7,4.4,6,5.5V12.7z"/>
	<path d="M12,20.5c-0.7,0-1.4,0-2-0.1c0,0,0,0,0,0.1c0,1.1,0.9,2,2,2s2-0.9,2-2c0,0,0,0,0-0.1C13.4,20.4,12.7,20.5,12,20.5z"/>
</g>
</svg>
