<?xml version="1.0" encoding="utf-8"?>
<!-- Generator: Adobe Illustrator 18.0.0, SVG Export Plug-In . SVG Version: 6.00 Build 0)  -->
<!DOCTYPE svg PUBLIC "-//W3C//DTD SVG 1.1//EN" "http://www.w3.org/Graphics/SVG/1.1/DTD/svg11.dtd">
<svg version="1.1" id="Layer_1" xmlns="http://www.w3.org/2000/svg" xmlns:xlink="http://www.w3.org/1999/xlink" x="0px" y="0px"
	 width="24px" height="24px" viewBox="0 0 24 24" enable-background="new 0 0 24 24" xml:space="preserve">
<g>
	<path d="M12,22c-3.2,0-6-0.7-7.4-1.6l0,0v-4.2c1.8,0.9,4.5,1.4,7.4,1.4s5.6-0.5,7.4-1.4v4.2l0,0C18,21.3,15.2,22,12,22z M12,15.8
		c-3.2,0-6-0.7-7.4-1.6l0,0V10c1.8,0.9,4.5,1.4,7.4,1.4s5.6-0.5,7.4-1.4v4.2l0,0C18,15.1,15.2,15.8,12,15.8z M19.4,7.8L19.4,7.8
		L19.4,7.8L19.4,7.8c-1.4,1-4.2,1.7-7.4,1.7S6,8.8,4.6,7.9l0,0V3.7l0,0l0,0l0,0C6,2.7,8.8,2.1,12,2.1s6,0.7,7.4,1.6l0,0V7.8z"/>
	<rect x="0" fill="none" width="24" height="24"/>
</g>
</svg>
