<?xml version="1.0" encoding="utf-8"?>
<!-- Generator: Adobe Illustrator 18.0.0, SVG Export Plug-In . SVG Version: 6.00 Build 0)  -->
<!DOCTYPE svg PUBLIC "-//W3C//DTD SVG 1.1//EN" "http://www.w3.org/Graphics/SVG/1.1/DTD/svg11.dtd">
<svg version="1.1" id="Layer_1" xmlns="http://www.w3.org/2000/svg" xmlns:xlink="http://www.w3.org/1999/xlink" x="0px" y="0px"
	 width="24px" height="24px" viewBox="0 0 24 24" enable-background="new 0 0 24 24" xml:space="preserve">
<g>
	<g>
		<g>
			<path d="M5.7,2.5c0.5,0,1,0.4,1.1,0.9L7,4h14.4c0.2,0,0.3,0.1,0.4,0.2C22,4.4,22,4.6,22,4.7l-3.9,9.8c-0.1,0.2-0.3,0.3-0.5,0.3
				H7.8c-0.2,0-0.5-0.2-0.5-0.4L4.7,4.9H2.3C2.1,4.5,2,4.1,2,3.7l0,0l0,0l0,0c0-0.4,0.1-0.8,0.3-1.2H5.7z"/>
		</g>
		<path d="M17.6,16.8c-1.3,0-2.3,1-2.3,2.3s1,2.3,2.3,2.3c1.3,0,2.3-1,2.3-2.3C19.9,17.9,18.8,16.8,17.6,16.8z"/>
		<path d="M7.9,16.8c-1.3,0-2.3,1-2.3,2.3s1,2.3,2.3,2.3s2.3-1,2.3-2.3C10.3,17.9,9.2,16.8,7.9,16.8z"/>
	</g>
	<rect fill="none" width="24" height="24"/>
</g>
</svg>
