<?xml version="1.0" encoding="utf-8"?>
<!-- Generator: Adobe Illustrator 18.0.0, SVG Export Plug-In . SVG Version: 6.00 Build 0)  -->
<!DOCTYPE svg PUBLIC "-//W3C//DTD SVG 1.1//EN" "http://www.w3.org/Graphics/SVG/1.1/DTD/svg11.dtd">
<svg version="1.1" id="Layer_1" xmlns="http://www.w3.org/2000/svg" xmlns:xlink="http://www.w3.org/1999/xlink" x="0px" y="0px"
	 width="24px" height="24px" viewBox="0 0 24 24" enable-background="new 0 0 24 24" xml:space="preserve">
<rect fill="none" width="24" height="24"/>
<g>
	<path d="M13.1,1H1.6C1.3,1,1,1.3,1,1.6v18.8C1,20.7,1.3,21,1.6,21H9v-4.1V16v-3.4H2.3V10H9V8.7H2.3V6.1H10c0.9-0.7,2.2-1.1,3.8-1.4
		V1.6C13.8,1.3,13.5,1,13.1,1z M12.6,4.8H2.3V2.2h10.3V4.8z"/>
	<path d="M16.9,23c-2.7,0-5-0.6-6.1-1.3l0,0v-3.4c1.5,0.7,3.7,1.1,6.1,1.1s4.6-0.4,6.1-1.1v3.4l0,0C21.9,22.4,19.6,23,16.9,23z"/>
	<path d="M23,10.6L23,10.6L23,10.6L23,10.6c-1.1,0.9-3.4,1.3-6.1,1.3s-5-0.6-6.1-1.3l0,0V7.3l0,0l0,0l0,0C11.9,6.4,14.2,6,16.9,6
		s5,0.6,6.1,1.3l0,0V10.6z"/>
	<path d="M16.9,17.5c-2.7,0-5-0.6-6.1-1.3l0,0v-3.4c1.5,0.7,3.7,1.1,6.1,1.1s4.6-0.4,6.1-1.1v3.4l0,0C21.9,16.9,19.6,17.5,16.9,17.5
		z"/>
</g>
</svg>
