<?xml version="1.0" encoding="utf-8"?>
<!-- Generator: Adobe Illustrator 18.0.0, SVG Export Plug-In . SVG Version: 6.00 Build 0)  -->
<!DOCTYPE svg PUBLIC "-//W3C//DTD SVG 1.1//EN" "http://www.w3.org/Graphics/SVG/1.1/DTD/svg11.dtd">
<svg version="1.1" id="Layer_1" xmlns="http://www.w3.org/2000/svg" xmlns:xlink="http://www.w3.org/1999/xlink" x="0px" y="0px"
	 width="24px" height="24px" viewBox="0 0 24 24" enable-background="new 0 0 24 24" xml:space="preserve">
<path fill="none" d="M0,0h24v24H0V0z"/>
<g>
	<path d="M18,4V2.5C17.7,2.2,17.1,2,16.5,2S15.3,2.2,15,2.5V4H9V2.5C8.7,2.2,8.1,2,7.5,2S6.3,2.2,6,2.5V4H3v16c0,1.1,0.9,2,2,2h14
		c1.1,0,2-0.9,2-2V4H18z M19,20H5V9h14V20z"/>
	<rect x="13" y="11" width="4" height="4"/>
</g>
</svg>
