<?xml version="1.0" encoding="utf-8"?>
<!-- Generator: Adobe Illustrator 18.0.0, SVG Export Plug-In . SVG Version: 6.00 Build 0)  -->
<!DOCTYPE svg PUBLIC "-//W3C//DTD SVG 1.1//EN" "http://www.w3.org/Graphics/SVG/1.1/DTD/svg11.dtd">
<svg version="1.1" id="Layer_1" xmlns="http://www.w3.org/2000/svg" xmlns:xlink="http://www.w3.org/1999/xlink" x="0px" y="0px"
	 width="24px" height="24px" viewBox="0 0 24 24" enable-background="new 0 0 24 24" xml:space="preserve">
<g>
	<rect fill="none" width="24" height="24"/>
	<path d="M21.9,13.5C22,13,22,12.5,22,12s0-1-0.1-1.5l-2.2-0.8c-0.2-0.5-0.4-1.1-0.6-1.6l1-2.1c-0.6-0.8-1.3-1.5-2.1-2.1l-2.1,1
		c-0.5-0.3-1-0.5-1.6-0.6l-0.8-2.2C13,2,12.5,2,12,2s-1,0-1.5,0.1L9.7,4.3C9.2,4.5,8.6,4.7,8.1,4.9L6,3.9C5.2,4.5,4.5,5.2,3.9,6
		l1,2.1c-0.3,0.5-0.5,1-0.6,1.6l-2.2,0.8C2,11,2,11.5,2,12s0,1,0.1,1.5l2.2,0.8c0.2,0.5,0.4,1.1,0.6,1.6l-1,2.1
		c0.6,0.8,1.3,1.5,2.1,2.1l2.1-1c0.5,0.3,1,0.5,1.6,0.6l0.8,2.2C11,22,11.5,22,12,22s1,0,1.5-0.1l0.8-2.2c0.5-0.2,1.1-0.4,1.6-0.6
		l2.1,1c0.8-0.6,1.5-1.3,2.1-2.1l-1-2.1c0.3-0.5,0.5-1,0.6-1.6L21.9,13.5z M12.1,15c-1.7,0-3-1.3-3-3s1.3-3,3-3s3,1.3,3,3
		S13.7,15,12.1,15z"/>
</g>
</svg>
