<?xml version="1.0" encoding="utf-8"?>
<!-- Generator: Adobe Illustrator 18.0.0, SVG Export Plug-In . SVG Version: 6.00 Build 0)  -->
<!DOCTYPE svg PUBLIC "-//W3C//DTD SVG 1.1//EN" "http://www.w3.org/Graphics/SVG/1.1/DTD/svg11.dtd">
<svg version="1.1" id="Layer_1" xmlns="http://www.w3.org/2000/svg" xmlns:xlink="http://www.w3.org/1999/xlink" x="0px" y="0px"
	 width="24px" height="24px" viewBox="0 0 24 24" enable-background="new 0 0 24 24" xml:space="preserve">
<g>
	<path fill="none" d="M0,0h24v24H0V0z"/>
	<g>
		<path d="M13,3c-4.7,0-8.5,3.5-9,8.1c-1.2,0.1-2.3,0.5-3,0.9l0,0l4,4l4-4l0,0c-0.7-0.5-1.7-0.8-2.9-0.9C6.5,7.6,9.4,5,13,5
			c3.9,0,7,3.1,7,7s-3.1,7-7,7c-1.9,0-3.7-0.8-4.9-2.1l-1.4,1.4C8.3,20,10.5,21,13,21c5,0,9-4,9-9S18,3,13,3z"/>
		<polygon points="12,7 12,13 16.3,15.5 17,14.3 13.5,12.2 13.5,7 		"/>
	</g>
</g>
</svg>
