<?xml version="1.0" encoding="utf-8"?>
<!-- Generator: Adobe Illustrator 18.0.0, SVG Export Plug-In . SVG Version: 6.00 Build 0)  -->
<!DOCTYPE svg PUBLIC "-//W3C//DTD SVG 1.1//EN" "http://www.w3.org/Graphics/SVG/1.1/DTD/svg11.dtd">
<svg version="1.1" id="Layer_1" xmlns="http://www.w3.org/2000/svg" xmlns:xlink="http://www.w3.org/1999/xlink" x="0px" y="0px"
	 width="24px" height="24px" viewBox="0 0 24 24" enable-background="new 0 0 24 24" xml:space="preserve">
<rect x="0.1" y="0" fill="none" width="24" height="24"/>
<path d="M22,6h-9.5l-2-2H4C3.5,4,3,4.5,3,5v7.1H1.8c-0.5,0-0.8,0.6-0.7,1.1l1.7,5.7c0.1,0.3,0.3,0.6,0.5,0.8C3.5,19.9,3.8,20,4,20
	h0.1h16.7H22c0.5,0,1-0.5,1-1V7C23,6.5,22.5,6,22,6z M5,9c0-0.5,0.4-1,1-1h14c0.6,0,1,0.5,1,1v8.3l-1.1-4.1c-0.2-0.6-1-1.1-1.5-1.1
	H5V9z"/>
</svg>
