<?xml version="1.0" encoding="utf-8"?>
<!-- Generator: Adobe Illustrator 18.0.0, SVG Export Plug-In . SVG Version: 6.00 Build 0)  -->
<!DOCTYPE svg PUBLIC "-//W3C//DTD SVG 1.1//EN" "http://www.w3.org/Graphics/SVG/1.1/DTD/svg11.dtd">
<svg version="1.1" id="Layer_1" xmlns="http://www.w3.org/2000/svg" xmlns:xlink="http://www.w3.org/1999/xlink" x="0px" y="0px"
	 width="24px" height="24px" viewBox="0 0 24 24" enable-background="new 0 0 24 24" xml:space="preserve">
<g>
	<path fill="none" d="M0,0h24v24H0V0z"/>
	<path fill="#FFFFFF" d="M14,10"/>
	<path d="M6.1,11C6.6,8.2,9,6,12,6c1.8,0,3.4,0.8,4.5,2.1C15,9.9,15,11,15,11h2.9h3l0,0V5c0,0-0.9,0-2.3,1c-1.6-1.8-4-3-6.7-3
		C7.3,3,3.5,6.5,3,11H6.1z"/>
	<path d="M17.9,13c-0.5,2.8-2.9,5-5.9,5c-1.8,0-3.4-0.8-4.5-2.1C9,14.2,9,13,9,13H6.1h-3H3v6c0,0,0.9,0,2.3-1c1.6,1.8,4,3,6.7,3
		c4.6,0,8.4-3.5,8.9-8H17.9z"/>
</g>
</svg>
