<?xml version="1.0" encoding="utf-8"?>
<!-- Generator: Adobe Illustrator 18.0.0, SVG Export Plug-In . SVG Version: 6.00 Build 0)  -->
<!DOCTYPE svg PUBLIC "-//W3C//DTD SVG 1.1//EN" "http://www.w3.org/Graphics/SVG/1.1/DTD/svg11.dtd">
<svg version="1.1" id="Layer_1" xmlns="http://www.w3.org/2000/svg" xmlns:xlink="http://www.w3.org/1999/xlink" x="0px" y="0px"
	 width="24px" height="24px" viewBox="0 0 24 24" enable-background="new 0 0 24 24" xml:space="preserve">
<rect fill="none" width="24" height="24"/>
<g>
	<g>
		<g>
			<path d="M22,21v-2.6c-1.7-1.5-4.2-2.4-7-2.4s-5.2,0.9-7,2.3V21H22z"/>
		</g>
	</g>
	<g>
		<g>
			<circle cx="15" cy="11" r="4"/>
		</g>
	</g>
	<g>
		<g>
			<path d="M7.3,17.5c1.5-1.1,3.2-1.9,5-2.3c-0.8-0.5-1.5-1.3-1.9-2.2c-0.5-0.1-0.9-0.1-1.4-0.1c-2.8,0-5.2,0.9-7,2.3v2.7h4.7
				L7,17.7L7.3,17.5z"/>
		</g>
	</g>
	<path d="M10,11c0-1.9,1.1-3.6,2.7-4.4C12.1,5.1,10.7,4,9,4C6.8,4,5,5.8,5,8s1.8,4,4,4c0.4,0,0.7-0.1,1.1-0.2C10,11.6,10,11.3,10,11
		z"/>
</g>
</svg>
