<?xml version="1.0" encoding="utf-8"?>
<!-- Generator: Adobe Illustrator 18.0.0, SVG Export Plug-In . SVG Version: 6.00 Build 0)  -->
<!DOCTYPE svg PUBLIC "-//W3C//DTD SVG 1.1//EN" "http://www.w3.org/Graphics/SVG/1.1/DTD/svg11.dtd">
<svg version="1.1" id="Layer_1" xmlns="http://www.w3.org/2000/svg" xmlns:xlink="http://www.w3.org/1999/xlink" x="0px" y="0px"
	 width="24px" height="24px" viewBox="0 0 24 24" enable-background="new 0 0 24 24" xml:space="preserve">
<g>
	<path fill="none" d="M0,0h24v24H0"/>
	<g>
		<path d="M12,12.7c1.3-0.5,6.4-2.9,9.9-8.2c-0.1-0.4-0.5-0.7-0.9-0.7H3c-0.4,0-0.8,0.3-0.9,0.7C5.6,9.9,10.7,12.2,12,12.7z"/>
		<path d="M12.3,14.9L12,15l-0.3-0.1C11.4,14.8,6.3,13,2,8v10.9c0,0.5,0.5,1,1,1h18c0.5,0,1-0.5,1-1V8C17.7,13,12.6,14.8,12.3,14.9z
			"/>
	</g>
</g>
</svg>
