<?xml version="1.0" encoding="utf-8"?>
<!-- Generator: Adobe Illustrator 18.0.0, SVG Export Plug-In . SVG Version: 6.00 Build 0)  -->
<!DOCTYPE svg PUBLIC "-//W3C//DTD SVG 1.1//EN" "http://www.w3.org/Graphics/SVG/1.1/DTD/svg11.dtd">
<svg version="1.1" id="Layer_1" xmlns="http://www.w3.org/2000/svg" xmlns:xlink="http://www.w3.org/1999/xlink" x="0px" y="0px"
	 width="24px" height="24px" viewBox="0 0 24 24" enable-background="new 0 0 24 24" xml:space="preserve">
<g>
	<rect fill="none" width="24" height="24"/>
	<path d="M22.6,17.7L13.7,2.3c-0.4-0.6-1-1-1.7-1s-1.4,0.4-1.7,1l-9,15.6c-0.4,0.6-0.4,1.4,0,2s1,1,1.7,1h18l0,0c1.1,0,2-0.9,2-2
		C23,18.5,22.9,18.1,22.6,17.7z M11,7.3C11.3,7.1,11.6,7,12,7s0.7,0.1,1,0.3V14h-2V7.3z M12,18c-0.8,0-1.5-0.7-1.5-1.5
		S11.2,15,12,15s1.5,0.7,1.5,1.5S12.8,18,12,18z"/>
</g>
</svg>
