<svg xmlns="http://www.w3.org/2000/svg" width="24" height="24" viewBox="0 0 24 24"><defs><style>.cls-1{fill:#231f20;}</style></defs><title>instance</title><g id="instance"><path class="cls-1" d="M13.1,1H1.6a.65.65,0,0,0-.6.6V20.4a.65.65,0,0,0,.6.6H9V12.6H2.3V10H9V8.7H2.3V6.1H10a8.89,8.89,0,0,1,3.8-1.4V1.6A.67.67,0,0,0,13.1,1Zm-.5,3.8H2.3V2.2H12.6Z"/><path class="cls-1" d="M16.9,23a12.57,12.57,0,0,1-6.1-1.3h0V18.3a15.12,15.12,0,0,0,6.1,1.1A15.13,15.13,0,0,0,23,18.3v3.4h0A12.57,12.57,0,0,1,16.9,23Z"/><path class="cls-1" d="M23,10.6h0c-1.1.9-3.4,1.3-6.1,1.3a12.57,12.57,0,0,1-6.1-1.3h0V7.3h0C11.9,6.4,14.2,6,16.9,6A12.57,12.57,0,0,1,23,7.3h0Z"/><path class="cls-1" d="M16.9,17.5a12.57,12.57,0,0,1-6.1-1.3h0V12.8a15.12,15.12,0,0,0,6.1,1.1A15.13,15.13,0,0,0,23,12.8v3.4h0A12.57,12.57,0,0,1,16.9,17.5Z"/></g></svg>