<svg xmlns="http://www.w3.org/2000/svg" width="24" height="24" viewBox="0 0 24 24"><defs><style>.cls-1{fill:#231f20;}</style></defs><title>settings</title><g id="settings"><path class="cls-1" d="M19.5,12a7.53,7.53,0,0,0-.08-1l2-2.19a10,10,0,0,0-2-3.39l-2.91.67a7.48,7.48,0,0,0-1.76-1L14,2.19a10,10,0,0,0-3.91,0L9.17,5.06a7.48,7.48,0,0,0-1.76,1L4.5,5.41a10,10,0,0,0-2,3.39l2,2.19a6.77,6.77,0,0,0,0,2l-2,2.19a10,10,0,0,0,2,3.39l2.91-.67a7.48,7.48,0,0,0,1.76,1L10,21.81a10,10,0,0,0,3.91,0l.88-2.86a7.48,7.48,0,0,0,1.76-1l2.91.67a10,10,0,0,0,2-3.39l-2-2.19A7.53,7.53,0,0,0,19.5,12ZM12,15a3,3,0,1,1,3-3A3,3,0,0,1,12,15Z"/></g></svg>