<svg xmlns="http://www.w3.org/2000/svg" viewBox="0 0 220 152" enable-background="new 0 0 220 152"><style type="text/css">.st0{fill:#EBEBEB;} .st1{fill:#373737;} .st2{fill:#CC0000;} .st3{fill:#FFFFFF;} .st4{fill:#336DC2;} .st5{fill:#B6B6B6;} .st6{fill:#DCDCDC;} .st7{fill:#1AAC1E;} .st8{fill:#767676;}</style><path class="st0" d="M0 0h220v152h-220z"/><path class="st1" d="M0 0h220v22h-220z"/><path class="st2" d="M0 0h22v22h-22z"/><path class="st3" d="M11 34.1h196v104.8h-196z"/><path class="st1" d="M170.6 62h-53.4c-.7 0-1.3-.6-1.3-1.3s.6-1.3 1.3-1.3h53.4c.7 0 1.3.6 1.3 1.3s-.6 1.3-1.3 1.3zm-2 6h-51.4c-.7 0-1.3-.6-1.3-1.3s.6-1.3 1.3-1.3h51.4c.7 0 1.3.6 1.3 1.3s-.6 1.3-1.3 1.3zm2 5.9h-53.4c-.7 0-1.3-.6-1.3-1.3s.6-1.3 1.3-1.3h53.4c.7 0 1.3.6 1.3 1.3s-.6 1.3-1.3 1.3zm-35-23.7h-18.4c-.7 0-1.3-.6-1.3-1.3s.6-1.3 1.3-1.3h18.4c.7 0 1.3.6 1.3 1.3s-.6 1.3-1.3 1.3zm20 5.9h-38.4c-.7 0-1.3-.6-1.3-1.3s.6-1.3 1.3-1.3h38.4c.7 0 1.3.6 1.3 1.3s-.6 1.3-1.3 1.3zm16 23.7h-54.4c-.7 0-1.3-.6-1.3-1.3s.6-1.3 1.3-1.3h54.4c.7 0 1.3.6 1.3 1.3s-.6 1.3-1.3 1.3zm-9.4 5.9h-45c-.7 0-1.3-.6-1.3-1.3s.6-1.3 1.3-1.3h45c.7 0 1.3.6 1.3 1.3s-.6 1.3-1.3 1.3zm8.4 17.8h-53.4c-.7 0-1.3-.6-1.3-1.3s.6-1.3 1.3-1.3h53.4c.7 0 1.3.6 1.3 1.3s-.6 1.3-1.3 1.3zm0 5.9h-53.4c-.7 0-1.3-.6-1.3-1.3s.6-1.3 1.3-1.3h53.4c.7 0 1.3.6 1.3 1.3s-.6 1.3-1.3 1.3zm0 5.9h-53.4c-.7 0-1.3-.6-1.3-1.3s.6-1.3 1.3-1.3h53.4c.7 0 1.3.6 1.3 1.3s-.6 1.3-1.3 1.3zm-35-23.7h-18.4c-.7 0-1.3-.6-1.3-1.3s.6-1.3 1.3-1.3h18.4c.7 0 1.3.6 1.3 1.3s-.6 1.3-1.3 1.3zm20 5.9h-38.4c-.7 0-1.3-.6-1.3-1.3s.6-1.3 1.3-1.3h38.4c.7 0 1.3.6 1.3 1.3s-.6 1.3-1.3 1.3zm15 23.7h-53.4c-.7 0-1.3-.6-1.3-1.3s.6-1.3 1.3-1.3h53.4c.7 0 1.3.6 1.3 1.3s-.6 1.3-1.3 1.3zm-8.4 5.9h-45c-.7 0-1.3-.6-1.3-1.3s.6-1.3 1.3-1.3h45c.7 0 1.3.6 1.3 1.3s-.6 1.3-1.3 1.3zm-83.8-65.1h-53.4c-.7 0-1.3-.6-1.3-1.3s.6-1.3 1.3-1.3h53.4c.7 0 1.3.6 1.3 1.3s-.6 1.3-1.3 1.3zm-1 6h-52.4c-.7 0-1.3-.6-1.3-1.3s.6-1.3 1.3-1.3h52.4c.7 0 1.3.6 1.3 1.3s-.6 1.3-1.3 1.3zm1 5.9h-53.4c-.7 0-1.3-.6-1.3-1.3s.6-1.3 1.3-1.3h53.4c.7 0 1.3.6 1.3 1.3s-.6 1.3-1.3 1.3zm-35-23.7h-18.4c-.7 0-1.3-.6-1.3-1.3s.6-1.3 1.3-1.3h18.4c.7 0 1.3.6 1.3 1.3s-.6 1.3-1.3 1.3zm20 5.9h-38.4c-.7 0-1.3-.6-1.3-1.3s.6-1.3 1.3-1.3h38.4c.7 0 1.3.6 1.3 1.3s-.6 1.3-1.3 1.3zm16 23.7h-54.4c-.7 0-1.3-.6-1.3-1.3s.6-1.3 1.3-1.3h54.4c.7 0 1.3.6 1.3 1.3s-.6 1.3-1.3 1.3zm-9.4 5.9h-45c-.7 0-1.3-.6-1.3-1.3s.6-1.4 1.3-1.4h45c.7 0 1.3.6 1.3 1.3s-.6 1.4-1.3 1.4zm8.4 17.8h-53.4c-.7 0-1.3-.6-1.3-1.3s.6-1.3 1.3-1.3h53.4c.7 0 1.3.6 1.3 1.3s-.6 1.3-1.3 1.3zm0 5.9h-53.4c-.7 0-1.3-.6-1.3-1.3s.6-1.3 1.3-1.3h53.4c.7 0 1.3.6 1.3 1.3s-.6 1.3-1.3 1.3zm0 5.9h-53.4c-.7 0-1.3-.6-1.3-1.3s.6-1.3 1.3-1.3h53.4c.7 0 1.3.6 1.3 1.3s-.6 1.3-1.3 1.3zm-35-23.7h-18.4c-.7 0-1.3-.6-1.3-1.3s.6-1.3 1.3-1.3h18.4c.7 0 1.3.6 1.3 1.3s-.6 1.3-1.3 1.3zm20 5.9h-38.4c-.7 0-1.3-.6-1.3-1.3s.6-1.3 1.3-1.3h38.4c.7 0 1.3.6 1.3 1.3s-.6 1.3-1.3 1.3zm15 23.7h-53.4c-.7 0-1.3-.6-1.3-1.3s.6-1.3 1.3-1.3h53.4c.7 0 1.3.6 1.3 1.3s-.6 1.3-1.3 1.3zm-8.4 5.9h-45c-.7 0-1.3-.6-1.3-1.3s.6-1.3 1.3-1.3h45c.7 0 1.3.6 1.3 1.3s-.6 1.3-1.3 1.3z"/></svg>