<svg xmlns="http://www.w3.org/2000/svg" viewBox="0 0 220 152" enable-background="new 0 0 220 152"><style type="text/css">.st0{fill:#EBEBEB;} .st1{fill:#373737;} .st2{fill:#CC0000;} .st3{fill:#FFFFFF;} .st4{fill:#336DC2;} .st5{fill:#B6B6B6;} .st6{fill:#DCDCDC;} .st7{fill:#1AAC1E;} .st8{fill:#767676;} .st9{fill:#2A5E9D;}</style><path class="st0" d="M0 0h220v152h-220z"/><path class="st1" d="M0 0h220v22h-220z"/><path class="st2" d="M0 0h22v22h-22z"/><path class="st3" d="M11 34.1h196v104.8h-196z"/><path class="st9" d="M48.5 46.9h-21.9c-1.4 0-2.5-1.1-2.5-2.5s1.1-2.5 2.5-2.5h21.9c1.4 0 2.5 1.1 2.5 2.5s-1.1 2.5-2.5 2.5z"/><path class="st1" d="M63.7 54h-37.9c-1.1 0-2-.9-2-2s.9-2 2-2h37.9c1.1 0 2 .9 2 2s-.8 2-2 2zm12.6 5.7h-51.3c-.7 0-1.2-.5-1.2-1.2s.5-1.2 1.2-1.2h51.3c.7 0 1.2.5 1.2 1.2s-.5 1.2-1.2 1.2zm-2 5.3h-49.3c-.7 0-1.2-.5-1.2-1.2s.5-1.2 1.2-1.2h49.3c.7 0 1.2.5 1.2 1.2s-.5 1.2-1.2 1.2zm2 5.4h-51.3c-.7 0-1.2-.5-1.2-1.2s.5-1.2 1.2-1.2h51.3c.7 0 1.2.5 1.2 1.2s-.5 1.2-1.2 1.2zm0 5.3h-51.3c-.7 0-1.2-.5-1.2-1.2s.5-1.2 1.2-1.2h51.3c.7 0 1.2.5 1.2 1.2s-.5 1.2-1.2 1.2zm-10.6 5.4h-40.7c-.7 0-1.2-.5-1.2-1.2s.5-1.2 1.2-1.2h40.7c.7 0 1.2.5 1.2 1.2s-.5 1.2-1.2 1.2z"/><path class="st9" d="M48.5 94.8h-21.9c-1.4 0-2.5-1.1-2.5-2.5s1.1-2.5 2.5-2.5h21.9c1.4 0 2.5 1.1 2.5 2.5s-1.1 2.5-2.5 2.5z"/><path class="st1" d="M63.7 101.9h-37.9c-1.1 0-2-.9-2-2s.9-2 2-2h37.9c1.1 0 2 .9 2 2s-.8 2-2 2zm12.6 5.7h-51.3c-.7 0-1.2-.5-1.2-1.2s.5-1.2 1.2-1.2h51.3c.7 0 1.2.5 1.2 1.2s-.5 1.2-1.2 1.2zm0 5.4h-51.3c-.7 0-1.2-.5-1.2-1.2s.5-1.2 1.2-1.2h51.3c.7 0 1.2.5 1.2 1.2s-.5 1.2-1.2 1.2zm-2 5.3h-49.3c-.7 0-1.2-.5-1.2-1.2s.5-1.2 1.2-1.2h49.3c.7 0 1.2.5 1.2 1.2s-.5 1.2-1.2 1.2zm2 5.4h-51.3c-.7 0-1.2-.5-1.2-1.2s.5-1.2 1.2-1.2h51.3c.7 0 1.2.5 1.2 1.2s-.5 1.2-1.2 1.2zm-10.6 5.3h-40.7c-.7 0-1.2-.5-1.2-1.2s.5-1.2 1.2-1.2h40.7c.7 0 1.2.5 1.2 1.2s-.5 1.2-1.2 1.2z"/><path class="st9" d="M140.7 46.9h-21.9c-1.4 0-2.5-1.1-2.5-2.5s1.1-2.5 2.5-2.5h21.9c1.4 0 2.5 1.1 2.5 2.5s-1.1 2.5-2.5 2.5z"/><path class="st1" d="M155.9 54h-37.9c-1.1 0-2-.9-2-2s.9-2 2-2h37.9c1.1 0 2 .9 2 2s-.9 2-2 2zm12.6 5.7h-51.3c-.7 0-1.2-.5-1.2-1.2s.5-1.2 1.2-1.2h51.3c.7 0 1.2.5 1.2 1.2s-.5 1.2-1.2 1.2zm0 5.3h-51.3c-.7 0-1.2-.5-1.2-1.2s.5-1.2 1.2-1.2h51.3c.7 0 1.2.5 1.2 1.2s-.5 1.2-1.2 1.2zm-2 5.4h-49.3c-.7 0-1.2-.5-1.2-1.2s.5-1.2 1.2-1.2h49.3c.7 0 1.2.5 1.2 1.2s-.5 1.2-1.2 1.2zm2 5.3h-51.3c-.7 0-1.2-.5-1.2-1.2s.5-1.2 1.2-1.2h51.3c.7 0 1.2.5 1.2 1.2s-.5 1.2-1.2 1.2zm-10.6 5.4h-40.7c-.7 0-1.2-.5-1.2-1.2s.5-1.2 1.2-1.2h40.7c.7 0 1.2.5 1.2 1.2s-.5 1.2-1.2 1.2z"/><path class="st9" d="M140.7 94.8h-21.9c-1.4 0-2.5-1.1-2.5-2.5s1.1-2.5 2.5-2.5h21.9c1.4 0 2.5 1.1 2.5 2.5s-1.1 2.5-2.5 2.5z"/><path class="st1" d="M155.9 101.9h-37.9c-1.1 0-2-.9-2-2s.9-2 2-2h37.9c1.1 0 2 .9 2 2s-.9 2-2 2zm12.6 5.7h-51.3c-.7 0-1.2-.5-1.2-1.2s.5-1.2 1.2-1.2h51.3c.7 0 1.2.5 1.2 1.2s-.5 1.2-1.2 1.2zm-2 5.4h-49.3c-.7 0-1.2-.5-1.2-1.2s.5-1.2 1.2-1.2h49.3c.7 0 1.2.5 1.2 1.2s-.5 1.2-1.2 1.2zm2 5.3h-51.3c-.7 0-1.2-.5-1.2-1.2s.5-1.2 1.2-1.2h51.3c.7 0 1.2.5 1.2 1.2s-.5 1.2-1.2 1.2zm0 5.4h-51.3c-.7 0-1.2-.5-1.2-1.2s.5-1.2 1.2-1.2h51.3c.7 0 1.2.5 1.2 1.2s-.5 1.2-1.2 1.2zm-10.6 5.3h-40.7c-.7 0-1.2-.5-1.2-1.2s.5-1.2 1.2-1.2h40.7c.7 0 1.2.5 1.2 1.2s-.5 1.2-1.2 1.2z"/></svg>