<svg xmlns="http://www.w3.org/2000/svg" viewBox="0 0 220 152" enable-background="new 0 0 220 152"><style type="text/css">.st0{fill:#EBEBEB;} .st1{fill:#373737;} .st2{fill:#CC0000;} .st3{fill:#FFFFFF;} .st4{fill:#336DC2;} .st5{fill:#B6B6B6;} .st6{fill:#DCDCDC;} .st7{fill:#1AAC1E;} .st8{fill:#767676;}</style><path class="st0" d="M0 0h220v152h-220z"/><path class="st1" d="M0 0h220v22h-220z"/><path class="st2" d="M0 0h22v22h-22z"/><path class="st3" d="M11 34.1h196v105.2h-196z"/><path class="st1" d="M60.7 46.5h-37.9c-1.1 0-2-.9-2-2s.9-2 2-2h37.9c1.1 0 2 .9 2 2s-.8 2-2 2zm128.7 5.8h-167.4c-.7 0-1.2-.5-1.2-1.2s.5-1.2 1.2-1.2h167.4c.7 0 1.2.5 1.2 1.2s-.5 1.2-1.2 1.2zm-1 5.3h-166.4c-.7 0-1.2-.5-1.2-1.2s.5-1.2 1.2-1.2h166.4c.7 0 1.2.5 1.2 1.2s-.5 1.2-1.2 1.2zm-1 5.4h-165.4c-.7 0-1.2-.5-1.2-1.2s.5-1.2 1.2-1.2h165.4c.7 0 1.2.5 1.2 1.2s-.5 1.2-1.2 1.2zm2 5.3h-167.4c-.7 0-1.2-.5-1.2-1.2s.5-1.2 1.2-1.2h167.4c.7 0 1.2.5 1.2 1.2s-.5 1.2-1.2 1.2zm-10.6 5.4h-156.8c-.7 0-1.2-.5-1.2-1.2s.5-1.2 1.2-1.2h156.8c.7 0 1.2.5 1.2 1.2s-.5 1.2-1.2 1.2zm9.6 5.3h-166.4c-.7 0-1.2-.5-1.2-1.2s.5-1.2 1.2-1.2h166.4c.7 0 1.2.5 1.2 1.2s-.5 1.2-1.2 1.2zm-1 5.4h-165.4c-.7 0-1.2-.5-1.2-1.2s.5-1.2 1.2-1.2h165.4c.7 0 1.2.5 1.2 1.2s-.5 1.2-1.2 1.2zm2 5.3h-167.4c-.7 0-1.2-.5-1.2-1.2s.5-1.2 1.2-1.2h167.4c.7 0 1.2.5 1.2 1.2s-.5 1.2-1.2 1.2zm-10.6 5.3h-156.8c-.7 0-1.2-.5-1.2-1.2s.5-1.2 1.2-1.2h156.8c.7 0 1.2.5 1.2 1.2s-.5 1.2-1.2 1.2zm8.6 21.4h-165.4c-.7 0-1.2-.5-1.2-1.2s.5-1.2 1.2-1.2h165.4c.7 0 1.2.5 1.2 1.2s-.5 1.2-1.2 1.2zm2 5.4h-167.4c-.7 0-1.2-.5-1.2-1.2s.5-1.2 1.2-1.2h167.4c.7 0 1.2.5 1.2 1.2s-.5 1.2-1.2 1.2zm-10.6 5.3h-156.8c-.7 0-1.2-.5-1.2-1.2s.5-1.2 1.2-1.2h156.8c.7 0 1.2.5 1.2 1.2s-.5 1.2-1.2 1.2zm10.6-21.4h-167.4c-.7 0-1.2-.5-1.2-1.2s.5-1.2 1.2-1.2h167.4c.7 0 1.2.5 1.2 1.2s-.5 1.2-1.2 1.2zm-10.6 5.4h-156.8c-.7 0-1.2-.5-1.2-1.2s.5-1.2 1.2-1.2h156.8c.7 0 1.2.5 1.2 1.2s-.5 1.2-1.2 1.2z"/></svg>