<?xml version="1.0" encoding="utf-8"?>
<!-- Generator: Adobe Illustrator 20.1.0, SVG Export Plug-In . SVG Version: 6.00 Build 0)  -->
<svg version="1.1" id="Layer_1" xmlns="http://www.w3.org/2000/svg" xmlns:xlink="http://www.w3.org/1999/xlink" x="0px" y="0px"
	 viewBox="0 0 220 152" style="enable-background:new 0 0 220 152;" xml:space="preserve">
<style type="text/css">
	.st0{fill:#EBEBEB;}
	.st1{fill:#373737;}
	.st2{fill:#CC0000;}
	.st3{fill:#FFFFFF;}
	.st4{fill:#336DC2;}
	.st5{fill:#B6B6B6;}
	.st6{fill:#DCDCDC;}
	.st7{fill:#1AAC1E;}
	.st8{fill:#767676;}
</style>
<g>
	<g>
		<rect class="st0" width="220" height="152"/>
		<rect class="st1" width="220" height="22"/>
		<rect class="st2" width="22" height="22"/>
	</g>
	<rect x="11" y="34.1" class="st3" width="196" height="103"/>
	<path class="st4" d="M102.5,122.2H72.9c-0.8,0-1.4-0.6-1.4-1.4v-11.1c0-0.8,0.6-1.4,1.4-1.4h29.7c0.8,0,1.4,0.6,1.4,1.4v11.1
		C103.9,121.6,103.3,122.2,102.5,122.2z"/>
	<path class="st1" d="M130.8,61.6H72.9c-1.1,0-2-0.9-2-2V48.5c0-1.1,0.9-2,2-2h57.9c1.1,0,2,0.9,2,2v11.1
		C132.8,60.7,131.9,61.6,130.8,61.6z M72.9,47.6c-0.4,0-0.8,0.4-0.8,0.8v11.1c0,0.4,0.4,0.8,0.8,0.8h57.9c0.4,0,0.8-0.4,0.8-0.8
		V48.5c0-0.4-0.4-0.8-0.8-0.8H72.9z"/>
	<g>
		<path class="st1" d="M74.7,77.5c-2.1,0-3.8-1.7-3.8-3.8s1.7-3.8,3.8-3.8s3.8,1.7,3.8,3.8S76.8,77.5,74.7,77.5z M74.7,71
			c-1.5,0-2.6,1.2-2.6,2.6s1.2,2.6,2.6,2.6s2.6-1.2,2.6-2.6S76.1,71,74.7,71z"/>
		<path class="st1" d="M74.7,88.5c-2.1,0-3.8-1.7-3.8-3.8s1.7-3.8,3.8-3.8s3.8,1.7,3.8,3.8S76.8,88.5,74.7,88.5z M74.7,82
			c-1.5,0-2.6,1.2-2.6,2.6s1.2,2.6,2.6,2.6s2.6-1.2,2.6-2.6S76.1,82,74.7,82z"/>
		<path class="st1" d="M74.7,99.2c-2.1,0-3.8-1.7-3.8-3.8c0-2.1,1.7-3.8,3.8-3.8s3.8,1.7,3.8,3.8C78.5,97.5,76.8,99.2,74.7,99.2z
			 M74.7,92.7c-1.5,0-2.6,1.2-2.6,2.6c0,1.5,1.2,2.6,2.6,2.6s2.6-1.2,2.6-2.6C77.3,93.9,76.1,92.7,74.7,92.7z"/>
		<path class="st1" d="M97.5,74.3H80.9c-0.3,0-0.6-0.3-0.6-0.6s0.3-0.6,0.6-0.6h16.6c0.3,0,0.6,0.3,0.6,0.6S97.8,74.3,97.5,74.3z"/>
		<path class="st1" d="M94.6,85.3H80.9c-0.3,0-0.6-0.3-0.6-0.6s0.3-0.6,0.6-0.6h13.7c0.3,0,0.6,0.3,0.6,0.6S94.9,85.3,94.6,85.3z"/>
		<path class="st1" d="M96.8,96H80.9c-0.3,0-0.6-0.3-0.6-0.6s0.3-0.6,0.6-0.6h15.9c0.3,0,0.6,0.3,0.6,0.6S97.1,96,96.8,96z"/>
	</g>
</g>
</svg>
