<?xml version="1.0" encoding="utf-8"?>
<!-- Generator: Adobe Illustrator 20.1.0, SVG Export Plug-In . SVG Version: 6.00 Build 0)  -->
<svg version="1.1" id="Layer_1" xmlns="http://www.w3.org/2000/svg" xmlns:xlink="http://www.w3.org/1999/xlink" x="0px" y="0px"
	 viewBox="0 0 220 152" style="enable-background:new 0 0 220 152;" xml:space="preserve">
<style type="text/css">
	.st0{fill:#EBEBEB;}
	.st1{fill:#373737;}
	.st2{fill:#CC0000;}
	.st3{fill:#FFFFFF;}
	.st4{fill:#336DC2;}
	.st5{fill:#B6B6B6;}
	.st6{fill:#DCDCDC;}
	.st7{fill:#1AAC1E;}
	.st8{fill:#767676;}
</style>
<g>
	<g>
		<rect class="st0" width="220" height="152"/>
		<rect class="st1" width="220" height="22"/>
		<rect class="st2" width="22" height="22"/>
	</g>
	<rect x="11" y="34.1" class="st3" width="196" height="71.9"/>
	<rect x="11" y="115.7" class="st3" width="196" height="23.7"/>
	<path class="st4" d="M89.3,87.9H59.6c-0.8,0-1.4-0.6-1.4-1.4V75.4c0-0.8,0.6-1.4,1.4-1.4h29.7c0.8,0,1.4,0.6,1.4,1.4v11.1
		C90.7,87.3,90.1,87.9,89.3,87.9z"/>
	<path class="st5" d="M126.6,87.9H97c-0.8,0-1.4-0.6-1.4-1.4V75.4c0-0.8,0.6-1.4,1.4-1.4h29.7c0.8,0,1.4,0.6,1.4,1.4v11.1
		C128,87.3,127.4,87.9,126.6,87.9z"/>
	<path class="st1" d="M148.1,69.6H59.6c-1.1,0-2-0.9-2-2V56.5c0-1.1,0.9-2,2-2h88.5c1.1,0,2,0.9,2,2v11.1
		C150.1,68.7,149.2,69.6,148.1,69.6z M59.6,55.6c-0.4,0-0.8,0.4-0.8,0.8v11.1c0,0.4,0.4,0.8,0.8,0.8h88.5c0.4,0,0.8-0.4,0.8-0.8
		V56.5c0-0.4-0.4-0.8-0.8-0.8H59.6z"/>
	<path class="st4" d="M194.5,130.1h-31.7c-1.2,0-2.2-1-2.2-2.2c0-1.2,1-2.2,2.2-2.2h31.7c1.2,0,2.2,1,2.2,2.2
		C196.8,129.1,195.8,130.1,194.5,130.1z"/>
	<path class="st6" d="M207.7,13.2h-27.2c-1.2,0-2.2-1-2.2-2.2s1-2.2,2.2-2.2h27.2c1.2,0,2.2,1,2.2,2.2S208.9,13.2,207.7,13.2z"/>
</g>
</svg>
