<svg xmlns="http://www.w3.org/2000/svg" width="323" height="223.16" viewBox="0 0 323 223.16"><defs><style>.cls-1{fill:#f2f2f2;}.cls-2{fill:#c00;}.cls-3{fill:#373737;}.cls-4{fill:#336dc2;}.cls-5{fill:#fff;}.cls-6{fill:#dcdcdc;}</style></defs><title>components</title><path class="cls-1" d="M0 0h323v223.16h-323z"/><path class="cls-2" d="M88.83 107.78h21.26v21.26h-21.26z"/><path class="cls-3" d="M232.23 122.8h-65.74a2 2 0 0 1-1.95-1.95v-10.74a2 2 0 0 1 1.95-1.95h65.74a2 2 0 0 1 1.95 1.95v10.75a2 2 0 0 1-1.95 1.94zm-65.74-13.48a.78.78 0 0 0-.78.78v10.75a.78.78 0 0 0 .78.78h65.74a.78.78 0 0 0 .78-.78v-10.74a.78.78 0 0 0-.78-.78zm22.22-5.69h-21.17a2.42 2.42 0 0 1 0-4.83h21.17a2.42 2.42 0 0 1 0 4.83z"/><rect class="cls-4" x="124.03" y="151.25" width="53.09" height="17.4" rx="1.7" ry="1.7"/><path class="cls-5" d="M162.12 162.37h-23.12a2.42 2.42 0 0 1 0-4.83h23.11a2.42 2.42 0 0 1 0 4.83z"/><path class="cls-3" d="M95.37 54.51h131.23v21.26h-131.23z"/><path class="cls-6" d="M133.51 67.55h-21.17a2.42 2.42 0 0 1 0-4.83h21.17a2.42 2.42 0 1 1 0 4.83zm37.68 0h-21.19a2.42 2.42 0 0 1 0-4.83h21.17a2.42 2.42 0 1 1 0 4.83zm37.68 0h-21.18a2.42 2.42 0 0 1 0-4.83h21.17a2.42 2.42 0 0 1 0 4.83z"/></svg>