<svg xmlns="http://www.w3.org/2000/svg" width="323" height="223.16" viewBox="0 0 323 223.16"><defs><style>.cls-1,.cls-8{fill:none;}.cls-2{fill:#f2f2f2;}.cls-3{fill:#3c81dc;}.cls-4{fill:#cc1801;}.cls-5{fill:#ebebeb;}.cls-6{fill:#373737;}.cls-7{clip-path:url(#clip-path);}.cls-8{stroke:#b1cef2;stroke-linecap:round;stroke-linejoin:round;stroke-width:1.93px;}</style><clipPath id="clip-path"><path class="cls-1" d="M234.42 106.9l15.18 26.28-15.18 26.29h-30.36l-15.17-26.29 15.17-26.28h30.36z"/></clipPath></defs><title>elements</title><path class="cls-2" d="M0 0h323v223.16h-323z"/><path class="cls-3" d="M117.23 97.79l9.67 16.74-9.67 16.75h-19.33l-9.67-16.75 9.67-16.74h19.33z"/><path class="cls-4" d="M88.79 81.04l9.67 16.75-9.67 16.74h-19.34l-9.67-16.74 9.67-16.75h19.34z"/><path class="cls-5" d="M88.37 114.53l9.67 16.75-9.67 16.75h-19.34l-9.66-16.75 9.66-16.75h19.34z"/><path class="cls-6" d="M117.44 131.28l9.67 16.75-9.67 16.74h-19.34l-9.67-16.74 9.67-16.75h19.34zm70.2-74.21h-39.83a3.15 3.15 0 0 1 0-6.29h39.83a3.15 3.15 0 1 1 0 6.29zm13.78 10.73h-54.34a2.42 2.42 0 0 1 0-4.83h54.34a2.42 2.42 0 1 1 0 4.83zm1.93 10.73h-56.27a2.42 2.42 0 0 1 0-4.83h56.27a2.42 2.42 0 1 1 0 4.83zm-7.73 10.72h-48.54a2.42 2.42 0 0 1 0-4.83h48.54a2.42 2.42 0 0 1 0 4.83z"/><path class="cls-8" d="M188.27 111.39h62.59m-62.59 10.92h62.59m-62.59 10.93h62.59m-62.59 10.92h62.59m-62.59 10.93h62.59m-53.14 12.07v-67.84m10.92 67.84v-67.84m10.93 67.84v-67.84m10.92 67.84v-67.84m10.93 67.84v-67.84"/></svg>