<svg xmlns="http://www.w3.org/2000/svg" width="323" height="223" viewBox="0 0 323 223"><defs><style>.cls-1{fill:#f2f2f2;}.cls-2{fill:#ebebeb;}.cls-3{fill:#fff;}.cls-4{fill:#373737;}.cls-5{fill:#336dc2;}.cls-6{fill:#c00;}.cls-7{fill:#dcdcdc;}.cls-8{fill:#222;}.cls-9{fill:#b6b6b6;}</style></defs><title>patterns</title><path class="cls-1" d="M0 .34h323v223h-323z"/><path class="cls-2" d="M155.67 90.81h95.35v74.42h-95.35z"/><rect class="cls-3" x="170.03" y="115.12" width="66.75" height="12.9" rx="2" ry="2"/><path class="cls-4" d="M235.73 128.9h-64.36a1.91 1.91 0 0 1-1.91-1.9v-10.53a1.91 1.91 0 0 1 1.91-1.9h64.36a1.9 1.9 0 0 1 1.9 1.9v10.53a1.9 1.9 0 0 1-1.9 1.9zm-64.36-13.19a.77.77 0 0 0-.77.76v10.53a.78.78 0 0 0 .77.77h64.36a.77.77 0 0 0 .76-.77v-10.53a.76.76 0 0 0-.76-.76zm21.76-5.58h-20.73a2.37 2.37 0 1 1 0-4.73h20.73a2.37 2.37 0 0 1 0 4.73z"/><rect class="cls-5" x="170.03" y="138.85" width="51.97" height="17.04" rx="1.82" ry="1.82"/><path class="cls-3" d="M207.33 149.73h-22.62a2.37 2.37 0 1 1 0-4.73h22.62a2.37 2.37 0 0 1 0 4.73z"/><path class="cls-4" d="M82.79 52.66h159.87v20.81h-159.87z"/><path class="cls-6" d="M82.79 52.66h20.81v20.81h-20.81z"/><path class="cls-7" d="M134.3 65.43h-20.73a2.37 2.37 0 0 1 0-4.73h20.73a2.37 2.37 0 0 1 0 4.73zm36.89 0h-20.73a2.37 2.37 0 1 1 0-4.73h20.73a2.37 2.37 0 0 1 0 4.73zm36.88 0h-20.73a2.37 2.37 0 0 1 0-4.73h20.73a2.37 2.37 0 1 1 0 4.73z"/><path class="cls-4" d="M71.98 86.24h51.95v84.1h-51.95z"/><path class="cls-8" d="M71.98 86.24h51.95v15.39h-51.95zm0 46.17h51.95v15.39h-51.95z"/><path class="cls-5" d="M71.98 117.02h51.95v15.39h-51.95z"/><path class="cls-3" d="M101.24 127h-20.73a2.37 2.37 0 0 1 0-4.74h20.73a2.37 2.37 0 0 1 0 4.74z"/><path class="cls-9" d="M101.24 111.83h-20.73a2.37 2.37 0 0 1 0-4.73h20.73a2.37 2.37 0 1 1 0 4.73z"/><path class="cls-7" d="M101.24 142.18h-20.73a2.37 2.37 0 0 1 0-4.73h20.73a2.37 2.37 0 1 1 0 4.73z"/><path class="cls-9" d="M101.24 157.51h-20.73a2.37 2.37 0 0 1 0-4.73h20.73a2.37 2.37 0 1 1 0 4.73zm0-15.18h-20.73a2.37 2.37 0 0 1 0-4.73h20.73a2.37 2.37 0 1 1 0 4.73z"/></svg>